<?xml version="1.0" encoding="UTF-8" standalone="no"?>
<!-- Created with Inkscape (http://www.inkscape.org/) -->

<svg
   width="210mm"
   height="297mm"
   viewBox="0 0 210 297"
   version="1.1"
   id="svg1"
   xml:space="preserve"
   sodipodi:docname="SpinozaSeal.svg"
   inkscape:version="1.4 (e7c3feb100, 2024-10-09)"
   xmlns:inkscape="http://www.inkscape.org/namespaces/inkscape"
   xmlns:sodipodi="http://sodipodi.sourceforge.net/DTD/sodipodi-0.dtd"
   xmlns="http://www.w3.org/2000/svg"
   xmlns:svg="http://www.w3.org/2000/svg"><sodipodi:namedview
     id="namedview1"
     pagecolor="#ffffff"
     bordercolor="#000000"
     borderopacity="0.25"
     inkscape:showpageshadow="2"
     inkscape:pageopacity="0.0"
     inkscape:pagecheckerboard="0"
     inkscape:deskcolor="#d1d1d1"
     inkscape:document-units="mm"
     inkscape:zoom="0.71179153"
     inkscape:cx="396.88587"
     inkscape:cy="561.25984"
     inkscape:window-width="1920"
     inkscape:window-height="1008"
     inkscape:window-x="0"
     inkscape:window-y="0"
     inkscape:window-maximized="1"
     inkscape:current-layer="layer1" /><defs
     id="defs1" /><g
     inkscape:label="Layer 1"
     inkscape:groupmode="layer"
     id="layer1"><path
       style="fill:#000000"
       d="m 108.13379,221.32485 0.52917,-0.52916 v -1.06401 -1.064 l -0.64954,-0.29595 -0.64953,-0.29595 -0.81621,0.33808 -0.81621,0.33809 -0.38634,0.55157 -0.38634,0.55158 v 0.56158 0.56158 l 0.48386,0.43788 0.48385,0.43788 h 0.83906 0.83907 z m -6.93804,0.11729 0.58804,-0.41187 v -0.89214 -0.89214 l -0.41537,-0.41538 -0.41538,-0.41538 -0.61446,-0.15422 -0.61446,-0.15422 -0.79019,0.40862 -0.79018,0.40862 -0.16435,0.4283 -0.16436,0.4283 v 0.38727 0.38726 l 0.64943,0.64943 0.64944,0.64943 h 0.7469 0.74691 z m 13.798,-0.54984 0.54837,-0.69714 v -0.77546 -0.77547 l -0.27389,-0.51177 -0.27389,-0.51177 h -0.73387 -0.73387 l -0.50975,0.37273 -0.50974,0.37274 0.0271,1.03412 0.0271,1.03413 0.30908,0.57752 0.30907,0.57751 h 0.63295 0.63294 z m -20.9867,-0.4979 0.66586,-0.66586 -0.0826,-0.84724 -0.0826,-0.84723 -0.67979,-0.37967 -0.67979,-0.37966 -0.70195,0.17618 -0.70195,0.17617 -0.53649,0.57586 -0.53649,0.57585 v 0.82324 0.82323 l 0.3175,0.3175 0.3175,0.3175 h 1.01745 1.01744 z m 28.02939,-0.77731 0.64943,-0.64943 v -0.63248 -0.63248 l -0.49635,-0.44919 -0.49635,-0.44919 -0.92257,-0.14971 -0.92257,-0.14972 -0.59591,0.31893 -0.59592,0.31893 0.15066,0.92841 0.15066,0.92841 0.41507,0.63348 0.41507,0.63347 h 0.79967 0.79968 z m -34.68744,0.0614 0.41188,-0.58804 v -0.88456 -0.88456 l -0.2739,-0.51178 -0.27389,-0.51177 h -0.63185 -0.63185 l -0.78517,0.66068 -0.78517,0.66068 -0.17324,0.69025 -0.17325,0.69026 0.41505,0.63344 0.41505,0.63344 h 1.03723 1.03723 z m -7.19853,-1.2832 0.45939,-0.26765 0.93433,-1.22365 0.93432,-1.22366 -0.58031,-0.61772 -0.58032,-0.61772 -0.90206,-0.24907 -0.90206,-0.24907 -0.59789,0.22732 -0.59788,0.22731 -0.43793,0.43793 -0.43793,0.43794 v 0.95881 0.95881 l 0.71096,0.74208 0.71095,0.74208 0.41352,-0.008 0.41352,-0.008 z m 49.3557,-0.92189 0.58804,-0.41187 v -0.40223 -0.40222 l -0.7734,-0.7734 -0.7734,-0.7734 h -0.94639 -0.9464 l -0.52916,0.52917 -0.52917,0.52916 v 0.4703 0.47029 l 0.41188,0.58804 0.41188,0.58804 h 1.24904 1.24904 z m 6.04883,-2.36684 0.15252,-0.39746 -0.18144,-0.72701 -0.18144,-0.72702 -0.41726,-0.46302 -0.41727,-0.46302 h -0.69983 -0.69982 l -0.3175,0.3175 -0.3175,0.3175 v 0.85812 0.85813 l 0.58803,0.41187 0.58804,0.41188 h 0.87548 0.87547 z m -61.12905,0.19498 0.29112,-0.19438 0.3042,-0.57792 0.30419,-0.57792 v -0.64317 -0.64317 l -0.54837,-0.69714 -0.54837,-0.69714 h -0.84797 -0.84796 l -0.56709,0.3972 -0.56709,0.39721 -0.16417,0.74745 -0.16417,0.74746 0.29207,0.76818 0.29206,0.76819 0.31417,0.19977 0.31418,0.19977 h 0.92604 0.92604 z m 34.89847,-1.44008 1.5875,-0.20135 1.85208,-0.91221 1.85208,-0.91221 0.75984,-0.79363 0.75983,-0.79364 0.22083,-1.14251 0.22083,-1.1425 0.0115,-9.07981 0.0115,-9.07981 -0.46302,0.12702 -0.46302,0.12701 -1.05834,0.1681 -1.05833,0.1681 -1.38906,0.39157 -1.38907,0.39156 v 0.35585 0.35585 l 0.52027,1.17615 0.52027,1.17616 0.41389,2.4955 0.41388,2.4955 0.15704,4.10104 0.15705,4.10104 -0.58704,0.73499 -0.58704,0.73498 -1.08032,0.55114 -1.08031,0.55113 -1.51427,0.13731 -1.51427,0.13731 -0.94449,-0.17719 -0.94449,-0.17718 -0.78095,-0.65712 -0.78094,-0.65712 -0.30334,-1.38288 -0.30334,-1.38287 -0.25112,-6.27899 -0.25112,-6.27899 -0.26002,-0.68389 -0.26001,-0.68388 -0.71701,0.0837 -0.71701,0.0837 -0.18253,0.66145 -0.18253,0.66146 -0.0264,3.17952 -0.0264,3.17951 0.27379,4.22882 0.27379,4.22882 0.38974,1.19901 0.38975,1.19901 0.79135,0.96004 0.79135,0.96005 1.18871,0.57544 1.1887,0.57544 1.3913,0.18291 1.39131,0.18292 z m 32.14687,-1.60523 0.66146,-0.33645 0.0788,-1.06584 0.0788,-1.06583 -0.51379,-0.46497 -0.51379,-0.46498 -1.25817,0.0818 -1.25818,0.0818 -0.5057,0.67992 -0.5057,0.67991 0.29947,0.65726 0.29947,0.65726 0.45287,0.28283 0.45288,0.28282 0.78506,0.16547 0.78507,0.16546 z m -73.55416,-0.11081 0.39687,-0.14184 0.33073,-0.41701 0.33073,-0.41701 v -0.73073 -0.73073 l -0.30474,-0.66883 -0.30473,-0.66882 -0.48902,-0.1552 -0.48901,-0.15521 -0.59531,0.17984 -0.59532,0.17985 -0.7276,0.68124 -0.7276,0.68123 v 0.45937 0.45936 l 0.68497,0.81405 0.68498,0.81405 0.70409,-0.0209 0.70408,-0.0209 z m 55.95937,-1.46709 1.5875,-0.8315 1.45521,-0.30109 1.45521,-0.30109 0.087,-0.44967 0.087,-0.44966 -0.80346,-0.91509 -0.80346,-0.91508 -0.29953,-1.11239 -0.29953,-1.11238 0.09,-2.43571 0.09,-2.43572 0.50387,-0.55624 0.50386,-0.55623 3.11413,-1.58768 3.11414,-1.58769 h 0.36985 0.36997 l 2.16216,2.21516 2.16215,2.21515 0.36204,0.86104 0.36205,0.86105 -0.1348,1.19586 -0.13479,1.19585 1.12177,-0.63046 1.12176,-0.63047 1.473,-1.19419 1.473,-1.19419 0.28828,-0.47056 0.28828,-0.47055 -0.39687,-0.253 -0.39688,-0.253 -0.86278,-0.004 -0.86277,-0.004 -1.25389,-0.5851 -1.25389,-0.5851 -6.48181,-4.8798 -6.48181,-4.87979 -0.85188,-0.35594 -0.85188,-0.35594 h -0.49665 -0.49666 l -0.42257,0.46693 -0.42256,0.46693 -0.27786,1.18672 -0.27786,1.18671 -0.39809,7.54063 -0.3981,7.54062 -0.27028,2.3107 -0.27027,2.3107 -0.25971,0.68309 -0.25972,0.68309 v 0.11506 0.11507 l 0.59532,-0.0127 0.59531,-0.0127 z m 2.92542,-16.66442 -0.41188,-0.58804 v -1.87259 -1.87258 l 0.30394,-0.30394 0.30394,-0.30395 0.68825,0.3597 0.68825,0.3597 0.69527,0.75122 0.69527,0.75123 0.31941,0.61995 0.31941,0.61996 -0.15249,0.6076 -0.1525,0.6076 -0.99448,0.41246 -0.99448,0.41245 -0.44802,0.0136 -0.44801,0.0136 z m -40.89313,15.45515 v -2.14025 l 0.544,-2.81892 0.54399,-2.81892 1.07297,-3.74295 1.07297,-3.74295 0.50508,-0.99219 0.50508,-0.99218 0.32535,0.004 0.32535,0.004 1.7198,1.4803 1.71979,1.4803 1.28053,1.02957 1.28053,1.02958 h 0.24082 0.24083 v -0.61088 -0.61087 l -0.94314,-1.57194 -0.94314,-1.57193 -0.83894,-0.87062 -0.83895,-0.87061 -1.45906,-0.41989 -1.45907,-0.41989 -3.1213,-1.15689 -3.12131,-1.1569 -1.37661,0.004 -1.37661,0.004 -1.05609,0.59812 -1.05609,0.59812 -0.0845,0.43896 -0.0845,0.43897 1.00833,0.28 1.00834,0.28001 1.39756,0.001 1.39756,10e-4 0.91754,0.38337 0.91755,0.38338 -0.003,0.60881 -0.003,0.60881 -2.45832,6.08542 -2.45832,6.08542 -0.71316,1.11778 -0.71317,1.11779 -0.65229,0.42739 -0.65228,0.42739 -1.06841,0.14331 -1.06842,0.1433 v 0.23364 0.23363 l 0.8374,0.50926 0.8374,0.50925 2.53604,0.82865 2.53604,0.82865 1.38906,0.15043 1.38906,0.15043 z m 61.1391,-0.82384 0.7734,-0.7734 v -0.94639 -0.9464 l -0.52917,-0.52917 -0.52916,-0.52916 h -0.90715 -0.90714 l -0.41538,0.41537 -0.41537,0.41538 -0.15422,0.61446 -0.15422,0.61446 0.41689,0.80619 0.4169,0.80618 0.58955,0.41294 0.58955,0.41293 h 0.22606 0.22606 z m -85.05102,-1.10149 0.82662,-0.23967 0.31591,-0.38065 0.31592,-0.38064 -0.0842,-0.87534 -0.0842,-0.87534 -0.71547,-0.34119 -0.71547,-0.34119 -0.91688,0.38309 -0.91688,0.3831 -0.28588,0.53417 -0.28588,0.53417 v 0.41427 0.41427 l 0.52917,0.52917 0.52916,0.52916 0.33073,-0.0239 0.33073,-0.0239 z m 90.41362,-3.37147 0.43788,-0.48385 v -0.98875 -0.98875 l -0.27389,-0.51177 -0.27389,-0.51178 h -0.79294 -0.79294 l -0.88524,0.36988 -0.88525,0.36988 -0.17821,0.28835 -0.17821,0.28836 1.24045,1.32614 1.24045,1.32614 h 0.45195 0.45196 z m -82.88723,-0.37604 0.0186,-0.0662 0.0665,-1.5875 0.0665,-1.5875 0.92724,-1.98437 0.92724,-1.98438 1.36613,-2.19933 1.36614,-2.19934 1.25657,-1.63301 1.25657,-1.63301 1.65726,-1.75678 1.65726,-1.75678 -3.43499,-3.32802 -3.435,-3.32802 -1.47443,-1.11322 -1.47444,-1.11321 -0.90042,0.42938 -0.90042,0.42938 -1.06998,0.96666 -1.06998,0.96667 v 0.35999 0.35999 l 0.59531,0.38267 0.59531,0.38268 1.51477,0.27468 1.51477,0.27468 0.76106,0.39356 0.76106,0.39356 0.83302,0.94876 0.83303,0.94877 v 0.66539 0.66539 l -0.42782,0.84676 -0.42783,0.84675 -0.54434,0.59531 -0.54434,0.59532 h -0.74762 -0.74763 l -1.05065,-1.05064 -1.05064,-1.05065 -0.80525,-1.59519 -0.80525,-1.59519 h -0.50506 -0.50505 l -0.82566,0.69474 -0.82565,0.69474 -0.51756,1.01451 -0.51757,1.01451 v 0.78868 0.78867 l 0.23419,0.14474 0.23419,0.14474 0.8021,-0.27961 0.80209,-0.27961 0.83161,0.43004 0.8316,0.43004 1.01161,0.91393 1.01161,0.91393 0.31635,0.76372 0.31634,0.76372 -0.45791,0.88552 -0.45792,0.88551 -1.05335,1.39516 -1.05336,1.39515 -0.95697,-0.70969 -0.95697,-0.7097 -1.13887,-0.91185 -1.13887,-0.91185 -0.82543,-1.46258 -0.82543,-1.46258 -2.50708,0.16468 -2.50708,0.16468 -0.12446,0.12446 -0.12445,0.12446 0.16363,0.65199 0.16364,0.65199 1.38949,1.52319 1.38949,1.52319 3.04271,2.66891 3.04271,2.66891 1.5875,1.21511 1.5875,1.21512 0.84676,0.43541 0.84675,0.4354 h 0.14544 0.14543 z m -11.45459,-1.13948 0.58804,-0.41188 v -0.86047 -0.86047 l -0.37115,-0.50758 -0.37115,-0.50757 h -1.1123 -1.11231 l -0.50092,0.61861 -0.50092,0.61861 v 0.51188 0.51188 l 0.64943,0.64943 0.64943,0.64943 h 0.74691 0.7469 z m 99.14533,-3.06865 0.52916,-0.28943 0.33073,-0.41455 0.33073,-0.41455 v -0.88202 -0.88202 l -0.7276,-0.27942 -0.72761,-0.27942 -0.92604,0.14474 -0.92604,0.14475 -0.59531,0.68514 -0.59531,0.68515 v 0.27018 0.27018 l 0.77339,0.7734 0.7734,0.77339 0.61567,-0.008 0.61566,-0.008 z m -104.11706,-1.21583 0.79858,-0.7276 0.15608,-0.81673 0.15607,-0.81673 -0.63354,-0.73654 -0.63354,-0.73654 -1.15856,0.016 -1.15855,0.016 -0.67974,0.50597 -0.67974,0.50597 -0.23644,0.66342 -0.23645,0.66343 0.17972,0.71605 0.17971,0.71605 0.90813,0.37943 0.90813,0.37944 h 0.66578 0.66578 z m 109.12062,-4.84896 0.68498,-0.81405 v -0.86473 -0.86473 l -0.50258,-0.45483 -0.50257,-0.45482 -0.81118,-0.0231 -0.81117,-0.0231 -0.44659,0.37063 -0.44658,0.37063 -0.31537,0.75005 -0.31537,0.75005 0.12411,0.64928 0.12412,0.64927 0.74783,0.38672 0.74782,0.38671 h 0.51879 0.51878 z m -11.35356,-0.34379 0.79375,-0.37314 1.7746,-1.81419 1.77461,-1.8142 0.40821,-0.98369 0.4082,-0.98369 v -2.87089 -2.87089 l -0.42407,-1.42801 -0.42407,-1.42801 -1.89104,-1.88558 -1.89103,-1.88557 -1.71979,-0.81677 -1.71979,-0.81677 -1.76393,-0.30662 -1.76392,-0.30663 -1.54337,0.31803 -1.54336,0.31802 -1.63432,0.73828 -1.63432,0.73829 -0.71855,1.14983 -0.71855,1.14984 -2.22174,2.43085 -2.22173,2.43086 1.98827,2.06047 1.98828,2.06048 0.24314,-0.258 0.24314,-0.258 0.10944,-2.38125 0.10944,-2.38125 0.73137,-1.45521 0.73137,-1.4552 0.68612,-0.72149 0.68613,-0.72149 0.92048,-0.30379 0.92048,-0.30378 1.38876,0.14333 1.38877,0.14334 1.549,0.74964 1.549,0.74965 1.9097,1.872 1.9097,1.87201 0.66812,1.43529 0.66812,1.43529 0.002,1.32291 0.002,1.32292 -0.75875,1.5875 -0.75876,1.5875 -0.6301,0.57769 -0.6301,0.57769 -0.66146,0.2496 -0.66145,0.24961 -2.16813,0.19113 -2.16813,0.19113 -0.4777,0.35087 -0.47771,0.35087 0.79375,0.32605 0.79375,0.32605 2.64583,0.0951 2.64584,0.0951 z m -102.68088,-0.44117 0.7712,-0.23062 0.21693,-0.34196 0.21694,-0.34195 0.004,-0.98609 0.004,-0.98608 -0.63344,-0.41505 -0.63344,-0.41505 -0.75562,0.18622 -0.75562,0.18622 -0.5957,0.3857 -0.5957,0.38571 -0.2185,0.82921 -0.21849,0.82921 0.11105,0.43856 0.11105,0.43856 0.57085,0.15314 0.57086,0.15314 0.52916,-0.0191 0.52917,-0.0191 z m 117.5003,-4.38209 0.62584,-0.67529 0.17211,-0.7836 0.1721,-0.78359 -0.4236,-0.64651 -0.42361,-0.6465 -0.70838,-0.1778 -0.70839,-0.17779 -0.93385,0.50432 -0.93386,0.50432 -0.40493,0.74752 -0.40494,0.74751 0.90308,0.76301 0.90307,0.76301 0.76976,0.26834 0.76976,0.26834 z m -121.63397,-0.53929 0.87087,-0.43549 0.53887,-0.68507 0.53888,-0.68507 -0.15081,-0.75405 -0.15081,-0.75404 -0.54935,-0.77149 -0.54934,-0.77148 h -0.36965 -0.36965 l -0.94877,0.83303 -0.94876,0.83302 -0.38336,0.74134 -0.38336,0.74133 v 0.49174 0.49173 l 0.33073,0.43297 0.33073,0.43296 0.66146,0.14704 0.66146,0.14703 z m 49.45841,-1.44271 2.43969,-0.21742 0.73531,-0.38508 0.73531,-0.38508 0.81494,-0.88247 0.81495,-0.88247 1.22406,-1.75107 1.22405,-1.75106 1.29023,-1.15935 1.29023,-1.15935 3.63211,-1.98438 3.6321,-1.98437 0.94279,-0.85945 0.94278,-0.85945 -0.32975,-0.39732 -0.32975,-0.39733 h -2.43057 -2.43058 l -0.51359,-0.39765 -0.51359,-0.39764 1.5175,-1.43936 1.51749,-1.43936 2.9615,-2.14312 2.9615,-2.14311 3.005,-1.86454 3.005,-1.86454 0.41017,-0.626 0.41016,-0.62599 -0.17071,-0.27622 -0.17071,-0.27622 h -0.5995 -0.5995 l -1.83228,0.63363 -1.83228,0.63364 -3.08862,1.21845 -3.08862,1.21845 h -0.53379 -0.53379 l -0.15373,-0.24874 -0.15373,-0.24875 0.84462,-0.96196 0.84461,-0.96196 2.79923,-1.8512 2.79923,-1.85119 2.38125,-1.15349 2.38125,-1.15348 2.62698,-1.21419 2.62699,-1.2142 -0.30892,-0.30892 -0.30892,-0.30892 -5.49306,0.31644 -5.49307,0.31644 -0.77651,-0.21476 -0.77651,-0.21476 -0.11049,-0.33149 -0.1105,-0.33148 1.08684,-1.03388 1.08683,-1.03388 1.91684,-0.91984 1.91684,-0.91983 2.02428,-0.5535 2.02429,-0.55349 2.60592,-0.22816 2.60592,-0.22815 1.56589,-0.55238 1.56589,-0.55237 1.96955,-1.12689 1.96955,-1.12689 2.20747,-2.06532 2.20746,-2.06532 1.16127,-1.7731 1.16128,-1.7731 0.42912,-1.10763 0.42913,-1.10763 0.67034,-2.64448 0.67034,-2.64449 v -0.67965 -0.67966 h -0.18944 -0.18943 l -2.52254,0.51832 -2.52255,0.51831 -3.4904,0.66887 -3.49041,0.66887 -1.50246,0.66446 -1.50247,0.66446 -1.754,1.25016 -1.754,1.25016 -5.65448,5.54859 -5.65448,5.54859 -0.37828,-0.51446 -0.37828,-0.51446 -1.82704,-3.59734 -1.82704,-3.59734 -1.73135,-2.60763 -1.73134,-2.60763 v -0.35254 -0.35254 l 2.05052,-1.28552 2.05052,-1.28553 0.87208,-0.72648 0.87208,-0.72648 0.43244,-0.82319 0.43244,-0.82319 0.19959,-5.95313 0.19959,-5.95312 -0.25277,-0.97448 -0.25277,-0.97449 -1.16954,-1.02946 -1.16954,-1.02947 -1.10961,-0.33245 -1.10961,-0.33245 -3.33782,-0.52148 -3.33781,-0.52148 -1.5875,0.004 -1.5875,0.004 -1.56636,0.53986 -1.56636,0.53986 -1.15335,0.67591 -1.15335,0.67591 -1.62588,1.56645 -1.62588,1.56645 -1.36321,0.39629 -1.3632,0.39629 -1.44187,0.94955 -1.44187,0.94955 -0.59587,0.86961 -0.59586,0.86962 -0.26077,2.29487 -0.26076,2.29487 -0.7901,2.37814 -0.7901,2.37815 v 1.14756 1.14756 l 0.59531,0.89903 0.59531,0.89902 1.71979,0.84875 1.71979,0.84875 1.98438,0.39389 1.98437,0.39389 3.70417,0.27764 3.70417,0.27764 3.33575,10e-4 3.33575,0.001 1.10809,2.41891 1.10809,2.41891 0.69404,2.27744 0.69404,2.27745 0.0194,3.43958 0.0194,3.43959 -0.76875,2.60467 -0.76874,2.60467 -0.55211,0.81451 -0.55211,0.81452 -0.32477,0.1066 -0.32477,0.10661 -0.64602,-0.69708 -0.64603,-0.69707 -1.1191,-2.16726 -1.11911,-2.16726 -1.18175,-1.85208 -1.18176,-1.85208 -2.16259,-2.11667 -2.16259,-2.11667 -5.54596,-3.8651 -5.54596,-3.86511 -1.85209,-1.21933 -1.85208,-1.21933 -1.71979,-0.43988 -1.71979,-0.43988 -2.91042,0.14898 -2.91042,0.14898 -3.17244,0.80916 -3.17244,0.80915 -1.45777,0.72972 -1.45776,0.72972 -0.0771,0.53827 -0.0771,0.53826 1.38158,1.97528 1.38157,1.97528 3.06112,3.09207 3.06113,3.09207 1.74468,0.81617 1.74468,0.81616 1.9346,0.40338 1.9346,0.40337 6.63947,0.37381 6.63947,0.37381 1.40483,0.42274 1.40482,0.42274 1.04001,0.93958 1.04,0.93959 0.84507,1.71657 0.84507,1.71658 0.11346,2.16175 0.11347,2.16175 -0.57356,3.78695 -0.57357,3.78694 -0.24356,0.64063 -0.24357,0.64063 h -0.50975 -0.50975 l -2.76205,-1.17985 -2.76206,-1.17984 -1.16651,-0.2689 -1.16652,-0.26889 -1.23787,-0.006 -1.23787,-0.006 -0.41525,0.41525 -0.41525,0.41525 0.27829,0.51999 0.27828,0.51998 2.21431,1.05202 2.2143,1.05201 0.93914,1.27937 0.93914,1.27936 1.11487,2.32344 1.11486,2.32344 0.11016,2.14901 0.11015,2.14901 -0.51237,1.32292 -0.51237,1.32291 -1.37481,2.38125 -1.37482,2.38125 0.73564,0.16714 0.73564,0.16713 0.39687,-0.005 0.39688,-0.005 z m 0.47992,-2.18391 -0.48881,-0.35743 0.16837,-1.22843 0.16838,-1.22844 0.64619,-1.27519 0.64619,-1.27519 1.59544,-1.76051 1.59544,-1.76051 -0.15795,-3.14159 -0.15796,-3.1416 0.46535,-4.93066 0.46535,-4.93065 -0.12652,-3.64421 -0.12652,-3.6442 -0.45272,-1.2421 -0.45271,-1.24209 -1.06463,-1.20948 -1.06463,-1.20949 -1.10698,-0.64873 -1.10698,-0.64874 -1.18196,-0.43543 -1.18195,-0.43544 -6.48229,-0.21552 -6.4823,-0.21552 -1.88126,-0.39398 -1.88126,-0.39397 -1.82303,-0.91807 -1.82303,-0.91806 -1.65803,-1.24636 -1.65802,-1.24636 -0.26008,-0.48596 -0.26008,-0.48596 v -0.31606 -0.31606 l 1.28243,0.17012 1.28243,0.17012 4.54377,1.42911 4.54377,1.42912 1.05297,0.1779 1.05297,0.1779 v -0.27978 -0.27978 l -1.91823,-1.30229 -1.91823,-1.30229 -0.76198,-0.80664 -0.76197,-0.80665 0.15816,-0.41216 0.15816,-0.41216 1.26527,0.50199 1.26527,0.50199 4.8948,2.11031 4.89479,2.1103 0.59531,0.18315 0.59531,0.18315 v -0.39748 -0.39748 l -0.25447,-0.66931 -0.25447,-0.66932 0.21446,-0.13254 0.21446,-0.13255 1.98628,1.30398 1.98629,1.30397 2.08862,2.20829 2.08862,2.20828 1.41343,2.04721 1.41342,2.04721 0.51583,1.46763 0.51583,1.46763 -0.004,2.68723 -0.004,2.68722 -0.40353,3.02588 -0.40354,3.02589 v 1.03106 1.03106 l 0.28372,-0.0946 0.28372,-0.0946 3.95816,-7.79883 3.95816,-7.79883 0.37109,-1.98437 0.3711,-1.98438 0.18901,-4.96094 0.18902,-4.96093 h 0.19696 0.19696 l 0.74073,1.78593 0.74073,1.78594 0.015,2.7118 0.015,2.71179 0.44405,1.9e-4 0.44406,1.8e-4 3.65698,-3.47519 3.65699,-3.47518 0.59643,-0.27196 0.59643,-0.27196 0.18119,0.18118 0.18118,0.18119 -0.57627,1.364 -0.57628,1.36401 0.12388,0.12388 0.12389,0.12388 2.4529,-1.61442 2.4529,-1.61442 1.027,-0.42665 1.02701,-0.42664 0.272,0.272 0.27199,0.27199 -0.70058,1.00288 -0.70058,1.00287 -0.43733,0.60296 -0.43734,0.60297 0.67269,-0.25576 0.6727,-0.25576 1.94435,-0.97496 1.94434,-0.97497 1.83335,-1.22432 1.83336,-1.22433 3.14927,-2.97656 3.14927,-2.97656 h 0.47917 0.47917 l 0.13656,0.35586 0.13656,0.35587 -0.49571,1.1072 -0.49571,1.1072 -1.17041,1.51349 -1.17042,1.5135 -1.94786,1.87368 -1.94785,1.87368 -1.19063,0.67617 -1.19062,0.67618 -1.32292,0.42107 -1.32292,0.42107 -1.98437,0.41504 -1.98437,0.41505 -4.00242,0.61874 -4.00242,0.61874 -1.28925,0.74297 -1.28925,0.74296 -1.71979,1.74567 -1.71979,1.74566 -0.74254,1.5001 -0.74254,1.50009 -0.0512,0.73781 -0.0512,0.73782 1.05833,-0.0198 1.05834,-0.0197 2.04188,-0.76941 2.04188,-0.7694 0.31989,0.31989 0.31988,0.31989 -0.49563,0.54766 -0.49563,0.54767 -1.52006,0.81019 -1.52006,0.81018 -2.59504,2.31635 -2.59503,2.31634 -1.98437,2.29857 -1.98438,2.29858 -0.62305,1.04642 -0.62305,1.04642 0.15172,0.39539 0.15173,0.3954 h 0.3579 0.35789 l 2.42069,-1.55215 2.42069,-1.55215 0.81631,-0.33813 0.81632,-0.33813 0.27437,0.27437 0.27438,0.27438 -0.27752,0.51854 -0.27752,0.51855 -2.33053,1.72865 -2.33054,1.72865 -1.91437,2.01534 -1.91438,2.01534 v 0.52837 0.52837 h 0.53971 0.53971 l 0.98164,-0.49746 0.98165,-0.49746 1.09288,-0.18192 1.09288,-0.18191 0.95764,0.17965 0.95764,0.17966 v 0.20889 0.2089 l -2.44739,1.19732 -2.4474,1.19731 -1.5875,1.28261 -1.5875,1.2826 -1.88337,2.50726 -1.88337,2.50726 -0.86774,0.59531 -0.86773,0.59531 H 94.9168 94.47733 Z m 1.06414,-9.75561 -0.41188,-0.58804 v -0.60258 -0.60259 h 0.2289 0.22891 l 0.69714,0.54837 0.69714,0.54837 v 0.64226 0.64225 H 95.97796 95.4638 Z m -10.53351,-37.49787 -1.2294,-0.77967 -1.53438,-1.40315 -1.53438,-1.40315 -2.44739,-1.29375 -2.4474,-1.29376 v -0.2276 -0.22759 h 0.65391 0.65392 l 1.45424,0.64313 1.45425,0.64314 1.90424,1.23185 1.90424,1.23184 1.54385,1.47259 1.54385,1.47258 v 0.3566 0.3566 h -0.34508 -0.34507 z m 10.43913,-8.53367 -0.3175,-0.3175 v -0.46705 -0.46704 l 0.80794,-0.9202 0.80795,-0.92019 0.15652,-0.96453 0.15652,-0.96453 -0.60897,0.0896 -0.60896,0.0896 -0.87702,1.58684 -0.87703,1.58684 -0.56927,0.25402 -0.56928,0.25402 -0.43055,-0.55272 -0.43056,-0.55272 -0.28473,-0.48061 -0.28473,-0.48062 -1.35181,0.58154 -1.35182,0.58154 H 87.3637 86.40317 l -0.57792,-0.29765 -0.57792,-0.29765 -0.59531,-0.54222 -0.59531,-0.54222 v -0.9661 -0.96609 l 0.60284,-0.56634 0.60285,-0.56635 1.18309,-0.4205 1.18309,-0.42051 1.80324,-0.38219 1.80323,-0.38218 h 0.64416 0.64417 v 0.28867 0.28867 l -0.92605,1.08187 -0.92604,1.08187 v 0.25158 0.25157 l 0.96398,-0.15643 0.96399,-0.15643 0.58505,-0.54964 0.58506,-0.54963 2.92688,-1.14695 2.92688,-1.14696 0.88189,-0.59829 0.8819,-0.59829 2.11666,-2.20867 2.11667,-2.20866 0.8599,-0.17022 0.85989,-0.17021 v -0.48678 -0.48679 l -0.53067,-0.28401 -0.53068,-0.28401 0.16869,-1.05493 0.16869,-1.05493 -0.71357,0.2713 -0.71357,0.2713 h -0.51195 -0.51194 l -0.52916,-0.52917 -0.52917,-0.52917 -0.33073,0.006 -0.33073,0.006 -0.66146,0.5174 -0.66146,0.5174 -0.29845,0.006 -0.29846,0.006 -0.40316,-0.59532 -0.40315,-0.59531 -0.89849,0.8599 -0.89848,0.85989 H 97.5587 97.19525 l -0.45987,-0.41618 -0.45987,-0.41617 -0.86025,0.94534 -0.86024,0.94535 h -0.46461 -0.4646 l -0.11362,-0.33073 -0.11362,-0.33073 0.21865,-0.77384 0.21865,-0.77383 0.73282,-0.77252 0.73281,-0.77252 1.5875,-0.80822 1.5875,-0.80821 1.32292,-0.35427 1.32291,-0.35427 0.95651,-0.003 0.95651,-0.003 0.7045,0.55416 0.70451,0.55417 1.77857,0.26513 1.77857,0.26513 1.15991,0.28334 1.15992,0.28335 1.0229,0.97306 1.02289,0.97306 v 0.44375 0.44376 l -1.03879,1.12696 -1.0388,1.12696 -0.17356,0.6915 -0.17355,0.6915 0.83897,1.91152 0.83897,1.91152 -0.16883,0.89997 -0.16884,0.89997 -0.84458,0.96192 -0.84457,0.96192 -1.0606,0.48182 -1.06061,0.48182 -1.11468,0.006 -1.11468,0.006 -1.31072,-0.51664 -1.31071,-0.51663 -0.25814,0.31819 -0.25813,0.3182 -0.45663,1.64098 -0.45663,1.64097 -0.51401,0.46517 -0.51401,0.46517 -0.24438,-0.38635 -0.24438,-0.38636 -0.008,-0.79375 -0.008,-0.79375 -0.15954,-0.59531 -0.15954,-0.59531 h -0.34818 -0.34819 l -0.12845,0.46302 -0.12845,0.46302 -0.17528,1.5875 -0.17529,1.5875 -0.38165,0.59531 -0.38165,0.59532 h -0.99932 -0.99932 z m 12.54402,-8.57961 1.02911,-0.69502 0.19438,-0.29717 0.19439,-0.29716 0.004,-0.17954 0.004,-0.17954 -0.41577,-0.41577 -0.41578,-0.41578 h -0.91917 -0.91916 l -0.64944,0.64943 -0.64943,0.64944 v 0.62056 0.62057 l 0.3175,0.3175 0.3175,0.3175 h 0.43933 0.43933 z m -21.05429,-1.13967 -0.27389,-0.51177 v -1.34881 -1.34881 l 0.36771,-0.88007 0.36772,-0.88007 0.60822,-0.56664 0.60821,-0.56664 h 1.21696 1.21697 l 1.16378,0.59532 1.16378,0.59531 0.266,0.44084 0.266,0.44084 -0.34778,0.41906 -0.34778,0.41905 -1.09209,0.006 -1.09208,0.006 -1.09891,0.49897 -1.09891,0.49898 -0.17494,0.55118 -0.17494,0.55118 0.16645,0.26932 0.16645,0.26932 -0.1672,0.5268 -0.1672,0.5268 h -0.63432 -0.63432 z m 11.8328,-2.30134 -1.25476,-0.17053 -0.29899,-0.36026 -0.29899,-0.36026 0.31815,-0.38334 0.31814,-0.38334 0.92856,-0.30646 0.92857,-0.30645 0.81099,0.1622 0.81099,0.1622 0.35595,0.29541 0.35595,0.29541 v 0.71725 0.71726 l -0.19521,0.1952 -0.19521,0.19521 -0.66469,-0.14948 -0.66469,-0.14948 z m 70.94506,65.37787 0.82116,-0.93525 -0.004,-0.32152 -0.004,-0.32152 -0.19439,-0.29112 -0.19438,-0.29112 -0.57792,-0.3042 -0.57792,-0.30419 h -0.90776 -0.90775 l -0.69714,0.54837 -0.69714,0.54837 v 0.46896 0.46895 l 0.46302,0.40598 0.46302,0.40598 0.84676,0.42878 0.84676,0.42878 h 0.25031 0.25031 z m -128.95696,-0.27458 0.79375,-0.41283 0.59531,-0.55771 0.59531,-0.55771 v -0.33185 -0.33186 l -0.41577,-0.41577 -0.41577,-0.41578 h -1.02468 -1.02468 l -0.71774,0.61737 -0.71773,0.61737 0.0237,0.83431 0.0237,0.83431 0.1657,0.26811 0.1657,0.26812 0.5797,-0.002 0.5797,-0.002 z m 131.88547,-5.65195 0.2739,-0.51177 v -1.03472 -1.03472 l -0.48386,-0.43788 -0.48385,-0.43788 h -0.81876 -0.81877 l -0.81405,0.68498 -0.81405,0.68497 v 0.49294 0.49294 l 1.17215,0.80646 1.17216,0.80646 h 0.67062 0.67062 z m -133.42766,-0.66161 0.83907,-0.37105 0.30422,-0.56844 0.30422,-0.56844 -0.41903,-0.63952 -0.41903,-0.63951 -0.67409,-0.16919 -0.67409,-0.16918 -1.1058,0.14831 -1.10579,0.14832 -0.47897,0.59151 -0.47898,0.59151 0.0794,0.94651 0.0794,0.94652 1.45521,0.0619 1.45521,0.0618 z m 135.66244,-5.94441 0.45541,-0.50321 -0.0837,-1.01814 -0.0837,-1.01814 -0.90192,-0.0861 -0.90192,-0.086 -1.1634,0.4443 -1.16339,0.44431 0.0809,0.55869 0.0809,0.55869 0.89902,0.6044 0.89902,0.6044 h 0.71362 0.71361 z m -137.21588,-0.34345 0.3175,-0.3175 v -0.49661 -0.4966 l -0.77339,-0.7734 -0.7734,-0.77339 h -1.21098 -1.21098 l -0.52916,0.52916 -0.52917,0.52917 v 0.24294 0.24295 l 0.16435,0.4283 0.16436,0.4283 0.74855,0.38709 0.74855,0.38709 h 1.28313 1.28314 z m 138.76073,-6.0383 0.46302,-0.28508 v -0.60968 -0.60967 l -0.64883,-0.7001 -0.64882,-0.70009 h -0.55494 -0.55494 l -0.77678,0.40169 -0.77678,0.40169 -0.17042,0.67903 -0.17043,0.67904 0.41142,0.41143 0.41142,0.41142 1.27653,0.1027 1.27653,0.10271 z m -141.41251,-0.1415 0.58803,-0.41188 v -1.02832 -1.02833 l -0.58803,-0.41188 -0.58804,-0.41188 h -0.88753 -0.88752 l -0.7734,0.7734 -0.77339,0.7734 v 0.69531 0.69531 l 0.91754,0.38338 0.91754,0.38337 h 0.74338 0.74338 z m 18.65414,-2.2447 1.52964,-0.23688 0.92649,-0.43964 0.92648,-0.43965 0.94082,-1.09019 0.94081,-1.09018 0.64447,-1.26084 0.64446,-1.26083 0.42015,-1.63998 0.42014,-1.63998 -0.17188,-1.46246 -0.17189,-1.46246 -0.62712,-1.36981 -0.62713,-1.36982 -1.05985,-1.54296 -1.05986,-1.54295 -2.63405,-3.26539 -2.63404,-3.2654 -0.60305,-1.20749 -0.60305,-1.20749 0.0219,-0.77098 0.0219,-0.77097 0.30292,-0.365 0.30292,-0.365 0.83873,-0.27141 0.83874,-0.2714 2.85928,-0.26601 2.85928,-0.26601 0.92269,-0.43784 0.92268,-0.43784 0.4213,-0.8147 0.4213,-0.81471 v -0.94507 -0.94507 l -0.44755,-0.86546 -0.44755,-0.86547 -1.22783,-0.77866 -1.22783,-0.77867 -0.54351,0.004 -0.54352,0.004 -0.30099,0.19439 -0.30099,0.19438 -0.40421,0.9709 -0.40422,0.97089 -0.48542,0.25066 -0.48542,0.25066 -3.43642,0.18381 -3.43643,0.18381 -1.26423,0.27113 -1.26423,0.27113 -1.24367,0.83705 -1.24366,0.83705 -0.8615,1.1356 -0.86149,1.13561 -0.27119,1.00713 -0.2712,1.00713 0.36064,1.19831 0.36064,1.19831 0.96518,1.45411 0.96518,1.4541 4.05262,4.41723 4.05262,4.41723 0.90482,1.49295 0.90483,1.49295 v 1.22152 1.22151 l -0.72469,0.95011 -0.72468,0.95011 -0.92145,0.3041 -0.92145,0.30411 -0.71132,-0.34877 -0.71132,-0.34877 -0.51383,-0.69459 -0.51384,-0.6946 -0.21257,-1.93651 -0.21258,-1.93651 -0.47243,-0.34546 -0.47244,-0.34545 h -0.88397 -0.88397 l -0.8514,0.35722 -0.8514,0.35723 -1.00247,1.03184 -1.00247,1.03183 -0.39799,1.36371 -0.398,1.36371 0.17499,0.75296 0.175,0.75296 0.62067,1.08926 0.62067,1.08926 1.49668,1.36788 1.49668,1.36788 0.82792,0.44342 0.82791,0.44343 3.0427,0.0568 3.04271,0.0568 z m -6.57947,-2.23019 -1.30941,-0.38885 -0.97465,-1.00021 -0.97466,-1.00021 -0.42266,-1.01449 -0.42266,-1.01448 0.17569,-1.17158 0.17569,-1.17158 0.19477,-0.12038 0.19477,-0.12037 0.30459,1.01664 0.30459,1.01664 1.14524,1.05564 1.14523,1.05564 1.5098,0.56489 1.5098,0.56489 0.98226,-0.006 0.98227,-0.006 1.0845,-0.49253 1.08451,-0.49252 0.53241,-0.75844 0.53242,-0.75843 0.33377,-1.02841 0.33378,-1.0284 -0.12344,-1.88201 -0.12345,-1.88202 -0.72699,-1.42805 -0.72699,-1.42805 -4.0185,-4.16211 -4.0185,-4.1621 -0.78593,-1.1341 -0.78593,-1.1341 v -2.18603 -2.18603 l 0.5535,-0.74701 0.55349,-0.747 0.84044,-0.57223 0.84044,-0.57223 1.91336,-0.34292 1.91336,-0.34293 4.09603,-0.0109 4.09603,-0.0109 0.0917,0.46883 0.0917,0.46882 -1.27729,0.58786 -1.27729,0.58785 -2.82551,0.0348 -2.8255,0.0348 -0.92886,0.17426 -0.92886,0.17425 -0.67741,0.80505 -0.6774,0.80506 v 0.7379 0.7379 l 0.92492,1.82149 0.92492,1.82148 1.91935,2.34158 1.91935,2.34159 2.27056,2.88866 2.27056,2.88866 0.63147,1.25205 0.63146,1.25205 -0.0154,1.4552 -0.0154,1.45521 -0.58455,1.32292 -0.58456,1.32292 -0.97913,1.01504 -0.97913,1.01505 -1.25569,0.64251 -1.25569,0.64251 -0.99327,0.23409 -0.99326,0.2341 -1.60563,0.0266 -1.60562,0.0266 z m 130.39292,-1.74719 0.45978,-0.26787 0.27586,-0.51544 0.27586,-0.51545 -0.39687,-0.76745 -0.39686,-0.76746 -0.84128,-0.29327 -0.84127,-0.29327 h -0.36128 -0.36128 l -0.52429,0.8599 -0.52429,0.8599 -9.9e-4,0.67468 -9.9e-4,0.67469 0.3175,0.3175 0.3175,0.3175 1.07157,-0.008 1.07156,-0.008 z m -143.83879,-0.2731 0.50403,-0.55705 -0.0258,-1.1812 -0.0258,-1.18119 -0.55063,-0.55063 -0.55062,-0.55062 -0.81799,0.33882 -0.81798,0.33882 -0.6561,0.77973 -0.65611,0.77973 v 0.75845 0.75844 l 0.58804,0.41188 0.58804,0.41188 h 0.95845 0.95846 z m 131.48657,-5.27738 3.1888,-0.23034 1.01872,-0.34105 1.01871,-0.34104 0.26708,-0.42819 0.26707,-0.42819 -0.54463,-0.76486 -0.54463,-0.76487 -0.27935,-1.0559 -0.27936,-1.05591 -0.4066,-3.70417 -0.4066,-3.70417 -0.26744,-4.22881 -0.26745,-4.22882 v -3.53296 -3.53297 l 0.44985,-1.6882 0.44984,-1.6882 -0.20722,-0.20731 -0.20722,-0.20731 -4.24335,-0.0946 -4.24336,-0.0946 -2.93994,0.30783 -2.93994,0.30783 -1.06297,0.47021 -1.06298,0.47021 -0.84258,0.95966 -0.84258,0.95966 -0.66897,1.14151 -0.66897,1.14152 -0.42506,1.65915 -0.42505,1.65915 0.18492,0.84787 0.18492,0.84786 0.65567,0.78173 0.65567,0.78173 -0.12154,1.26485 -0.12153,1.26484 -1.20538,2.46079 -1.20537,2.4608 -0.32608,1.65742 -0.32607,1.65742 0.16064,1.7203 0.16064,1.72031 0.71318,1.58916 0.71318,1.58917 1.14854,1.01099 1.14855,1.01099 1.12351,0.32416 1.12351,0.32415 4.63021,0.0807 4.63021,0.0807 z m -11.78347,-1.94377 -1.4053,-0.70585 -0.98789,-0.78242 -0.98789,-0.78242 -0.44343,-0.93446 -0.44343,-0.93447 -0.1553,-2.74226 -0.15529,-2.74226 0.55939,-1.15455 0.5594,-1.15456 1.82986,-1.81506 1.82986,-1.81506 -1.3242,-2.7721 -1.3242,-2.7721 0.12466,-1.29739 0.12466,-1.29739 0.9638,-1.45159 0.9638,-1.45159 1.03774,-0.52942 1.03774,-0.52941 1.94014,-0.30158 1.94013,-0.30158 2.70918,0.11995 2.70918,0.11995 0.5016,0.45394 0.5016,0.45394 0.16267,0.81334 0.16266,0.81334 0.52557,7.30907 0.52558,7.30907 0.27174,4.8948 0.27174,4.89479 -0.541,0.44598 -0.54101,0.44597 -1.39455,0.28951 -1.39455,0.28951 -2.10291,0.23795 -2.10291,0.23795 -2.27177,-0.0779 -2.27177,-0.0778 z m 8.72696,-1.51044 0.92604,-0.27948 0.5642,-0.52449 0.5642,-0.52449 0.17085,-1.06847 0.17086,-1.06847 -0.30689,-3.47092 -0.30689,-3.47092 -0.29587,-1.19279 -0.29587,-1.19279 -0.73323,-0.25711 -0.73323,-0.25711 -2.0449,0.29818 -2.04489,0.29817 -1.32292,0.44131 -1.32292,0.4413 -1.2419,0.78682 -1.2419,0.78682 -0.54403,1.12383 -0.54404,1.12383 v 1.67171 1.6717 l 0.302,1.008 0.30201,1.008 0.80268,0.9738 0.80269,0.97379 0.82958,0.34662 0.82958,0.34663 2.89438,0.14301 2.89437,0.14301 z m -5.68854,-2.23849 -1.32292,-0.62944 -0.60252,-0.89393 -0.60253,-0.89392 -0.24572,-0.85676 -0.24571,-0.85676 0.41637,-1.04061 0.41636,-1.04061 1.07758,-0.92236 1.07757,-0.92236 1.40186,-0.4419 1.40187,-0.4419 0.99514,0.24582 0.99515,0.24583 0.48152,0.9853 0.48153,0.98531 0.005,2.92739 0.005,2.92739 -0.41491,0.63324 -0.41491,0.63323 -0.73339,0.10658 -0.73339,0.10658 -1.05833,-0.11333 -1.05833,-0.11334 z m 4.93091,-13.61472 1.22675,-0.14351 0.3974,-0.32981 0.3974,-0.32982 0.15347,-1.38115 0.15347,-1.38114 -0.20736,-1.81988 -0.20736,-1.81987 -0.49635,-0.36294 -0.49635,-0.36294 h -2.6084 -2.6084 l -0.71446,0.37174 -0.71447,0.37173 -0.58268,0.62407 -0.58269,0.62406 -0.4245,1.01598 -0.42451,1.01599 0.16408,0.74705 0.16408,0.74704 0.71082,0.7178 0.71082,0.71779 0.92604,0.39395 0.92604,0.39395 1.45521,0.16671 1.45521,0.16672 z m -4.1255,-2.55482 -0.93234,-0.4446 -0.15886,-0.50054 -0.15887,-0.50054 0.16002,-0.63755 0.16001,-0.63755 0.83377,-0.43115 0.83376,-0.43116 1.15751,0.13047 1.15752,0.13047 0.51843,0.46917 0.51843,0.46917 v 0.86584 0.86583 l -0.69714,0.54837 -0.69714,0.54837 h -0.88138 -0.88139 z m -124.2924,20.40564 0.58804,-0.41188 -0.004,-1.10948 -0.004,-1.10947 -0.23247,-0.36709 -0.23247,-0.36709 -1.37306,0.13193 -1.37305,0.13194 -0.51556,0.51555 -0.51555,0.51556 -0.15743,0.97014 -0.15744,0.97014 0.7123,0.27081 0.71229,0.27081 h 0.98223 0.98224 z m 145.36309,-0.25911 0.70944,-0.38521 0.16511,-0.52024 0.16512,-0.52025 -0.2853,-0.53309 -0.28531,-0.5331 -0.50571,-0.27065 -0.5057,-0.27064 h -0.61999 -0.61998 l -0.58803,0.41187 -0.58804,0.41188 v 0.89214 0.89214 l 0.41577,0.41578 0.41577,0.41577 0.70871,-0.0106 0.70871,-0.0106 z m 0.13168,-6.10587 0.84111,-0.4148 0.41755,-0.8799 0.41754,-0.87991 -0.26173,-0.68839 -0.26172,-0.68839 -0.68343,-0.25983 -0.68342,-0.25984 h -0.77236 -0.77235 l -0.79858,0.7276 -0.79858,0.7276 -0.1612,0.84236 -0.1612,0.84236 0.679,0.679 0.67899,0.67899 0.73963,-0.006 0.73964,-0.006 z m -145.7748,-0.009 0.58092,-0.49033 0.15985,-0.67819 0.15986,-0.67818 -0.52207,-0.64473 -0.52207,-0.64473 h -1.46914 -1.46913 l -0.37793,0.39687 -0.37793,0.39688 -0.17029,0.56939 -0.17029,0.5694 0.61364,0.7134 0.61365,0.71341 1.18501,0.13357 1.18501,0.13356 z m -0.93174,-6.19049 0.97833,-0.16516 0.41074,-0.34088 0.41074,-0.34088 v -0.47647 -0.47647 l -0.68096,-0.80927 -0.68096,-0.80928 -0.97269,-0.28973 -0.97268,-0.28974 -0.73235,0.28021 -0.73235,0.28022 -0.26027,0.68456 -0.26027,0.68457 0.15652,0.62362 0.15652,0.62363 0.43922,0.3818 0.43923,0.3818 0.66145,0.11131 0.66146,0.11131 z m 147.26772,-1.62866 0.3175,-0.3175 v -0.68196 -0.68196 l -0.41188,-0.58804 -0.41188,-0.58804 h -1.18765 -1.18765 l -0.64943,0.64944 -0.64943,0.64943 v 0.62057 0.62056 l 0.3175,0.3175 0.3175,0.3175 h 1.61396 1.61396 z m -146.36742,-5.44124 0.29112,-0.19438 0.3106,-0.58989 0.31059,-0.58988 -0.16913,-0.67387 -0.16913,-0.67386 -0.48133,-0.25761 -0.48134,-0.2576 h -0.52626 -0.52626 l -0.81405,0.68498 -0.81405,0.68498 v 0.76092 0.76092 l 0.51177,0.27389 0.51177,0.27389 0.87729,-0.004 0.87729,-0.004 z m 144.44799,-1.50527 0.64943,-0.64943 v -1.07036 -1.07036 l -0.5521,-0.5521 -0.55209,-0.55209 -0.70468,0.17582 -0.70467,0.17582 -0.85785,0.65275 -0.85784,0.65276 -0.16389,0.653 -0.16389,0.65299 0.36027,0.43443 0.36028,0.43442 0.8514,0.35589 0.85139,0.35589 h 0.4174 0.4174 z m -142.67104,-4.6969 0.48057,-0.36078 0.15498,-1.15547 0.15499,-1.15546 -0.48769,-0.35661 -0.48768,-0.3566 h -1.47806 -1.47806 l -0.58804,0.41188 -0.58804,0.41188 v 0.59695 0.59695 l 0.77364,0.7412 0.77364,0.74119 1.14459,0.12283 1.14459,0.12282 z m 140.8182,-1.60771 0.70224,-0.60405 0.14043,-1.2459 0.14044,-1.24591 -0.33115,-0.39901 -0.33115,-0.39901 h -0.87013 -0.87012 l -0.68498,0.81405 -0.68498,0.81405 v 0.75623 0.75622 l 0.25804,0.67869 0.25803,0.67868 h 0.78554 0.78555 z m -139.52437,-4.83292 0.71607,-0.38868 0.17773,-0.94742 0.17774,-0.94741 -0.52309,-0.70383 -0.5231,-0.70383 -0.7334,-0.0868 -0.73341,-0.0868 -0.64693,0.16237 -0.64692,0.16237 -0.37944,0.90813 -0.37944,0.90812 v 0.74933 0.74934 l 0.3175,0.3175 0.3175,0.3175 1.07156,-0.0106 1.07157,-0.0106 z m 137.69745,-2.10253 0.83019,-0.65445 0.16243,-0.64717 0.16243,-0.64717 -0.25566,-0.67243 -0.25565,-0.67243 -0.69033,-0.17326 -0.69033,-0.17326 -0.62795,0.28611 -0.62796,0.28612 -0.42294,0.64549 -0.42294,0.64549 0.16649,0.66333 0.16648,0.66333 0.51735,0.55531 0.51736,0.55531 0.32042,-0.003 0.32042,-0.003 z m -135.23851,-4.93844 0.52916,-0.29101 0.45714,-0.56084 0.45714,-0.56085 0.006,-0.43287 0.006,-0.43287 -0.89988,-0.42703 -0.89988,-0.42702 H 36.04921 34.8204 l -0.64943,0.64943 -0.64944,0.64944 v 0.29696 0.29696 l 0.7734,0.7734 0.7734,0.7734 1.01254,-0.008 1.01254,-0.008 z m 133.13613,-1.01836 0.57988,-0.23358 0.42438,-0.64767 0.42437,-0.64768 -0.17324,-0.69025 -0.17325,-0.69026 -0.78517,-0.66068 -0.78517,-0.66067 -0.44272,9.9e-4 -0.44272,9.8e-4 -0.8528,0.51997 -0.85279,0.51998 -0.16808,0.66966 -0.16807,0.66967 0.16481,0.65664 0.1648,0.65665 0.77678,0.40169 0.77678,0.40168 0.47616,-0.0168 0.47616,-0.0168 z m -129.98003,-5.44032 0.41577,-0.41577 v -0.47459 -0.47458 l -0.54837,-0.69714 -0.54837,-0.69714 h -1.25382 -1.25383 l -0.57905,0.53947 -0.57906,0.53947 v 0.49966 0.49966 l 0.69714,0.54837 0.69714,0.54837 h 1.26834 1.26833 z m 125.97502,-0.38159 0.54363,-0.20568 0.84543,-0.96289 0.84543,-0.96289 v -0.73163 -0.73163 l -0.3175,-0.3175 -0.3175,-0.3175 h -1.1174 -1.11741 l -0.81405,0.68498 -0.81405,0.68498 v 0.71136 0.71136 l 0.41044,0.58599 0.41045,0.58599 0.44945,0.23536 0.44945,0.23537 z M 43.83483,98.49719 44.49107,98.15088 44.80174,97.52775 45.1124,96.90462 44.84666,96.14231 44.58092,95.38 43.91022,94.85243 43.23951,94.32485 h -0.71894 -0.71894 l -0.89902,0.60383 -0.89902,0.60382 -0.0787,0.92579 -0.0787,0.9258 0.64797,0.60873 0.64798,0.60874 1.01819,0.12097 1.0182,0.12097 z m 120.46434,-1.09851 0.68015,-0.63034 0.32664,-1.09023 0.32664,-1.09023 -0.31678,-0.69526 -0.31678,-0.69526 -1.15617,0.15847 -1.15617,0.15847 -1.215,0.59029 -1.215,0.59029 v 0.48341 0.4834 l 1.18367,1.18367 1.18366,1.18366 h 0.49749 0.4975 z m -60.66329,-2.02198 3.83645,-0.21626 1.86491,-0.17079 1.86491,-0.17079 0.34658,-0.21419 0.34657,-0.21419 -0.40868,-1.81875 -0.40868,-1.81875 -0.46263,-4.36563 -0.46262,-4.36562 -0.0173,-6.30601 -0.0173,-6.30602 0.56394,-0.44086 0.56394,-0.44086 0.49439,-0.31704 0.49439,-0.31703 -0.39687,-0.29493 -0.39688,-0.29494 -4.7625,0.12723 -4.7625,0.12723 -2.38125,0.42549 -2.38125,0.42549 -1.63839,0.53877 -1.63839,0.53876 -1.08594,0.72932 -1.08593,0.72932 -0.91092,1.28123 -0.91091,1.28122 -0.77118,2.00786 -0.77118,2.00785 -0.31779,2.11481 -0.31778,2.11481 0.17941,1.85394 0.17941,1.85394 0.64724,1.93882 0.64723,1.93883 0.88056,1.37652 0.88055,1.37653 1.29722,1.15303 1.29721,1.15303 1.05833,0.46923 1.05834,0.46923 1.98437,0.12821 1.98438,0.12822 z m -4.8948,-2.11839 -2.38125,-0.26846 -0.84667,-0.27469 -0.84667,-0.2747 -0.80895,-0.92134 -0.80894,-0.92134 -0.78509,-1.55524 -0.78508,-1.55525 -0.53586,-1.93371 -0.53586,-1.93372 V 81.54453 79.4692 l 0.67875,-2.03103 0.67875,-2.03103 0.6843,-1.17393 0.6843,-1.17393 1.05161,-1.14086 1.05161,-1.14086 1.69958,-0.52495 1.69957,-0.52494 2.86804,-0.31891 2.86804,-0.31892 1.28424,0.24824 1.28423,0.24823 0.30849,0.66146 0.30849,0.66146 0.41736,3.83646 0.41736,3.83645 0.26698,3.70417 0.26698,3.70417 0.001,2.94725 0.001,2.94725 -0.46977,0.58014 -0.46977,0.58015 -1.44846,0.20991 -1.44846,0.20991 -1.98437,0.0308 -1.98438,0.0308 z m 4.7625,-2.79654 1.32292,-0.41853 0.49844,-0.43888 0.49845,-0.43888 -0.15837,-4.49792 -0.15836,-4.49792 -0.2921,-2.91041 -0.2921,-2.91042 -0.19588,-0.78909 -0.19589,-0.78909 -1.17501,-0.21854 -1.17501,-0.21853 -2.29829,0.11355 -2.29829,0.11355 -0.87581,0.51151 -0.87581,0.5115 -0.60322,0.89511 -0.60322,0.89512 -0.38531,1.33954 -0.3853,1.33954 -0.27103,1.93823 -0.27103,1.93823 0.28141,1.76157 0.28142,1.76157 0.47602,1.07614 0.47603,1.07614 0.87304,0.99434 0.87304,0.99433 1.08338,0.55322 1.08338,0.55322 1.7198,0.0902 1.71979,0.0902 z m -4.22736,-1.98828 -1.05237,-0.29216 -0.97498,-0.97498 -0.97497,-0.97497 -0.4505,-1.54966 -0.4505,-1.54965 0.11071,-2.27496 0.11072,-2.27497 0.70302,-1.53048 0.70303,-1.53049 0.928,-0.38774 0.928,-0.38774 h 1.74179 1.74179 l 0.37852,0.90592 0.37852,0.90592 0.29761,2.52346 0.2976,2.52346 -0.0947,3.20679 -0.0947,3.2068 -0.51323,0.37528 -0.51323,0.37528 -1.07391,-0.001 -1.07391,-0.001 z m -51.52782,4.20296 0.60106,-0.28968 0.16455,-0.65561 0.16455,-0.65562 -0.23934,-0.68055 -0.23933,-0.68055 -1.01976,-0.38812 -1.01975,-0.38812 -1.09402,0.37822 -1.09402,0.37822 -0.086,0.75101 -0.086,0.751 0.48285,0.54228 0.48286,0.54229 0.85139,0.36036 0.8514,0.36036 0.33923,-0.0179 0.33923,-0.0179 z m 112.45094,-1.14578 0.58955,-0.41294 0.39537,-0.76455 0.39536,-0.76455 v -0.62168 -0.62168 l -0.3175,-0.3175 -0.3175,-0.3175 h -0.55674 -0.55674 l -1.23469,0.78302 -1.23469,0.78301 -0.17361,0.69171 -0.17361,0.6917 0.2925,0.64195 0.29249,0.64194 h 1.00513 1.00513 z m -4.5504,-4.71304 0.81619,-0.36798 0.54728,-0.69575 0.54728,-0.69576 -0.13923,-0.5324 -0.13923,-0.5324 -0.69507,-0.54798 -0.69508,-0.54798 -1.05833,0.14115 -1.05834,0.14115 -0.7276,0.81426 -0.7276,0.81426 v 0.60672 0.60671 l 0.33159,0.45349 0.3316,0.45348 0.92517,0.12851 0.92518,0.1285 z m -103.47105,-0.003 0.50148,-0.36669 -0.25248,-0.99702 -0.25247,-0.99701 -0.67974,-0.5043 -0.67974,-0.5043 -1.13343,-0.0156 -1.13343,-0.0156 -0.55502,0.55502 -0.55502,0.55503 0.25181,0.73331 0.2518,0.73332 1.18026,0.59531 1.18026,0.59531 h 0.68712 0.68711 z m 98.51086,-4.93753 0.84154,-0.51177 0.52576,-0.86232 0.52576,-0.86231 9.9e-4,-0.58601 9.9e-4,-0.586 -0.51177,-0.27389 -0.51178,-0.27389 h -0.79869 -0.7987 l -0.65602,0.2989 -0.65603,0.29891 -0.30539,0.73727 -0.30539,0.73728 0.45429,0.95734 0.45429,0.95734 0.4493,0.24046 0.4493,0.24046 z m -93.82444,-0.75247 1.13094,-1.06078 -0.29261,-0.47488 -0.29261,-0.47488 -1.25828,-0.64753 -1.25828,-0.64754 -0.69807,0.39035 -0.69807,0.39035 -0.23422,0.93897 -0.23422,0.93897 0.3684,0.77215 0.36839,0.77214 0.98384,0.0817 0.98385,0.0817 z m 89.34018,-4.14572 0.80506,-0.6774 0.1655,-0.88224 0.16551,-0.88223 -0.29644,-0.5539 -0.29644,-0.5539 -0.67333,-0.169 -0.67333,-0.16899 -0.64256,0.29276 -0.64255,0.29277 -0.52757,0.86529 -0.52757,0.86529 -9.9e-4,0.59532 -9.9e-4,0.59531 0.52917,0.52917 0.52916,0.52916 h 0.64116 0.64116 z m -84.1082,0.14825 0.52917,-0.52917 v -0.54231 -0.5423 l -0.40135,-0.77614 -0.40136,-0.77613 -0.77613,-0.40135 -0.77613,-0.40135 h -0.69199 -0.692 l -0.51177,0.27389 -0.51177,0.27389 9.9e-4,0.85059 9.9e-4,0.85058 0.5283,0.86649 0.5283,0.8665 0.67856,0.25798 0.67856,0.25799 h 0.64423 0.64424 z m 78.37949,-3.85376 0.72427,-0.39299 0.42105,-0.81422 0.42105,-0.81421 -0.29665,-0.71616 -0.29664,-0.71615 -0.75721,-0.4473 -0.75722,-0.4473 h -0.53096 -0.53097 l -0.68498,0.81405 -0.68498,0.81405 v 0.62871 0.62871 l 0.29376,0.64473 0.29376,0.64473 0.64473,0.29376 0.64473,0.29376 0.18599,-0.0106 0.18599,-0.0106 z M 67.6729,72.91417 68.44629,72.14078 v -0.79247 -0.79246 l -0.16435,-0.4283 -0.16436,-0.4283 -0.74854,-0.38709 -0.74855,-0.38709 h -0.70076 -0.70076 l -0.87941,0.41731 -0.87942,0.41731 -0.14747,0.3843 -0.14747,0.3843 0.42168,1.05389 0.42168,1.05388 0.73836,0.52576 0.73835,0.52575 h 0.70712 0.70711 z m 66.30848,-2.66872 0.57989,-0.23358 0.42942,-0.65538 0.42942,-0.65537 0.0236,-0.83004 0.0236,-0.83005 -0.425,-0.42499 -0.42499,-0.425 h -0.78549 -0.78549 l -0.69413,0.45481 -0.69412,0.45481 -0.24247,0.63772 -0.24246,0.63773 0.2821,0.80923 0.2821,0.80924 0.48395,0.25899 0.48394,0.259 0.34812,-0.0168 0.34813,-0.0168 z m -60.4545,-0.46997 0.71497,-0.0894 0.15562,-0.49031 0.15562,-0.49031 -0.16537,-0.65887 -0.16537,-0.65887 -0.6463,-0.60717 -0.64631,-0.60717 h -0.94981 -0.94981 l -0.36587,0.50036 -0.36587,0.50036 v 0.58158 0.58157 l 0.46302,0.56213 0.46302,0.56212 0.79375,0.20166 0.79375,0.20165 z m 54.50721,-2.58422 0.71801,-0.3897 0.3055,-1.01968 0.30551,-1.01967 -0.36401,-0.76284 -0.36401,-0.76284 -0.71256,-0.0825 -0.71257,-0.0825 -0.55641,0.29778 -0.55641,0.29778 -0.51402,0.84301 -0.51402,0.84301 -9.9e-4,0.7087 -9.9e-4,0.70871 0.41578,0.41577 0.41577,0.41578 0.70871,-0.0106 0.7087,-0.0106 z m -47.53723,-0.50312 0.64943,-0.64943 v -0.4263 -0.42629 L 80.87387,64.67708 80.60144,64.16805 79.82867,63.76844 79.0559,63.36882 h -0.41001 -0.41001 l -0.52917,0.52917 -0.52917,0.52917 v 0.80577 0.80578 l 0.64943,0.64943 0.64944,0.64943 h 0.68551 0.68551 z m 41.70385,-1.66567 0.67218,-0.72761 0.1507,-0.43157 0.15071,-0.43158 -0.62101,-0.9139 -0.62101,-0.9139 -0.67223,-0.44046 -0.67222,-0.44046 h -0.52894 -0.52894 l -0.671,0.98746 -0.67099,0.98746 0.004,0.66619 0.004,0.66618 0.19439,0.27733 0.19438,0.27733 0.8346,0.58257 0.83459,0.58256 h 0.63726 0.63726 z m -35.29973,0.33314 0.8599,-0.37374 v -1.05081 -1.0508 L 87.0759,62.06621 86.39092,61.25216 H 85.4884 84.58588 l -0.52917,0.52916 -0.52917,0.52917 v 0.82021 0.82021 l 0.89959,0.89958 0.89958,0.89958 0.35719,-0.0104 0.35718,-0.0104 z m 28.44271,-1.7434 0.46302,-0.26968 V 62.28532 61.2281 l -0.64943,-0.64943 -0.64944,-0.64943 h -0.6378 -0.6378 l -0.69714,0.54837 -0.69714,0.54837 v 1.02413 1.02412 l 0.58804,0.41188 0.58803,0.41188 0.93332,-0.008 0.93332,-0.008 z m -6.74688,-0.15819 0.33073,-0.1293 v -1.18597 -1.18597 l -0.30419,-0.57791 -0.30419,-0.57792 -0.29112,-0.19439 -0.29112,-0.19438 -0.87729,-0.004 -0.87729,-0.004 -0.51178,0.27389 -0.51177,0.2739 v 1.30751 1.3075 l 0.59531,0.37174 0.59532,0.37173 1.05833,0.13849 1.05833,0.13849 z M 94.49457,63.27888 94.97941,62.92436 94.79989,61.96743 94.62037,61.0105 93.93306,60.46987 93.24576,59.92924 H 92.5287 91.81164 l -0.39767,0.46302 -0.39766,0.46302 -0.16541,0.46616 -0.16541,0.46615 0.29396,0.64516 0.29395,0.64515 0.79676,0.27775 0.79676,0.27776 h 0.57141 0.57141 z m 6.69874,-0.13115 0.33557,-0.21299 0.2434,-0.8487 0.2434,-0.8487 -0.27606,-0.79193 -0.27607,-0.79192 -0.48394,-0.259 -0.48395,-0.259 h -0.69088 -0.69087 l -0.64944,0.64943 -0.64943,0.64943 v 0.93807 0.93807 l 0.52917,0.52917 0.52917,0.52916 0.99218,-0.004 0.99219,-0.004 z"
       id="path1" /></g></svg>
