M48
; DRILL file {KiCad 8.0.6} date 2024-11-11T10:33:22-0800
; FORMAT={-:-/ absolute / inch / decimal}
; #@! TF.CreationDate,2024-11-11T10:33:22-08:00
; #@! TF.GenerationSoftware,Kicad,Pcbnew,8.0.6
; #@! TF.FileFunction,Plated,1,4,PTH
FMAT,2
INCH
; #@! TA.AperFunction,Plated,PTH,ComponentDrill
T1C0.0100
; #@! TA.AperFunction,Plated,PTH,ViaDrill
T2C0.0118
; #@! TA.AperFunction,Plated,PTH,ComponentDrill
T3C0.0236
; #@! TA.AperFunction,Plated,PTH,ComponentDrill
T4C0.0354
; #@! TA.AperFunction,Plated,PTH,ComponentDrill
T5C0.0400
; #@! TA.AperFunction,Plated,PTH,ComponentDrill
T6C0.0512
%
G90
G05
T1
X2.2172Y-4.3653
X2.2172Y-4.3963
X2.2172Y-4.4273
X2.2482Y-4.3653
X2.2482Y-4.3963
X2.2482Y-4.4273
X2.2792Y-4.3653
X2.2792Y-4.3963
X2.2792Y-4.4273
T2
X1.2402Y-3.4803
X1.2402Y-3.7992
X1.2992Y-4.4051
X1.311Y-4.7165
X1.311Y-4.7453
X1.3307Y-4.4051
X1.3346Y-4.1142
X1.3346Y-4.7453
X1.378Y-4.9134
X1.4602Y-4.7012
X1.4843Y-4.748
X1.5453Y-4.5516
X1.5953Y-4.548
X1.6024Y-3.9921
X1.7126Y-4.752
X1.7323Y-4.7205
X1.7559Y-4.0748
X1.811Y-4.0433
X1.8228Y-4.437
X1.8386Y-4.626
X1.9055Y-4.2165
X1.9173Y-4.0394
X1.9567Y-4.5827
X1.9606Y-4.1496
X1.9837Y-4.8386
X2.0Y-4.1181
X2.0Y-4.5787
X2.0315Y-4.7244
X2.0354Y-4.5591
X2.0433Y-4.689
X2.0591Y-4.3077
X2.062Y-3.8346
X2.062Y-3.8661
X2.0709Y-4.2579
X2.0906Y-3.7165
X2.0986Y-4.583
X2.1055Y-4.4819
X2.1102Y-3.9528
X2.1102Y-3.9921
X2.1136Y-5.036
X2.1181Y-4.4134
X2.1417Y-4.4803
X2.1432Y-4.6903
X2.1457Y-3.5512
X2.1457Y-3.8898
X2.1496Y-4.7323
X2.1535Y-4.7874
X2.1614Y-4.4803
X2.1906Y-4.6154
X2.1929Y-5.1142
X2.1946Y-4.2579
X2.1949Y-4.2795
X2.2008Y-3.5472
X2.2283Y-3.7362
X2.2283Y-5.1693
X2.2362Y-4.7283
X2.246Y-4.6162
X2.2559Y-4.8819
X2.263Y-4.2047
X2.2717Y-5.0551
X2.2717Y-5.315
X2.2874Y-3.5079
X2.2874Y-4.1417
X2.311Y-4.2047
X2.3268Y-4.2402
X2.3504Y-3.5787
X2.3583Y-4.2559
X2.3583Y-4.2874
X2.3728Y-4.4299
X2.3728Y-4.4614
X2.3736Y-4.3933
X2.374Y-4.5157
X2.3748Y-4.5642
X2.3752Y-4.6051
X2.378Y-4.1063
X2.378Y-4.7283
X2.378Y-4.874
X2.378Y-4.8937
X2.4213Y-3.9681
X2.4331Y-4.437
X2.4331Y-4.5
X2.437Y-4.0315
X2.4437Y-3.5433
X2.4449Y-4.2756
X2.4449Y-4.8346
X2.4528Y-4.0787
X2.4606Y-4.6496
X2.4646Y-5.2953
X2.4729Y-4.1776
X2.4803Y-4.5236
X2.4843Y-4.4173
X2.5Y-3.5551
X2.5049Y-3.5935
X2.5266Y-3.5935
X2.5315Y-4.4882
X2.563Y-4.6496
X2.5669Y-4.4094
X2.5906Y-4.752
X2.626Y-4.8307
X2.6378Y-4.5866
X2.6417Y-4.2638
X2.6506Y-4.4803
X2.6535Y-4.1654
X2.6846Y-4.6421
X2.7165Y-4.1614
X2.7165Y-4.3386
X2.748Y-4.3701
X2.7835Y-4.4055
X2.8346Y-4.5236
X2.8465Y-4.0315
X2.8465Y-4.063
X2.8465Y-4.1024
X2.8465Y-4.1378
X2.849Y-4.748
X2.8504Y-4.5551
X2.8583Y-3.748
X2.9016Y-3.752
X2.9045Y-4.6142
X2.9126Y-4.5165
X2.9291Y-4.9803
X2.9567Y-4.7913
X2.9606Y-3.752
X2.9606Y-4.6844
X2.9616Y-4.3169
X2.9618Y-4.2961
X2.9847Y-4.5861
X3.0079Y-4.9882
X3.0197Y-4.6496
X3.0217Y-4.3209
X3.031Y-4.4918
X3.0462Y-4.6844
X3.1142Y-4.3268
X3.1178Y-4.6951
X3.161Y-4.4252
X3.1772Y-4.0433
X3.185Y-4.378
X3.185Y-4.4488
X3.2126Y-4.4764
X3.2205Y-4.0984
X3.2402Y-4.4213
X3.2441Y-4.5894
X3.2835Y-4.6299
X3.2835Y-4.6614
X3.2845Y-4.51
X3.3268Y-4.3228
T4
X1.226Y-4.0016
X1.326Y-4.0016
T5
X1.2181Y-4.2299
X1.3181Y-4.2299
X1.4181Y-4.2299
T6
X1.4559Y-4.998
X1.4559Y-5.1949
X1.4571Y-3.513
X1.4571Y-3.7098
X1.7787Y-4.998
X1.7787Y-5.1949
X1.7799Y-3.513
X1.7799Y-3.7098
X2.7768Y-3.5437
X2.7768Y-3.7406
X2.7787Y-5.0339
X2.7787Y-5.2307
X3.0996Y-3.5437
X3.0996Y-3.7406
X3.1016Y-5.0339
X3.1016Y-5.2307
T3
G00X1.2185Y-4.4051
M15
G01X1.25Y-4.4051
M16
G05
G00X1.2185Y-4.7453
M15
G01X1.25Y-4.7453
M16
G05
G00X1.3768Y-4.4051
M15
G01X1.4201Y-4.4051
M16
G05
G00X1.3768Y-4.7453
M15
G01X1.4201Y-4.7453
M16
G05
M30
