%TF.GenerationSoftware,KiCad,Pcbnew,8.0.6*%
%TF.CreationDate,2024-11-11T10:33:33-08:00*%
%TF.ProjectId,BQ24257,42513234-3235-4372-9e6b-696361645f70,rev?*%
%TF.SameCoordinates,Original*%
%TF.FileFunction,Copper,L2,Inr*%
%TF.FilePolarity,Positive*%
%FSLAX46Y46*%
G04 Gerber Fmt 4.6, Leading zero omitted, Abs format (unit mm)*
G04 Created by KiCad (PCBNEW 8.0.6) date 2024-11-11 10:33:33*
%MOMM*%
%LPD*%
G01*
G04 APERTURE LIST*
%TA.AperFunction,ComponentPad*%
%ADD10O,2.000000X0.900000*%
%TD*%
%TA.AperFunction,ComponentPad*%
%ADD11O,1.700000X0.900000*%
%TD*%
%TA.AperFunction,ComponentPad*%
%ADD12C,1.651000*%
%TD*%
%TA.AperFunction,ComponentPad*%
%ADD13O,1.727200X2.032000*%
%TD*%
%TA.AperFunction,ComponentPad*%
%ADD14C,0.508000*%
%TD*%
%TA.AperFunction,ComponentPad*%
%ADD15R,1.950000X1.950000*%
%TD*%
%TA.AperFunction,ComponentPad*%
%ADD16C,1.950000*%
%TD*%
%TA.AperFunction,ViaPad*%
%ADD17C,0.600000*%
%TD*%
%TA.AperFunction,Conductor*%
%ADD18C,0.203200*%
%TD*%
%TA.AperFunction,Conductor*%
%ADD19C,0.304800*%
%TD*%
%TA.AperFunction,Conductor*%
%ADD20C,0.254000*%
%TD*%
%TA.AperFunction,Conductor*%
%ADD21C,0.152400*%
%TD*%
G04 APERTURE END LIST*
D10*
%TO.N,GND*%
%TO.C,USB-C1*%
X35520000Y-111890000D03*
D11*
X31350000Y-111890000D03*
D10*
X35520000Y-120530000D03*
D11*
X31350000Y-120530000D03*
%TD*%
D12*
%TO.N,GND*%
%TO.C,J4*%
X33680000Y-101640000D03*
%TO.N,TS*%
X31140000Y-101640000D03*
%TD*%
D13*
%TO.N,GND*%
%TO.C,J3*%
X30940000Y-107440000D03*
%TO.N,VSYS*%
X33480000Y-107440000D03*
%TO.N,UPDI*%
X36020000Y-107440000D03*
%TD*%
D14*
%TO.N,GND*%
%TO.C,U1*%
X57891400Y-112453800D03*
X57891400Y-111666400D03*
X57891400Y-110879000D03*
X57104000Y-112453800D03*
X57104000Y-111666400D03*
X57104000Y-110879000D03*
X56316600Y-112453800D03*
X56316600Y-111666400D03*
X56316600Y-110879000D03*
%TD*%
D15*
%TO.N,BAT*%
%TO.C,BATTERY1*%
X45210000Y-89230000D03*
D16*
X37010000Y-89230000D03*
%TO.N,GND*%
X45210000Y-94230000D03*
X37010000Y-94230000D03*
%TD*%
D15*
%TO.N,VBAT_OUT*%
%TO.C,BAT_OUT1*%
X70580000Y-132860000D03*
D16*
X78780000Y-132860000D03*
%TO.N,GND*%
X70580000Y-127860000D03*
X78780000Y-127860000D03*
%TD*%
D15*
%TO.N,GND*%
%TO.C,VOUT1*%
X70530000Y-95010000D03*
D16*
X78730000Y-95010000D03*
%TO.N,VOUT*%
X70530000Y-90010000D03*
X78730000Y-90010000D03*
%TD*%
D15*
%TO.N,SOLAR*%
%TO.C,SOLAR_CELL1*%
X45180000Y-126950000D03*
D16*
X36980000Y-126950000D03*
%TO.N,Net-(Q2-D)*%
X45180000Y-131950000D03*
X36980000Y-131950000D03*
%TD*%
D17*
%TO.N,GND*%
X33900000Y-120530000D03*
X57700000Y-128400000D03*
X33300000Y-119800000D03*
X53480000Y-113840000D03*
X65200000Y-112000000D03*
X58100000Y-89100000D03*
X55641600Y-117232400D03*
X51700000Y-115800000D03*
X60400000Y-120100000D03*
X74400000Y-126500000D03*
X63000000Y-114900000D03*
X33900000Y-104500000D03*
X67100000Y-108300000D03*
X72300000Y-105100000D03*
X80700000Y-102700000D03*
X52600000Y-108149400D03*
X33800000Y-111890000D03*
X49800000Y-105400000D03*
X61900000Y-102400000D03*
X49700000Y-116400000D03*
X35000000Y-124800000D03*
X62500000Y-118100000D03*
X31500000Y-88400000D03*
X62300000Y-103600000D03*
X76400000Y-126700000D03*
X59700000Y-90900000D03*
X57300000Y-124000000D03*
X53800000Y-112100000D03*
X64300000Y-114000000D03*
X33000000Y-111890000D03*
X63100000Y-112200000D03*
X72300000Y-103200000D03*
X81800000Y-104100000D03*
X54600000Y-120200000D03*
X80900000Y-111200000D03*
X72300000Y-102400000D03*
X60300000Y-114700000D03*
X59900000Y-108900000D03*
X33300000Y-120530000D03*
X46300000Y-112700000D03*
X72400000Y-115700000D03*
X57700000Y-135000000D03*
X54500000Y-98800000D03*
X72300000Y-104200000D03*
X46700000Y-117500000D03*
X48700000Y-102600000D03*
X52300000Y-109416400D03*
X53685000Y-127915000D03*
X51600000Y-120000000D03*
X44000000Y-119900000D03*
X72600000Y-95200000D03*
X37700000Y-120600000D03*
X56600000Y-94900000D03*
X40700000Y-101400000D03*
X67000000Y-116500000D03*
X54700000Y-121600000D03*
X62100000Y-122800000D03*
X76750000Y-109750000D03*
X73700000Y-95300000D03*
X57049000Y-117251400D03*
X61800000Y-112700000D03*
X31500000Y-96500000D03*
X60400000Y-104300000D03*
X58100000Y-105200000D03*
X44600000Y-103500000D03*
X68190000Y-117910000D03*
X63500000Y-90300000D03*
X62100000Y-108600000D03*
X62600000Y-134500000D03*
X75100000Y-121700000D03*
X70700000Y-111900000D03*
X37090000Y-119410000D03*
X75200000Y-95300000D03*
X56800000Y-120100000D03*
X61800000Y-114300000D03*
%TO.N,SOLAR_GATE*%
X81600000Y-113700000D03*
X56600000Y-131300000D03*
%TO.N,BAT_GATE*%
X80290468Y-112400000D03*
%TO.N,VSYS*%
X53100000Y-94400000D03*
X75225000Y-109650000D03*
X55700000Y-129900000D03*
X75230000Y-109120000D03*
X50800000Y-116300000D03*
X75200000Y-118985000D03*
X73980000Y-114720000D03*
X55900000Y-90100000D03*
X50800000Y-104600000D03*
X75812500Y-116487500D03*
X83426600Y-114555069D03*
X66700000Y-122700000D03*
X72365000Y-120600000D03*
X65100000Y-118100000D03*
%TO.N,BATTERY_SENSE_OUT*%
X76986863Y-114091962D03*
X54500000Y-90200000D03*
%TO.N,RX*%
X53600000Y-100400000D03*
X83400000Y-118400000D03*
%TO.N,ISET_CS*%
X59900000Y-108100000D03*
X77374598Y-118985000D03*
%TO.N,ILIM_CS*%
X79191142Y-119256298D03*
X54437600Y-119132400D03*
%TO.N,TX*%
X83400000Y-117600000D03*
X53600000Y-101400000D03*
%TO.N,SCL*%
X84500000Y-109800000D03*
X69000000Y-110200000D03*
%TO.N,UPDI*%
X62810501Y-106110501D03*
%TO.N,SDA*%
X82300000Y-112300000D03*
X82400000Y-116570000D03*
X69800000Y-111000000D03*
%TO.N,HSG1*%
X65800000Y-120700000D03*
X43500000Y-120700000D03*
%TO.N,U{slash}D*%
X80900000Y-113000000D03*
X51900000Y-119100000D03*
%TO.N,VIN*%
X50385000Y-122900000D03*
X53304800Y-116407398D03*
X54900000Y-113800000D03*
X60330000Y-116970000D03*
X54400000Y-113800000D03*
%TO.N,VBAT*%
X52375000Y-98200000D03*
X55743200Y-108149400D03*
X60400000Y-123800000D03*
X55750000Y-108700000D03*
X79100000Y-109900000D03*
X60400000Y-124300000D03*
X52375000Y-97400000D03*
%TO.N,STAT*%
X59100000Y-107700000D03*
X73775000Y-117200000D03*
%TO.N,PG*%
X58700000Y-106800000D03*
X72000000Y-114900000D03*
%TO.N,TS*%
X48400000Y-107100000D03*
X46000000Y-102700000D03*
X60320000Y-115930000D03*
X57480937Y-106800000D03*
%TO.N,CE*%
X76700000Y-118100000D03*
X67325000Y-113800000D03*
X60270000Y-113320003D03*
%TO.N,VBAT_OUT*%
X63625000Y-91275000D03*
X64175000Y-91275000D03*
%TO.N,D+*%
X39250000Y-115610000D03*
X60270000Y-112520000D03*
%TO.N,D-*%
X40520000Y-115520000D03*
X60290000Y-111590000D03*
%TO.N,BURST*%
X62070000Y-90000000D03*
X67400000Y-105800000D03*
%TO.N,RUN*%
X61500000Y-100790000D03*
X69000000Y-105700000D03*
%TD*%
D18*
%TO.N,SOLAR_GATE*%
X64500000Y-123400000D02*
X56600000Y-131300000D01*
X80300000Y-115000000D02*
X80300000Y-119300000D01*
X76200000Y-123400000D02*
X64500000Y-123400000D01*
X81600000Y-113700000D02*
X80300000Y-115000000D01*
X80300000Y-119300000D02*
X76200000Y-123400000D01*
%TO.N,BATTERY_SENSE_OUT*%
X76986863Y-114091962D02*
X71891962Y-114091962D01*
X54500000Y-96700000D02*
X54500000Y-90200000D01*
X71891962Y-114091962D02*
X54500000Y-96700000D01*
%TO.N,ISET_CS*%
X70250000Y-118180000D02*
X75780000Y-118180000D01*
X75780000Y-118180000D02*
X76585000Y-118985000D01*
X59900000Y-108100000D02*
X60170000Y-108100000D01*
X60170000Y-108100000D02*
X70250000Y-118180000D01*
X76585000Y-118985000D02*
X77374598Y-118985000D01*
D19*
%TO.N,ILIM_CS*%
X79191142Y-119308858D02*
X79191142Y-119256298D01*
X73654000Y-120054000D02*
X78446000Y-120054000D01*
X78446000Y-120054000D02*
X79191142Y-119308858D01*
X72937209Y-119337209D02*
X73654000Y-120054000D01*
X54437600Y-119132400D02*
X54642409Y-119337209D01*
X54642409Y-119337209D02*
X72937209Y-119337209D01*
D20*
%TO.N,SCL*%
X70900000Y-110200000D02*
X71227000Y-110527000D01*
X69000000Y-110200000D02*
X70900000Y-110200000D01*
X83773000Y-110527000D02*
X84500000Y-109800000D01*
X71227000Y-110527000D02*
X83773000Y-110527000D01*
D18*
%TO.N,UPDI*%
X62810501Y-106110501D02*
X62800000Y-106100000D01*
X37360000Y-106100000D02*
X36020000Y-107440000D01*
X62800000Y-106100000D02*
X37360000Y-106100000D01*
%TO.N,SDA*%
X82300000Y-112300000D02*
X82400000Y-112400000D01*
D20*
X69800000Y-111000000D02*
X69900000Y-111100000D01*
D18*
X82400000Y-112400000D02*
X82400000Y-116570000D01*
D20*
X79913288Y-111100000D02*
X81113288Y-112300000D01*
X69900000Y-111100000D02*
X79913288Y-111100000D01*
X81113288Y-112300000D02*
X82300000Y-112300000D01*
D19*
%TO.N,HSG1*%
X65800000Y-120700000D02*
X65900000Y-120800000D01*
D20*
X65600000Y-120900000D02*
X43700000Y-120900000D01*
X43700000Y-120900000D02*
X43500000Y-120700000D01*
X65800000Y-120700000D02*
X65600000Y-120900000D01*
D18*
%TO.N,U{slash}D*%
X73900000Y-119600000D02*
X77900000Y-119600000D01*
X51900000Y-119100000D02*
X52500000Y-118500000D01*
X54901600Y-118701600D02*
X73001600Y-118701600D01*
X79700000Y-114200000D02*
X80900000Y-113000000D01*
X77900000Y-119600000D02*
X79700000Y-117800000D01*
X52500000Y-118500000D02*
X54700000Y-118500000D01*
X73001600Y-118701600D02*
X73900000Y-119600000D01*
X54700000Y-118500000D02*
X54901600Y-118701600D01*
X79700000Y-117800000D02*
X79700000Y-114200000D01*
D19*
%TO.N,VIN*%
X59940000Y-116580000D02*
X60330000Y-116970000D01*
X53304800Y-116407398D02*
X53477402Y-116580000D01*
X53477402Y-116580000D02*
X59940000Y-116580000D01*
D20*
%TO.N,STAT*%
X59327000Y-107473000D02*
X59100000Y-107700000D01*
X73775000Y-117200000D02*
X71980000Y-117200000D01*
X71980000Y-117200000D02*
X62253000Y-107473000D01*
X62253000Y-107473000D02*
X59327000Y-107473000D01*
D18*
%TO.N,PG*%
X72000000Y-114900000D02*
X71000000Y-114900000D01*
X62900000Y-106800000D02*
X58700000Y-106800000D01*
X71000000Y-114900000D02*
X62900000Y-106800000D01*
D20*
%TO.N,TS*%
X46000000Y-102700000D02*
X42900000Y-99600000D01*
X57700000Y-107700000D02*
X57522400Y-107522400D01*
X61100000Y-115150000D02*
X60320000Y-115930000D01*
X57480937Y-106800000D02*
X57480937Y-107480937D01*
X42900000Y-99600000D02*
X33180000Y-99600000D01*
X61100000Y-111100000D02*
X61100000Y-115150000D01*
X57700000Y-107700000D02*
X61100000Y-111100000D01*
X57522400Y-107522400D02*
X48822400Y-107522400D01*
X57480937Y-107480937D02*
X57700000Y-107700000D01*
X48822400Y-107522400D02*
X48400000Y-107100000D01*
X33180000Y-99600000D02*
X31140000Y-101640000D01*
D21*
%TO.N,CE*%
X76700000Y-118100000D02*
X76376200Y-117776200D01*
X76376200Y-117776200D02*
X71301200Y-117776200D01*
X71301200Y-117776200D02*
X67325000Y-113800000D01*
D20*
%TO.N,D+*%
X42263356Y-115000000D02*
X40963356Y-116300000D01*
X60270000Y-112520000D02*
X60183291Y-112520000D01*
X57703291Y-115000000D02*
X42263356Y-115000000D01*
X60183291Y-112520000D02*
X57703291Y-115000000D01*
X39940000Y-116300000D02*
X39250000Y-115610000D01*
X40963356Y-116300000D02*
X39940000Y-116300000D01*
%TO.N,D-*%
X57380000Y-114500000D02*
X41540000Y-114500000D01*
X60290000Y-111590000D02*
X57380000Y-114500000D01*
X41540000Y-114500000D02*
X40520000Y-115520000D01*
D18*
%TO.N,BURST*%
X60400000Y-91670000D02*
X62070000Y-90000000D01*
X61100000Y-101600000D02*
X60400000Y-100900000D01*
X60400000Y-100900000D02*
X60400000Y-91670000D01*
X63200000Y-101600000D02*
X61100000Y-101600000D01*
X67400000Y-105800000D02*
X63200000Y-101600000D01*
%TO.N,RUN*%
X64090000Y-100790000D02*
X61500000Y-100790000D01*
X69000000Y-105700000D02*
X64090000Y-100790000D01*
%TD*%
%TA.AperFunction,Conductor*%
%TO.N,GND*%
G36*
X86012539Y-85770185D02*
G01*
X86058294Y-85822989D01*
X86069500Y-85874500D01*
X86069500Y-136075500D01*
X86049815Y-136142539D01*
X85997011Y-136188294D01*
X85945500Y-136199500D01*
X29804500Y-136199500D01*
X29737461Y-136179815D01*
X29691706Y-136127011D01*
X29680500Y-136075500D01*
X29680500Y-131949994D01*
X35499443Y-131949994D01*
X35499443Y-131950005D01*
X35519634Y-132193683D01*
X35519636Y-132193695D01*
X35579663Y-132430734D01*
X35677888Y-132654666D01*
X35811632Y-132859378D01*
X35977242Y-133039277D01*
X35977246Y-133039281D01*
X36170212Y-133189473D01*
X36385267Y-133305855D01*
X36385270Y-133305856D01*
X36616541Y-133385251D01*
X36616543Y-133385251D01*
X36616545Y-133385252D01*
X36857737Y-133425500D01*
X36857738Y-133425500D01*
X37102262Y-133425500D01*
X37102263Y-133425500D01*
X37343455Y-133385252D01*
X37574733Y-133305855D01*
X37789788Y-133189473D01*
X37982754Y-133039281D01*
X38148368Y-132859377D01*
X38282111Y-132654667D01*
X38380336Y-132430736D01*
X38440364Y-132193692D01*
X38443543Y-132155333D01*
X38460557Y-131950005D01*
X38460557Y-131949994D01*
X43699443Y-131949994D01*
X43699443Y-131950005D01*
X43719634Y-132193683D01*
X43719636Y-132193695D01*
X43779663Y-132430734D01*
X43877888Y-132654666D01*
X44011632Y-132859378D01*
X44177242Y-133039277D01*
X44177246Y-133039281D01*
X44370212Y-133189473D01*
X44585267Y-133305855D01*
X44585270Y-133305856D01*
X44816541Y-133385251D01*
X44816543Y-133385251D01*
X44816545Y-133385252D01*
X45057737Y-133425500D01*
X45057738Y-133425500D01*
X45302262Y-133425500D01*
X45302263Y-133425500D01*
X45543455Y-133385252D01*
X45774733Y-133305855D01*
X45989788Y-133189473D01*
X46182754Y-133039281D01*
X46348368Y-132859377D01*
X46482111Y-132654667D01*
X46580336Y-132430736D01*
X46640364Y-132193692D01*
X46643543Y-132155333D01*
X46660557Y-131950005D01*
X46660557Y-131949994D01*
X46640365Y-131706316D01*
X46640363Y-131706304D01*
X46589169Y-131504145D01*
X46580336Y-131469264D01*
X46482111Y-131245333D01*
X46348368Y-131040623D01*
X46348367Y-131040621D01*
X46182757Y-130860722D01*
X46182747Y-130860713D01*
X45989791Y-130710529D01*
X45989787Y-130710526D01*
X45774734Y-130594145D01*
X45774729Y-130594143D01*
X45543458Y-130514748D01*
X45362561Y-130484562D01*
X45302263Y-130474500D01*
X45057737Y-130474500D01*
X45009498Y-130482549D01*
X44816541Y-130514748D01*
X44585270Y-130594143D01*
X44585265Y-130594145D01*
X44370212Y-130710526D01*
X44370208Y-130710529D01*
X44177252Y-130860713D01*
X44177242Y-130860722D01*
X44011632Y-131040621D01*
X43877888Y-131245333D01*
X43779663Y-131469265D01*
X43719636Y-131706304D01*
X43719634Y-131706316D01*
X43699443Y-131949994D01*
X38460557Y-131949994D01*
X38440365Y-131706316D01*
X38440363Y-131706304D01*
X38389169Y-131504145D01*
X38380336Y-131469264D01*
X38282111Y-131245333D01*
X38148368Y-131040623D01*
X38148367Y-131040621D01*
X37982757Y-130860722D01*
X37982747Y-130860713D01*
X37789791Y-130710529D01*
X37789787Y-130710526D01*
X37574734Y-130594145D01*
X37574729Y-130594143D01*
X37343458Y-130514748D01*
X37162561Y-130484562D01*
X37102263Y-130474500D01*
X36857737Y-130474500D01*
X36809498Y-130482549D01*
X36616541Y-130514748D01*
X36385270Y-130594143D01*
X36385265Y-130594145D01*
X36170212Y-130710526D01*
X36170208Y-130710529D01*
X35977252Y-130860713D01*
X35977242Y-130860722D01*
X35811632Y-131040621D01*
X35677888Y-131245333D01*
X35579663Y-131469265D01*
X35519636Y-131706304D01*
X35519634Y-131706316D01*
X35499443Y-131949994D01*
X29680500Y-131949994D01*
X29680500Y-126949994D01*
X35499443Y-126949994D01*
X35499443Y-126950005D01*
X35519634Y-127193683D01*
X35519636Y-127193695D01*
X35579663Y-127430734D01*
X35677888Y-127654666D01*
X35811632Y-127859378D01*
X35977242Y-128039277D01*
X35977252Y-128039286D01*
X36170208Y-128189470D01*
X36170212Y-128189473D01*
X36342197Y-128282547D01*
X36385267Y-128305855D01*
X36385270Y-128305856D01*
X36616541Y-128385251D01*
X36616543Y-128385251D01*
X36616545Y-128385252D01*
X36857737Y-128425500D01*
X36857738Y-128425500D01*
X37102262Y-128425500D01*
X37102263Y-128425500D01*
X37343455Y-128385252D01*
X37574733Y-128305855D01*
X37789788Y-128189473D01*
X37982754Y-128039281D01*
X38148368Y-127859377D01*
X38282111Y-127654667D01*
X38380336Y-127430736D01*
X38440364Y-127193692D01*
X38440365Y-127193683D01*
X38460557Y-126950005D01*
X38460557Y-126949994D01*
X38440365Y-126706316D01*
X38440363Y-126706304D01*
X38427169Y-126654202D01*
X38380336Y-126469264D01*
X38282111Y-126245333D01*
X38148368Y-126040623D01*
X38148367Y-126040621D01*
X38043895Y-125927135D01*
X43704500Y-125927135D01*
X43704500Y-127972870D01*
X43704501Y-127972876D01*
X43710908Y-128032483D01*
X43761202Y-128167328D01*
X43761206Y-128167335D01*
X43847452Y-128282544D01*
X43847455Y-128282547D01*
X43962664Y-128368793D01*
X43962671Y-128368797D01*
X44097517Y-128419091D01*
X44097516Y-128419091D01*
X44104444Y-128419835D01*
X44157127Y-128425500D01*
X46202872Y-128425499D01*
X46262483Y-128419091D01*
X46397331Y-128368796D01*
X46512546Y-128282546D01*
X46598796Y-128167331D01*
X46649091Y-128032483D01*
X46655500Y-127972873D01*
X46655499Y-125927128D01*
X46649091Y-125867517D01*
X46646553Y-125860713D01*
X46598797Y-125732671D01*
X46598793Y-125732664D01*
X46512547Y-125617455D01*
X46512544Y-125617452D01*
X46397335Y-125531206D01*
X46397328Y-125531202D01*
X46262482Y-125480908D01*
X46262483Y-125480908D01*
X46202883Y-125474501D01*
X46202881Y-125474500D01*
X46202873Y-125474500D01*
X46202864Y-125474500D01*
X44157129Y-125474500D01*
X44157123Y-125474501D01*
X44097516Y-125480908D01*
X43962671Y-125531202D01*
X43962664Y-125531206D01*
X43847455Y-125617452D01*
X43847452Y-125617455D01*
X43761206Y-125732664D01*
X43761202Y-125732671D01*
X43710908Y-125867517D01*
X43704501Y-125927116D01*
X43704501Y-125927123D01*
X43704500Y-125927135D01*
X38043895Y-125927135D01*
X37982757Y-125860722D01*
X37982747Y-125860713D01*
X37789791Y-125710529D01*
X37789787Y-125710526D01*
X37574734Y-125594145D01*
X37574729Y-125594143D01*
X37343458Y-125514748D01*
X37140664Y-125480908D01*
X37102263Y-125474500D01*
X36857737Y-125474500D01*
X36819336Y-125480908D01*
X36616541Y-125514748D01*
X36385270Y-125594143D01*
X36385265Y-125594145D01*
X36170212Y-125710526D01*
X36170208Y-125710529D01*
X35977252Y-125860713D01*
X35977242Y-125860722D01*
X35811632Y-126040621D01*
X35677888Y-126245333D01*
X35579663Y-126469265D01*
X35519636Y-126706304D01*
X35519634Y-126706316D01*
X35499443Y-126949994D01*
X29680500Y-126949994D01*
X29680500Y-123799996D01*
X59594435Y-123799996D01*
X59594435Y-123800003D01*
X59614631Y-123979253D01*
X59625056Y-124009049D01*
X59628615Y-124078828D01*
X59625056Y-124090951D01*
X59614631Y-124120746D01*
X59594435Y-124299996D01*
X59594435Y-124300003D01*
X59614630Y-124479249D01*
X59614631Y-124479254D01*
X59674211Y-124649523D01*
X59770184Y-124802262D01*
X59897738Y-124929816D01*
X60050478Y-125025789D01*
X60220745Y-125085368D01*
X60220750Y-125085369D01*
X60399996Y-125105565D01*
X60400000Y-125105565D01*
X60400004Y-125105565D01*
X60579249Y-125085369D01*
X60579252Y-125085368D01*
X60579255Y-125085368D01*
X60749522Y-125025789D01*
X60902262Y-124929816D01*
X61029816Y-124802262D01*
X61125789Y-124649522D01*
X61185368Y-124479255D01*
X61205565Y-124300000D01*
X61205565Y-124299996D01*
X61185369Y-124120749D01*
X61185368Y-124120745D01*
X61174943Y-124090954D01*
X61171380Y-124021179D01*
X61174938Y-124009059D01*
X61185368Y-123979255D01*
X61187418Y-123961067D01*
X61205565Y-123800003D01*
X61205565Y-123799996D01*
X61185369Y-123620750D01*
X61185368Y-123620745D01*
X61125789Y-123450478D01*
X61029816Y-123297738D01*
X60902262Y-123170184D01*
X60749523Y-123074211D01*
X60579254Y-123014631D01*
X60579249Y-123014630D01*
X60400004Y-122994435D01*
X60399996Y-122994435D01*
X60220750Y-123014630D01*
X60220745Y-123014631D01*
X60050476Y-123074211D01*
X59897737Y-123170184D01*
X59770184Y-123297737D01*
X59674211Y-123450476D01*
X59614631Y-123620745D01*
X59614630Y-123620750D01*
X59594435Y-123799996D01*
X29680500Y-123799996D01*
X29680500Y-122899996D01*
X49579435Y-122899996D01*
X49579435Y-122900000D01*
X49599630Y-123079249D01*
X49599631Y-123079254D01*
X49659211Y-123249523D01*
X49689507Y-123297738D01*
X49755184Y-123402262D01*
X49882738Y-123529816D01*
X49973080Y-123586582D01*
X50027450Y-123620745D01*
X50035478Y-123625789D01*
X50205745Y-123685368D01*
X50205750Y-123685369D01*
X50384996Y-123705565D01*
X50385000Y-123705565D01*
X50385004Y-123705565D01*
X50564249Y-123685369D01*
X50564252Y-123685368D01*
X50564255Y-123685368D01*
X50734522Y-123625789D01*
X50887262Y-123529816D01*
X51014816Y-123402262D01*
X51110789Y-123249522D01*
X51170368Y-123079255D01*
X51170937Y-123074211D01*
X51190565Y-122900000D01*
X51190565Y-122899996D01*
X51170369Y-122720750D01*
X51170368Y-122720745D01*
X51110788Y-122550476D01*
X51014815Y-122397737D01*
X50887262Y-122270184D01*
X50734523Y-122174211D01*
X50564254Y-122114631D01*
X50564249Y-122114630D01*
X50385004Y-122094435D01*
X50384996Y-122094435D01*
X50205750Y-122114630D01*
X50205745Y-122114631D01*
X50035476Y-122174211D01*
X49882737Y-122270184D01*
X49755184Y-122397737D01*
X49659211Y-122550476D01*
X49599631Y-122720745D01*
X49599630Y-122720750D01*
X49579435Y-122899996D01*
X29680500Y-122899996D01*
X29680500Y-120279999D01*
X30031115Y-120279999D01*
X30031116Y-120280000D01*
X30783012Y-120280000D01*
X30765795Y-120289940D01*
X30709940Y-120345795D01*
X30670444Y-120414204D01*
X30650000Y-120490504D01*
X30650000Y-120569496D01*
X30670444Y-120645796D01*
X30709940Y-120714205D01*
X30765795Y-120770060D01*
X30783012Y-120780000D01*
X30031116Y-120780000D01*
X30036506Y-120807100D01*
X30036507Y-120807103D01*
X30108119Y-120979991D01*
X30108124Y-120980000D01*
X30212086Y-121135589D01*
X30212089Y-121135593D01*
X30344406Y-121267910D01*
X30344410Y-121267913D01*
X30499999Y-121371875D01*
X30500008Y-121371880D01*
X30672894Y-121443491D01*
X30672902Y-121443493D01*
X30856428Y-121479999D01*
X30856431Y-121480000D01*
X31100000Y-121480000D01*
X31100000Y-120830000D01*
X31600000Y-120830000D01*
X31600000Y-121480000D01*
X31843569Y-121480000D01*
X31843571Y-121479999D01*
X32027097Y-121443493D01*
X32027105Y-121443491D01*
X32199991Y-121371880D01*
X32200000Y-121371875D01*
X32355589Y-121267913D01*
X32355593Y-121267910D01*
X32487910Y-121135593D01*
X32487913Y-121135589D01*
X32591875Y-120980000D01*
X32591880Y-120979991D01*
X32663492Y-120807103D01*
X32663493Y-120807100D01*
X32668884Y-120780000D01*
X31916988Y-120780000D01*
X31934205Y-120770060D01*
X31990060Y-120714205D01*
X32029556Y-120645796D01*
X32050000Y-120569496D01*
X32050000Y-120490504D01*
X32029556Y-120414204D01*
X31990060Y-120345795D01*
X31934205Y-120289940D01*
X31916988Y-120280000D01*
X32668884Y-120280000D01*
X32668884Y-120279999D01*
X34051115Y-120279999D01*
X34051116Y-120280000D01*
X34803012Y-120280000D01*
X34785795Y-120289940D01*
X34729940Y-120345795D01*
X34690444Y-120414204D01*
X34670000Y-120490504D01*
X34670000Y-120569496D01*
X34690444Y-120645796D01*
X34729940Y-120714205D01*
X34785795Y-120770060D01*
X34803012Y-120780000D01*
X34051116Y-120780000D01*
X34056506Y-120807100D01*
X34056507Y-120807103D01*
X34128119Y-120979991D01*
X34128124Y-120980000D01*
X34232086Y-121135589D01*
X34232089Y-121135593D01*
X34364406Y-121267910D01*
X34364410Y-121267913D01*
X34519999Y-121371875D01*
X34520008Y-121371880D01*
X34692894Y-121443491D01*
X34692902Y-121443493D01*
X34876428Y-121479999D01*
X34876431Y-121480000D01*
X35270000Y-121480000D01*
X35270000Y-120830000D01*
X35770000Y-120830000D01*
X35770000Y-121480000D01*
X36163569Y-121480000D01*
X36163571Y-121479999D01*
X36347097Y-121443493D01*
X36347105Y-121443491D01*
X36519991Y-121371880D01*
X36520000Y-121371875D01*
X36675589Y-121267913D01*
X36675593Y-121267910D01*
X36807910Y-121135593D01*
X36807913Y-121135589D01*
X36911875Y-120980000D01*
X36911880Y-120979991D01*
X36983492Y-120807103D01*
X36983493Y-120807100D01*
X36988884Y-120780000D01*
X36236988Y-120780000D01*
X36254205Y-120770060D01*
X36310060Y-120714205D01*
X36349556Y-120645796D01*
X36370000Y-120569496D01*
X36370000Y-120490504D01*
X36349556Y-120414204D01*
X36310060Y-120345795D01*
X36254205Y-120289940D01*
X36236988Y-120280000D01*
X36988884Y-120280000D01*
X36988884Y-120279999D01*
X36983493Y-120252899D01*
X36983492Y-120252896D01*
X36911880Y-120080008D01*
X36911875Y-120079999D01*
X36807913Y-119924410D01*
X36807910Y-119924406D01*
X36675593Y-119792089D01*
X36675589Y-119792086D01*
X36520000Y-119688124D01*
X36519991Y-119688119D01*
X36347105Y-119616508D01*
X36347097Y-119616506D01*
X36163570Y-119580000D01*
X35770000Y-119580000D01*
X35770000Y-120230000D01*
X35270000Y-120230000D01*
X35270000Y-119674462D01*
X35289685Y-119607423D01*
X35332000Y-119567075D01*
X35378015Y-119540509D01*
X35480509Y-119438015D01*
X35552984Y-119312485D01*
X35590500Y-119172475D01*
X35590500Y-119027525D01*
X35552984Y-118887515D01*
X35492122Y-118782100D01*
X35480511Y-118761988D01*
X35480506Y-118761982D01*
X35378017Y-118659493D01*
X35378011Y-118659488D01*
X35252488Y-118587017D01*
X35252489Y-118587017D01*
X35233116Y-118581826D01*
X35112475Y-118549500D01*
X34967525Y-118549500D01*
X34846884Y-118581826D01*
X34827511Y-118587017D01*
X34701988Y-118659488D01*
X34701982Y-118659493D01*
X34599493Y-118761982D01*
X34599488Y-118761988D01*
X34527017Y-118887511D01*
X34522583Y-118904055D01*
X34489500Y-119027525D01*
X34489500Y-119172475D01*
X34526794Y-119311655D01*
X34527017Y-119312488D01*
X34599488Y-119438011D01*
X34599493Y-119438017D01*
X34621837Y-119460361D01*
X34655322Y-119521684D01*
X34650338Y-119591376D01*
X34608466Y-119647309D01*
X34581610Y-119662602D01*
X34520014Y-119688116D01*
X34519999Y-119688124D01*
X34364410Y-119792086D01*
X34364406Y-119792089D01*
X34232089Y-119924406D01*
X34232086Y-119924410D01*
X34128124Y-120079999D01*
X34128119Y-120080008D01*
X34056507Y-120252896D01*
X34056506Y-120252899D01*
X34051115Y-120279999D01*
X32668884Y-120279999D01*
X32663493Y-120252899D01*
X32663492Y-120252896D01*
X32591880Y-120080008D01*
X32591875Y-120079999D01*
X32487913Y-119924410D01*
X32487910Y-119924406D01*
X32355593Y-119792089D01*
X32355589Y-119792086D01*
X32200000Y-119688124D01*
X32199991Y-119688119D01*
X32027105Y-119616508D01*
X32027097Y-119616506D01*
X31843570Y-119580000D01*
X31600000Y-119580000D01*
X31600000Y-120230000D01*
X31100000Y-120230000D01*
X31100000Y-119580000D01*
X30856430Y-119580000D01*
X30672902Y-119616506D01*
X30672894Y-119616508D01*
X30500008Y-119688119D01*
X30499999Y-119688124D01*
X30344410Y-119792086D01*
X30344406Y-119792089D01*
X30212089Y-119924406D01*
X30212086Y-119924410D01*
X30108124Y-120079999D01*
X30108119Y-120080008D01*
X30036507Y-120252896D01*
X30036506Y-120252899D01*
X30031115Y-120279999D01*
X29680500Y-120279999D01*
X29680500Y-111639999D01*
X30031115Y-111639999D01*
X30031116Y-111640000D01*
X30783012Y-111640000D01*
X30765795Y-111649940D01*
X30709940Y-111705795D01*
X30670444Y-111774204D01*
X30650000Y-111850504D01*
X30650000Y-111929496D01*
X30670444Y-112005796D01*
X30709940Y-112074205D01*
X30765795Y-112130060D01*
X30783012Y-112140000D01*
X30031116Y-112140000D01*
X30036506Y-112167100D01*
X30036507Y-112167103D01*
X30108119Y-112339991D01*
X30108124Y-112340000D01*
X30212086Y-112495589D01*
X30212089Y-112495593D01*
X30344406Y-112627910D01*
X30344410Y-112627913D01*
X30499999Y-112731875D01*
X30500008Y-112731880D01*
X30672894Y-112803491D01*
X30672902Y-112803493D01*
X30856428Y-112839999D01*
X30856431Y-112840000D01*
X31100000Y-112840000D01*
X31100000Y-112190000D01*
X31600000Y-112190000D01*
X31600000Y-112840000D01*
X31843569Y-112840000D01*
X31843571Y-112839999D01*
X32027097Y-112803493D01*
X32027105Y-112803491D01*
X32199991Y-112731880D01*
X32200000Y-112731875D01*
X32355589Y-112627913D01*
X32355593Y-112627910D01*
X32487910Y-112495593D01*
X32487913Y-112495589D01*
X32591875Y-112340000D01*
X32591880Y-112339991D01*
X32663492Y-112167103D01*
X32663493Y-112167100D01*
X32668884Y-112140000D01*
X31916988Y-112140000D01*
X31934205Y-112130060D01*
X31990060Y-112074205D01*
X32029556Y-112005796D01*
X32050000Y-111929496D01*
X32050000Y-111850504D01*
X32029556Y-111774204D01*
X31990060Y-111705795D01*
X31934205Y-111649940D01*
X31916988Y-111640000D01*
X32668884Y-111640000D01*
X32668884Y-111639999D01*
X34051115Y-111639999D01*
X34051116Y-111640000D01*
X34803012Y-111640000D01*
X34785795Y-111649940D01*
X34729940Y-111705795D01*
X34690444Y-111774204D01*
X34670000Y-111850504D01*
X34670000Y-111929496D01*
X34690444Y-112005796D01*
X34729940Y-112074205D01*
X34785795Y-112130060D01*
X34803012Y-112140000D01*
X34051116Y-112140000D01*
X34056506Y-112167100D01*
X34056507Y-112167103D01*
X34128119Y-112339991D01*
X34128124Y-112340000D01*
X34232086Y-112495589D01*
X34232089Y-112495593D01*
X34364406Y-112627910D01*
X34364410Y-112627913D01*
X34519999Y-112731875D01*
X34520008Y-112731880D01*
X34581609Y-112757396D01*
X34636012Y-112801237D01*
X34658077Y-112867531D01*
X34640798Y-112935230D01*
X34621839Y-112959637D01*
X34599488Y-112981988D01*
X34527017Y-113107511D01*
X34527016Y-113107515D01*
X34489500Y-113247525D01*
X34489500Y-113392475D01*
X34522751Y-113516568D01*
X34527017Y-113532488D01*
X34599488Y-113658011D01*
X34599490Y-113658013D01*
X34599491Y-113658015D01*
X34701985Y-113760509D01*
X34701986Y-113760510D01*
X34701988Y-113760511D01*
X34827511Y-113832982D01*
X34827512Y-113832982D01*
X34827515Y-113832984D01*
X34967525Y-113870500D01*
X34967528Y-113870500D01*
X35112472Y-113870500D01*
X35112475Y-113870500D01*
X35252485Y-113832984D01*
X35378015Y-113760509D01*
X35480509Y-113658015D01*
X35552984Y-113532485D01*
X35590500Y-113392475D01*
X35590500Y-113247525D01*
X35552984Y-113107515D01*
X35508124Y-113029816D01*
X35480511Y-112981988D01*
X35480506Y-112981982D01*
X35378017Y-112879493D01*
X35378015Y-112879491D01*
X35332000Y-112852924D01*
X35283784Y-112802357D01*
X35270000Y-112745537D01*
X35270000Y-112190000D01*
X35770000Y-112190000D01*
X35770000Y-112840000D01*
X36163569Y-112840000D01*
X36163571Y-112839999D01*
X36347097Y-112803493D01*
X36347105Y-112803491D01*
X36519991Y-112731880D01*
X36520000Y-112731875D01*
X36675589Y-112627913D01*
X36675593Y-112627910D01*
X36807910Y-112495593D01*
X36807913Y-112495589D01*
X36835838Y-112453796D01*
X55557829Y-112453796D01*
X55557829Y-112453803D01*
X55576851Y-112622636D01*
X55632971Y-112783019D01*
X55633300Y-112783544D01*
X55963046Y-112453800D01*
X55937784Y-112428538D01*
X56189600Y-112428538D01*
X56189600Y-112479062D01*
X56208935Y-112525740D01*
X56244660Y-112561465D01*
X56291338Y-112580800D01*
X56341862Y-112580800D01*
X56388540Y-112561465D01*
X56424265Y-112525740D01*
X56443600Y-112479062D01*
X56443600Y-112453799D01*
X56670153Y-112453799D01*
X56710300Y-112493946D01*
X56750446Y-112453801D01*
X56750446Y-112453800D01*
X56725185Y-112428538D01*
X56977000Y-112428538D01*
X56977000Y-112479062D01*
X56996335Y-112525740D01*
X57032060Y-112561465D01*
X57078738Y-112580800D01*
X57129262Y-112580800D01*
X57175940Y-112561465D01*
X57211665Y-112525740D01*
X57231000Y-112479062D01*
X57231000Y-112453799D01*
X57457553Y-112453799D01*
X57497700Y-112493946D01*
X57537846Y-112453801D01*
X57537846Y-112453800D01*
X57512585Y-112428538D01*
X57764400Y-112428538D01*
X57764400Y-112479062D01*
X57783735Y-112525740D01*
X57819460Y-112561465D01*
X57866138Y-112580800D01*
X57916662Y-112580800D01*
X57963340Y-112561465D01*
X57999065Y-112525740D01*
X58018400Y-112479062D01*
X58018400Y-112428538D01*
X57999065Y-112381860D01*
X57963340Y-112346135D01*
X57916662Y-112326800D01*
X57866138Y-112326800D01*
X57819460Y-112346135D01*
X57783735Y-112381860D01*
X57764400Y-112428538D01*
X57512585Y-112428538D01*
X57497700Y-112413653D01*
X57457553Y-112453799D01*
X57231000Y-112453799D01*
X57231000Y-112428538D01*
X57211665Y-112381860D01*
X57175940Y-112346135D01*
X57129262Y-112326800D01*
X57078738Y-112326800D01*
X57032060Y-112346135D01*
X56996335Y-112381860D01*
X56977000Y-112428538D01*
X56725185Y-112428538D01*
X56710300Y-112413653D01*
X56670153Y-112453799D01*
X56443600Y-112453799D01*
X56443600Y-112428538D01*
X56424265Y-112381860D01*
X56388540Y-112346135D01*
X56341862Y-112326800D01*
X56291338Y-112326800D01*
X56244660Y-112346135D01*
X56208935Y-112381860D01*
X56189600Y-112428538D01*
X55937784Y-112428538D01*
X55657026Y-112147780D01*
X55636662Y-112110486D01*
X55634557Y-112117668D01*
X55635968Y-112118346D01*
X55632974Y-112124574D01*
X55576851Y-112284965D01*
X55557829Y-112453796D01*
X36835838Y-112453796D01*
X36911875Y-112340000D01*
X36911880Y-112339991D01*
X36983492Y-112167103D01*
X36983493Y-112167100D01*
X36988884Y-112140000D01*
X36236988Y-112140000D01*
X36254205Y-112130060D01*
X36310060Y-112074205D01*
X36318204Y-112060099D01*
X56276453Y-112060099D01*
X56316600Y-112100246D01*
X56356746Y-112060101D01*
X56356746Y-112060100D01*
X56356745Y-112060099D01*
X57063853Y-112060099D01*
X57104000Y-112100246D01*
X57144146Y-112060101D01*
X57144146Y-112060100D01*
X57144145Y-112060099D01*
X57851253Y-112060099D01*
X57891400Y-112100246D01*
X57931546Y-112060101D01*
X57931546Y-112060100D01*
X57891400Y-112019953D01*
X57851253Y-112060099D01*
X57144145Y-112060099D01*
X57104000Y-112019953D01*
X57063853Y-112060099D01*
X56356745Y-112060099D01*
X56316600Y-112019953D01*
X56276453Y-112060099D01*
X36318204Y-112060099D01*
X36349556Y-112005796D01*
X36370000Y-111929496D01*
X36370000Y-111850504D01*
X36349556Y-111774204D01*
X36310060Y-111705795D01*
X36270661Y-111666396D01*
X55557829Y-111666396D01*
X55557829Y-111666403D01*
X55576851Y-111835236D01*
X55632972Y-111995621D01*
X55635981Y-112001875D01*
X55634450Y-112002611D01*
X55635417Y-112006040D01*
X55657026Y-111972417D01*
X55963045Y-111666399D01*
X55937784Y-111641138D01*
X56189600Y-111641138D01*
X56189600Y-111691662D01*
X56208935Y-111738340D01*
X56244660Y-111774065D01*
X56291338Y-111793400D01*
X56341862Y-111793400D01*
X56388540Y-111774065D01*
X56424265Y-111738340D01*
X56443600Y-111691662D01*
X56443600Y-111666399D01*
X56670153Y-111666399D01*
X56710300Y-111706546D01*
X56750446Y-111666401D01*
X56750446Y-111666400D01*
X56725185Y-111641138D01*
X56977000Y-111641138D01*
X56977000Y-111691662D01*
X56996335Y-111738340D01*
X57032060Y-111774065D01*
X57078738Y-111793400D01*
X57129262Y-111793400D01*
X57175940Y-111774065D01*
X57211665Y-111738340D01*
X57231000Y-111691662D01*
X57231000Y-111666399D01*
X57457553Y-111666399D01*
X57497700Y-111706546D01*
X57537846Y-111666401D01*
X57537846Y-111666400D01*
X57512585Y-111641138D01*
X57764400Y-111641138D01*
X57764400Y-111691662D01*
X57783735Y-111738340D01*
X57819460Y-111774065D01*
X57866138Y-111793400D01*
X57916662Y-111793400D01*
X57963340Y-111774065D01*
X57999065Y-111738340D01*
X58018400Y-111691662D01*
X58018400Y-111666399D01*
X58244953Y-111666399D01*
X58244953Y-111666400D01*
X58550972Y-111972418D01*
X58571383Y-112009797D01*
X58573492Y-112002625D01*
X58571998Y-112001905D01*
X58575029Y-111995615D01*
X58631148Y-111835236D01*
X58650171Y-111666403D01*
X58650171Y-111666396D01*
X58631148Y-111497565D01*
X58575025Y-111337174D01*
X58572009Y-111330909D01*
X58573557Y-111330163D01*
X58572590Y-111326741D01*
X58550972Y-111360380D01*
X58244953Y-111666399D01*
X58018400Y-111666399D01*
X58018400Y-111641138D01*
X57999065Y-111594460D01*
X57963340Y-111558735D01*
X57916662Y-111539400D01*
X57866138Y-111539400D01*
X57819460Y-111558735D01*
X57783735Y-111594460D01*
X57764400Y-111641138D01*
X57512585Y-111641138D01*
X57497700Y-111626253D01*
X57457553Y-111666399D01*
X57231000Y-111666399D01*
X57231000Y-111641138D01*
X57211665Y-111594460D01*
X57175940Y-111558735D01*
X57129262Y-111539400D01*
X57078738Y-111539400D01*
X57032060Y-111558735D01*
X56996335Y-111594460D01*
X56977000Y-111641138D01*
X56725185Y-111641138D01*
X56710300Y-111626253D01*
X56670153Y-111666399D01*
X56443600Y-111666399D01*
X56443600Y-111641138D01*
X56424265Y-111594460D01*
X56388540Y-111558735D01*
X56341862Y-111539400D01*
X56291338Y-111539400D01*
X56244660Y-111558735D01*
X56208935Y-111594460D01*
X56189600Y-111641138D01*
X55937784Y-111641138D01*
X55657026Y-111360380D01*
X55636662Y-111323086D01*
X55634557Y-111330268D01*
X55635968Y-111330946D01*
X55632974Y-111337174D01*
X55576851Y-111497565D01*
X55557829Y-111666396D01*
X36270661Y-111666396D01*
X36254205Y-111649940D01*
X36236988Y-111640000D01*
X36988884Y-111640000D01*
X36988884Y-111639999D01*
X36983493Y-111612899D01*
X36983492Y-111612896D01*
X36911880Y-111440008D01*
X36911875Y-111439999D01*
X36807913Y-111284410D01*
X36807910Y-111284406D01*
X36796203Y-111272699D01*
X56276453Y-111272699D01*
X56316600Y-111312846D01*
X56356746Y-111272701D01*
X56356746Y-111272700D01*
X56356745Y-111272699D01*
X57063853Y-111272699D01*
X57104000Y-111312846D01*
X57144146Y-111272701D01*
X57144146Y-111272700D01*
X57144145Y-111272699D01*
X57851253Y-111272699D01*
X57891400Y-111312846D01*
X57931546Y-111272701D01*
X57931546Y-111272700D01*
X57891400Y-111232553D01*
X57851253Y-111272699D01*
X57144145Y-111272699D01*
X57104000Y-111232553D01*
X57063853Y-111272699D01*
X56356745Y-111272699D01*
X56316600Y-111232553D01*
X56276453Y-111272699D01*
X36796203Y-111272699D01*
X36675593Y-111152089D01*
X36675589Y-111152086D01*
X36520000Y-111048124D01*
X36519991Y-111048119D01*
X36347105Y-110976508D01*
X36347097Y-110976506D01*
X36163570Y-110940000D01*
X35770000Y-110940000D01*
X35770000Y-111590000D01*
X35270000Y-111590000D01*
X35270000Y-110940000D01*
X34876430Y-110940000D01*
X34692902Y-110976506D01*
X34692894Y-110976508D01*
X34520008Y-111048119D01*
X34519999Y-111048124D01*
X34364410Y-111152086D01*
X34364406Y-111152089D01*
X34232089Y-111284406D01*
X34232086Y-111284410D01*
X34128124Y-111439999D01*
X34128119Y-111440008D01*
X34056507Y-111612896D01*
X34056506Y-111612899D01*
X34051115Y-111639999D01*
X32668884Y-111639999D01*
X32663493Y-111612899D01*
X32663492Y-111612896D01*
X32591880Y-111440008D01*
X32591875Y-111439999D01*
X32487913Y-111284410D01*
X32487910Y-111284406D01*
X32355593Y-111152089D01*
X32355589Y-111152086D01*
X32200000Y-111048124D01*
X32199991Y-111048119D01*
X32027105Y-110976508D01*
X32027097Y-110976506D01*
X31843570Y-110940000D01*
X31600000Y-110940000D01*
X31600000Y-111590000D01*
X31100000Y-111590000D01*
X31100000Y-110940000D01*
X30856430Y-110940000D01*
X30672902Y-110976506D01*
X30672894Y-110976508D01*
X30500008Y-111048119D01*
X30499999Y-111048124D01*
X30344410Y-111152086D01*
X30344406Y-111152089D01*
X30212089Y-111284406D01*
X30212086Y-111284410D01*
X30108124Y-111439999D01*
X30108119Y-111440008D01*
X30036507Y-111612896D01*
X30036506Y-111612899D01*
X30031115Y-111639999D01*
X29680500Y-111639999D01*
X29680500Y-110878996D01*
X55557829Y-110878996D01*
X55557829Y-110879003D01*
X55576851Y-111047836D01*
X55632972Y-111208221D01*
X55635981Y-111214475D01*
X55634450Y-111215211D01*
X55635417Y-111218640D01*
X55657026Y-111185017D01*
X55963045Y-110878999D01*
X55937784Y-110853738D01*
X56189600Y-110853738D01*
X56189600Y-110904262D01*
X56208935Y-110950940D01*
X56244660Y-110986665D01*
X56291338Y-111006000D01*
X56341862Y-111006000D01*
X56388540Y-110986665D01*
X56424265Y-110950940D01*
X56443600Y-110904262D01*
X56443600Y-110878999D01*
X56670153Y-110878999D01*
X56710300Y-110919146D01*
X56750446Y-110879001D01*
X56750446Y-110879000D01*
X56725185Y-110853738D01*
X56977000Y-110853738D01*
X56977000Y-110904262D01*
X56996335Y-110950940D01*
X57032060Y-110986665D01*
X57078738Y-111006000D01*
X57129262Y-111006000D01*
X57175940Y-110986665D01*
X57211665Y-110950940D01*
X57231000Y-110904262D01*
X57231000Y-110878999D01*
X57457553Y-110878999D01*
X57497700Y-110919146D01*
X57537846Y-110879001D01*
X57537846Y-110879000D01*
X57512585Y-110853738D01*
X57764400Y-110853738D01*
X57764400Y-110904262D01*
X57783735Y-110950940D01*
X57819460Y-110986665D01*
X57866138Y-111006000D01*
X57916662Y-111006000D01*
X57963340Y-110986665D01*
X57999065Y-110950940D01*
X58018400Y-110904262D01*
X58018400Y-110879000D01*
X58244953Y-110879000D01*
X58550972Y-111185018D01*
X58571383Y-111222397D01*
X58573492Y-111215225D01*
X58571998Y-111214505D01*
X58575029Y-111208215D01*
X58631148Y-111047836D01*
X58650171Y-110879003D01*
X58650171Y-110878996D01*
X58631148Y-110710165D01*
X58575026Y-110549779D01*
X58574697Y-110549255D01*
X58244953Y-110879000D01*
X58018400Y-110879000D01*
X58018400Y-110853738D01*
X57999065Y-110807060D01*
X57963340Y-110771335D01*
X57916662Y-110752000D01*
X57866138Y-110752000D01*
X57819460Y-110771335D01*
X57783735Y-110807060D01*
X57764400Y-110853738D01*
X57512585Y-110853738D01*
X57497700Y-110838853D01*
X57457553Y-110878999D01*
X57231000Y-110878999D01*
X57231000Y-110853738D01*
X57211665Y-110807060D01*
X57175940Y-110771335D01*
X57129262Y-110752000D01*
X57078738Y-110752000D01*
X57032060Y-110771335D01*
X56996335Y-110807060D01*
X56977000Y-110853738D01*
X56725185Y-110853738D01*
X56710300Y-110838853D01*
X56670153Y-110878999D01*
X56443600Y-110878999D01*
X56443600Y-110853738D01*
X56424265Y-110807060D01*
X56388540Y-110771335D01*
X56341862Y-110752000D01*
X56291338Y-110752000D01*
X56244660Y-110771335D01*
X56208935Y-110807060D01*
X56189600Y-110853738D01*
X55937784Y-110853738D01*
X55633301Y-110549255D01*
X55632972Y-110549780D01*
X55576851Y-110710165D01*
X55557829Y-110878996D01*
X29680500Y-110878996D01*
X29680500Y-110195701D01*
X55986855Y-110195701D01*
X56316599Y-110525445D01*
X56622617Y-110219426D01*
X56659934Y-110199049D01*
X56655805Y-110197834D01*
X56764383Y-110197834D01*
X56797980Y-110219426D01*
X57103999Y-110525445D01*
X57410017Y-110219426D01*
X57447334Y-110199049D01*
X57443205Y-110197834D01*
X57551783Y-110197834D01*
X57585380Y-110219426D01*
X57891400Y-110525446D01*
X57891401Y-110525446D01*
X58221144Y-110195700D01*
X58220619Y-110195371D01*
X58060236Y-110139251D01*
X57891404Y-110120229D01*
X57891396Y-110120229D01*
X57722565Y-110139251D01*
X57562174Y-110195374D01*
X57555946Y-110198368D01*
X57555225Y-110196868D01*
X57551783Y-110197834D01*
X57443205Y-110197834D01*
X57440167Y-110196940D01*
X57439475Y-110198381D01*
X57433221Y-110195372D01*
X57272836Y-110139251D01*
X57104004Y-110120229D01*
X57103996Y-110120229D01*
X56935165Y-110139251D01*
X56774774Y-110195374D01*
X56768546Y-110198368D01*
X56767825Y-110196868D01*
X56764383Y-110197834D01*
X56655805Y-110197834D01*
X56652767Y-110196940D01*
X56652075Y-110198381D01*
X56645821Y-110195372D01*
X56485436Y-110139251D01*
X56316604Y-110120229D01*
X56316596Y-110120229D01*
X56147765Y-110139251D01*
X55987380Y-110195372D01*
X55986855Y-110195701D01*
X29680500Y-110195701D01*
X29680500Y-108559953D01*
X29700185Y-108492914D01*
X29752989Y-108447159D01*
X29822147Y-108437215D01*
X29885703Y-108466240D01*
X29898791Y-108479422D01*
X29899908Y-108480730D01*
X30051671Y-108632493D01*
X30225317Y-108758655D01*
X30416554Y-108856096D01*
X30620683Y-108922422D01*
X30690000Y-108933400D01*
X30690000Y-107882251D01*
X30743919Y-107913381D01*
X30873120Y-107948000D01*
X31006880Y-107948000D01*
X31136081Y-107913381D01*
X31190000Y-107882251D01*
X31190000Y-108933399D01*
X31259316Y-108922422D01*
X31463445Y-108856096D01*
X31654682Y-108758655D01*
X31828327Y-108632493D01*
X31828328Y-108632493D01*
X31980093Y-108480728D01*
X31980093Y-108480727D01*
X32109120Y-108303140D01*
X32110977Y-108304489D01*
X32155715Y-108263959D01*
X32224637Y-108252490D01*
X32288818Y-108280104D01*
X32309574Y-108304040D01*
X32310453Y-108303402D01*
X32313316Y-108307343D01*
X32313317Y-108307344D01*
X32439523Y-108481051D01*
X32591349Y-108632877D01*
X32765056Y-108759083D01*
X32858888Y-108806892D01*
X32956366Y-108856561D01*
X32956369Y-108856562D01*
X33058470Y-108889736D01*
X33160573Y-108922911D01*
X33372643Y-108956500D01*
X33372644Y-108956500D01*
X33587356Y-108956500D01*
X33587357Y-108956500D01*
X33799427Y-108922911D01*
X34003633Y-108856561D01*
X34194944Y-108759083D01*
X34368651Y-108632877D01*
X34520477Y-108481051D01*
X34646683Y-108307344D01*
X34646683Y-108307343D01*
X34649547Y-108303402D01*
X34651478Y-108304805D01*
X34695927Y-108264478D01*
X34764840Y-108252958D01*
X34829042Y-108280525D01*
X34849478Y-108304109D01*
X34850453Y-108303402D01*
X34853316Y-108307343D01*
X34853317Y-108307344D01*
X34979523Y-108481051D01*
X35131349Y-108632877D01*
X35305056Y-108759083D01*
X35398888Y-108806892D01*
X35496366Y-108856561D01*
X35496369Y-108856562D01*
X35598470Y-108889736D01*
X35700573Y-108922911D01*
X35912643Y-108956500D01*
X35912644Y-108956500D01*
X36127356Y-108956500D01*
X36127357Y-108956500D01*
X36339427Y-108922911D01*
X36543633Y-108856561D01*
X36734944Y-108759083D01*
X36908651Y-108632877D01*
X37060477Y-108481051D01*
X37186683Y-108307344D01*
X37284161Y-108116033D01*
X37350511Y-107911827D01*
X37384100Y-107699757D01*
X37384100Y-107180243D01*
X37359412Y-107024371D01*
X37368367Y-106955078D01*
X37394199Y-106917297D01*
X37573080Y-106738416D01*
X37634403Y-106704934D01*
X37660760Y-106702100D01*
X47516377Y-106702100D01*
X47583416Y-106721785D01*
X47629171Y-106774589D01*
X47639115Y-106843747D01*
X47633418Y-106867055D01*
X47614633Y-106920737D01*
X47614630Y-106920750D01*
X47594435Y-107099996D01*
X47594435Y-107100003D01*
X47614630Y-107279249D01*
X47614631Y-107279254D01*
X47674211Y-107449523D01*
X47710251Y-107506880D01*
X47770184Y-107602262D01*
X47897738Y-107729816D01*
X48050478Y-107825789D01*
X48220745Y-107885368D01*
X48264635Y-107890313D01*
X48329048Y-107917378D01*
X48338423Y-107925842D01*
X48422392Y-108009811D01*
X48422394Y-108009813D01*
X48422396Y-108009814D01*
X48525156Y-108078476D01*
X48525159Y-108078478D01*
X48525167Y-108078483D01*
X48539264Y-108084322D01*
X48639366Y-108125786D01*
X48760592Y-108149899D01*
X48760596Y-108149900D01*
X48760597Y-108149900D01*
X48884203Y-108149900D01*
X54826878Y-108149900D01*
X54893917Y-108169585D01*
X54939672Y-108222389D01*
X54950098Y-108260017D01*
X54957831Y-108328653D01*
X54957831Y-108328654D01*
X54980508Y-108393463D01*
X54984069Y-108463242D01*
X54980509Y-108475368D01*
X54964630Y-108520748D01*
X54944435Y-108699996D01*
X54944435Y-108700003D01*
X54964630Y-108879249D01*
X54964631Y-108879254D01*
X55024211Y-109049523D01*
X55068495Y-109120000D01*
X55120184Y-109202262D01*
X55247738Y-109329816D01*
X55301059Y-109363320D01*
X55382721Y-109414632D01*
X55400478Y-109425789D01*
X55538860Y-109474211D01*
X55570745Y-109485368D01*
X55570750Y-109485369D01*
X55749996Y-109505565D01*
X55750000Y-109505565D01*
X55750004Y-109505565D01*
X55929249Y-109485369D01*
X55929252Y-109485368D01*
X55929255Y-109485368D01*
X56099522Y-109425789D01*
X56252262Y-109329816D01*
X56379816Y-109202262D01*
X56475789Y-109049522D01*
X56535368Y-108879255D01*
X56535369Y-108879249D01*
X56555565Y-108700003D01*
X56555565Y-108699996D01*
X56535369Y-108520753D01*
X56535368Y-108520746D01*
X56525629Y-108492914D01*
X56512689Y-108455934D01*
X56509127Y-108386160D01*
X56512681Y-108374056D01*
X56528568Y-108328655D01*
X56530969Y-108307344D01*
X56536302Y-108260017D01*
X56563368Y-108195603D01*
X56620963Y-108156048D01*
X56659522Y-108149900D01*
X57211119Y-108149900D01*
X57278158Y-108169585D01*
X57298800Y-108186219D01*
X59852830Y-110740249D01*
X59886315Y-110801572D01*
X59881331Y-110871264D01*
X59839459Y-110927197D01*
X59831122Y-110932923D01*
X59787740Y-110960182D01*
X59787737Y-110960184D01*
X59660184Y-111087737D01*
X59564210Y-111240478D01*
X59504632Y-111410745D01*
X59499686Y-111454637D01*
X59472618Y-111519051D01*
X59464147Y-111528432D01*
X58790513Y-112202066D01*
X58729190Y-112235551D01*
X58659498Y-112230567D01*
X58603565Y-112188695D01*
X58585790Y-112155338D01*
X58575027Y-112124578D01*
X58572009Y-112118309D01*
X58573557Y-112117563D01*
X58572590Y-112114141D01*
X58550972Y-112147780D01*
X57891400Y-112807353D01*
X57585380Y-113113372D01*
X57548020Y-113133771D01*
X57555202Y-113135877D01*
X57555909Y-113134409D01*
X57562178Y-113137427D01*
X57592938Y-113148190D01*
X57649715Y-113188911D01*
X57675463Y-113253863D01*
X57662008Y-113322425D01*
X57639666Y-113352913D01*
X57156400Y-113836181D01*
X57095077Y-113869666D01*
X57068719Y-113872500D01*
X55824547Y-113872500D01*
X55757508Y-113852815D01*
X55711753Y-113800011D01*
X55701327Y-113762383D01*
X55685369Y-113620750D01*
X55685368Y-113620745D01*
X55674505Y-113589700D01*
X55625789Y-113450478D01*
X55529816Y-113297738D01*
X55402262Y-113170184D01*
X55350128Y-113137426D01*
X55349604Y-113137097D01*
X55986855Y-113137097D01*
X55987379Y-113137426D01*
X56147765Y-113193548D01*
X56316596Y-113212571D01*
X56316604Y-113212571D01*
X56485436Y-113193548D01*
X56645815Y-113137429D01*
X56652105Y-113134398D01*
X56652864Y-113135973D01*
X56656279Y-113135005D01*
X56654359Y-113133771D01*
X56760620Y-113133771D01*
X56767802Y-113135877D01*
X56768509Y-113134409D01*
X56774774Y-113137425D01*
X56935165Y-113193548D01*
X57103996Y-113212571D01*
X57104004Y-113212571D01*
X57272836Y-113193548D01*
X57433215Y-113137429D01*
X57439505Y-113134398D01*
X57440264Y-113135973D01*
X57443679Y-113135005D01*
X57410018Y-113113372D01*
X57104001Y-112807353D01*
X57104000Y-112807353D01*
X56797980Y-113113372D01*
X56760620Y-113133771D01*
X56654359Y-113133771D01*
X56622618Y-113113372D01*
X56316601Y-112807353D01*
X56316600Y-112807353D01*
X55986855Y-113137097D01*
X55349604Y-113137097D01*
X55249523Y-113074211D01*
X55079254Y-113014631D01*
X55079249Y-113014630D01*
X54900004Y-112994435D01*
X54899996Y-112994435D01*
X54720746Y-113014631D01*
X54690951Y-113025056D01*
X54621172Y-113028615D01*
X54609049Y-113025056D01*
X54579253Y-113014631D01*
X54400004Y-112994435D01*
X54399996Y-112994435D01*
X54220750Y-113014630D01*
X54220745Y-113014631D01*
X54050476Y-113074211D01*
X53897737Y-113170184D01*
X53770184Y-113297737D01*
X53674211Y-113450476D01*
X53614631Y-113620745D01*
X53614630Y-113620750D01*
X53598673Y-113762383D01*
X53571607Y-113826797D01*
X53514012Y-113866352D01*
X53475453Y-113872500D01*
X41478192Y-113872500D01*
X41356973Y-113896612D01*
X41356961Y-113896615D01*
X41318113Y-113912706D01*
X41318114Y-113912707D01*
X41242770Y-113943915D01*
X41242766Y-113943917D01*
X41228452Y-113953482D01*
X41189880Y-113979255D01*
X41189879Y-113979256D01*
X41139989Y-114012590D01*
X40458432Y-114694147D01*
X40397109Y-114727632D01*
X40384637Y-114729686D01*
X40340745Y-114734632D01*
X40170478Y-114794210D01*
X40017737Y-114890184D01*
X39927681Y-114980241D01*
X39866358Y-115013726D01*
X39796666Y-115008742D01*
X39758138Y-114983981D01*
X39757705Y-114984525D01*
X39752392Y-114980288D01*
X39752319Y-114980241D01*
X39752262Y-114980184D01*
X39599523Y-114884211D01*
X39429254Y-114824631D01*
X39429249Y-114824630D01*
X39250004Y-114804435D01*
X39249996Y-114804435D01*
X39070750Y-114824630D01*
X39070745Y-114824631D01*
X38900476Y-114884211D01*
X38747737Y-114980184D01*
X38620184Y-115107737D01*
X38524211Y-115260476D01*
X38464631Y-115430745D01*
X38464630Y-115430750D01*
X38444435Y-115609996D01*
X38444435Y-115610003D01*
X38464630Y-115789249D01*
X38464631Y-115789254D01*
X38524211Y-115959523D01*
X38592208Y-116067738D01*
X38620184Y-116112262D01*
X38747738Y-116239816D01*
X38900478Y-116335789D01*
X39070745Y-116395368D01*
X39114635Y-116400313D01*
X39179048Y-116427378D01*
X39188433Y-116435852D01*
X39539988Y-116787408D01*
X39539992Y-116787411D01*
X39642760Y-116856079D01*
X39642773Y-116856086D01*
X39756960Y-116903383D01*
X39756965Y-116903385D01*
X39756969Y-116903385D01*
X39756970Y-116903386D01*
X39878193Y-116927500D01*
X39878196Y-116927500D01*
X41025160Y-116927500D01*
X41025161Y-116927499D01*
X41146391Y-116903386D01*
X41227140Y-116869937D01*
X41260589Y-116856083D01*
X41363364Y-116787411D01*
X41450767Y-116700008D01*
X42486956Y-115663819D01*
X42548279Y-115630334D01*
X42574637Y-115627500D01*
X50052790Y-115627500D01*
X50119829Y-115647185D01*
X50165584Y-115699989D01*
X50175528Y-115769147D01*
X50157784Y-115817472D01*
X50074211Y-115950476D01*
X50014631Y-116120745D01*
X50014630Y-116120750D01*
X49994435Y-116299996D01*
X49994435Y-116300003D01*
X50014630Y-116479249D01*
X50014631Y-116479254D01*
X50074211Y-116649523D01*
X50165266Y-116794435D01*
X50170184Y-116802262D01*
X50297738Y-116929816D01*
X50361695Y-116970003D01*
X50442450Y-117020745D01*
X50450478Y-117025789D01*
X50583290Y-117072262D01*
X50620745Y-117085368D01*
X50620750Y-117085369D01*
X50799996Y-117105565D01*
X50800000Y-117105565D01*
X50800004Y-117105565D01*
X50979249Y-117085369D01*
X50979252Y-117085368D01*
X50979255Y-117085368D01*
X51149522Y-117025789D01*
X51302262Y-116929816D01*
X51429816Y-116802262D01*
X51525789Y-116649522D01*
X51585368Y-116479255D01*
X51585369Y-116479249D01*
X51605565Y-116300003D01*
X51605565Y-116299996D01*
X51585369Y-116120750D01*
X51585368Y-116120745D01*
X51550902Y-116022247D01*
X51525789Y-115950478D01*
X51467483Y-115857684D01*
X51442216Y-115817472D01*
X51423216Y-115750235D01*
X51443584Y-115683400D01*
X51496852Y-115638186D01*
X51547210Y-115627500D01*
X52653258Y-115627500D01*
X52720297Y-115647185D01*
X52766052Y-115699989D01*
X52775996Y-115769147D01*
X52746971Y-115832703D01*
X52740939Y-115839181D01*
X52674984Y-115905135D01*
X52579011Y-116057874D01*
X52519431Y-116228143D01*
X52519430Y-116228148D01*
X52499235Y-116407394D01*
X52499235Y-116407401D01*
X52519430Y-116586647D01*
X52519431Y-116586652D01*
X52579011Y-116756921D01*
X52671041Y-116903385D01*
X52674984Y-116909660D01*
X52802538Y-117037214D01*
X52858317Y-117072262D01*
X52917548Y-117109480D01*
X52955278Y-117133187D01*
X53001181Y-117149249D01*
X53125545Y-117192766D01*
X53125550Y-117192767D01*
X53266479Y-117208645D01*
X53304800Y-117212963D01*
X53304800Y-117212962D01*
X53311724Y-117213743D01*
X53311689Y-117214049D01*
X53324849Y-117215345D01*
X53355667Y-117221476D01*
X53413096Y-117232900D01*
X53413097Y-117232900D01*
X59485918Y-117232900D01*
X59552957Y-117252585D01*
X59598712Y-117305389D01*
X59602956Y-117315936D01*
X59604211Y-117319522D01*
X59604212Y-117319524D01*
X59626735Y-117355369D01*
X59700184Y-117472262D01*
X59827738Y-117599816D01*
X59980478Y-117695789D01*
X60136770Y-117750478D01*
X60150745Y-117755368D01*
X60150750Y-117755369D01*
X60329996Y-117775565D01*
X60330000Y-117775565D01*
X60330004Y-117775565D01*
X60509249Y-117755369D01*
X60509252Y-117755368D01*
X60509255Y-117755368D01*
X60679522Y-117695789D01*
X60832262Y-117599816D01*
X60959816Y-117472262D01*
X61055789Y-117319522D01*
X61115368Y-117149255D01*
X61115369Y-117149249D01*
X61135565Y-116970003D01*
X61135565Y-116969996D01*
X61115369Y-116790750D01*
X61115368Y-116790745D01*
X61071982Y-116666755D01*
X61055789Y-116620478D01*
X61024073Y-116570003D01*
X60985123Y-116508014D01*
X60966123Y-116440778D01*
X60985124Y-116376069D01*
X61045788Y-116279524D01*
X61045789Y-116279522D01*
X61105368Y-116109255D01*
X61110313Y-116065361D01*
X61137378Y-116000951D01*
X61145832Y-115991585D01*
X61587411Y-115550008D01*
X61603743Y-115525565D01*
X61656083Y-115447233D01*
X61690898Y-115363182D01*
X61691954Y-115360634D01*
X61700319Y-115340438D01*
X61703386Y-115333034D01*
X61727500Y-115211803D01*
X61727500Y-115088196D01*
X61727500Y-111038197D01*
X61727500Y-111038194D01*
X61703386Y-110916970D01*
X61703385Y-110916969D01*
X61703385Y-110916965D01*
X61681534Y-110864211D01*
X61656086Y-110802773D01*
X61656084Y-110802769D01*
X61656083Y-110802767D01*
X61620178Y-110749031D01*
X61599300Y-110682354D01*
X61617784Y-110614974D01*
X61669763Y-110568283D01*
X61738733Y-110557107D01*
X61802797Y-110584992D01*
X61810961Y-110592459D01*
X69106321Y-117887819D01*
X69139806Y-117949142D01*
X69134822Y-118018834D01*
X69092950Y-118074767D01*
X69027486Y-118099184D01*
X69018640Y-118099500D01*
X66016322Y-118099500D01*
X65949283Y-118079815D01*
X65903528Y-118027011D01*
X65893102Y-117989383D01*
X65885369Y-117920750D01*
X65885368Y-117920748D01*
X65885368Y-117920745D01*
X65825789Y-117750478D01*
X65729816Y-117597738D01*
X65602262Y-117470184D01*
X65449523Y-117374211D01*
X65279254Y-117314631D01*
X65279249Y-117314630D01*
X65100004Y-117294435D01*
X65099996Y-117294435D01*
X64920750Y-117314630D01*
X64920745Y-117314631D01*
X64750476Y-117374211D01*
X64597737Y-117470184D01*
X64470184Y-117597737D01*
X64374210Y-117750478D01*
X64314630Y-117920750D01*
X64306898Y-117989383D01*
X64279832Y-118053797D01*
X64222237Y-118093352D01*
X64183678Y-118099500D01*
X55202360Y-118099500D01*
X55135321Y-118079815D01*
X55114679Y-118063181D01*
X55069699Y-118018201D01*
X55069698Y-118018200D01*
X55036092Y-117998798D01*
X55036092Y-117998797D01*
X55036090Y-117998797D01*
X55019784Y-117989383D01*
X54932404Y-117938934D01*
X54932403Y-117938933D01*
X54881357Y-117925255D01*
X54779268Y-117897900D01*
X52420732Y-117897900D01*
X52318642Y-117925255D01*
X52267597Y-117938933D01*
X52163908Y-117998798D01*
X52130304Y-118018198D01*
X51878915Y-118269586D01*
X51817592Y-118303070D01*
X51805119Y-118305124D01*
X51720750Y-118314630D01*
X51550478Y-118374210D01*
X51397737Y-118470184D01*
X51270184Y-118597737D01*
X51174211Y-118750476D01*
X51114631Y-118920745D01*
X51114630Y-118920750D01*
X51094435Y-119099996D01*
X51094435Y-119100003D01*
X51114630Y-119279249D01*
X51114631Y-119279254D01*
X51174211Y-119449523D01*
X51231382Y-119540509D01*
X51270184Y-119602262D01*
X51397738Y-119729816D01*
X51550478Y-119825789D01*
X51643072Y-119858189D01*
X51720745Y-119885368D01*
X51720750Y-119885369D01*
X51899996Y-119905565D01*
X51900000Y-119905565D01*
X51900004Y-119905565D01*
X52079249Y-119885369D01*
X52079252Y-119885368D01*
X52079255Y-119885368D01*
X52249522Y-119825789D01*
X52402262Y-119729816D01*
X52529816Y-119602262D01*
X52625789Y-119449522D01*
X52685368Y-119279255D01*
X52692921Y-119212215D01*
X52719986Y-119147804D01*
X52777581Y-119108248D01*
X52816141Y-119102100D01*
X53517808Y-119102100D01*
X53584847Y-119121785D01*
X53630602Y-119174589D01*
X53641028Y-119212217D01*
X53652230Y-119311649D01*
X53652231Y-119311654D01*
X53711811Y-119481923D01*
X53794163Y-119612984D01*
X53807784Y-119634662D01*
X53935338Y-119762216D01*
X54088078Y-119858189D01*
X54258345Y-119917768D01*
X54350224Y-119928119D01*
X54383785Y-119936776D01*
X54451965Y-119965018D01*
X54451969Y-119965018D01*
X54451970Y-119965019D01*
X54578101Y-119990109D01*
X54578104Y-119990109D01*
X65078451Y-119990109D01*
X65145490Y-120009794D01*
X65191245Y-120062598D01*
X65201189Y-120131756D01*
X65173804Y-120191720D01*
X65174525Y-120192295D01*
X65172224Y-120195179D01*
X65172164Y-120195312D01*
X65171850Y-120195649D01*
X65170186Y-120197734D01*
X65166673Y-120203325D01*
X65159668Y-120214473D01*
X65107337Y-120260762D01*
X65054676Y-120272500D01*
X44245324Y-120272500D01*
X44178285Y-120252815D01*
X44140331Y-120214473D01*
X44129816Y-120197738D01*
X44002262Y-120070184D01*
X43914186Y-120014842D01*
X43849523Y-119974211D01*
X43679254Y-119914631D01*
X43679249Y-119914630D01*
X43500004Y-119894435D01*
X43499996Y-119894435D01*
X43320750Y-119914630D01*
X43320745Y-119914631D01*
X43150476Y-119974211D01*
X42997737Y-120070184D01*
X42870184Y-120197737D01*
X42774211Y-120350476D01*
X42714631Y-120520745D01*
X42714630Y-120520750D01*
X42694435Y-120699996D01*
X42694435Y-120700003D01*
X42714630Y-120879249D01*
X42714631Y-120879254D01*
X42774211Y-121049523D01*
X42828293Y-121135593D01*
X42870184Y-121202262D01*
X42997738Y-121329816D01*
X43150478Y-121425789D01*
X43305401Y-121479999D01*
X43320745Y-121485368D01*
X43320750Y-121485369D01*
X43499998Y-121505565D01*
X43506967Y-121505565D01*
X43506967Y-121506067D01*
X43536735Y-121507317D01*
X43619417Y-121523764D01*
X43638196Y-121527500D01*
X43638197Y-121527500D01*
X65661804Y-121527500D01*
X65677649Y-121524347D01*
X65763264Y-121507317D01*
X65793033Y-121506066D01*
X65793033Y-121505565D01*
X65800002Y-121505565D01*
X65979249Y-121485369D01*
X65979252Y-121485368D01*
X65979255Y-121485368D01*
X66149522Y-121425789D01*
X66302262Y-121329816D01*
X66429816Y-121202262D01*
X66525789Y-121049522D01*
X66585368Y-120879255D01*
X66593498Y-120807100D01*
X66605565Y-120700003D01*
X66605565Y-120699996D01*
X66585369Y-120520750D01*
X66585368Y-120520745D01*
X66525788Y-120350476D01*
X66462955Y-120250478D01*
X66429816Y-120197738D01*
X66429813Y-120197735D01*
X66425475Y-120192295D01*
X66427710Y-120190512D01*
X66400383Y-120140467D01*
X66405367Y-120070775D01*
X66447239Y-120014842D01*
X66512703Y-119990425D01*
X66521549Y-119990109D01*
X71578450Y-119990109D01*
X71645489Y-120009794D01*
X71691244Y-120062598D01*
X71701188Y-120131756D01*
X71683444Y-120180081D01*
X71639211Y-120250476D01*
X71579631Y-120420745D01*
X71579630Y-120420750D01*
X71559435Y-120599996D01*
X71559435Y-120600003D01*
X71579630Y-120779249D01*
X71579631Y-120779254D01*
X71639211Y-120949523D01*
X71702045Y-121049522D01*
X71735184Y-121102262D01*
X71862738Y-121229816D01*
X72015478Y-121325789D01*
X72026984Y-121329815D01*
X72185745Y-121385368D01*
X72185750Y-121385369D01*
X72364996Y-121405565D01*
X72365000Y-121405565D01*
X72365004Y-121405565D01*
X72544249Y-121385369D01*
X72544252Y-121385368D01*
X72544255Y-121385368D01*
X72714522Y-121325789D01*
X72867262Y-121229816D01*
X72994816Y-121102262D01*
X73090789Y-120949522D01*
X73150368Y-120779255D01*
X73156545Y-120724428D01*
X73183610Y-120660018D01*
X73241205Y-120620462D01*
X73311042Y-120618323D01*
X73338796Y-120630780D01*
X73339363Y-120629720D01*
X73344733Y-120632590D01*
X73344737Y-120632593D01*
X73414340Y-120661423D01*
X73463556Y-120681809D01*
X73463560Y-120681809D01*
X73463561Y-120681810D01*
X73589692Y-120706900D01*
X73589695Y-120706900D01*
X73718305Y-120706900D01*
X77742240Y-120706900D01*
X77809279Y-120726585D01*
X77855034Y-120779389D01*
X77864978Y-120848547D01*
X77835953Y-120912103D01*
X77829921Y-120918581D01*
X75986921Y-122761581D01*
X75925598Y-122795066D01*
X75899240Y-122797900D01*
X67627409Y-122797900D01*
X67560370Y-122778215D01*
X67514615Y-122725411D01*
X67504189Y-122687783D01*
X67485369Y-122520750D01*
X67485368Y-122520745D01*
X67442326Y-122397738D01*
X67425789Y-122350478D01*
X67329816Y-122197738D01*
X67202262Y-122070184D01*
X67049523Y-121974211D01*
X66879254Y-121914631D01*
X66879249Y-121914630D01*
X66700004Y-121894435D01*
X66699996Y-121894435D01*
X66520750Y-121914630D01*
X66520745Y-121914631D01*
X66350476Y-121974211D01*
X66197737Y-122070184D01*
X66070184Y-122197737D01*
X65974211Y-122350476D01*
X65914631Y-122520745D01*
X65914630Y-122520750D01*
X65895811Y-122687783D01*
X65868745Y-122752197D01*
X65811150Y-122791753D01*
X65772591Y-122797900D01*
X64420732Y-122797900D01*
X64318642Y-122825255D01*
X64267597Y-122838933D01*
X64161826Y-122900000D01*
X64130303Y-122918199D01*
X64130300Y-122918201D01*
X56578915Y-130469585D01*
X56517592Y-130503070D01*
X56505152Y-130505120D01*
X56502806Y-130505385D01*
X56433981Y-130493350D01*
X56382588Y-130446015D01*
X56364945Y-130378410D01*
X56383895Y-130316196D01*
X56425788Y-130249524D01*
X56485368Y-130079254D01*
X56485369Y-130079249D01*
X56505565Y-129900003D01*
X56505565Y-129899996D01*
X56485369Y-129720750D01*
X56485368Y-129720745D01*
X56425788Y-129550476D01*
X56329815Y-129397737D01*
X56202262Y-129270184D01*
X56049523Y-129174211D01*
X55879254Y-129114631D01*
X55879249Y-129114630D01*
X55700004Y-129094435D01*
X55699996Y-129094435D01*
X55520750Y-129114630D01*
X55520745Y-129114631D01*
X55350476Y-129174211D01*
X55197737Y-129270184D01*
X55070184Y-129397737D01*
X54974211Y-129550476D01*
X54914631Y-129720745D01*
X54914630Y-129720750D01*
X54894435Y-129899996D01*
X54894435Y-129900003D01*
X54914630Y-130079249D01*
X54914631Y-130079254D01*
X54974211Y-130249523D01*
X54974212Y-130249524D01*
X55070184Y-130402262D01*
X55197738Y-130529816D01*
X55350478Y-130625789D01*
X55477352Y-130670184D01*
X55520745Y-130685368D01*
X55520750Y-130685369D01*
X55699996Y-130705565D01*
X55700000Y-130705565D01*
X55700002Y-130705565D01*
X55746097Y-130700371D01*
X55797227Y-130694610D01*
X55866049Y-130706664D01*
X55917428Y-130754013D01*
X55935053Y-130821623D01*
X55916105Y-130883801D01*
X55874212Y-130950474D01*
X55814631Y-131120745D01*
X55814630Y-131120750D01*
X55794435Y-131299996D01*
X55794435Y-131300003D01*
X55814630Y-131479249D01*
X55814631Y-131479254D01*
X55874211Y-131649523D01*
X55909892Y-131706308D01*
X55970184Y-131802262D01*
X56097738Y-131929816D01*
X56250478Y-132025789D01*
X56420745Y-132085368D01*
X56420750Y-132085369D01*
X56599996Y-132105565D01*
X56600000Y-132105565D01*
X56600004Y-132105565D01*
X56779249Y-132085369D01*
X56779252Y-132085368D01*
X56779255Y-132085368D01*
X56949522Y-132025789D01*
X57102262Y-131929816D01*
X57194943Y-131837135D01*
X69104500Y-131837135D01*
X69104500Y-133882870D01*
X69104501Y-133882876D01*
X69110908Y-133942483D01*
X69161202Y-134077328D01*
X69161206Y-134077335D01*
X69247452Y-134192544D01*
X69247455Y-134192547D01*
X69362664Y-134278793D01*
X69362671Y-134278797D01*
X69497517Y-134329091D01*
X69497516Y-134329091D01*
X69504444Y-134329835D01*
X69557127Y-134335500D01*
X71602872Y-134335499D01*
X71662483Y-134329091D01*
X71797331Y-134278796D01*
X71912546Y-134192546D01*
X71998796Y-134077331D01*
X72049091Y-133942483D01*
X72055500Y-133882873D01*
X72055499Y-132859994D01*
X77299443Y-132859994D01*
X77299443Y-132860005D01*
X77319634Y-133103683D01*
X77319636Y-133103695D01*
X77379663Y-133340734D01*
X77477888Y-133564666D01*
X77611632Y-133769378D01*
X77777242Y-133949277D01*
X77777252Y-133949286D01*
X77970208Y-134099470D01*
X77970212Y-134099473D01*
X78142197Y-134192547D01*
X78185267Y-134215855D01*
X78185270Y-134215856D01*
X78416541Y-134295251D01*
X78416543Y-134295251D01*
X78416545Y-134295252D01*
X78657737Y-134335500D01*
X78657738Y-134335500D01*
X78902262Y-134335500D01*
X78902263Y-134335500D01*
X79143455Y-134295252D01*
X79374733Y-134215855D01*
X79589788Y-134099473D01*
X79782754Y-133949281D01*
X79948368Y-133769377D01*
X80082111Y-133564667D01*
X80180336Y-133340736D01*
X80240364Y-133103692D01*
X80245701Y-133039286D01*
X80260557Y-132860005D01*
X80260557Y-132859994D01*
X80240365Y-132616316D01*
X80240363Y-132616304D01*
X80237444Y-132604778D01*
X80180336Y-132379264D01*
X80082111Y-132155333D01*
X80049596Y-132105565D01*
X79948367Y-131950621D01*
X79782757Y-131770722D01*
X79782747Y-131770713D01*
X79589791Y-131620529D01*
X79589787Y-131620526D01*
X79374734Y-131504145D01*
X79374729Y-131504143D01*
X79143458Y-131424748D01*
X78940664Y-131390908D01*
X78902263Y-131384500D01*
X78657737Y-131384500D01*
X78619336Y-131390908D01*
X78416541Y-131424748D01*
X78185270Y-131504143D01*
X78185265Y-131504145D01*
X77970212Y-131620526D01*
X77970208Y-131620529D01*
X77777252Y-131770713D01*
X77777242Y-131770722D01*
X77611632Y-131950621D01*
X77477888Y-132155333D01*
X77379663Y-132379265D01*
X77319636Y-132616304D01*
X77319634Y-132616316D01*
X77299443Y-132859994D01*
X72055499Y-132859994D01*
X72055499Y-131837128D01*
X72049091Y-131777517D01*
X72046553Y-131770713D01*
X71998797Y-131642671D01*
X71998793Y-131642664D01*
X71912547Y-131527455D01*
X71912544Y-131527452D01*
X71797335Y-131441206D01*
X71797328Y-131441202D01*
X71662482Y-131390908D01*
X71662483Y-131390908D01*
X71602883Y-131384501D01*
X71602881Y-131384500D01*
X71602873Y-131384500D01*
X71602864Y-131384500D01*
X69557129Y-131384500D01*
X69557123Y-131384501D01*
X69497516Y-131390908D01*
X69362671Y-131441202D01*
X69362664Y-131441206D01*
X69247455Y-131527452D01*
X69247452Y-131527455D01*
X69161206Y-131642664D01*
X69161202Y-131642671D01*
X69110908Y-131777517D01*
X69104501Y-131837116D01*
X69104501Y-131837123D01*
X69104500Y-131837135D01*
X57194943Y-131837135D01*
X57229816Y-131802262D01*
X57325789Y-131649522D01*
X57385368Y-131479255D01*
X57394874Y-131394878D01*
X57421939Y-131330468D01*
X57430403Y-131321093D01*
X60891503Y-127859994D01*
X69099945Y-127859994D01*
X69099945Y-127860005D01*
X69120130Y-128103605D01*
X69180138Y-128340573D01*
X69278330Y-128564429D01*
X69374626Y-128711819D01*
X69978958Y-128107487D01*
X70003978Y-128167890D01*
X70075112Y-128274351D01*
X70165649Y-128364888D01*
X70272110Y-128436022D01*
X70332511Y-128461041D01*
X69727758Y-129065794D01*
X69727758Y-129065796D01*
X69770478Y-129099046D01*
X69770484Y-129099050D01*
X69985468Y-129215394D01*
X69985476Y-129215397D01*
X70216664Y-129294765D01*
X70457779Y-129335000D01*
X70702221Y-129335000D01*
X70943335Y-129294765D01*
X71174523Y-129215397D01*
X71174531Y-129215394D01*
X71389514Y-129099051D01*
X71389514Y-129099050D01*
X71432240Y-129065795D01*
X71432240Y-129065794D01*
X70827488Y-128461041D01*
X70887890Y-128436022D01*
X70994351Y-128364888D01*
X71084888Y-128274351D01*
X71156022Y-128167890D01*
X71181041Y-128107488D01*
X71785372Y-128711819D01*
X71881667Y-128564431D01*
X71881672Y-128564423D01*
X71979861Y-128340573D01*
X72039869Y-128103605D01*
X72060055Y-127860005D01*
X72060055Y-127859994D01*
X77299945Y-127859994D01*
X77299945Y-127860005D01*
X77320130Y-128103605D01*
X77380138Y-128340573D01*
X77478330Y-128564429D01*
X77574626Y-128711819D01*
X78178958Y-128107487D01*
X78203978Y-128167890D01*
X78275112Y-128274351D01*
X78365649Y-128364888D01*
X78472110Y-128436022D01*
X78532511Y-128461041D01*
X77927758Y-129065794D01*
X77927758Y-129065796D01*
X77970478Y-129099046D01*
X77970484Y-129099050D01*
X78185468Y-129215394D01*
X78185476Y-129215397D01*
X78416664Y-129294765D01*
X78657779Y-129335000D01*
X78902221Y-129335000D01*
X79143335Y-129294765D01*
X79374523Y-129215397D01*
X79374531Y-129215394D01*
X79589514Y-129099051D01*
X79589514Y-129099050D01*
X79632240Y-129065795D01*
X79632240Y-129065794D01*
X79027488Y-128461041D01*
X79087890Y-128436022D01*
X79194351Y-128364888D01*
X79284888Y-128274351D01*
X79356022Y-128167890D01*
X79381041Y-128107488D01*
X79985372Y-128711819D01*
X80081667Y-128564431D01*
X80081672Y-128564423D01*
X80179861Y-128340573D01*
X80239869Y-128103605D01*
X80260055Y-127860005D01*
X80260055Y-127859994D01*
X80239869Y-127616394D01*
X80179861Y-127379426D01*
X80081669Y-127155570D01*
X79985372Y-127008179D01*
X79381041Y-127612510D01*
X79356022Y-127552110D01*
X79284888Y-127445649D01*
X79194351Y-127355112D01*
X79087890Y-127283978D01*
X79027487Y-127258958D01*
X79632240Y-126654204D01*
X79632240Y-126654203D01*
X79589514Y-126620949D01*
X79374531Y-126504605D01*
X79374523Y-126504602D01*
X79143335Y-126425234D01*
X78902221Y-126385000D01*
X78657779Y-126385000D01*
X78416664Y-126425234D01*
X78185476Y-126504602D01*
X78185468Y-126504605D01*
X77970481Y-126620951D01*
X77927758Y-126654202D01*
X77927757Y-126654204D01*
X78532511Y-127258958D01*
X78472110Y-127283978D01*
X78365649Y-127355112D01*
X78275112Y-127445649D01*
X78203978Y-127552110D01*
X78178958Y-127612511D01*
X77574626Y-127008179D01*
X77478328Y-127155575D01*
X77380138Y-127379426D01*
X77320130Y-127616394D01*
X77299945Y-127859994D01*
X72060055Y-127859994D01*
X72039869Y-127616394D01*
X71979861Y-127379426D01*
X71881669Y-127155570D01*
X71785372Y-127008179D01*
X71181041Y-127612510D01*
X71156022Y-127552110D01*
X71084888Y-127445649D01*
X70994351Y-127355112D01*
X70887890Y-127283978D01*
X70827487Y-127258958D01*
X71432240Y-126654204D01*
X71432240Y-126654203D01*
X71389514Y-126620949D01*
X71174531Y-126504605D01*
X71174523Y-126504602D01*
X70943335Y-126425234D01*
X70702221Y-126385000D01*
X70457779Y-126385000D01*
X70216664Y-126425234D01*
X69985476Y-126504602D01*
X69985468Y-126504605D01*
X69770481Y-126620951D01*
X69727758Y-126654202D01*
X69727757Y-126654204D01*
X70332511Y-127258958D01*
X70272110Y-127283978D01*
X70165649Y-127355112D01*
X70075112Y-127445649D01*
X70003978Y-127552110D01*
X69978958Y-127612511D01*
X69374626Y-127008179D01*
X69278328Y-127155575D01*
X69180138Y-127379426D01*
X69120130Y-127616394D01*
X69099945Y-127859994D01*
X60891503Y-127859994D01*
X64713079Y-124038419D01*
X64774402Y-124004934D01*
X64800760Y-124002100D01*
X76279266Y-124002100D01*
X76279268Y-124002100D01*
X76432402Y-123961067D01*
X76569698Y-123881800D01*
X76681800Y-123769698D01*
X80781800Y-119669698D01*
X80861068Y-119532401D01*
X80902100Y-119379268D01*
X80902100Y-119220732D01*
X80902100Y-115300759D01*
X80921785Y-115233720D01*
X80938415Y-115213082D01*
X81586219Y-114565277D01*
X81647542Y-114531793D01*
X81717234Y-114536777D01*
X81773167Y-114578649D01*
X81797584Y-114644113D01*
X81797900Y-114652959D01*
X81797900Y-115989594D01*
X81778215Y-116056633D01*
X81770847Y-116066907D01*
X81770184Y-116067738D01*
X81674211Y-116220476D01*
X81614631Y-116390745D01*
X81614630Y-116390750D01*
X81594435Y-116569996D01*
X81594435Y-116570003D01*
X81614630Y-116749249D01*
X81614631Y-116749254D01*
X81674211Y-116919523D01*
X81737817Y-117020750D01*
X81770184Y-117072262D01*
X81897738Y-117199816D01*
X81919903Y-117213743D01*
X82049048Y-117294891D01*
X82050478Y-117295789D01*
X82220745Y-117355368D01*
X82220750Y-117355369D01*
X82399996Y-117375565D01*
X82400000Y-117375565D01*
X82400001Y-117375565D01*
X82412017Y-117374211D01*
X82468034Y-117367899D01*
X82536854Y-117379953D01*
X82588234Y-117427301D01*
X82605859Y-117494911D01*
X82605137Y-117505001D01*
X82594435Y-117599994D01*
X82594435Y-117600003D01*
X82614630Y-117779249D01*
X82614633Y-117779262D01*
X82676510Y-117956094D01*
X82674364Y-117956844D01*
X82683962Y-118015144D01*
X82675609Y-118043590D01*
X82676510Y-118043906D01*
X82614633Y-118220737D01*
X82614630Y-118220750D01*
X82594435Y-118399996D01*
X82594435Y-118400003D01*
X82614630Y-118579249D01*
X82614631Y-118579254D01*
X82674211Y-118749523D01*
X82694681Y-118782100D01*
X82770184Y-118902262D01*
X82897738Y-119029816D01*
X82988080Y-119086582D01*
X83044105Y-119121785D01*
X83050478Y-119125789D01*
X83220745Y-119185368D01*
X83220750Y-119185369D01*
X83399996Y-119205565D01*
X83400000Y-119205565D01*
X83400004Y-119205565D01*
X83579249Y-119185369D01*
X83579252Y-119185368D01*
X83579255Y-119185368D01*
X83749522Y-119125789D01*
X83902262Y-119029816D01*
X84029816Y-118902262D01*
X84125789Y-118749522D01*
X84185368Y-118579255D01*
X84188721Y-118549500D01*
X84205565Y-118400003D01*
X84205565Y-118399996D01*
X84185369Y-118220750D01*
X84185366Y-118220737D01*
X84123489Y-118043905D01*
X84125637Y-118043153D01*
X84116035Y-117984872D01*
X84124392Y-117956411D01*
X84123489Y-117956095D01*
X84185366Y-117779262D01*
X84185369Y-117779249D01*
X84205565Y-117600003D01*
X84205565Y-117599996D01*
X84185369Y-117420750D01*
X84185368Y-117420745D01*
X84162492Y-117355369D01*
X84125789Y-117250478D01*
X84118452Y-117238802D01*
X84062186Y-117149254D01*
X84029816Y-117097738D01*
X83902262Y-116970184D01*
X83838017Y-116929816D01*
X83749523Y-116874211D01*
X83579254Y-116814631D01*
X83579249Y-116814630D01*
X83400004Y-116794435D01*
X83399996Y-116794435D01*
X83331965Y-116802100D01*
X83263143Y-116790045D01*
X83211764Y-116742696D01*
X83194140Y-116675086D01*
X83194862Y-116664997D01*
X83205565Y-116570003D01*
X83205565Y-116569996D01*
X83185369Y-116390750D01*
X83185368Y-116390745D01*
X83153615Y-116300000D01*
X83125789Y-116220478D01*
X83029816Y-116067738D01*
X83029811Y-116067733D01*
X83029153Y-116066907D01*
X83028892Y-116066268D01*
X83026111Y-116061842D01*
X83026886Y-116061354D01*
X83002745Y-116002221D01*
X83002100Y-115989594D01*
X83002100Y-115429384D01*
X83021785Y-115362345D01*
X83074589Y-115316590D01*
X83143747Y-115306646D01*
X83167055Y-115312343D01*
X83247337Y-115340435D01*
X83247343Y-115340436D01*
X83247345Y-115340437D01*
X83247346Y-115340437D01*
X83247350Y-115340438D01*
X83426596Y-115360634D01*
X83426600Y-115360634D01*
X83426604Y-115360634D01*
X83605849Y-115340438D01*
X83605852Y-115340437D01*
X83605855Y-115340437D01*
X83776122Y-115280858D01*
X83928862Y-115184885D01*
X84056416Y-115057331D01*
X84152389Y-114904591D01*
X84211968Y-114734324D01*
X84213382Y-114721777D01*
X84232165Y-114555072D01*
X84232165Y-114555065D01*
X84211969Y-114375819D01*
X84211968Y-114375814D01*
X84175368Y-114271217D01*
X84152389Y-114205547D01*
X84056416Y-114052807D01*
X83928862Y-113925253D01*
X83883285Y-113896615D01*
X83776123Y-113829280D01*
X83605854Y-113769700D01*
X83605849Y-113769699D01*
X83426604Y-113749504D01*
X83426596Y-113749504D01*
X83247350Y-113769699D01*
X83247342Y-113769701D01*
X83167054Y-113797795D01*
X83097275Y-113801356D01*
X83036648Y-113766627D01*
X83004421Y-113704633D01*
X83002100Y-113680753D01*
X83002100Y-112722945D01*
X83021107Y-112656972D01*
X83025789Y-112649522D01*
X83053832Y-112569377D01*
X83085366Y-112479262D01*
X83085369Y-112479249D01*
X83105565Y-112300003D01*
X83105565Y-112299996D01*
X83085369Y-112120750D01*
X83085368Y-112120745D01*
X83064147Y-112060099D01*
X83025789Y-111950478D01*
X82929816Y-111797738D01*
X82802262Y-111670184D01*
X82775700Y-111653494D01*
X82649523Y-111574211D01*
X82479254Y-111514631D01*
X82479249Y-111514630D01*
X82300004Y-111494435D01*
X82299996Y-111494435D01*
X82120750Y-111514630D01*
X82120745Y-111514631D01*
X81950476Y-111574211D01*
X81824300Y-111653494D01*
X81758328Y-111672500D01*
X81424569Y-111672500D01*
X81357530Y-111652815D01*
X81336888Y-111636181D01*
X81066888Y-111366181D01*
X81033403Y-111304858D01*
X81038387Y-111235166D01*
X81080259Y-111179233D01*
X81145723Y-111154816D01*
X81154569Y-111154500D01*
X83834804Y-111154500D01*
X83834805Y-111154499D01*
X83956035Y-111130386D01*
X84036784Y-111096937D01*
X84070233Y-111083083D01*
X84173008Y-111014411D01*
X84260411Y-110927008D01*
X84561568Y-110625849D01*
X84622888Y-110592367D01*
X84635345Y-110590315D01*
X84679255Y-110585368D01*
X84849522Y-110525789D01*
X85002262Y-110429816D01*
X85129816Y-110302262D01*
X85225789Y-110149522D01*
X85285368Y-109979255D01*
X85294354Y-109899500D01*
X85305565Y-109800003D01*
X85305565Y-109799996D01*
X85285369Y-109620750D01*
X85285368Y-109620745D01*
X85261836Y-109553494D01*
X85225789Y-109450478D01*
X85203265Y-109414632D01*
X85129815Y-109297737D01*
X85002262Y-109170184D01*
X84849523Y-109074211D01*
X84679254Y-109014631D01*
X84679249Y-109014630D01*
X84500004Y-108994435D01*
X84499996Y-108994435D01*
X84320750Y-109014630D01*
X84320745Y-109014631D01*
X84150476Y-109074211D01*
X83997737Y-109170184D01*
X83870184Y-109297737D01*
X83774210Y-109450478D01*
X83714632Y-109620745D01*
X83709686Y-109664637D01*
X83682618Y-109729051D01*
X83674148Y-109738432D01*
X83549398Y-109863182D01*
X83488078Y-109896666D01*
X83461719Y-109899500D01*
X80016322Y-109899500D01*
X79949283Y-109879815D01*
X79903528Y-109827011D01*
X79893102Y-109789383D01*
X79885369Y-109720750D01*
X79885368Y-109720748D01*
X79885368Y-109720745D01*
X79825789Y-109550478D01*
X79729816Y-109397738D01*
X79602262Y-109270184D01*
X79449523Y-109174211D01*
X79279254Y-109114631D01*
X79279249Y-109114630D01*
X79100004Y-109094435D01*
X79099996Y-109094435D01*
X78920750Y-109114630D01*
X78920745Y-109114631D01*
X78750476Y-109174211D01*
X78597737Y-109270184D01*
X78470184Y-109397737D01*
X78374210Y-109550478D01*
X78314630Y-109720750D01*
X78306898Y-109789383D01*
X78279832Y-109853797D01*
X78222237Y-109893352D01*
X78183678Y-109899500D01*
X76141209Y-109899500D01*
X76074170Y-109879815D01*
X76028415Y-109827011D01*
X76017989Y-109761616D01*
X76030565Y-109650002D01*
X76030565Y-109649996D01*
X76010369Y-109470748D01*
X75997195Y-109433099D01*
X75993633Y-109363320D01*
X75997195Y-109351188D01*
X76015368Y-109299255D01*
X76015539Y-109297737D01*
X76035565Y-109120003D01*
X76035565Y-109119996D01*
X76015369Y-108940750D01*
X76015368Y-108940745D01*
X76009127Y-108922910D01*
X75955789Y-108770478D01*
X75948628Y-108759082D01*
X75869328Y-108632877D01*
X75859816Y-108617738D01*
X75732262Y-108490184D01*
X75717211Y-108480727D01*
X75579523Y-108394211D01*
X75409254Y-108334631D01*
X75409249Y-108334630D01*
X75230004Y-108314435D01*
X75229996Y-108314435D01*
X75050750Y-108334630D01*
X75050745Y-108334631D01*
X74880476Y-108394211D01*
X74727737Y-108490184D01*
X74600184Y-108617737D01*
X74504211Y-108770476D01*
X74444631Y-108940745D01*
X74444630Y-108940750D01*
X74424435Y-109119996D01*
X74424435Y-109120003D01*
X74444631Y-109299253D01*
X74444632Y-109299257D01*
X74457804Y-109336903D01*
X74461365Y-109406681D01*
X74457804Y-109418807D01*
X74439632Y-109470742D01*
X74439631Y-109470746D01*
X74419435Y-109649996D01*
X74419435Y-109650002D01*
X74432011Y-109761616D01*
X74419957Y-109830438D01*
X74372608Y-109881818D01*
X74308791Y-109899500D01*
X71538281Y-109899500D01*
X71471242Y-109879815D01*
X71450604Y-109863185D01*
X71300008Y-109712589D01*
X71277782Y-109697738D01*
X71197239Y-109643920D01*
X71197226Y-109643913D01*
X71144954Y-109622262D01*
X71083035Y-109596614D01*
X71083027Y-109596612D01*
X70961807Y-109572500D01*
X70961803Y-109572500D01*
X69541672Y-109572500D01*
X69475700Y-109553494D01*
X69349523Y-109474211D01*
X69179254Y-109414631D01*
X69179249Y-109414630D01*
X69000004Y-109394435D01*
X68999996Y-109394435D01*
X68820750Y-109414630D01*
X68820745Y-109414631D01*
X68650476Y-109474211D01*
X68497737Y-109570184D01*
X68447391Y-109620531D01*
X68386068Y-109654016D01*
X68316376Y-109649032D01*
X68272029Y-109620531D01*
X61065279Y-102413781D01*
X61031794Y-102352458D01*
X61036778Y-102282766D01*
X61078650Y-102226833D01*
X61144114Y-102202416D01*
X61152960Y-102202100D01*
X62899240Y-102202100D01*
X62966279Y-102221785D01*
X62986921Y-102238419D01*
X66569585Y-105821083D01*
X66603070Y-105882406D01*
X66605124Y-105894880D01*
X66614630Y-105979249D01*
X66674210Y-106149521D01*
X66674211Y-106149522D01*
X66770184Y-106302262D01*
X66897738Y-106429816D01*
X67050478Y-106525789D01*
X67193727Y-106575914D01*
X67220745Y-106585368D01*
X67220750Y-106585369D01*
X67399996Y-106605565D01*
X67400000Y-106605565D01*
X67400004Y-106605565D01*
X67579249Y-106585369D01*
X67579252Y-106585368D01*
X67579255Y-106585368D01*
X67749522Y-106525789D01*
X67902262Y-106429816D01*
X68029816Y-106302262D01*
X68125789Y-106149522D01*
X68125789Y-106149519D01*
X68126423Y-106148512D01*
X68178758Y-106102221D01*
X68247811Y-106091573D01*
X68311660Y-106119948D01*
X68336409Y-106148510D01*
X68370184Y-106202262D01*
X68497738Y-106329816D01*
X68511651Y-106338558D01*
X68612471Y-106401908D01*
X68650478Y-106425789D01*
X68820745Y-106485368D01*
X68820750Y-106485369D01*
X68999996Y-106505565D01*
X69000000Y-106505565D01*
X69000004Y-106505565D01*
X69179249Y-106485369D01*
X69179252Y-106485368D01*
X69179255Y-106485368D01*
X69349522Y-106425789D01*
X69502262Y-106329816D01*
X69629816Y-106202262D01*
X69725789Y-106049522D01*
X69785368Y-105879255D01*
X69785369Y-105879249D01*
X69805565Y-105700003D01*
X69805565Y-105699996D01*
X69785369Y-105520750D01*
X69785368Y-105520745D01*
X69745065Y-105405565D01*
X69725789Y-105350478D01*
X69629816Y-105197738D01*
X69502262Y-105070184D01*
X69349521Y-104974210D01*
X69179249Y-104914630D01*
X69094880Y-104905124D01*
X69030466Y-104878057D01*
X69021083Y-104869585D01*
X64459699Y-100308201D01*
X64459698Y-100308200D01*
X64360133Y-100250717D01*
X64360133Y-100250715D01*
X64360130Y-100250715D01*
X64322407Y-100228935D01*
X64322406Y-100228934D01*
X64291863Y-100220750D01*
X64169268Y-100187900D01*
X64169266Y-100187900D01*
X62080406Y-100187900D01*
X62013367Y-100168215D01*
X62003093Y-100160847D01*
X62002265Y-100160187D01*
X62002262Y-100160184D01*
X61925892Y-100112197D01*
X61849523Y-100064211D01*
X61679254Y-100004631D01*
X61679249Y-100004630D01*
X61500004Y-99984435D01*
X61499996Y-99984435D01*
X61320750Y-100004630D01*
X61320742Y-100004632D01*
X61167054Y-100058410D01*
X61097275Y-100061971D01*
X61036648Y-100027242D01*
X61004421Y-99965249D01*
X61002100Y-99941368D01*
X61002100Y-93987155D01*
X69055000Y-93987155D01*
X69055000Y-94760000D01*
X69929999Y-94760000D01*
X69904979Y-94820402D01*
X69880000Y-94945981D01*
X69880000Y-95074019D01*
X69904979Y-95199598D01*
X69929999Y-95260000D01*
X69055000Y-95260000D01*
X69055000Y-96032844D01*
X69061401Y-96092372D01*
X69061403Y-96092379D01*
X69111645Y-96227086D01*
X69111649Y-96227093D01*
X69197809Y-96342187D01*
X69197812Y-96342190D01*
X69312906Y-96428350D01*
X69312913Y-96428354D01*
X69447620Y-96478596D01*
X69447627Y-96478598D01*
X69507155Y-96484999D01*
X69507172Y-96485000D01*
X70280000Y-96485000D01*
X70280000Y-95610001D01*
X70340402Y-95635021D01*
X70465981Y-95660000D01*
X70594019Y-95660000D01*
X70719598Y-95635021D01*
X70780000Y-95610001D01*
X70780000Y-96485000D01*
X71552828Y-96485000D01*
X71552844Y-96484999D01*
X71612372Y-96478598D01*
X71612379Y-96478596D01*
X71747086Y-96428354D01*
X71747093Y-96428350D01*
X71862187Y-96342190D01*
X71862190Y-96342187D01*
X71948350Y-96227093D01*
X71948354Y-96227086D01*
X71998596Y-96092379D01*
X71998598Y-96092372D01*
X72004999Y-96032844D01*
X72005000Y-96032827D01*
X72005000Y-95260000D01*
X71130001Y-95260000D01*
X71155021Y-95199598D01*
X71180000Y-95074019D01*
X71180000Y-95009994D01*
X77249945Y-95009994D01*
X77249945Y-95010005D01*
X77270130Y-95253605D01*
X77330138Y-95490573D01*
X77428330Y-95714429D01*
X77524626Y-95861819D01*
X78128958Y-95257487D01*
X78153978Y-95317890D01*
X78225112Y-95424351D01*
X78315649Y-95514888D01*
X78422110Y-95586022D01*
X78482511Y-95611041D01*
X77877758Y-96215794D01*
X77877758Y-96215796D01*
X77920478Y-96249046D01*
X77920484Y-96249050D01*
X78135468Y-96365394D01*
X78135476Y-96365397D01*
X78366664Y-96444765D01*
X78607779Y-96485000D01*
X78852221Y-96485000D01*
X79093335Y-96444765D01*
X79324523Y-96365397D01*
X79324531Y-96365394D01*
X79539514Y-96249051D01*
X79539514Y-96249050D01*
X79582240Y-96215795D01*
X79582240Y-96215794D01*
X78977488Y-95611041D01*
X79037890Y-95586022D01*
X79144351Y-95514888D01*
X79234888Y-95424351D01*
X79306022Y-95317890D01*
X79331041Y-95257488D01*
X79935372Y-95861819D01*
X80031667Y-95714431D01*
X80031672Y-95714423D01*
X80129861Y-95490573D01*
X80189869Y-95253605D01*
X80210055Y-95010005D01*
X80210055Y-95009994D01*
X80189869Y-94766394D01*
X80129861Y-94529426D01*
X80031669Y-94305570D01*
X79935372Y-94158179D01*
X79331041Y-94762510D01*
X79306022Y-94702110D01*
X79234888Y-94595649D01*
X79144351Y-94505112D01*
X79037890Y-94433978D01*
X78977487Y-94408958D01*
X79582240Y-93804204D01*
X79582240Y-93804203D01*
X79539514Y-93770949D01*
X79324531Y-93654605D01*
X79324523Y-93654602D01*
X79093335Y-93575234D01*
X78852221Y-93535000D01*
X78607779Y-93535000D01*
X78366664Y-93575234D01*
X78135476Y-93654602D01*
X78135468Y-93654605D01*
X77920481Y-93770951D01*
X77877758Y-93804202D01*
X77877757Y-93804204D01*
X78482511Y-94408958D01*
X78422110Y-94433978D01*
X78315649Y-94505112D01*
X78225112Y-94595649D01*
X78153978Y-94702110D01*
X78128958Y-94762511D01*
X77524626Y-94158179D01*
X77428328Y-94305575D01*
X77330138Y-94529426D01*
X77270130Y-94766394D01*
X77249945Y-95009994D01*
X71180000Y-95009994D01*
X71180000Y-94945981D01*
X71155021Y-94820402D01*
X71130001Y-94760000D01*
X72005000Y-94760000D01*
X72005000Y-93987172D01*
X72004999Y-93987155D01*
X71998598Y-93927627D01*
X71998596Y-93927620D01*
X71948354Y-93792913D01*
X71948350Y-93792906D01*
X71862190Y-93677812D01*
X71862187Y-93677809D01*
X71747093Y-93591649D01*
X71747086Y-93591645D01*
X71612379Y-93541403D01*
X71612372Y-93541401D01*
X71552844Y-93535000D01*
X70780000Y-93535000D01*
X70780000Y-94409998D01*
X70719598Y-94384979D01*
X70594019Y-94360000D01*
X70465981Y-94360000D01*
X70340402Y-94384979D01*
X70280000Y-94409998D01*
X70280000Y-93535000D01*
X69507155Y-93535000D01*
X69447627Y-93541401D01*
X69447620Y-93541403D01*
X69312913Y-93591645D01*
X69312906Y-93591649D01*
X69197812Y-93677809D01*
X69197809Y-93677812D01*
X69111649Y-93792906D01*
X69111645Y-93792913D01*
X69061403Y-93927620D01*
X69061401Y-93927627D01*
X69055000Y-93987155D01*
X61002100Y-93987155D01*
X61002100Y-91970759D01*
X61021785Y-91903720D01*
X61038414Y-91883082D01*
X61646500Y-91274996D01*
X62819435Y-91274996D01*
X62819435Y-91275003D01*
X62839630Y-91454249D01*
X62839631Y-91454254D01*
X62899211Y-91624523D01*
X62995184Y-91777262D01*
X63122738Y-91904816D01*
X63213080Y-91961582D01*
X63227685Y-91970759D01*
X63275478Y-92000789D01*
X63390952Y-92041195D01*
X63445745Y-92060368D01*
X63445750Y-92060369D01*
X63624996Y-92080565D01*
X63625000Y-92080565D01*
X63625004Y-92080565D01*
X63804248Y-92060369D01*
X63804248Y-92060368D01*
X63804255Y-92060368D01*
X63859048Y-92041194D01*
X63928822Y-92037632D01*
X63940927Y-92041186D01*
X63995745Y-92060368D01*
X63995749Y-92060368D01*
X63995751Y-92060369D01*
X64174996Y-92080565D01*
X64175000Y-92080565D01*
X64175004Y-92080565D01*
X64354249Y-92060369D01*
X64354252Y-92060368D01*
X64354255Y-92060368D01*
X64524522Y-92000789D01*
X64677262Y-91904816D01*
X64804816Y-91777262D01*
X64900789Y-91624522D01*
X64960368Y-91454255D01*
X64960369Y-91454249D01*
X64980565Y-91275003D01*
X64980565Y-91274996D01*
X64960369Y-91095750D01*
X64960368Y-91095745D01*
X64900788Y-90925476D01*
X64838150Y-90825789D01*
X64804816Y-90772738D01*
X64677262Y-90645184D01*
X64652804Y-90629816D01*
X64524523Y-90549211D01*
X64354254Y-90489631D01*
X64354249Y-90489630D01*
X64175004Y-90469435D01*
X64174996Y-90469435D01*
X63995746Y-90489631D01*
X63995745Y-90489631D01*
X63940953Y-90508803D01*
X63871174Y-90512364D01*
X63859047Y-90508803D01*
X63804254Y-90489631D01*
X63625004Y-90469435D01*
X63624996Y-90469435D01*
X63445750Y-90489630D01*
X63445745Y-90489631D01*
X63275476Y-90549211D01*
X63122737Y-90645184D01*
X62995184Y-90772737D01*
X62899211Y-90925476D01*
X62839631Y-91095745D01*
X62839630Y-91095750D01*
X62819435Y-91274996D01*
X61646500Y-91274996D01*
X62091085Y-90830411D01*
X62152406Y-90796928D01*
X62164860Y-90794876D01*
X62249255Y-90785368D01*
X62419522Y-90725789D01*
X62572262Y-90629816D01*
X62699816Y-90502262D01*
X62795789Y-90349522D01*
X62855368Y-90179255D01*
X62859861Y-90139377D01*
X62874439Y-90009994D01*
X69049443Y-90009994D01*
X69049443Y-90010005D01*
X69069634Y-90253683D01*
X69069636Y-90253695D01*
X69129663Y-90490734D01*
X69227888Y-90714666D01*
X69361632Y-90919378D01*
X69527242Y-91099277D01*
X69527252Y-91099286D01*
X69720208Y-91249470D01*
X69720212Y-91249473D01*
X69935267Y-91365855D01*
X69935270Y-91365856D01*
X70166541Y-91445251D01*
X70166543Y-91445251D01*
X70166545Y-91445252D01*
X70407737Y-91485500D01*
X70407738Y-91485500D01*
X70652262Y-91485500D01*
X70652263Y-91485500D01*
X70893455Y-91445252D01*
X71124733Y-91365855D01*
X71339788Y-91249473D01*
X71532754Y-91099281D01*
X71698368Y-90919377D01*
X71832111Y-90714667D01*
X71930336Y-90490736D01*
X71990364Y-90253692D01*
X71994813Y-90200000D01*
X72010557Y-90010005D01*
X72010557Y-90009994D01*
X77249443Y-90009994D01*
X77249443Y-90010005D01*
X77269634Y-90253683D01*
X77269636Y-90253695D01*
X77329663Y-90490734D01*
X77427888Y-90714666D01*
X77561632Y-90919378D01*
X77727242Y-91099277D01*
X77727252Y-91099286D01*
X77920208Y-91249470D01*
X77920212Y-91249473D01*
X78135267Y-91365855D01*
X78135270Y-91365856D01*
X78366541Y-91445251D01*
X78366543Y-91445251D01*
X78366545Y-91445252D01*
X78607737Y-91485500D01*
X78607738Y-91485500D01*
X78852262Y-91485500D01*
X78852263Y-91485500D01*
X79093455Y-91445252D01*
X79324733Y-91365855D01*
X79539788Y-91249473D01*
X79732754Y-91099281D01*
X79898368Y-90919377D01*
X80032111Y-90714667D01*
X80130336Y-90490736D01*
X80190364Y-90253692D01*
X80194813Y-90200000D01*
X80210557Y-90010005D01*
X80210557Y-90009994D01*
X80190365Y-89766316D01*
X80190363Y-89766304D01*
X80130336Y-89529265D01*
X80106187Y-89474211D01*
X80032111Y-89305333D01*
X79982890Y-89229994D01*
X79898367Y-89100621D01*
X79732757Y-88920722D01*
X79732747Y-88920713D01*
X79539791Y-88770529D01*
X79539787Y-88770526D01*
X79324734Y-88654145D01*
X79324729Y-88654143D01*
X79093458Y-88574748D01*
X78912561Y-88544562D01*
X78852263Y-88534500D01*
X78607737Y-88534500D01*
X78559498Y-88542549D01*
X78366541Y-88574748D01*
X78135270Y-88654143D01*
X78135265Y-88654145D01*
X77920212Y-88770526D01*
X77920208Y-88770529D01*
X77727252Y-88920713D01*
X77727242Y-88920722D01*
X77561632Y-89100621D01*
X77427888Y-89305333D01*
X77329663Y-89529265D01*
X77269636Y-89766304D01*
X77269634Y-89766316D01*
X77249443Y-90009994D01*
X72010557Y-90009994D01*
X71990365Y-89766316D01*
X71990363Y-89766304D01*
X71930336Y-89529265D01*
X71906187Y-89474211D01*
X71832111Y-89305333D01*
X71782890Y-89229994D01*
X71698367Y-89100621D01*
X71532757Y-88920722D01*
X71532747Y-88920713D01*
X71339791Y-88770529D01*
X71339787Y-88770526D01*
X71124734Y-88654145D01*
X71124729Y-88654143D01*
X70893458Y-88574748D01*
X70712561Y-88544562D01*
X70652263Y-88534500D01*
X70407737Y-88534500D01*
X70359498Y-88542549D01*
X70166541Y-88574748D01*
X69935270Y-88654143D01*
X69935265Y-88654145D01*
X69720212Y-88770526D01*
X69720208Y-88770529D01*
X69527252Y-88920713D01*
X69527242Y-88920722D01*
X69361632Y-89100621D01*
X69227888Y-89305333D01*
X69129663Y-89529265D01*
X69069636Y-89766304D01*
X69069634Y-89766316D01*
X69049443Y-90009994D01*
X62874439Y-90009994D01*
X62875565Y-90000003D01*
X62875565Y-89999996D01*
X62855369Y-89820750D01*
X62855368Y-89820745D01*
X62834807Y-89761984D01*
X62795789Y-89650478D01*
X62790623Y-89642257D01*
X62699815Y-89497737D01*
X62572262Y-89370184D01*
X62419523Y-89274211D01*
X62249254Y-89214631D01*
X62249249Y-89214630D01*
X62070004Y-89194435D01*
X62069996Y-89194435D01*
X61890750Y-89214630D01*
X61890745Y-89214631D01*
X61720476Y-89274211D01*
X61567737Y-89370184D01*
X61440184Y-89497737D01*
X61344210Y-89650478D01*
X61284630Y-89820750D01*
X61275124Y-89905119D01*
X61248057Y-89969532D01*
X61239585Y-89978915D01*
X60030302Y-91188200D01*
X59918201Y-91300300D01*
X59918199Y-91300303D01*
X59838933Y-91437597D01*
X59797900Y-91590733D01*
X59797900Y-100847040D01*
X59778215Y-100914079D01*
X59725411Y-100959834D01*
X59656253Y-100969778D01*
X59592697Y-100940753D01*
X59586219Y-100934721D01*
X55138419Y-96486921D01*
X55104934Y-96425598D01*
X55102100Y-96399240D01*
X55102100Y-90780405D01*
X55121785Y-90713366D01*
X55129159Y-90703084D01*
X55129802Y-90702275D01*
X55129816Y-90702262D01*
X55139841Y-90686306D01*
X55192174Y-90640014D01*
X55261227Y-90629364D01*
X55325076Y-90657738D01*
X55332517Y-90664595D01*
X55397738Y-90729816D01*
X55397996Y-90729978D01*
X55509008Y-90799732D01*
X55550478Y-90825789D01*
X55563693Y-90830413D01*
X55720745Y-90885368D01*
X55720750Y-90885369D01*
X55899996Y-90905565D01*
X55900000Y-90905565D01*
X55900004Y-90905565D01*
X56079249Y-90885369D01*
X56079252Y-90885368D01*
X56079255Y-90885368D01*
X56249522Y-90825789D01*
X56402262Y-90729816D01*
X56529816Y-90602262D01*
X56625789Y-90449522D01*
X56685368Y-90279255D01*
X56688248Y-90253695D01*
X56705565Y-90100003D01*
X56705565Y-90099996D01*
X56685369Y-89920750D01*
X56685368Y-89920745D01*
X56679900Y-89905119D01*
X56625789Y-89750478D01*
X56600817Y-89710736D01*
X56562955Y-89650478D01*
X56529816Y-89597738D01*
X56402262Y-89470184D01*
X56313852Y-89414632D01*
X56249523Y-89374211D01*
X56079254Y-89314631D01*
X56079249Y-89314630D01*
X55900004Y-89294435D01*
X55899996Y-89294435D01*
X55720750Y-89314630D01*
X55720745Y-89314631D01*
X55550476Y-89374211D01*
X55397737Y-89470184D01*
X55270184Y-89597737D01*
X55270183Y-89597739D01*
X55260155Y-89613698D01*
X55207819Y-89659988D01*
X55138765Y-89670634D01*
X55074918Y-89642257D01*
X55067482Y-89635404D01*
X55002262Y-89570184D01*
X54849523Y-89474211D01*
X54679254Y-89414631D01*
X54679249Y-89414630D01*
X54500004Y-89394435D01*
X54499996Y-89394435D01*
X54320750Y-89414630D01*
X54320745Y-89414631D01*
X54150476Y-89474211D01*
X53997737Y-89570184D01*
X53870184Y-89697737D01*
X53774211Y-89850476D01*
X53714631Y-90020745D01*
X53714630Y-90020750D01*
X53694435Y-90199996D01*
X53694435Y-90200003D01*
X53714630Y-90379249D01*
X53714631Y-90379254D01*
X53774211Y-90549523D01*
X53824379Y-90629364D01*
X53870184Y-90702262D01*
X53870191Y-90702269D01*
X53870841Y-90703084D01*
X53871101Y-90703721D01*
X53873889Y-90708158D01*
X53873112Y-90708646D01*
X53897254Y-90767769D01*
X53897900Y-90780405D01*
X53897900Y-93766460D01*
X53878215Y-93833499D01*
X53825411Y-93879254D01*
X53756253Y-93889198D01*
X53692697Y-93860173D01*
X53686219Y-93854141D01*
X53602262Y-93770184D01*
X53449523Y-93674211D01*
X53279254Y-93614631D01*
X53279249Y-93614630D01*
X53100004Y-93594435D01*
X53099996Y-93594435D01*
X52920750Y-93614630D01*
X52920745Y-93614631D01*
X52750476Y-93674211D01*
X52597737Y-93770184D01*
X52470184Y-93897737D01*
X52374211Y-94050476D01*
X52314631Y-94220745D01*
X52314630Y-94220750D01*
X52294435Y-94399996D01*
X52294435Y-94400003D01*
X52314630Y-94579249D01*
X52314631Y-94579254D01*
X52374211Y-94749523D01*
X52384812Y-94766394D01*
X52470184Y-94902262D01*
X52597738Y-95029816D01*
X52750478Y-95125789D01*
X52920745Y-95185368D01*
X52920750Y-95185369D01*
X53099996Y-95205565D01*
X53100000Y-95205565D01*
X53100004Y-95205565D01*
X53279249Y-95185369D01*
X53279252Y-95185368D01*
X53279255Y-95185368D01*
X53449522Y-95125789D01*
X53602262Y-95029816D01*
X53686219Y-94945859D01*
X53747542Y-94912374D01*
X53817234Y-94917358D01*
X53873167Y-94959230D01*
X53897584Y-95024694D01*
X53897900Y-95033540D01*
X53897900Y-96779268D01*
X53938933Y-96932402D01*
X54007103Y-97050478D01*
X54018199Y-97069696D01*
X54018201Y-97069699D01*
X62234721Y-105286219D01*
X62268206Y-105347542D01*
X62263222Y-105417234D01*
X62221350Y-105473167D01*
X62155886Y-105497584D01*
X62147040Y-105497900D01*
X51306023Y-105497900D01*
X51238984Y-105478215D01*
X51193229Y-105425411D01*
X51183285Y-105356253D01*
X51212310Y-105292697D01*
X51240050Y-105268907D01*
X51302260Y-105229817D01*
X51302259Y-105229817D01*
X51302262Y-105229816D01*
X51429816Y-105102262D01*
X51525789Y-104949522D01*
X51585368Y-104779255D01*
X51605565Y-104600000D01*
X51585368Y-104420745D01*
X51525789Y-104250478D01*
X51429816Y-104097738D01*
X51302262Y-103970184D01*
X51149523Y-103874211D01*
X50979254Y-103814631D01*
X50979249Y-103814630D01*
X50800004Y-103794435D01*
X50799996Y-103794435D01*
X50620750Y-103814630D01*
X50620745Y-103814631D01*
X50450476Y-103874211D01*
X50297737Y-103970184D01*
X50170184Y-104097737D01*
X50074211Y-104250476D01*
X50014631Y-104420745D01*
X50014630Y-104420750D01*
X49994435Y-104599996D01*
X49994435Y-104600003D01*
X50014630Y-104779249D01*
X50014631Y-104779254D01*
X50074211Y-104949523D01*
X50170184Y-105102262D01*
X50297739Y-105229817D01*
X50359950Y-105268907D01*
X50406240Y-105321241D01*
X50416888Y-105390295D01*
X50388513Y-105454143D01*
X50330123Y-105492515D01*
X50293977Y-105497900D01*
X37280732Y-105497900D01*
X37204165Y-105518416D01*
X37127596Y-105538933D01*
X37127591Y-105538936D01*
X37007554Y-105608239D01*
X37002428Y-105611198D01*
X36990302Y-105618199D01*
X36990300Y-105618201D01*
X36628633Y-105979867D01*
X36567310Y-106013352D01*
X36502634Y-106010117D01*
X36339428Y-105957089D01*
X36233392Y-105940294D01*
X36127357Y-105923500D01*
X35912643Y-105923500D01*
X35841953Y-105934696D01*
X35700571Y-105957089D01*
X35496369Y-106023437D01*
X35496366Y-106023438D01*
X35305055Y-106120917D01*
X35205949Y-106192922D01*
X35131349Y-106247123D01*
X35131347Y-106247125D01*
X35131346Y-106247125D01*
X34979525Y-106398946D01*
X34979525Y-106398947D01*
X34979523Y-106398949D01*
X34916736Y-106485368D01*
X34850453Y-106576598D01*
X34848562Y-106575224D01*
X34803848Y-106615630D01*
X34734911Y-106627011D01*
X34670765Y-106599315D01*
X34650488Y-106575914D01*
X34649547Y-106576598D01*
X34597938Y-106505565D01*
X34520477Y-106398949D01*
X34368651Y-106247123D01*
X34194944Y-106120917D01*
X34158251Y-106102221D01*
X34003633Y-106023438D01*
X34003630Y-106023437D01*
X33799428Y-105957089D01*
X33693392Y-105940294D01*
X33587357Y-105923500D01*
X33372643Y-105923500D01*
X33301953Y-105934696D01*
X33160571Y-105957089D01*
X32956369Y-106023437D01*
X32956366Y-106023438D01*
X32765055Y-106120917D01*
X32665949Y-106192922D01*
X32591349Y-106247123D01*
X32591347Y-106247125D01*
X32591346Y-106247125D01*
X32439525Y-106398946D01*
X32439525Y-106398947D01*
X32439523Y-106398949D01*
X32376736Y-106485368D01*
X32310453Y-106576598D01*
X32308694Y-106575320D01*
X32263546Y-106616113D01*
X32194608Y-106627488D01*
X32130464Y-106599788D01*
X32110030Y-106576198D01*
X32109120Y-106576860D01*
X31980093Y-106399272D01*
X31980093Y-106399271D01*
X31828328Y-106247506D01*
X31654682Y-106121344D01*
X31463443Y-106023903D01*
X31259307Y-105957575D01*
X31190000Y-105946597D01*
X31190000Y-106997748D01*
X31136081Y-106966619D01*
X31006880Y-106932000D01*
X30873120Y-106932000D01*
X30743919Y-106966619D01*
X30690000Y-106997748D01*
X30690000Y-105946597D01*
X30620692Y-105957575D01*
X30416556Y-106023903D01*
X30225317Y-106121344D01*
X30051672Y-106247506D01*
X30051671Y-106247506D01*
X29899902Y-106399275D01*
X29898783Y-106400586D01*
X29898233Y-106400944D01*
X29896459Y-106402719D01*
X29896086Y-106402346D01*
X29840273Y-106438774D01*
X29770405Y-106439267D01*
X29711362Y-106401908D01*
X29681890Y-106338558D01*
X29680500Y-106320046D01*
X29680500Y-102207002D01*
X29700185Y-102139963D01*
X29752989Y-102094208D01*
X29822147Y-102084264D01*
X29885703Y-102113289D01*
X29916881Y-102154597D01*
X29931230Y-102185368D01*
X29987145Y-102305279D01*
X29987264Y-102305533D01*
X30120345Y-102495592D01*
X30284408Y-102659655D01*
X30474467Y-102792736D01*
X30684749Y-102890792D01*
X30908863Y-102950843D01*
X31093772Y-102967020D01*
X31139999Y-102971065D01*
X31140000Y-102971065D01*
X31140001Y-102971065D01*
X31178522Y-102967694D01*
X31371137Y-102950843D01*
X31595251Y-102890792D01*
X31805533Y-102792736D01*
X31995592Y-102659655D01*
X32159655Y-102495592D01*
X32292736Y-102305533D01*
X32297893Y-102294472D01*
X32344064Y-102242033D01*
X32411257Y-102222879D01*
X32478138Y-102243093D01*
X32522659Y-102294473D01*
X32527698Y-102305279D01*
X32527698Y-102305280D01*
X32582665Y-102383781D01*
X33237861Y-101728584D01*
X33260667Y-101813694D01*
X33319910Y-101916306D01*
X33403694Y-102000090D01*
X33506306Y-102059333D01*
X33591414Y-102082137D01*
X32936218Y-102737333D01*
X33014718Y-102792301D01*
X33224919Y-102890318D01*
X33224925Y-102890321D01*
X33448948Y-102950348D01*
X33448955Y-102950349D01*
X33679998Y-102970563D01*
X33680002Y-102970563D01*
X33911044Y-102950349D01*
X33911051Y-102950348D01*
X34135074Y-102890321D01*
X34135085Y-102890317D01*
X34345279Y-102792302D01*
X34345283Y-102792300D01*
X34423780Y-102737333D01*
X33768585Y-102082138D01*
X33853694Y-102059333D01*
X33956306Y-102000090D01*
X34040090Y-101916306D01*
X34099333Y-101813694D01*
X34122138Y-101728585D01*
X34777333Y-102383780D01*
X34832300Y-102305283D01*
X34832302Y-102305279D01*
X34930317Y-102095085D01*
X34930321Y-102095074D01*
X34990348Y-101871051D01*
X34990349Y-101871044D01*
X35010563Y-101640001D01*
X35010563Y-101639998D01*
X34990349Y-101408955D01*
X34990348Y-101408948D01*
X34930318Y-101184917D01*
X34832300Y-100974719D01*
X34777333Y-100896217D01*
X34122137Y-101551413D01*
X34099333Y-101466306D01*
X34040090Y-101363694D01*
X33956306Y-101279910D01*
X33853694Y-101220667D01*
X33768584Y-101197861D01*
X34423781Y-100542665D01*
X34345281Y-100487698D01*
X34294206Y-100463882D01*
X34241767Y-100417710D01*
X34222615Y-100350516D01*
X34242831Y-100283635D01*
X34295996Y-100238300D01*
X34346611Y-100227500D01*
X42588719Y-100227500D01*
X42655758Y-100247185D01*
X42676400Y-100263819D01*
X45174146Y-102761565D01*
X45207631Y-102822888D01*
X45209685Y-102835361D01*
X45214630Y-102879249D01*
X45274210Y-103049521D01*
X45370184Y-103202262D01*
X45497738Y-103329816D01*
X45650478Y-103425789D01*
X45820745Y-103485368D01*
X45820750Y-103485369D01*
X45999996Y-103505565D01*
X46000000Y-103505565D01*
X46000004Y-103505565D01*
X46179249Y-103485369D01*
X46179252Y-103485368D01*
X46179255Y-103485368D01*
X46349522Y-103425789D01*
X46502262Y-103329816D01*
X46629816Y-103202262D01*
X46725789Y-103049522D01*
X46785368Y-102879255D01*
X46791719Y-102822888D01*
X46805565Y-102700003D01*
X46805565Y-102699996D01*
X46785369Y-102520750D01*
X46785368Y-102520745D01*
X46776567Y-102495592D01*
X46725789Y-102350478D01*
X46629816Y-102197738D01*
X46502262Y-102070184D01*
X46438015Y-102029815D01*
X46349521Y-101974210D01*
X46179249Y-101914630D01*
X46135361Y-101909685D01*
X46070947Y-101882617D01*
X46061565Y-101874146D01*
X44587416Y-100399996D01*
X52794435Y-100399996D01*
X52794435Y-100400003D01*
X52814630Y-100579249D01*
X52814633Y-100579262D01*
X52874209Y-100749520D01*
X52927309Y-100834029D01*
X52946309Y-100901266D01*
X52927309Y-100965971D01*
X52874209Y-101050479D01*
X52814633Y-101220737D01*
X52814630Y-101220750D01*
X52794435Y-101399996D01*
X52794435Y-101400003D01*
X52814630Y-101579249D01*
X52814631Y-101579254D01*
X52874211Y-101749523D01*
X52957840Y-101882617D01*
X52970184Y-101902262D01*
X53097738Y-102029816D01*
X53250478Y-102125789D01*
X53351297Y-102161067D01*
X53420745Y-102185368D01*
X53420750Y-102185369D01*
X53599996Y-102205565D01*
X53600000Y-102205565D01*
X53600004Y-102205565D01*
X53779249Y-102185369D01*
X53779252Y-102185368D01*
X53779255Y-102185368D01*
X53949522Y-102125789D01*
X54102262Y-102029816D01*
X54229816Y-101902262D01*
X54325789Y-101749522D01*
X54385368Y-101579255D01*
X54385369Y-101579249D01*
X54405565Y-101400003D01*
X54405565Y-101399996D01*
X54385369Y-101220750D01*
X54385368Y-101220745D01*
X54325788Y-101050475D01*
X54272691Y-100965973D01*
X54253690Y-100898736D01*
X54272691Y-100834027D01*
X54325788Y-100749524D01*
X54325789Y-100749522D01*
X54385368Y-100579255D01*
X54395733Y-100487264D01*
X54405565Y-100400003D01*
X54405565Y-100399996D01*
X54385369Y-100220750D01*
X54385368Y-100220745D01*
X54330594Y-100064211D01*
X54325789Y-100050478D01*
X54229816Y-99897738D01*
X54102262Y-99770184D01*
X53949523Y-99674211D01*
X53779254Y-99614631D01*
X53779249Y-99614630D01*
X53600004Y-99594435D01*
X53599996Y-99594435D01*
X53420750Y-99614630D01*
X53420745Y-99614631D01*
X53250476Y-99674211D01*
X53097737Y-99770184D01*
X52970184Y-99897737D01*
X52874211Y-100050476D01*
X52814631Y-100220745D01*
X52814630Y-100220750D01*
X52794435Y-100399996D01*
X44587416Y-100399996D01*
X43300011Y-99112591D01*
X43300007Y-99112588D01*
X43197239Y-99043920D01*
X43197226Y-99043913D01*
X43163785Y-99030062D01*
X43083035Y-98996614D01*
X43083027Y-98996612D01*
X42961807Y-98972500D01*
X42961803Y-98972500D01*
X33241803Y-98972500D01*
X33118197Y-98972500D01*
X33118192Y-98972500D01*
X32996973Y-98996611D01*
X32996973Y-98996612D01*
X32996970Y-98996613D01*
X32996966Y-98996614D01*
X32930070Y-99024323D01*
X32930068Y-99024323D01*
X32882770Y-99043915D01*
X32779989Y-99112590D01*
X31573411Y-100319168D01*
X31512088Y-100352653D01*
X31453638Y-100351262D01*
X31371145Y-100329159D01*
X31371141Y-100329158D01*
X31371137Y-100329157D01*
X31371135Y-100329156D01*
X31371132Y-100329156D01*
X31140001Y-100308935D01*
X31139999Y-100308935D01*
X30908867Y-100329156D01*
X30908857Y-100329158D01*
X30684756Y-100389205D01*
X30684747Y-100389209D01*
X30474467Y-100487264D01*
X30474463Y-100487266D01*
X30284406Y-100620345D01*
X30120345Y-100784406D01*
X29987266Y-100974463D01*
X29987264Y-100974467D01*
X29916882Y-101125402D01*
X29870709Y-101177841D01*
X29803516Y-101196993D01*
X29736635Y-101176777D01*
X29691300Y-101123612D01*
X29680500Y-101072997D01*
X29680500Y-97399996D01*
X51569435Y-97399996D01*
X51569435Y-97400003D01*
X51589630Y-97579249D01*
X51589633Y-97579262D01*
X51651510Y-97756094D01*
X51649364Y-97756844D01*
X51658962Y-97815144D01*
X51650609Y-97843590D01*
X51651510Y-97843906D01*
X51589633Y-98020737D01*
X51589630Y-98020750D01*
X51569435Y-98199996D01*
X51569435Y-98200003D01*
X51589630Y-98379249D01*
X51589631Y-98379254D01*
X51649211Y-98549523D01*
X51745184Y-98702262D01*
X51872738Y-98829816D01*
X52025478Y-98925789D01*
X52195745Y-98985368D01*
X52195750Y-98985369D01*
X52374996Y-99005565D01*
X52375000Y-99005565D01*
X52375004Y-99005565D01*
X52554249Y-98985369D01*
X52554252Y-98985368D01*
X52554255Y-98985368D01*
X52724522Y-98925789D01*
X52877262Y-98829816D01*
X53004816Y-98702262D01*
X53100789Y-98549522D01*
X53160368Y-98379255D01*
X53180565Y-98200000D01*
X53160368Y-98020745D01*
X53160367Y-98020743D01*
X53160366Y-98020737D01*
X53098489Y-97843905D01*
X53100637Y-97843153D01*
X53091035Y-97784872D01*
X53099392Y-97756411D01*
X53098489Y-97756095D01*
X53160366Y-97579262D01*
X53160369Y-97579249D01*
X53180565Y-97400003D01*
X53180565Y-97399996D01*
X53160369Y-97220750D01*
X53160368Y-97220745D01*
X53100789Y-97050478D01*
X53004816Y-96897738D01*
X52877262Y-96770184D01*
X52724523Y-96674211D01*
X52554254Y-96614631D01*
X52554249Y-96614630D01*
X52375004Y-96594435D01*
X52374996Y-96594435D01*
X52195750Y-96614630D01*
X52195745Y-96614631D01*
X52025476Y-96674211D01*
X51872737Y-96770184D01*
X51745184Y-96897737D01*
X51649211Y-97050476D01*
X51589631Y-97220745D01*
X51589630Y-97220750D01*
X51569435Y-97399996D01*
X29680500Y-97399996D01*
X29680500Y-94229994D01*
X35529945Y-94229994D01*
X35529945Y-94230005D01*
X35550130Y-94473605D01*
X35610138Y-94710573D01*
X35708330Y-94934429D01*
X35804626Y-95081819D01*
X36408958Y-94477487D01*
X36433978Y-94537890D01*
X36505112Y-94644351D01*
X36595649Y-94734888D01*
X36702110Y-94806022D01*
X36762511Y-94831041D01*
X36157758Y-95435794D01*
X36157758Y-95435796D01*
X36200478Y-95469046D01*
X36200484Y-95469050D01*
X36415468Y-95585394D01*
X36415476Y-95585397D01*
X36646664Y-95664765D01*
X36887779Y-95705000D01*
X37132221Y-95705000D01*
X37373335Y-95664765D01*
X37604523Y-95585397D01*
X37604531Y-95585394D01*
X37819514Y-95469051D01*
X37819514Y-95469050D01*
X37862240Y-95435795D01*
X37862240Y-95435794D01*
X37257488Y-94831041D01*
X37317890Y-94806022D01*
X37424351Y-94734888D01*
X37514888Y-94644351D01*
X37586022Y-94537890D01*
X37611041Y-94477488D01*
X38215372Y-95081819D01*
X38311667Y-94934431D01*
X38311672Y-94934423D01*
X38409861Y-94710573D01*
X38469869Y-94473605D01*
X38490055Y-94230005D01*
X38490055Y-94229994D01*
X43729945Y-94229994D01*
X43729945Y-94230005D01*
X43750130Y-94473605D01*
X43810138Y-94710573D01*
X43908330Y-94934429D01*
X44004626Y-95081819D01*
X44608958Y-94477487D01*
X44633978Y-94537890D01*
X44705112Y-94644351D01*
X44795649Y-94734888D01*
X44902110Y-94806022D01*
X44962511Y-94831041D01*
X44357758Y-95435794D01*
X44357758Y-95435796D01*
X44400478Y-95469046D01*
X44400484Y-95469050D01*
X44615468Y-95585394D01*
X44615476Y-95585397D01*
X44846664Y-95664765D01*
X45087779Y-95705000D01*
X45332221Y-95705000D01*
X45573335Y-95664765D01*
X45804523Y-95585397D01*
X45804531Y-95585394D01*
X46019514Y-95469051D01*
X46019514Y-95469050D01*
X46062240Y-95435795D01*
X46062240Y-95435794D01*
X45457488Y-94831041D01*
X45517890Y-94806022D01*
X45624351Y-94734888D01*
X45714888Y-94644351D01*
X45786022Y-94537890D01*
X45811041Y-94477488D01*
X46415372Y-95081819D01*
X46511667Y-94934431D01*
X46511672Y-94934423D01*
X46609861Y-94710573D01*
X46669869Y-94473605D01*
X46690055Y-94230005D01*
X46690055Y-94229994D01*
X46669869Y-93986394D01*
X46609861Y-93749426D01*
X46511669Y-93525570D01*
X46415372Y-93378179D01*
X45811041Y-93982510D01*
X45786022Y-93922110D01*
X45714888Y-93815649D01*
X45624351Y-93725112D01*
X45517890Y-93653978D01*
X45457487Y-93628958D01*
X46062240Y-93024204D01*
X46062240Y-93024203D01*
X46019514Y-92990949D01*
X45804531Y-92874605D01*
X45804523Y-92874602D01*
X45573335Y-92795234D01*
X45332221Y-92755000D01*
X45087779Y-92755000D01*
X44846664Y-92795234D01*
X44615476Y-92874602D01*
X44615468Y-92874605D01*
X44400481Y-92990951D01*
X44357758Y-93024202D01*
X44357757Y-93024204D01*
X44962511Y-93628958D01*
X44902110Y-93653978D01*
X44795649Y-93725112D01*
X44705112Y-93815649D01*
X44633978Y-93922110D01*
X44608958Y-93982511D01*
X44004626Y-93378179D01*
X43908328Y-93525575D01*
X43810138Y-93749426D01*
X43750130Y-93986394D01*
X43729945Y-94229994D01*
X38490055Y-94229994D01*
X38469869Y-93986394D01*
X38409861Y-93749426D01*
X38311669Y-93525570D01*
X38215372Y-93378179D01*
X37611041Y-93982510D01*
X37586022Y-93922110D01*
X37514888Y-93815649D01*
X37424351Y-93725112D01*
X37317890Y-93653978D01*
X37257487Y-93628958D01*
X37862240Y-93024204D01*
X37862240Y-93024203D01*
X37819514Y-92990949D01*
X37604531Y-92874605D01*
X37604523Y-92874602D01*
X37373335Y-92795234D01*
X37132221Y-92755000D01*
X36887779Y-92755000D01*
X36646664Y-92795234D01*
X36415476Y-92874602D01*
X36415468Y-92874605D01*
X36200481Y-92990951D01*
X36157758Y-93024202D01*
X36157757Y-93024204D01*
X36762511Y-93628958D01*
X36702110Y-93653978D01*
X36595649Y-93725112D01*
X36505112Y-93815649D01*
X36433978Y-93922110D01*
X36408958Y-93982511D01*
X35804626Y-93378179D01*
X35708328Y-93525575D01*
X35610138Y-93749426D01*
X35550130Y-93986394D01*
X35529945Y-94229994D01*
X29680500Y-94229994D01*
X29680500Y-89229994D01*
X35529443Y-89229994D01*
X35529443Y-89230005D01*
X35549634Y-89473683D01*
X35549636Y-89473695D01*
X35609663Y-89710734D01*
X35707888Y-89934666D01*
X35841632Y-90139378D01*
X36007242Y-90319277D01*
X36007252Y-90319286D01*
X36200208Y-90469470D01*
X36200212Y-90469473D01*
X36372197Y-90562547D01*
X36415267Y-90585855D01*
X36415270Y-90585856D01*
X36646541Y-90665251D01*
X36646543Y-90665251D01*
X36646545Y-90665252D01*
X36887737Y-90705500D01*
X36887738Y-90705500D01*
X37132262Y-90705500D01*
X37132263Y-90705500D01*
X37373455Y-90665252D01*
X37604733Y-90585855D01*
X37819788Y-90469473D01*
X38012754Y-90319281D01*
X38178368Y-90139377D01*
X38312111Y-89934667D01*
X38410336Y-89710736D01*
X38470364Y-89473692D01*
X38475258Y-89414630D01*
X38490557Y-89230005D01*
X38490557Y-89229994D01*
X38470365Y-88986316D01*
X38470363Y-88986304D01*
X38453755Y-88920722D01*
X38410336Y-88749264D01*
X38312111Y-88525333D01*
X38178368Y-88320623D01*
X38178367Y-88320621D01*
X38073895Y-88207135D01*
X43734500Y-88207135D01*
X43734500Y-90252870D01*
X43734501Y-90252876D01*
X43740908Y-90312483D01*
X43791202Y-90447328D01*
X43791206Y-90447335D01*
X43877452Y-90562544D01*
X43877455Y-90562547D01*
X43992664Y-90648793D01*
X43992671Y-90648797D01*
X44127517Y-90699091D01*
X44127516Y-90699091D01*
X44134444Y-90699835D01*
X44187127Y-90705500D01*
X46232872Y-90705499D01*
X46292483Y-90699091D01*
X46427331Y-90648796D01*
X46542546Y-90562546D01*
X46628796Y-90447331D01*
X46679091Y-90312483D01*
X46685500Y-90252873D01*
X46685499Y-88207128D01*
X46679091Y-88147517D01*
X46676553Y-88140713D01*
X46628797Y-88012671D01*
X46628793Y-88012664D01*
X46542547Y-87897455D01*
X46542544Y-87897452D01*
X46427335Y-87811206D01*
X46427328Y-87811202D01*
X46292482Y-87760908D01*
X46292483Y-87760908D01*
X46232883Y-87754501D01*
X46232881Y-87754500D01*
X46232873Y-87754500D01*
X46232864Y-87754500D01*
X44187129Y-87754500D01*
X44187123Y-87754501D01*
X44127516Y-87760908D01*
X43992671Y-87811202D01*
X43992664Y-87811206D01*
X43877455Y-87897452D01*
X43877452Y-87897455D01*
X43791206Y-88012664D01*
X43791202Y-88012671D01*
X43740908Y-88147517D01*
X43734501Y-88207116D01*
X43734501Y-88207123D01*
X43734500Y-88207135D01*
X38073895Y-88207135D01*
X38012757Y-88140722D01*
X38012747Y-88140713D01*
X37819791Y-87990529D01*
X37819787Y-87990526D01*
X37604734Y-87874145D01*
X37604729Y-87874143D01*
X37373458Y-87794748D01*
X37170664Y-87760908D01*
X37132263Y-87754500D01*
X36887737Y-87754500D01*
X36849336Y-87760908D01*
X36646541Y-87794748D01*
X36415270Y-87874143D01*
X36415265Y-87874145D01*
X36200212Y-87990526D01*
X36200208Y-87990529D01*
X36007252Y-88140713D01*
X36007242Y-88140722D01*
X35841632Y-88320621D01*
X35707888Y-88525333D01*
X35609663Y-88749265D01*
X35549636Y-88986304D01*
X35549634Y-88986316D01*
X35529443Y-89229994D01*
X29680500Y-89229994D01*
X29680500Y-85874500D01*
X29700185Y-85807461D01*
X29752989Y-85761706D01*
X29804500Y-85750500D01*
X85945500Y-85750500D01*
X86012539Y-85770185D01*
G37*
%TD.AperFunction*%
%TA.AperFunction,Conductor*%
G36*
X79610297Y-111747185D02*
G01*
X79656052Y-111799989D01*
X79665996Y-111869147D01*
X79648252Y-111917472D01*
X79564679Y-112050476D01*
X79505099Y-112220745D01*
X79505098Y-112220750D01*
X79484903Y-112399996D01*
X79484903Y-112400003D01*
X79505098Y-112579249D01*
X79505099Y-112579254D01*
X79564679Y-112749523D01*
X79660652Y-112902262D01*
X79788205Y-113029815D01*
X79788208Y-113029817D01*
X79798089Y-113036026D01*
X79844381Y-113088360D01*
X79855030Y-113157413D01*
X79826655Y-113221262D01*
X79819799Y-113228701D01*
X79330302Y-113718200D01*
X79218201Y-113830300D01*
X79218199Y-113830303D01*
X79138933Y-113967597D01*
X79097900Y-114120733D01*
X79097900Y-117499239D01*
X79078215Y-117566278D01*
X79061581Y-117586920D01*
X78172769Y-118475731D01*
X78111446Y-118509216D01*
X78041754Y-118504232D01*
X77997407Y-118475731D01*
X77876860Y-118355184D01*
X77724121Y-118259211D01*
X77588610Y-118211794D01*
X77531834Y-118171072D01*
X77506401Y-118106913D01*
X77506345Y-118106920D01*
X77506321Y-118106710D01*
X77506087Y-118106119D01*
X77505971Y-118103605D01*
X77505508Y-118099500D01*
X77496349Y-118018201D01*
X77485369Y-117920750D01*
X77485368Y-117920745D01*
X77435861Y-117779262D01*
X77425789Y-117750478D01*
X77329816Y-117597738D01*
X77202262Y-117470184D01*
X77049523Y-117374211D01*
X76879254Y-117314631D01*
X76879250Y-117314630D01*
X76719693Y-117296653D01*
X76671577Y-117280820D01*
X76598800Y-117238802D01*
X76598799Y-117238801D01*
X76511262Y-117215346D01*
X76486427Y-117208691D01*
X76426768Y-117172327D01*
X76396239Y-117109480D01*
X76404534Y-117040104D01*
X76430838Y-117001239D01*
X76442316Y-116989762D01*
X76538289Y-116837022D01*
X76597868Y-116666755D01*
X76603082Y-116620478D01*
X76618065Y-116487503D01*
X76618065Y-116487496D01*
X76597869Y-116308250D01*
X76597868Y-116308245D01*
X76538288Y-116137976D01*
X76492663Y-116065365D01*
X76442316Y-115985238D01*
X76314762Y-115857684D01*
X76250765Y-115817472D01*
X76162023Y-115761711D01*
X75991754Y-115702131D01*
X75991749Y-115702130D01*
X75812504Y-115681935D01*
X75812496Y-115681935D01*
X75633250Y-115702130D01*
X75633245Y-115702131D01*
X75462976Y-115761711D01*
X75310237Y-115857684D01*
X75182684Y-115985237D01*
X75086711Y-116137976D01*
X75027131Y-116308245D01*
X75027130Y-116308250D01*
X75006935Y-116487496D01*
X75006935Y-116487503D01*
X75027130Y-116666749D01*
X75027131Y-116666754D01*
X75086711Y-116837023D01*
X75182684Y-116989762D01*
X75187025Y-116995205D01*
X75185456Y-116996455D01*
X75214226Y-117049142D01*
X75209242Y-117118834D01*
X75167370Y-117174767D01*
X75101906Y-117199184D01*
X75093060Y-117199500D01*
X74691322Y-117199500D01*
X74624283Y-117179815D01*
X74578528Y-117127011D01*
X74568102Y-117089383D01*
X74560369Y-117020750D01*
X74560368Y-117020748D01*
X74560368Y-117020745D01*
X74500789Y-116850478D01*
X74404816Y-116697738D01*
X74277262Y-116570184D01*
X74250700Y-116553494D01*
X74124523Y-116474211D01*
X73954254Y-116414631D01*
X73954249Y-116414630D01*
X73775004Y-116394435D01*
X73774996Y-116394435D01*
X73595750Y-116414630D01*
X73595745Y-116414631D01*
X73425476Y-116474211D01*
X73299300Y-116553494D01*
X73233328Y-116572500D01*
X72291281Y-116572500D01*
X72224242Y-116552815D01*
X72203600Y-116536181D01*
X71467384Y-115799965D01*
X71433899Y-115738642D01*
X71438883Y-115668950D01*
X71480755Y-115613017D01*
X71546219Y-115588600D01*
X71614492Y-115603452D01*
X71621038Y-115607291D01*
X71650475Y-115625788D01*
X71820745Y-115685368D01*
X71820750Y-115685369D01*
X71999996Y-115705565D01*
X72000000Y-115705565D01*
X72000004Y-115705565D01*
X72179249Y-115685369D01*
X72179252Y-115685368D01*
X72179255Y-115685368D01*
X72349522Y-115625789D01*
X72502262Y-115529816D01*
X72629816Y-115402262D01*
X72725789Y-115249522D01*
X72785368Y-115079255D01*
X72786465Y-115069522D01*
X72805565Y-114900003D01*
X72805565Y-114899995D01*
X72797898Y-114831945D01*
X72809953Y-114763123D01*
X72857302Y-114711744D01*
X72921118Y-114694062D01*
X73060699Y-114694062D01*
X73127738Y-114713747D01*
X73173493Y-114766551D01*
X73183919Y-114804179D01*
X73194630Y-114899249D01*
X73194631Y-114899254D01*
X73254211Y-115069523D01*
X73326698Y-115184884D01*
X73350184Y-115222262D01*
X73477738Y-115349816D01*
X73557618Y-115400008D01*
X73606543Y-115430750D01*
X73630478Y-115445789D01*
X73791406Y-115502100D01*
X73800745Y-115505368D01*
X73800750Y-115505369D01*
X73979996Y-115525565D01*
X73980000Y-115525565D01*
X73980004Y-115525565D01*
X74159249Y-115505369D01*
X74159252Y-115505368D01*
X74159255Y-115505368D01*
X74329522Y-115445789D01*
X74482262Y-115349816D01*
X74609816Y-115222262D01*
X74705789Y-115069522D01*
X74765368Y-114899255D01*
X74767063Y-114884211D01*
X74776081Y-114804179D01*
X74803147Y-114739765D01*
X74860742Y-114700209D01*
X74899301Y-114694062D01*
X76406457Y-114694062D01*
X76473496Y-114713747D01*
X76483770Y-114721115D01*
X76484596Y-114721773D01*
X76484601Y-114721778D01*
X76637341Y-114817751D01*
X76807608Y-114877330D01*
X76807613Y-114877331D01*
X76986859Y-114897527D01*
X76986863Y-114897527D01*
X76986867Y-114897527D01*
X77166112Y-114877331D01*
X77166115Y-114877330D01*
X77166118Y-114877330D01*
X77336385Y-114817751D01*
X77489125Y-114721778D01*
X77616679Y-114594224D01*
X77712652Y-114441484D01*
X77772231Y-114271217D01*
X77772232Y-114271211D01*
X77792428Y-114091965D01*
X77792428Y-114091958D01*
X77772232Y-113912712D01*
X77772231Y-113912707D01*
X77744334Y-113832982D01*
X77712652Y-113742440D01*
X77616679Y-113589700D01*
X77489125Y-113462146D01*
X77477814Y-113455039D01*
X77336386Y-113366173D01*
X77166117Y-113306593D01*
X77166112Y-113306592D01*
X76986867Y-113286397D01*
X76986859Y-113286397D01*
X76807613Y-113306592D01*
X76807608Y-113306593D01*
X76637339Y-113366173D01*
X76484601Y-113462146D01*
X76483770Y-113462809D01*
X76483131Y-113463069D01*
X76478705Y-113465851D01*
X76478217Y-113465075D01*
X76419084Y-113489217D01*
X76406457Y-113489862D01*
X72192722Y-113489862D01*
X72125683Y-113470177D01*
X72105041Y-113453543D01*
X70590679Y-111939181D01*
X70557194Y-111877858D01*
X70562178Y-111808166D01*
X70604050Y-111752233D01*
X70669514Y-111727816D01*
X70678360Y-111727500D01*
X79543258Y-111727500D01*
X79610297Y-111747185D01*
G37*
%TD.AperFunction*%
%TA.AperFunction,Conductor*%
G36*
X59750928Y-113942293D02*
G01*
X59773567Y-113953482D01*
X59920473Y-114045790D01*
X59920477Y-114045791D01*
X59920478Y-114045792D01*
X59940523Y-114052806D01*
X60090745Y-114105371D01*
X60090750Y-114105372D01*
X60269996Y-114125568D01*
X60270000Y-114125568D01*
X60270004Y-114125568D01*
X60334617Y-114118288D01*
X60403439Y-114130343D01*
X60454818Y-114177692D01*
X60472500Y-114241508D01*
X60472500Y-114838718D01*
X60452815Y-114905757D01*
X60436181Y-114926399D01*
X60258432Y-115104147D01*
X60197109Y-115137632D01*
X60184637Y-115139686D01*
X60140745Y-115144632D01*
X59970478Y-115204210D01*
X59817737Y-115300184D01*
X59690184Y-115427737D01*
X59594211Y-115580476D01*
X59534631Y-115750745D01*
X59534630Y-115750750D01*
X59527169Y-115816982D01*
X59500103Y-115881396D01*
X59442509Y-115920952D01*
X59403949Y-115927100D01*
X54007942Y-115927100D01*
X53940903Y-115907415D01*
X53920261Y-115890781D01*
X53868661Y-115839181D01*
X53835176Y-115777858D01*
X53840160Y-115708166D01*
X53882032Y-115652233D01*
X53947496Y-115627816D01*
X53956342Y-115627500D01*
X57765095Y-115627500D01*
X57765096Y-115627499D01*
X57886326Y-115603386D01*
X57988491Y-115561067D01*
X58000524Y-115556083D01*
X58103299Y-115487411D01*
X58190702Y-115400008D01*
X59619916Y-113970792D01*
X59681237Y-113937309D01*
X59750928Y-113942293D01*
G37*
%TD.AperFunction*%
%TA.AperFunction,Conductor*%
G36*
X62008758Y-108120185D02*
G01*
X62029400Y-108136819D01*
X66860194Y-112967613D01*
X66893679Y-113028936D01*
X66888695Y-113098628D01*
X66846823Y-113154561D01*
X66838489Y-113160285D01*
X66822743Y-113170179D01*
X66822739Y-113170182D01*
X66695184Y-113297737D01*
X66595506Y-113456374D01*
X66593382Y-113455039D01*
X66554317Y-113498278D01*
X66486884Y-113516568D01*
X66420267Y-113495498D01*
X66401774Y-113480276D01*
X61233679Y-108312181D01*
X61200194Y-108250858D01*
X61205178Y-108181166D01*
X61247050Y-108125233D01*
X61312514Y-108100816D01*
X61321360Y-108100500D01*
X61941719Y-108100500D01*
X62008758Y-108120185D01*
G37*
%TD.AperFunction*%
%TD*%
M02*
