%TF.GenerationSoftware,KiCad,Pcbnew,8.0.6*%
%TF.CreationDate,2024-11-11T10:33:33-08:00*%
%TF.ProjectId,BQ24257,42513234-3235-4372-9e6b-696361645f70,rev?*%
%TF.SameCoordinates,Original*%
%TF.FileFunction,Legend,Bot*%
%TF.FilePolarity,Positive*%
%FSLAX46Y46*%
G04 Gerber Fmt 4.6, Leading zero omitted, Abs format (unit mm)*
G04 Created by KiCad (PCBNEW 8.0.6) date 2024-11-11 10:33:33*
%MOMM*%
%LPD*%
G01*
G04 APERTURE LIST*
%ADD10C,0.000000*%
%ADD11C,0.150000*%
G04 APERTURE END LIST*
D10*
G36*
X48520973Y-105755923D02*
G01*
X48603228Y-105860495D01*
X48603228Y-106002870D01*
X48540863Y-106065235D01*
X48478496Y-106127600D01*
X48097996Y-106127600D01*
X47993425Y-106045344D01*
X47888854Y-105963089D01*
X47888854Y-105813192D01*
X47975713Y-105732272D01*
X48062570Y-105651352D01*
X48438717Y-105651352D01*
X48520973Y-105755923D01*
G37*
G36*
X49738507Y-118925925D02*
G01*
X49833523Y-118988183D01*
X49832923Y-119136096D01*
X49832323Y-119284008D01*
X49799781Y-119335301D01*
X49767242Y-119386595D01*
X49651562Y-119421189D01*
X49535869Y-119455782D01*
X49456494Y-119458647D01*
X49377120Y-119461513D01*
X49291490Y-119438542D01*
X49205863Y-119415572D01*
X49189205Y-119349789D01*
X49172548Y-119284006D01*
X49205322Y-119159625D01*
X49238096Y-119035244D01*
X49327451Y-118977387D01*
X49416806Y-118919532D01*
X49530149Y-118891600D01*
X49643492Y-118863667D01*
X49738507Y-118925925D01*
G37*
G36*
X68215646Y-116432660D02*
G01*
X68288224Y-116498342D01*
X68288224Y-116808757D01*
X68247140Y-116885521D01*
X68206056Y-116962288D01*
X68004869Y-116962288D01*
X67829044Y-116841320D01*
X67653222Y-116720351D01*
X67653222Y-116572470D01*
X67775330Y-116469725D01*
X67897438Y-116366978D01*
X68143068Y-116366978D01*
X68215646Y-116432660D01*
G37*
G36*
X50046336Y-103027230D02*
G01*
X50148297Y-103102875D01*
X50250258Y-103178520D01*
X50288128Y-103328072D01*
X50326000Y-103477624D01*
X50250778Y-103532628D01*
X50175554Y-103587643D01*
X49969420Y-103587643D01*
X49792381Y-103498347D01*
X49615342Y-103409051D01*
X49577572Y-103299053D01*
X49539801Y-103189057D01*
X49623054Y-103105802D01*
X49706307Y-103022549D01*
X50046336Y-103027230D01*
G37*
G36*
X53460503Y-100527518D02*
G01*
X53557448Y-100618594D01*
X53582253Y-100717424D01*
X53607058Y-100816254D01*
X53560373Y-100963347D01*
X53453127Y-100976757D01*
X53345882Y-100990157D01*
X53226820Y-100959909D01*
X53107758Y-100929660D01*
X53038305Y-100845343D01*
X52968852Y-100761024D01*
X52968852Y-100586550D01*
X53023732Y-100511497D01*
X53078612Y-100436443D01*
X53363556Y-100436443D01*
X53460503Y-100527518D01*
G37*
G36*
X53185820Y-117156259D02*
G01*
X53406984Y-117323242D01*
X53922234Y-117822444D01*
X54437482Y-118321647D01*
X54188894Y-118585163D01*
X53940305Y-118848680D01*
X53751820Y-119093631D01*
X53563335Y-119338583D01*
X53358413Y-119668484D01*
X53153494Y-119998383D01*
X53014408Y-120296039D01*
X52875323Y-120593695D01*
X52855373Y-121069944D01*
X52852583Y-121079872D01*
X52849786Y-121089785D01*
X52806156Y-121089785D01*
X52679144Y-121024476D01*
X52552129Y-120959165D01*
X52314004Y-120776897D01*
X52075879Y-120594631D01*
X51163066Y-119793957D01*
X50954642Y-119565478D01*
X50746219Y-119336999D01*
X50721673Y-119239200D01*
X50697129Y-119141401D01*
X50715796Y-119122731D01*
X50734465Y-119104061D01*
X51110527Y-119079360D01*
X51486589Y-119054660D01*
X51610404Y-119274047D01*
X51734219Y-119493435D01*
X51905049Y-119630213D01*
X52075880Y-119766990D01*
X52219425Y-119873445D01*
X52362971Y-119979898D01*
X52520975Y-119770625D01*
X52678978Y-119561351D01*
X52747665Y-119428524D01*
X52816351Y-119295697D01*
X52768901Y-119181140D01*
X52721448Y-119066582D01*
X52569706Y-118929493D01*
X52417964Y-118792404D01*
X52293225Y-118727899D01*
X52168483Y-118663393D01*
X52048169Y-118705336D01*
X51927854Y-118747278D01*
X51892725Y-118725566D01*
X51857596Y-118703855D01*
X51857596Y-118467253D01*
X51935232Y-118315076D01*
X52012866Y-118162899D01*
X52136713Y-118058689D01*
X52260562Y-117954479D01*
X52412078Y-117954479D01*
X52532866Y-118193757D01*
X52653654Y-118433035D01*
X52811250Y-118590631D01*
X52968847Y-118748228D01*
X53193134Y-118748228D01*
X53274786Y-118658930D01*
X53356437Y-118569634D01*
X53420612Y-118442620D01*
X53484785Y-118315607D01*
X53484785Y-118115990D01*
X53359830Y-117973674D01*
X53234877Y-117831359D01*
X53120717Y-117772326D01*
X53006558Y-117713293D01*
X52779342Y-117672092D01*
X52552127Y-117630891D01*
X52462831Y-117573490D01*
X52373535Y-117516088D01*
X52373535Y-117408093D01*
X52534031Y-117263092D01*
X52694528Y-117118093D01*
X52964654Y-116989278D01*
X53185820Y-117156259D01*
G37*
G36*
X52529449Y-100907258D02*
G01*
X52641730Y-100965322D01*
X52666384Y-101029567D01*
X52691037Y-101093812D01*
X52691037Y-101331552D01*
X52575029Y-101447560D01*
X52459018Y-101563569D01*
X52246883Y-101563569D01*
X52136131Y-101484707D01*
X52025377Y-101405843D01*
X51962125Y-101247761D01*
X51898873Y-101089678D01*
X51920994Y-101032033D01*
X51943114Y-100974388D01*
X52075027Y-100911792D01*
X52206939Y-100849195D01*
X52417167Y-100849195D01*
X52529449Y-100907258D01*
G37*
G36*
X54398394Y-100075701D02*
G01*
X54514310Y-100135643D01*
X54555175Y-100211997D01*
X54596037Y-100288353D01*
X54596037Y-100416242D01*
X54498623Y-100513656D01*
X54401208Y-100611071D01*
X54195555Y-100611071D01*
X54098140Y-100513656D01*
X54000726Y-100416242D01*
X54000726Y-100174509D01*
X54080101Y-100095134D01*
X54159476Y-100015758D01*
X54282479Y-100015758D01*
X54398394Y-100075701D01*
G37*
G36*
X59199773Y-100650283D02*
G01*
X59259304Y-100694522D01*
X59185145Y-100742077D01*
X59110986Y-100789633D01*
X58941804Y-100921890D01*
X58944399Y-101867793D01*
X58946995Y-102813694D01*
X59016388Y-103468538D01*
X59085783Y-104123382D01*
X59208388Y-104669007D01*
X59156402Y-104701135D01*
X59104415Y-104733263D01*
X58824679Y-104758882D01*
X58544943Y-104784501D01*
X57969476Y-104816940D01*
X57393995Y-104849378D01*
X57096337Y-104830146D01*
X56798682Y-104810914D01*
X56639931Y-104740529D01*
X56481182Y-104670145D01*
X56286600Y-104497190D01*
X56092018Y-104324235D01*
X55959936Y-104117755D01*
X55827851Y-103911278D01*
X55730767Y-103620454D01*
X55633681Y-103329631D01*
X55606950Y-103053414D01*
X55985101Y-103053414D01*
X56065480Y-103343472D01*
X56145859Y-103633528D01*
X56263621Y-103866816D01*
X56381384Y-104100102D01*
X56502724Y-104238303D01*
X56624067Y-104376504D01*
X56751068Y-104417708D01*
X56878069Y-104458912D01*
X57235256Y-104499181D01*
X57592422Y-104539438D01*
X57890079Y-104534818D01*
X58187734Y-104530198D01*
X58405004Y-104498712D01*
X58622273Y-104467226D01*
X58692739Y-104380204D01*
X58763205Y-104293183D01*
X58762905Y-103409008D01*
X58722858Y-102853382D01*
X58682810Y-102297757D01*
X58620206Y-101722290D01*
X58557603Y-101146821D01*
X58511330Y-101047602D01*
X58465057Y-100948383D01*
X58272422Y-100911148D01*
X58079786Y-100873913D01*
X57649579Y-100921750D01*
X57219373Y-100969586D01*
X56964437Y-101048328D01*
X56709501Y-101127070D01*
X56551759Y-101298199D01*
X56394017Y-101469328D01*
X56188726Y-101821506D01*
X56086914Y-102126161D01*
X55985101Y-102430815D01*
X55985101Y-103053414D01*
X55606950Y-103053414D01*
X55579857Y-102773448D01*
X55627524Y-102456227D01*
X55631342Y-102430815D01*
X55675192Y-102139006D01*
X55790869Y-101837828D01*
X55906546Y-101536649D01*
X56043182Y-101344466D01*
X56179820Y-101152282D01*
X56342710Y-101042885D01*
X56505600Y-100933487D01*
X56751359Y-100852674D01*
X56997117Y-100771858D01*
X57354304Y-100708034D01*
X57711492Y-100644210D01*
X59140241Y-100606042D01*
X59199773Y-100650283D01*
G37*
G36*
X68878820Y-113513776D02*
G01*
X69005011Y-113557767D01*
X69064541Y-113672885D01*
X69124071Y-113788004D01*
X69082692Y-113865322D01*
X69041312Y-113942639D01*
X68972345Y-113982819D01*
X68903381Y-114023011D01*
X68742646Y-114024210D01*
X68581912Y-114025409D01*
X68486660Y-113930158D01*
X68486958Y-113727753D01*
X68644246Y-113469785D01*
X68752630Y-113469785D01*
X68878820Y-113513776D01*
G37*
G36*
X51809810Y-121178076D02*
G01*
X51917131Y-121229254D01*
X51942391Y-121491855D01*
X51895003Y-121548952D01*
X51847616Y-121606049D01*
X51723624Y-121641999D01*
X51599630Y-121677941D01*
X51550020Y-121681525D01*
X51500411Y-121685109D01*
X51421037Y-121605735D01*
X51341661Y-121526359D01*
X51341661Y-121402076D01*
X51384543Y-121321952D01*
X51427425Y-121241827D01*
X51564958Y-121184362D01*
X51702490Y-121126898D01*
X51809810Y-121178076D01*
G37*
G36*
X65234897Y-102239653D02*
G01*
X65311662Y-102280736D01*
X65311513Y-102368636D01*
X65311364Y-102456538D01*
X65232501Y-102585885D01*
X65153637Y-102715233D01*
X65027407Y-102791999D01*
X64901169Y-102868763D01*
X64833775Y-102832694D01*
X64766381Y-102796624D01*
X64630095Y-102509423D01*
X64675904Y-102398831D01*
X64721712Y-102288241D01*
X64820118Y-102243404D01*
X64918521Y-102198570D01*
X65158130Y-102198570D01*
X65234897Y-102239653D01*
G37*
G36*
X66839631Y-110713194D02*
G01*
X66884011Y-110892113D01*
X66928392Y-111071032D01*
X66974424Y-111591670D01*
X67020457Y-112112307D01*
X66994829Y-112272577D01*
X66969201Y-112432847D01*
X66799943Y-112590194D01*
X66661037Y-112632116D01*
X66522126Y-112674038D01*
X66087972Y-112652587D01*
X65653815Y-112631137D01*
X65529379Y-112579142D01*
X65404943Y-112527149D01*
X65284539Y-112381081D01*
X65164138Y-112235011D01*
X65118836Y-112083811D01*
X65073536Y-111932612D01*
X65073536Y-111676718D01*
X65354845Y-111676718D01*
X65391702Y-111805233D01*
X65428561Y-111933747D01*
X65518940Y-112067836D01*
X65609318Y-112201926D01*
X65807756Y-112296342D01*
X66006099Y-112390758D01*
X66164849Y-112407759D01*
X66323599Y-112424758D01*
X66543614Y-112392784D01*
X66605851Y-112297800D01*
X66668089Y-112202814D01*
X66666587Y-111324599D01*
X66594357Y-111176803D01*
X66522129Y-111029007D01*
X66372857Y-110992132D01*
X66223587Y-110955259D01*
X66013306Y-111021543D01*
X65803028Y-111087828D01*
X65641391Y-111226182D01*
X65479755Y-111364537D01*
X65417300Y-111520627D01*
X65354845Y-111676718D01*
X65073536Y-111676718D01*
X65073536Y-111431100D01*
X65236747Y-111093952D01*
X65609316Y-110857907D01*
X65807754Y-110791712D01*
X66006192Y-110725514D01*
X66312926Y-110680789D01*
X66619662Y-110636061D01*
X66839631Y-110713194D01*
G37*
G36*
X55547139Y-123031866D02*
G01*
X55588225Y-123108633D01*
X55588225Y-123374003D01*
X55526443Y-123462210D01*
X55464659Y-123550412D01*
X55153490Y-123550412D01*
X55091233Y-123455396D01*
X55028976Y-123360380D01*
X55054963Y-123256841D01*
X55080949Y-123153304D01*
X55198725Y-123054203D01*
X55316501Y-122955101D01*
X55506056Y-122955101D01*
X55547139Y-123031866D01*
G37*
G36*
X67268984Y-104698616D02*
G01*
X67219987Y-104862151D01*
X67170990Y-105025686D01*
X67068969Y-105120237D01*
X66966949Y-105214787D01*
X66817700Y-105214787D01*
X66640152Y-105037238D01*
X66462601Y-104859687D01*
X66462601Y-104714665D01*
X66644851Y-104626123D01*
X66827100Y-104537580D01*
X67173952Y-104490039D01*
X67268984Y-104698616D01*
G37*
G36*
X47251897Y-109539680D02*
G01*
X47324097Y-109578321D01*
X47349466Y-109679400D01*
X47374836Y-109780480D01*
X47328247Y-109868961D01*
X47281657Y-109957444D01*
X47237989Y-109986602D01*
X47194321Y-110015782D01*
X47062728Y-110016381D01*
X46931134Y-110016981D01*
X46854369Y-109975897D01*
X46777603Y-109934812D01*
X46777603Y-109706535D01*
X46899711Y-109603788D01*
X47021818Y-109501040D01*
X47179696Y-109501040D01*
X47251897Y-109539680D01*
G37*
G36*
X49010627Y-104738300D02*
G01*
X49111232Y-104817435D01*
X49151093Y-104931782D01*
X49190954Y-105046128D01*
X49144355Y-105139597D01*
X49097754Y-105233067D01*
X48999319Y-105285014D01*
X48900872Y-105336960D01*
X48748142Y-105318814D01*
X48595414Y-105300668D01*
X48498217Y-105209357D01*
X48401022Y-105118048D01*
X48412827Y-104979179D01*
X48424632Y-104840310D01*
X48559485Y-104749737D01*
X48694338Y-104659163D01*
X48910020Y-104659163D01*
X49010627Y-104738300D01*
G37*
G36*
X67772288Y-105468789D02*
G01*
X67772288Y-105688277D01*
X67645474Y-105832711D01*
X67518660Y-105977145D01*
X67437116Y-106007997D01*
X67355565Y-106038848D01*
X67288148Y-106003543D01*
X67220731Y-105968239D01*
X67159164Y-105880340D01*
X67097597Y-105792441D01*
X67097597Y-105579034D01*
X67219706Y-105476287D01*
X67341814Y-105373540D01*
X67677037Y-105373540D01*
X67772288Y-105468789D01*
G37*
G36*
X68725057Y-108290889D02*
G01*
X68774729Y-108350741D01*
X68753662Y-108537627D01*
X68732598Y-108724513D01*
X68627262Y-108815120D01*
X68521926Y-108905725D01*
X68286263Y-108905725D01*
X68247559Y-108803923D01*
X68208853Y-108702120D01*
X68208853Y-108475252D01*
X68311600Y-108353145D01*
X68414347Y-108231038D01*
X68675385Y-108231038D01*
X68725057Y-108290889D01*
G37*
G36*
X58700842Y-108174339D02*
G01*
X58763207Y-108236705D01*
X58762008Y-108290568D01*
X58732850Y-108335141D01*
X58703692Y-108379717D01*
X58549326Y-108483971D01*
X58394944Y-108588220D01*
X58263145Y-108588220D01*
X58167896Y-108492971D01*
X58167896Y-108306802D01*
X58265310Y-108209387D01*
X58362726Y-108111972D01*
X58638475Y-108111972D01*
X58700842Y-108174339D01*
G37*
G36*
X54621774Y-122677168D02*
G01*
X54708822Y-122769826D01*
X54795868Y-122862484D01*
X54655720Y-123046034D01*
X54515571Y-123229581D01*
X54446663Y-123269729D01*
X54377755Y-123309893D01*
X54315726Y-123311093D01*
X54253698Y-123312292D01*
X54147055Y-123200980D01*
X54040411Y-123089668D01*
X54040411Y-122802023D01*
X54106100Y-122736331D01*
X54171790Y-122670642D01*
X54261471Y-122636546D01*
X54351155Y-122602447D01*
X54621774Y-122677168D01*
G37*
G36*
X49501112Y-103909383D02*
G01*
X49654076Y-103967601D01*
X49689976Y-104069683D01*
X49725877Y-104171766D01*
X49701195Y-104270108D01*
X49676512Y-104368450D01*
X49586353Y-104411902D01*
X49496188Y-104455355D01*
X49394419Y-104460725D01*
X49266709Y-104406671D01*
X49139001Y-104352617D01*
X49066572Y-104271273D01*
X48994144Y-104189931D01*
X49007044Y-104077281D01*
X49019944Y-103964630D01*
X49348150Y-103851164D01*
X49501112Y-103909383D01*
G37*
G36*
X51581089Y-101544397D02*
G01*
X51697508Y-101604600D01*
X51757712Y-101721019D01*
X51817914Y-101837440D01*
X51817914Y-102000132D01*
X51738539Y-102079507D01*
X51659166Y-102158881D01*
X51465895Y-102158881D01*
X51364112Y-102120182D01*
X51262328Y-102081485D01*
X51183083Y-101951510D01*
X51103837Y-101821536D01*
X51103689Y-101693949D01*
X51103540Y-101566360D01*
X51180305Y-101525277D01*
X51257070Y-101484194D01*
X51464669Y-101484194D01*
X51581089Y-101544397D01*
G37*
G36*
X67188774Y-118206881D02*
G01*
X67295031Y-118233551D01*
X67358573Y-118330525D01*
X67422113Y-118427503D01*
X67396297Y-118545040D01*
X67370481Y-118662580D01*
X67276606Y-118763874D01*
X67182732Y-118865168D01*
X67067268Y-118824917D01*
X66951804Y-118784666D01*
X66680881Y-118555761D01*
X66741622Y-118443634D01*
X66802360Y-118331507D01*
X67082516Y-118180212D01*
X67188774Y-118206881D01*
G37*
G36*
X61354183Y-118603197D02*
G01*
X61481965Y-118656588D01*
X62454237Y-119388557D01*
X63426509Y-120120528D01*
X63614592Y-120208293D01*
X63802676Y-120296057D01*
X63932090Y-120296657D01*
X64061507Y-120297257D01*
X64121039Y-120335208D01*
X64180569Y-120373159D01*
X64137326Y-120443741D01*
X64094084Y-120514326D01*
X63873133Y-120693453D01*
X63652182Y-120872581D01*
X63483917Y-120967150D01*
X63315652Y-121061720D01*
X63335871Y-120882343D01*
X63356091Y-120702964D01*
X63301784Y-120573806D01*
X63247477Y-120444650D01*
X62923154Y-120112377D01*
X62598831Y-119780103D01*
X62487860Y-119780103D01*
X62020739Y-120018257D01*
X61553620Y-120256408D01*
X61478041Y-120339842D01*
X61402461Y-120423279D01*
X61388961Y-120788636D01*
X61375462Y-121153994D01*
X61420391Y-121320851D01*
X61465321Y-121487710D01*
X61585840Y-121624973D01*
X61706359Y-121762236D01*
X61693308Y-121829685D01*
X61680257Y-121897136D01*
X61461975Y-121942299D01*
X61243694Y-121987462D01*
X61005568Y-122112187D01*
X60767444Y-122236936D01*
X60678148Y-122238841D01*
X60588850Y-122240745D01*
X60588850Y-122206225D01*
X60627808Y-122103762D01*
X60666765Y-122001298D01*
X60707306Y-121654693D01*
X60747847Y-121308088D01*
X60807563Y-120176995D01*
X60842019Y-119524318D01*
X61382600Y-119524318D01*
X61444382Y-119612525D01*
X61506164Y-119700720D01*
X61573366Y-119698680D01*
X61640569Y-119696641D01*
X61789740Y-119634774D01*
X61938912Y-119572905D01*
X61961786Y-119481764D01*
X61984661Y-119390624D01*
X61936749Y-119297629D01*
X61888837Y-119204637D01*
X61784547Y-119091951D01*
X61680257Y-118979268D01*
X61577019Y-118925314D01*
X61473782Y-118871360D01*
X61428191Y-118916953D01*
X61382600Y-118962544D01*
X61382600Y-119524318D01*
X60842019Y-119524318D01*
X60867276Y-119045900D01*
X60886793Y-118962544D01*
X60908955Y-118867894D01*
X60950634Y-118689886D01*
X61014019Y-118619846D01*
X61077404Y-118549806D01*
X61226400Y-118549806D01*
X61354183Y-118603197D01*
G37*
G36*
X69083676Y-112478511D02*
G01*
X69159532Y-112519108D01*
X69202328Y-112599073D01*
X69245122Y-112679037D01*
X69220355Y-112757074D01*
X69195588Y-112835109D01*
X69089171Y-112892890D01*
X68982757Y-112950669D01*
X68770144Y-112953851D01*
X68707779Y-112891485D01*
X68645413Y-112829117D01*
X68645413Y-112561476D01*
X68733619Y-112499694D01*
X68821824Y-112437915D01*
X69007820Y-112437915D01*
X69083676Y-112478511D01*
G37*
G36*
X66661037Y-103762224D02*
G01*
X66661037Y-103948728D01*
X66601734Y-104063411D01*
X66542428Y-104178093D01*
X66453995Y-104240034D01*
X66365555Y-104301976D01*
X66064017Y-104301976D01*
X66020143Y-104205685D01*
X65976268Y-104109392D01*
X66002311Y-104005637D01*
X66028353Y-103901880D01*
X66213557Y-103784428D01*
X66398761Y-103666975D01*
X66565786Y-103666975D01*
X66661037Y-103762224D01*
G37*
G36*
X62725789Y-122498697D02*
G01*
X62753006Y-122607750D01*
X62780222Y-122716801D01*
X62757343Y-122776420D01*
X62734464Y-122836044D01*
X62471822Y-122836044D01*
X62383615Y-122774262D01*
X62295411Y-122712482D01*
X62295411Y-122455045D01*
X62390663Y-122359793D01*
X62600609Y-122359793D01*
X62725789Y-122498697D01*
G37*
G36*
X65310266Y-120690309D02*
G01*
X65351350Y-120767073D01*
X65351350Y-121063700D01*
X65285668Y-121136278D01*
X65219986Y-121208852D01*
X65084398Y-121208852D01*
X64898331Y-121009931D01*
X64712264Y-120811010D01*
X64738995Y-120767755D01*
X64765726Y-120724504D01*
X64898514Y-120669023D01*
X65031300Y-120613542D01*
X65269181Y-120613542D01*
X65310266Y-120690309D01*
G37*
G36*
X48150783Y-106628217D02*
G01*
X48285765Y-106692272D01*
X48284865Y-106757202D01*
X48283965Y-106822133D01*
X48215393Y-106906261D01*
X48146822Y-106990386D01*
X48067448Y-107034037D01*
X47988105Y-107077701D01*
X47836224Y-107078902D01*
X47684343Y-107080102D01*
X47568333Y-106964092D01*
X47452324Y-106848082D01*
X47452324Y-106758995D01*
X47549740Y-106661579D01*
X47647154Y-106564165D01*
X48015801Y-106564165D01*
X48150783Y-106628217D01*
G37*
G36*
X56498281Y-123158596D02*
G01*
X56600249Y-123215546D01*
X56612639Y-123342630D01*
X56625030Y-123469717D01*
X56525150Y-123569596D01*
X56425263Y-123669478D01*
X56120029Y-123669478D01*
X56024780Y-123574227D01*
X56024780Y-123327256D01*
X56105254Y-123240879D01*
X56185728Y-123154499D01*
X56291020Y-123128074D01*
X56396313Y-123101647D01*
X56498281Y-123158596D01*
G37*
G36*
X60539682Y-123008630D02*
G01*
X60678067Y-123031085D01*
X60752520Y-123098464D01*
X60826973Y-123165842D01*
X60826973Y-123355585D01*
X60729559Y-123452999D01*
X60632143Y-123550414D01*
X60392241Y-123550414D01*
X60329980Y-123455393D01*
X60267720Y-123360371D01*
X60245121Y-123221110D01*
X60222522Y-123081849D01*
X60311910Y-123034011D01*
X60401296Y-122986172D01*
X60539682Y-123008630D01*
G37*
G36*
X68490274Y-115500779D02*
G01*
X68625562Y-115513695D01*
X68638116Y-115666416D01*
X68650670Y-115819138D01*
X68582358Y-115894618D01*
X68514028Y-115970097D01*
X68299943Y-115970097D01*
X68165091Y-115879437D01*
X68030238Y-115788777D01*
X68018103Y-115704974D01*
X68005967Y-115621171D01*
X68180476Y-115554525D01*
X68354987Y-115487879D01*
X68490274Y-115500779D01*
G37*
G36*
X57474881Y-123249590D02*
G01*
X57567050Y-123272723D01*
X57629358Y-123335029D01*
X57691663Y-123397335D01*
X57691663Y-123664976D01*
X57603456Y-123726756D01*
X57515252Y-123788538D01*
X57291180Y-123788538D01*
X57193764Y-123691123D01*
X57096350Y-123593709D01*
X57096350Y-123477531D01*
X57121004Y-123413286D01*
X57145657Y-123349041D01*
X57264183Y-123287749D01*
X57382712Y-123226457D01*
X57474881Y-123249590D01*
G37*
G36*
X61612473Y-99983539D02*
G01*
X61719357Y-99995914D01*
X61773959Y-100110340D01*
X61828561Y-100224766D01*
X61782734Y-100377716D01*
X61736910Y-100530669D01*
X61629207Y-100589124D01*
X61521503Y-100647566D01*
X61415198Y-100649155D01*
X61308892Y-100650745D01*
X61246526Y-100588378D01*
X61184159Y-100526012D01*
X61184308Y-100419706D01*
X61184457Y-100313401D01*
X61338663Y-100060498D01*
X61422125Y-100015831D01*
X61505587Y-99971164D01*
X61612473Y-99983539D01*
G37*
G36*
X67784833Y-117404790D02*
G01*
X67871522Y-117450420D01*
X67900679Y-117494088D01*
X67929839Y-117537757D01*
X67930439Y-117585984D01*
X67931038Y-117634212D01*
X67807863Y-117774501D01*
X67684697Y-117914789D01*
X67609606Y-117914789D01*
X67482592Y-117850471D01*
X67355579Y-117786153D01*
X67286127Y-117725257D01*
X67216675Y-117664360D01*
X67216675Y-117523674D01*
X67321247Y-117441418D01*
X67425818Y-117359162D01*
X67698144Y-117359162D01*
X67784833Y-117404790D01*
G37*
G36*
X62680441Y-100502841D02*
G01*
X62744191Y-100566590D01*
X62740651Y-100691097D01*
X62737110Y-100815603D01*
X62672698Y-100913909D01*
X62608286Y-101012216D01*
X62521302Y-101047253D01*
X62434315Y-101082281D01*
X62382096Y-101084801D01*
X62329879Y-101087321D01*
X62257289Y-101048471D01*
X62184697Y-101009622D01*
X62142381Y-100888236D01*
X62100065Y-100766852D01*
X62136435Y-100671192D01*
X62172806Y-100575534D01*
X62276925Y-100507313D01*
X62381045Y-100439091D01*
X62616693Y-100439091D01*
X62680441Y-100502841D01*
G37*
G36*
X50846856Y-102280418D02*
G01*
X51035599Y-102377547D01*
X51079490Y-102448779D01*
X51123382Y-102520010D01*
X50953741Y-102679128D01*
X50784099Y-102838238D01*
X50636522Y-102825983D01*
X50488946Y-102813727D01*
X50433687Y-102697906D01*
X50378427Y-102582084D01*
X50413560Y-102441238D01*
X50448693Y-102300392D01*
X50553403Y-102241840D01*
X50658114Y-102183287D01*
X50846856Y-102280418D01*
G37*
G36*
X66075649Y-119974355D02*
G01*
X66184789Y-120016268D01*
X66184789Y-120280873D01*
X66135179Y-120343056D01*
X66085569Y-120405239D01*
X66006195Y-120448653D01*
X65926823Y-120492086D01*
X65834474Y-120493285D01*
X65742122Y-120494484D01*
X65626111Y-120378475D01*
X65510102Y-120262464D01*
X65510102Y-120181408D01*
X65599398Y-120078636D01*
X65688694Y-119975865D01*
X65827600Y-119954154D01*
X65966507Y-119932442D01*
X66075649Y-119974355D01*
G37*
G36*
X57927446Y-101393248D02*
G01*
X58103698Y-101426028D01*
X58133082Y-101544392D01*
X58162463Y-101662756D01*
X58206278Y-102099320D01*
X58250093Y-102535881D01*
X58273848Y-103210569D01*
X58297603Y-103885256D01*
X58222836Y-103951088D01*
X58148069Y-104016920D01*
X57949631Y-104079700D01*
X57751198Y-104142492D01*
X57493230Y-104128961D01*
X57235260Y-104115431D01*
X57072752Y-104032448D01*
X56910245Y-103949464D01*
X56779289Y-103800315D01*
X56648333Y-103651164D01*
X56576929Y-103489743D01*
X56505526Y-103328321D01*
X56463313Y-103064086D01*
X56449920Y-102980245D01*
X56730028Y-102980245D01*
X56797603Y-103212693D01*
X56865178Y-103445142D01*
X57011423Y-103591387D01*
X57157671Y-103737634D01*
X57315526Y-103781458D01*
X57473370Y-103825425D01*
X57795544Y-103825725D01*
X57872528Y-103769433D01*
X57949513Y-103713140D01*
X57963718Y-103232120D01*
X57977924Y-102751102D01*
X57933284Y-102372583D01*
X57888643Y-101994064D01*
X57831865Y-101858176D01*
X57775088Y-101722287D01*
X57252550Y-101722287D01*
X57113350Y-101780448D01*
X56974150Y-101838610D01*
X56868695Y-102068183D01*
X56763242Y-102297755D01*
X56746635Y-102639000D01*
X56730028Y-102980245D01*
X56449920Y-102980245D01*
X56421102Y-102799850D01*
X56461756Y-102509115D01*
X56502410Y-102218381D01*
X56560205Y-102017450D01*
X56618001Y-101816519D01*
X56708483Y-101682251D01*
X56798966Y-101547985D01*
X56930338Y-101471260D01*
X57061709Y-101394533D01*
X57751195Y-101360469D01*
X57927446Y-101393248D01*
G37*
G36*
X69178946Y-110462367D02*
G01*
X69240728Y-110550573D01*
X69240728Y-110755162D01*
X69145476Y-110850413D01*
X68661290Y-110850413D01*
X68566039Y-110755162D01*
X68566039Y-110568991D01*
X68663453Y-110471577D01*
X68760868Y-110374160D01*
X69117163Y-110374160D01*
X69178946Y-110462367D01*
G37*
G36*
X51272168Y-109022526D02*
G01*
X51456342Y-109139326D01*
X51523475Y-109269146D01*
X51590608Y-109398966D01*
X51590608Y-109682486D01*
X51527413Y-109804693D01*
X51464218Y-109926898D01*
X51325816Y-109992573D01*
X51187412Y-110058248D01*
X50758520Y-110098149D01*
X50329629Y-110138050D01*
X50203817Y-110178759D01*
X50078008Y-110219470D01*
X49987131Y-110328972D01*
X49983846Y-110444617D01*
X49980561Y-110560264D01*
X50161477Y-110922511D01*
X50556583Y-111412320D01*
X50951690Y-111902130D01*
X51110669Y-112133573D01*
X51269646Y-112365016D01*
X51363716Y-112570490D01*
X51457784Y-112775962D01*
X51483567Y-112995331D01*
X51509349Y-113214701D01*
X51446328Y-113460698D01*
X51383306Y-113706696D01*
X51286637Y-113895821D01*
X51189966Y-114084946D01*
X51048845Y-114248473D01*
X50907722Y-114412002D01*
X50768750Y-114477950D01*
X50629776Y-114543895D01*
X50400330Y-114579427D01*
X50170879Y-114614949D01*
X49714473Y-114606430D01*
X49258067Y-114597911D01*
X49133881Y-114531396D01*
X49009693Y-114464883D01*
X48785191Y-114259702D01*
X48560688Y-114054521D01*
X48467588Y-113891131D01*
X48374487Y-113727742D01*
X48348237Y-113614797D01*
X48340652Y-113582159D01*
X48797803Y-113582159D01*
X48861202Y-113734331D01*
X48924601Y-113886505D01*
X49070800Y-114036537D01*
X49216998Y-114186569D01*
X49413409Y-114244898D01*
X49609835Y-114303162D01*
X49850678Y-114299172D01*
X50091522Y-114295183D01*
X50240511Y-114260068D01*
X50389502Y-114224955D01*
X50577855Y-114128578D01*
X50766209Y-114032200D01*
X50913079Y-113879943D01*
X51059948Y-113727687D01*
X51147632Y-113529248D01*
X51235315Y-113330810D01*
X51237625Y-113112528D01*
X51239935Y-112894248D01*
X51145216Y-112706441D01*
X51050495Y-112518634D01*
X50709911Y-112085336D01*
X50369327Y-111652037D01*
X50081425Y-111300800D01*
X49793522Y-110949562D01*
X49654784Y-110676339D01*
X49516046Y-110403116D01*
X49516046Y-110181746D01*
X49617656Y-110060988D01*
X49719268Y-109940230D01*
X49858597Y-109914092D01*
X49997926Y-109887953D01*
X50421751Y-109882733D01*
X50845577Y-109877512D01*
X51037171Y-109789335D01*
X51228765Y-109701156D01*
X51215009Y-109630833D01*
X51201254Y-109560509D01*
X50586849Y-109562145D01*
X49972445Y-109563780D01*
X49685441Y-109615220D01*
X49398437Y-109666658D01*
X49272371Y-109752492D01*
X49146305Y-109838327D01*
X49063281Y-109950376D01*
X48980256Y-110062428D01*
X48980256Y-110718238D01*
X49098146Y-110888352D01*
X49216035Y-111058467D01*
X49818811Y-111682781D01*
X50421586Y-112307097D01*
X50530634Y-112521305D01*
X50639683Y-112735514D01*
X50658200Y-113017816D01*
X50676716Y-113300117D01*
X50626650Y-113454376D01*
X50576584Y-113608638D01*
X50496721Y-113722402D01*
X50416859Y-113836167D01*
X50254183Y-113910046D01*
X50091508Y-113983924D01*
X49944168Y-113984824D01*
X49796828Y-113985723D01*
X49570358Y-113900989D01*
X49343888Y-113816255D01*
X49172104Y-113657910D01*
X49000318Y-113499565D01*
X48954630Y-113347068D01*
X48908941Y-113194570D01*
X48879726Y-113212627D01*
X48850510Y-113230683D01*
X48824157Y-113406421D01*
X48797803Y-113582159D01*
X48340652Y-113582159D01*
X48321989Y-113501853D01*
X48381688Y-113297297D01*
X48441387Y-113092741D01*
X48591758Y-112937966D01*
X48742128Y-112783190D01*
X48869838Y-112729606D01*
X48997548Y-112676023D01*
X49262738Y-112676023D01*
X49333604Y-112727839D01*
X49404469Y-112779658D01*
X49436356Y-113070134D01*
X49468241Y-113360610D01*
X49545317Y-113464800D01*
X49622392Y-113568989D01*
X49729090Y-113621305D01*
X49835787Y-113673620D01*
X49974005Y-113628004D01*
X50112223Y-113582390D01*
X50220925Y-113439875D01*
X50329629Y-113297359D01*
X50329629Y-112930903D01*
X50193904Y-112706961D01*
X50058181Y-112483018D01*
X48842395Y-111157847D01*
X48697618Y-110939732D01*
X48552841Y-110721614D01*
X48498745Y-110541869D01*
X48444649Y-110362123D01*
X48485328Y-110211055D01*
X48526007Y-110059986D01*
X48655230Y-109889645D01*
X48784455Y-109719304D01*
X48971004Y-109593748D01*
X49157555Y-109468190D01*
X49347189Y-109427520D01*
X49536824Y-109386850D01*
X50052288Y-109359279D01*
X50567751Y-109331708D01*
X50640565Y-109294108D01*
X50713378Y-109256509D01*
X50774011Y-109110876D01*
X50834642Y-108965240D01*
X50879791Y-108936083D01*
X50924939Y-108906925D01*
X51006467Y-108906325D01*
X51087994Y-108905725D01*
X51272168Y-109022526D01*
G37*
G36*
X47299488Y-111601947D02*
G01*
X47377799Y-111698656D01*
X47353820Y-111800383D01*
X47329843Y-111902111D01*
X47242704Y-111975660D01*
X47155567Y-112049209D01*
X46977816Y-112029175D01*
X46800065Y-112009139D01*
X46708017Y-111902127D01*
X46615971Y-111795118D01*
X46667058Y-111624299D01*
X46723748Y-111564767D01*
X46780437Y-111505237D01*
X47221178Y-111505237D01*
X47299488Y-111601947D01*
G37*
G36*
X63690574Y-121908908D02*
G01*
X63767643Y-121978652D01*
X63755824Y-122138526D01*
X63744004Y-122298403D01*
X63644786Y-122348871D01*
X63545564Y-122399342D01*
X63427804Y-122374522D01*
X63310044Y-122349702D01*
X63242112Y-122307279D01*
X63174183Y-122264853D01*
X63129262Y-122166265D01*
X63084342Y-122067676D01*
X63160198Y-121965689D01*
X63236054Y-121863701D01*
X63424781Y-121851431D01*
X63613505Y-121839160D01*
X63690574Y-121908908D01*
G37*
G36*
X47549959Y-108602029D02*
G01*
X47623113Y-108655521D01*
X47599864Y-108828839D01*
X47576617Y-109002160D01*
X47504531Y-109056277D01*
X47432446Y-109110394D01*
X47260758Y-109091971D01*
X47089069Y-109073546D01*
X46973024Y-108962368D01*
X46856978Y-108851187D01*
X46856978Y-108672103D01*
X47033389Y-108548539D01*
X47476808Y-108548539D01*
X47549959Y-108602029D01*
G37*
G36*
X59910706Y-121704944D02*
G01*
X59877581Y-121876319D01*
X59844456Y-122047697D01*
X59730482Y-122166743D01*
X59616506Y-122285787D01*
X59338694Y-122422619D01*
X59060882Y-122559452D01*
X58822757Y-122589655D01*
X58584616Y-122619853D01*
X58375920Y-122592415D01*
X58167225Y-122564979D01*
X57988921Y-122478663D01*
X57810614Y-122392347D01*
X57691911Y-122248339D01*
X57573208Y-122104334D01*
X57514746Y-121924483D01*
X57456285Y-121744632D01*
X57374149Y-120475986D01*
X57378108Y-119999060D01*
X57382068Y-119522132D01*
X57409448Y-119422914D01*
X57436828Y-119323696D01*
X57544379Y-119311142D01*
X57651931Y-119298588D01*
X57690932Y-119401171D01*
X57729935Y-119503753D01*
X57767603Y-120445602D01*
X57805272Y-121387451D01*
X57850772Y-121594882D01*
X57896273Y-121802313D01*
X58013413Y-121900881D01*
X58130556Y-121999449D01*
X58272229Y-122026026D01*
X58413903Y-122052604D01*
X58641043Y-122032007D01*
X58868183Y-122011410D01*
X59030229Y-121928740D01*
X59192277Y-121846068D01*
X59368390Y-121625572D01*
X59344833Y-121010416D01*
X59321276Y-120395259D01*
X59259194Y-120020935D01*
X59197111Y-119646610D01*
X59119070Y-119470185D01*
X59041030Y-119293763D01*
X59041030Y-119187008D01*
X59249390Y-119128275D01*
X59457749Y-119069539D01*
X59616498Y-119044323D01*
X59775249Y-119019107D01*
X59914156Y-118981003D01*
X59910706Y-121704944D01*
G37*
G36*
X66760003Y-109118920D02*
G01*
X66834456Y-109173360D01*
X66865561Y-109446341D01*
X66896666Y-109719322D01*
X66873645Y-109926493D01*
X66850624Y-110133665D01*
X66791014Y-110183138D01*
X66731404Y-110232608D01*
X66547393Y-110254135D01*
X66363376Y-110275668D01*
X66145094Y-110250660D01*
X65926812Y-110225653D01*
X65787905Y-110166560D01*
X65648999Y-110107467D01*
X65542377Y-109999799D01*
X65435755Y-109892128D01*
X65411143Y-109780072D01*
X65386531Y-109668015D01*
X65392362Y-109654060D01*
X65741056Y-109654060D01*
X65764887Y-109729142D01*
X65788716Y-109804222D01*
X65928567Y-109870911D01*
X66068414Y-109937603D01*
X66332830Y-109937603D01*
X66437401Y-109855347D01*
X66541973Y-109773091D01*
X66541973Y-109513340D01*
X66464208Y-109442965D01*
X66386443Y-109372589D01*
X66039188Y-109333448D01*
X65914125Y-109398122D01*
X65789059Y-109462795D01*
X65765059Y-109558428D01*
X65741056Y-109654060D01*
X65392362Y-109654060D01*
X65450209Y-109515617D01*
X65513884Y-109363219D01*
X65601287Y-109269610D01*
X65688690Y-109175999D01*
X65795861Y-109120240D01*
X65903031Y-109064479D01*
X66685550Y-109064479D01*
X66760003Y-109118920D01*
G37*
G36*
X49196157Y-118070200D02*
G01*
X49278560Y-118185923D01*
X49301181Y-118299029D01*
X49323803Y-118412136D01*
X49242971Y-118514897D01*
X49162140Y-118617658D01*
X49031510Y-118682981D01*
X48900880Y-118748304D01*
X48801661Y-118726248D01*
X48702442Y-118704193D01*
X48652832Y-118639250D01*
X48603223Y-118574305D01*
X48603223Y-118426784D01*
X48718231Y-118204384D01*
X48860545Y-118079431D01*
X49002861Y-117954477D01*
X49113756Y-117954477D01*
X49196157Y-118070200D01*
G37*
G36*
X55485479Y-99820367D02*
G01*
X55588226Y-99942473D01*
X55588226Y-100257715D01*
X55459241Y-100313776D01*
X55330257Y-100369826D01*
X55276680Y-100371385D01*
X55223101Y-100372945D01*
X55088164Y-100238008D01*
X54953225Y-100103071D01*
X54953225Y-99857008D01*
X55032600Y-99777633D01*
X55111975Y-99698259D01*
X55382732Y-99698259D01*
X55485479Y-99820367D01*
G37*
G36*
X59714328Y-123230304D02*
G01*
X59755411Y-123307069D01*
X59755411Y-123539709D01*
X59673156Y-123644281D01*
X59590895Y-123748852D01*
X59401012Y-123748852D01*
X59354652Y-123662225D01*
X59308289Y-123575598D01*
X59304224Y-123420478D01*
X59300159Y-123265360D01*
X59376621Y-123209449D01*
X59453083Y-123153540D01*
X59673245Y-123153540D01*
X59714328Y-123230304D01*
G37*
G36*
X68786212Y-114606678D02*
G01*
X68883537Y-114711693D01*
X68883537Y-114894595D01*
X68814085Y-114937357D01*
X68744631Y-114980121D01*
X68553151Y-114964715D01*
X68361670Y-114949309D01*
X68238243Y-114825882D01*
X68263807Y-114724025D01*
X68289371Y-114622171D01*
X68405888Y-114561917D01*
X68522405Y-114501664D01*
X68688889Y-114501664D01*
X68786212Y-114606678D01*
G37*
G36*
X68346237Y-107254765D02*
G01*
X68449785Y-107280755D01*
X68488132Y-107381620D01*
X68526481Y-107482484D01*
X68502117Y-107579560D01*
X68477752Y-107676636D01*
X68353225Y-107774803D01*
X68228697Y-107872951D01*
X68132571Y-107873851D01*
X68054966Y-107790554D01*
X67977364Y-107707257D01*
X67952393Y-107607757D01*
X67927420Y-107508258D01*
X68054303Y-107314610D01*
X68148497Y-107271692D01*
X68242688Y-107228776D01*
X68346237Y-107254765D01*
G37*
G36*
X59697686Y-99597236D02*
G01*
X59795100Y-99694650D01*
X59795100Y-100011814D01*
X59725647Y-100052266D01*
X59656193Y-100092734D01*
X59376197Y-100095134D01*
X59287993Y-100033352D01*
X59199787Y-99971570D01*
X59199787Y-99664332D01*
X59304358Y-99582077D01*
X59408930Y-99499821D01*
X59600270Y-99499821D01*
X59697686Y-99597236D01*
G37*
G36*
X61822214Y-122832986D02*
G01*
X61938225Y-122948997D01*
X61938225Y-123069666D01*
X61850019Y-123131446D01*
X61761812Y-123193228D01*
X61387099Y-123193228D01*
X61263535Y-123016815D01*
X61263535Y-122875725D01*
X61342910Y-122796351D01*
X61422284Y-122716975D01*
X61706203Y-122716975D01*
X61822214Y-122832986D01*
G37*
G36*
X69179323Y-111405330D02*
G01*
X69281837Y-111444304D01*
X69321095Y-111547562D01*
X69360355Y-111650820D01*
X69297724Y-111782807D01*
X69235090Y-111914791D01*
X69108924Y-111977011D01*
X68982757Y-112039241D01*
X68871811Y-112040141D01*
X68760868Y-112041040D01*
X68557170Y-111837342D01*
X68581349Y-111710988D01*
X68605528Y-111584634D01*
X68725315Y-111475494D01*
X68845103Y-111366354D01*
X69076809Y-111366354D01*
X69179323Y-111405330D01*
G37*
G36*
X68919787Y-109259475D02*
G01*
X69002601Y-109342290D01*
X69002601Y-109663397D01*
X68905187Y-109760812D01*
X68807772Y-109858229D01*
X68682551Y-109858229D01*
X68427133Y-109751460D01*
X68373091Y-109686297D01*
X68319050Y-109621132D01*
X68343634Y-109523183D01*
X68368219Y-109425233D01*
X68496894Y-109327319D01*
X68625571Y-109229407D01*
X68731271Y-109203034D01*
X68836973Y-109176661D01*
X68919787Y-109259475D01*
G37*
G36*
X52605637Y-121742726D02*
G01*
X52678990Y-121766005D01*
X52724700Y-121866329D01*
X52770411Y-121966652D01*
X52770411Y-122185871D01*
X52720802Y-122248422D01*
X52671193Y-122310973D01*
X52611662Y-122332250D01*
X52552128Y-122353524D01*
X52446516Y-122356660D01*
X52340903Y-122359796D01*
X52238156Y-122237687D01*
X52135411Y-122115579D01*
X52135411Y-121977769D01*
X52244551Y-121875585D01*
X52353691Y-121773398D01*
X52442989Y-121746420D01*
X52532285Y-121719444D01*
X52605637Y-121742726D01*
G37*
G36*
X48223295Y-116342858D02*
G01*
X48324409Y-116368237D01*
X48387263Y-116464163D01*
X48450117Y-116560092D01*
X48404485Y-116645358D01*
X48358852Y-116730623D01*
X48232991Y-116786280D01*
X48107133Y-116841938D01*
X47888852Y-116832668D01*
X47670570Y-116823382D01*
X47658660Y-116681404D01*
X47646750Y-116539429D01*
X47718597Y-116450703D01*
X47790443Y-116361977D01*
X47956311Y-116339730D01*
X48122181Y-116317482D01*
X48223295Y-116342858D01*
G37*
G36*
X63527844Y-100916288D02*
G01*
X63641426Y-100983383D01*
X63685923Y-101090806D01*
X63730420Y-101198230D01*
X63667263Y-101320362D01*
X63604105Y-101442494D01*
X63495464Y-101501443D01*
X63386821Y-101560388D01*
X63358922Y-101561977D01*
X63331024Y-101563567D01*
X63234314Y-101519503D01*
X63137605Y-101475438D01*
X63093541Y-101378729D01*
X63049476Y-101282019D01*
X63049476Y-101093407D01*
X63152224Y-100971300D01*
X63254971Y-100849192D01*
X63414261Y-100849192D01*
X63527844Y-100916288D01*
G37*
G36*
X64352539Y-116445661D02*
G01*
X64617129Y-116491654D01*
X64875097Y-116614170D01*
X65133065Y-116736686D01*
X65700377Y-117302359D01*
X65763987Y-117516560D01*
X65827598Y-117730761D01*
X65827598Y-118592030D01*
X65766368Y-118739583D01*
X65705137Y-118887136D01*
X65438945Y-119159265D01*
X65172756Y-119431394D01*
X65053694Y-119487365D01*
X64934513Y-119543320D01*
X64537636Y-119529056D01*
X64140762Y-119514792D01*
X64021700Y-119465885D01*
X63902638Y-119416977D01*
X63974294Y-119364346D01*
X64045950Y-119311714D01*
X64696391Y-119254375D01*
X64894827Y-119179494D01*
X64989341Y-119092842D01*
X65083856Y-119006189D01*
X65197670Y-118768065D01*
X65311481Y-118529941D01*
X65311181Y-118331503D01*
X65310881Y-118133067D01*
X65210663Y-117917774D01*
X65110445Y-117702481D01*
X64823990Y-117421679D01*
X64537535Y-117140880D01*
X64305186Y-117028433D01*
X64072837Y-116915988D01*
X63864522Y-116894487D01*
X63656208Y-116872988D01*
X63380062Y-116964124D01*
X63277143Y-117072348D01*
X63174224Y-117180573D01*
X63064518Y-117398853D01*
X62954813Y-117617135D01*
X62938398Y-117974324D01*
X62921982Y-118331512D01*
X62885512Y-118370211D01*
X62849042Y-118408911D01*
X62550800Y-118099838D01*
X62252560Y-117790767D01*
X62585819Y-117426138D01*
X62919080Y-117061511D01*
X63026863Y-116889035D01*
X63134645Y-116716561D01*
X63379794Y-116605816D01*
X63624942Y-116495074D01*
X63856447Y-116447370D01*
X64087952Y-116399667D01*
X64352539Y-116445661D01*
G37*
G36*
X47022723Y-110490865D02*
G01*
X47168626Y-110534325D01*
X47270770Y-110655717D01*
X47372915Y-110777107D01*
X47372915Y-110920048D01*
X47311304Y-110971180D01*
X47249693Y-111022312D01*
X47102943Y-111047087D01*
X46956196Y-111071861D01*
X46856977Y-111055164D01*
X46757759Y-111038467D01*
X46691875Y-110981196D01*
X46625992Y-110923925D01*
X46602514Y-110830381D01*
X46579035Y-110736837D01*
X46618076Y-110634152D01*
X46657116Y-110531468D01*
X46876821Y-110447405D01*
X47022723Y-110490865D01*
G37*
G36*
X58251858Y-106201730D02*
G01*
X58752531Y-106279952D01*
X58918973Y-106329819D01*
X59085414Y-106379687D01*
X59260846Y-106534108D01*
X59436277Y-106688526D01*
X59474192Y-106834700D01*
X59512107Y-106980871D01*
X59482169Y-107873839D01*
X59452230Y-108766809D01*
X59387363Y-108890287D01*
X59322497Y-109013766D01*
X59191685Y-109122737D01*
X59060874Y-109231709D01*
X58753296Y-109424539D01*
X58445717Y-109617367D01*
X58445717Y-109723129D01*
X58705418Y-110114274D01*
X58965121Y-110505419D01*
X59239177Y-111045020D01*
X59513234Y-111584620D01*
X59569976Y-111661790D01*
X59626718Y-111738960D01*
X60474890Y-110906672D01*
X61323062Y-110074385D01*
X61586161Y-109886862D01*
X61849261Y-109699338D01*
X62074632Y-109599669D01*
X62300000Y-109500000D01*
X62823563Y-109399670D01*
X63347123Y-109299339D01*
X63725506Y-109221593D01*
X64103887Y-109143845D01*
X64160716Y-109143845D01*
X64160716Y-109347741D01*
X64060166Y-109744415D01*
X63959616Y-110141088D01*
X63895247Y-110307233D01*
X63830879Y-110473378D01*
X63656686Y-110739344D01*
X63482495Y-111005309D01*
X63151377Y-111315107D01*
X62820256Y-111624906D01*
X62524824Y-111793939D01*
X62229393Y-111962973D01*
X61994509Y-112045829D01*
X61759626Y-112128686D01*
X61368739Y-112162908D01*
X60977851Y-112197133D01*
X60674207Y-112280158D01*
X60370565Y-112363182D01*
X60083039Y-112501157D01*
X59795514Y-112639134D01*
X59632489Y-112794215D01*
X59469463Y-112949296D01*
X59486038Y-112999018D01*
X59502611Y-113048743D01*
X59735565Y-113113173D01*
X60559526Y-113065708D01*
X61383484Y-113018242D01*
X61429823Y-113064579D01*
X61476161Y-113110916D01*
X61082112Y-113293047D01*
X60688065Y-113475175D01*
X60330877Y-113648196D01*
X59973690Y-113821219D01*
X59553805Y-114098899D01*
X59133920Y-114376578D01*
X59007228Y-114520872D01*
X58880535Y-114665166D01*
X58903595Y-114702478D01*
X58926655Y-114739788D01*
X59086792Y-114739788D01*
X59550086Y-114557022D01*
X60013379Y-114374255D01*
X60288222Y-114279209D01*
X60563064Y-114184164D01*
X60742915Y-114184164D01*
X60794127Y-114267028D01*
X60732604Y-114360927D01*
X60671078Y-114454828D01*
X60220329Y-114734508D01*
X59769579Y-115014188D01*
X59325354Y-115335655D01*
X58881128Y-115657124D01*
X58653505Y-115873028D01*
X58425880Y-116088932D01*
X58502918Y-116148579D01*
X58579956Y-116208226D01*
X59309129Y-116208226D01*
X59358592Y-116267824D01*
X59408054Y-116327423D01*
X59266637Y-116456340D01*
X59125219Y-116585258D01*
X58580404Y-116882914D01*
X58035587Y-117180570D01*
X57842053Y-117354473D01*
X57648518Y-117528375D01*
X57464910Y-117791033D01*
X57281301Y-118053693D01*
X57159059Y-118186064D01*
X57036818Y-118318436D01*
X56926521Y-118376199D01*
X56816224Y-118433962D01*
X56450270Y-118466575D01*
X56084298Y-118499282D01*
X56024765Y-118500033D01*
X55965234Y-118500784D01*
X55854888Y-118475714D01*
X55744542Y-118450643D01*
X55950764Y-118093454D01*
X56156986Y-117736266D01*
X56233841Y-117537830D01*
X56310696Y-117339392D01*
X56294173Y-117017039D01*
X56277649Y-116694686D01*
X56226188Y-116587439D01*
X56139447Y-116406664D01*
X56620097Y-116406664D01*
X56620097Y-116587439D01*
X56681879Y-116675646D01*
X56743664Y-116763850D01*
X56897912Y-116763850D01*
X56897912Y-116571175D01*
X56793340Y-116488919D01*
X56688769Y-116406664D01*
X56620097Y-116406664D01*
X56139447Y-116406664D01*
X56110420Y-116346170D01*
X55943190Y-115997654D01*
X55802319Y-115805751D01*
X55661448Y-115613845D01*
X55329302Y-115456042D01*
X54997156Y-115298239D01*
X54955413Y-115220243D01*
X54913670Y-115142245D01*
X55038246Y-115017669D01*
X55223926Y-115018569D01*
X55409607Y-115019468D01*
X55584584Y-115059802D01*
X55759561Y-115100138D01*
X56173870Y-115277114D01*
X56588177Y-115454092D01*
X56741103Y-115454092D01*
X56777638Y-115357998D01*
X56814172Y-115261904D01*
X56900208Y-114693863D01*
X56986242Y-114125820D01*
X56969221Y-113801558D01*
X56952203Y-113477297D01*
X56825442Y-113219809D01*
X56698682Y-112962324D01*
X56542681Y-112821385D01*
X56386680Y-112680449D01*
X56175957Y-112617037D01*
X55965232Y-112553626D01*
X54969311Y-112497554D01*
X53973390Y-112441483D01*
X53683200Y-112380978D01*
X53393010Y-112320471D01*
X53131308Y-112198046D01*
X52869605Y-112075620D01*
X52410436Y-111611809D01*
X51960867Y-111157694D01*
X52452910Y-111157694D01*
X52452910Y-111252510D01*
X52491922Y-111325405D01*
X52530933Y-111398299D01*
X52779636Y-111585252D01*
X53028341Y-111772205D01*
X53301795Y-111909914D01*
X53575249Y-112047625D01*
X53857439Y-112106720D01*
X54139628Y-112165818D01*
X55111973Y-112198145D01*
X56084317Y-112230472D01*
X56261610Y-112295788D01*
X56438904Y-112361102D01*
X56604951Y-112458413D01*
X56770998Y-112555722D01*
X56930692Y-112737146D01*
X57090387Y-112918566D01*
X57158294Y-113104881D01*
X57226202Y-113291195D01*
X57245179Y-113837825D01*
X57264157Y-114384456D01*
X57194355Y-115124053D01*
X57124553Y-115863653D01*
X57148247Y-116334893D01*
X57171939Y-116806131D01*
X56932623Y-117070208D01*
X56693306Y-117334285D01*
X56596378Y-117525564D01*
X56499450Y-117716843D01*
X56474193Y-117901109D01*
X56448937Y-118085372D01*
X56522258Y-118138988D01*
X56595694Y-118192597D01*
X56727546Y-118192597D01*
X56857705Y-118103301D01*
X56987866Y-118014005D01*
X57270371Y-117637915D01*
X57552877Y-117261826D01*
X57791002Y-117069437D01*
X58029127Y-116877046D01*
X58396238Y-116697449D01*
X58763346Y-116517850D01*
X58763346Y-116455182D01*
X58619699Y-116428234D01*
X58476053Y-116401285D01*
X58312121Y-116428572D01*
X58148189Y-116455860D01*
X58000941Y-116530480D01*
X57853695Y-116605100D01*
X57691782Y-116605100D01*
X57691782Y-116446590D01*
X57978939Y-116144290D01*
X58266094Y-115841989D01*
X58615676Y-115582691D01*
X58965255Y-115323394D01*
X59006883Y-115245610D01*
X59048511Y-115167829D01*
X59007353Y-115126672D01*
X58966198Y-115085517D01*
X58843750Y-115136237D01*
X58721304Y-115186957D01*
X58358200Y-115419780D01*
X57995096Y-115652603D01*
X57887727Y-115652603D01*
X57864967Y-115593293D01*
X57842210Y-115533985D01*
X58029124Y-115220060D01*
X58326781Y-114875273D01*
X58624436Y-114530487D01*
X59013691Y-114183036D01*
X59402947Y-113835584D01*
X59630955Y-113714057D01*
X59858964Y-113592527D01*
X59933308Y-113510377D01*
X60007653Y-113428229D01*
X59959671Y-113380246D01*
X59911687Y-113332263D01*
X59605405Y-113447673D01*
X59299124Y-113563084D01*
X59140372Y-113566039D01*
X58981623Y-113569010D01*
X58989304Y-113458336D01*
X58996984Y-113347665D01*
X59108364Y-113122651D01*
X59219745Y-112897635D01*
X59735682Y-112373935D01*
X60122457Y-112151046D01*
X60722820Y-112058234D01*
X61323183Y-111965422D01*
X61620838Y-111903164D01*
X61918493Y-111840908D01*
X62315370Y-111714588D01*
X62493962Y-111613162D01*
X62672556Y-111511737D01*
X62964733Y-111230686D01*
X63256912Y-110949636D01*
X63432476Y-110722610D01*
X63608037Y-110495587D01*
X63756751Y-110163429D01*
X63736266Y-110110049D01*
X63715781Y-110056669D01*
X63572029Y-110056669D01*
X63099638Y-110503153D01*
X62627246Y-110949638D01*
X62352243Y-111133288D01*
X62077241Y-111316936D01*
X61785591Y-111463182D01*
X61493938Y-111609426D01*
X61393033Y-111647789D01*
X61292130Y-111686152D01*
X61357730Y-111595707D01*
X61423330Y-111505262D01*
X61528417Y-111354832D01*
X61633503Y-111204399D01*
X61592704Y-111163601D01*
X61551904Y-111122801D01*
X61397852Y-111186796D01*
X61243802Y-111250794D01*
X60875868Y-111492958D01*
X60507932Y-111735121D01*
X60489348Y-111716539D01*
X60470766Y-111697956D01*
X60557208Y-111493354D01*
X60643649Y-111288754D01*
X60616471Y-111261576D01*
X60589293Y-111234399D01*
X60499829Y-111275193D01*
X60410365Y-111315986D01*
X59861816Y-111837262D01*
X59313269Y-112358541D01*
X59246659Y-112358513D01*
X59180051Y-112358486D01*
X59177802Y-111951717D01*
X59175552Y-111544946D01*
X58953333Y-111009165D01*
X58894244Y-111009165D01*
X58865892Y-111753304D01*
X58837540Y-112497444D01*
X58781875Y-112795101D01*
X58726211Y-113092757D01*
X58132487Y-114262581D01*
X57538763Y-115432405D01*
X57453646Y-115460787D01*
X57453646Y-115151467D01*
X57514177Y-114697583D01*
X57574706Y-114243701D01*
X57575306Y-113840617D01*
X57575906Y-113437533D01*
X57498531Y-113217388D01*
X57421156Y-112997242D01*
X57209143Y-112690161D01*
X56997129Y-112383079D01*
X56683835Y-112051837D01*
X56370542Y-111720594D01*
X56072598Y-111524999D01*
X55774656Y-111329401D01*
X55742487Y-111349284D01*
X55710317Y-111369165D01*
X55748488Y-111469564D01*
X55786658Y-111569960D01*
X55786658Y-111689203D01*
X55697363Y-111661730D01*
X55608067Y-111634258D01*
X54873848Y-111317712D01*
X54139628Y-111001166D01*
X53949838Y-110925868D01*
X53760048Y-110850571D01*
X53736325Y-110912394D01*
X53712601Y-110974218D01*
X53826897Y-111095216D01*
X53941193Y-111216212D01*
X54228928Y-111411556D01*
X54516662Y-111606900D01*
X54516662Y-111690835D01*
X54358716Y-111664150D01*
X54200771Y-111637464D01*
X53519205Y-111423096D01*
X52837640Y-111208730D01*
X52452910Y-111157694D01*
X51960867Y-111157694D01*
X51951268Y-111147998D01*
X51744033Y-110851706D01*
X51536796Y-110555414D01*
X51548361Y-110474676D01*
X51559926Y-110393936D01*
X51778590Y-110284478D01*
X51997255Y-110175019D01*
X52193594Y-110124942D01*
X52461292Y-110056665D01*
X53722911Y-110056665D01*
X53722911Y-110124942D01*
X54090021Y-110319007D01*
X54457130Y-110513069D01*
X54687286Y-110723542D01*
X54917443Y-110934014D01*
X55101853Y-111050964D01*
X55286266Y-111167916D01*
X55389788Y-111167916D01*
X55389788Y-111060936D01*
X55158210Y-110840049D01*
X54926632Y-110619160D01*
X54640995Y-110434384D01*
X54355358Y-110249605D01*
X54137222Y-110153134D01*
X53919086Y-110056665D01*
X53722911Y-110056665D01*
X52461292Y-110056665D01*
X52473121Y-110053648D01*
X52948987Y-109932274D01*
X53385551Y-109909926D01*
X53822114Y-109887578D01*
X54080082Y-109953560D01*
X54338050Y-110019542D01*
X54615863Y-110202442D01*
X54893676Y-110385341D01*
X55725570Y-110965108D01*
X56557464Y-111544873D01*
X57206241Y-112179873D01*
X57383505Y-112457685D01*
X57560767Y-112735498D01*
X57728634Y-113060588D01*
X57896499Y-113385678D01*
X57993403Y-113490238D01*
X58090306Y-113594800D01*
X58139021Y-113578808D01*
X58187737Y-113562818D01*
X58270553Y-113440641D01*
X58353369Y-113318464D01*
X58468680Y-112927763D01*
X58583993Y-112537062D01*
X58581083Y-112021123D01*
X58578172Y-111505187D01*
X58474067Y-111163569D01*
X58369961Y-110821954D01*
X58037533Y-110096279D01*
X57036809Y-110095977D01*
X56481183Y-110054332D01*
X55925558Y-110012687D01*
X55627903Y-109953604D01*
X55330245Y-109894520D01*
X54814309Y-109639894D01*
X54725013Y-109505041D01*
X54635717Y-109370186D01*
X54635717Y-109209393D01*
X55032602Y-109209393D01*
X55121897Y-109290726D01*
X55211193Y-109372060D01*
X55384569Y-109461355D01*
X55672728Y-109461355D01*
X55875501Y-109374124D01*
X56078272Y-109286893D01*
X56120982Y-109358986D01*
X56163691Y-109431078D01*
X56228275Y-109513986D01*
X56292857Y-109596894D01*
X56378249Y-109558790D01*
X56463639Y-109520687D01*
X56595194Y-109282662D01*
X56726747Y-109044636D01*
X56818092Y-109031196D01*
X56909437Y-109017756D01*
X56885960Y-109162436D01*
X56862482Y-109307115D01*
X56741289Y-109445144D01*
X56620098Y-109583173D01*
X56620098Y-109723287D01*
X56667723Y-109770912D01*
X56715254Y-109818714D01*
X57015050Y-109818714D01*
X57072298Y-109729416D01*
X57129546Y-109640119D01*
X57155840Y-109401994D01*
X57182132Y-109163869D01*
X57220666Y-109024963D01*
X57325122Y-109024963D01*
X57349053Y-109114258D01*
X57372984Y-109203554D01*
X57374184Y-109322616D01*
X57375385Y-109441679D01*
X57412041Y-109499633D01*
X57448698Y-109557585D01*
X57602900Y-109418034D01*
X57671394Y-109171889D01*
X57739888Y-108925741D01*
X57778608Y-108878011D01*
X57817329Y-108830282D01*
X58013935Y-108907777D01*
X58210543Y-108985273D01*
X58377745Y-108984374D01*
X58544947Y-108983474D01*
X58704038Y-108911201D01*
X58863128Y-108838929D01*
X58989813Y-108694640D01*
X59116500Y-108550352D01*
X59141826Y-108415356D01*
X59167150Y-108280361D01*
X58915461Y-107706904D01*
X58941494Y-107603179D01*
X58967528Y-107499455D01*
X59123348Y-107330411D01*
X59279166Y-107161367D01*
X59279166Y-107028240D01*
X59125733Y-106882281D01*
X58972298Y-106736322D01*
X58798310Y-106693819D01*
X58624323Y-106651318D01*
X58357537Y-106611549D01*
X58090751Y-106571780D01*
X57985074Y-106488654D01*
X57879399Y-106405530D01*
X57735923Y-106405980D01*
X57592446Y-106406430D01*
X57394010Y-106459570D01*
X57195572Y-106512711D01*
X56957446Y-106633943D01*
X56719321Y-106755176D01*
X56609399Y-106871054D01*
X56499477Y-106986932D01*
X56466679Y-107103006D01*
X56433881Y-107219083D01*
X56450924Y-107268692D01*
X56467966Y-107318301D01*
X56607347Y-107318301D01*
X56736383Y-107176498D01*
X56865421Y-107034696D01*
X56934401Y-107097122D01*
X57003382Y-107159549D01*
X57112418Y-107159549D01*
X57247190Y-107030565D01*
X57381964Y-106901580D01*
X57442437Y-106990876D01*
X57502911Y-107080174D01*
X57547680Y-107079275D01*
X57592447Y-107078375D01*
X57691666Y-107000765D01*
X57790885Y-106923154D01*
X57890103Y-106921355D01*
X57969478Y-107000730D01*
X58048852Y-107080105D01*
X58202435Y-107080105D01*
X58416506Y-106998715D01*
X58391202Y-107156955D01*
X58365898Y-107315195D01*
X58445500Y-107357796D01*
X58525100Y-107400398D01*
X58525100Y-107546434D01*
X58396117Y-107571966D01*
X58267132Y-107597499D01*
X57949632Y-107928797D01*
X57632133Y-108260098D01*
X57499848Y-108349841D01*
X57367565Y-108439585D01*
X56928533Y-108611628D01*
X56489501Y-108783671D01*
X56401742Y-108866115D01*
X56313984Y-108948561D01*
X56169386Y-108972026D01*
X56024788Y-108995491D01*
X56024788Y-108920018D01*
X56163694Y-108757737D01*
X56302602Y-108595457D01*
X56302602Y-108508855D01*
X56109352Y-108508855D01*
X55838868Y-108566181D01*
X55568382Y-108623510D01*
X55390918Y-108686586D01*
X55213455Y-108749661D01*
X55123027Y-108834614D01*
X55032602Y-108919565D01*
X55032602Y-109209393D01*
X54635717Y-109209393D01*
X54635717Y-109025918D01*
X54671051Y-108919565D01*
X54754232Y-108669195D01*
X54872747Y-108312474D01*
X54881408Y-108236254D01*
X55350100Y-108236254D01*
X55391183Y-108313020D01*
X55432267Y-108389841D01*
X55622564Y-108389841D01*
X55672723Y-108231800D01*
X55647756Y-108191402D01*
X55622788Y-108151005D01*
X55649030Y-108068328D01*
X55675271Y-107985651D01*
X55840107Y-107910805D01*
X56004943Y-107835959D01*
X56168755Y-107835060D01*
X56332364Y-107834161D01*
X56888192Y-107834161D01*
X56933041Y-107888200D01*
X56977889Y-107942239D01*
X57166103Y-107967819D01*
X57354317Y-107993400D01*
X57454020Y-108015822D01*
X57553724Y-108038245D01*
X57583006Y-108008963D01*
X57612288Y-107979683D01*
X57612288Y-107764507D01*
X57505503Y-107675884D01*
X57262206Y-107627223D01*
X57122920Y-107673191D01*
X56983636Y-107719160D01*
X56935915Y-107776660D01*
X56888192Y-107834161D01*
X56332364Y-107834161D01*
X56332568Y-107834160D01*
X56384735Y-107771302D01*
X56436901Y-107708443D01*
X56357102Y-107576191D01*
X56182535Y-107486895D01*
X56007968Y-107397597D01*
X55642878Y-107397597D01*
X55551647Y-107482593D01*
X55460414Y-107567589D01*
X55405256Y-107699601D01*
X55350100Y-107831612D01*
X55350100Y-108236254D01*
X54881408Y-108236254D01*
X54911861Y-107968244D01*
X54927387Y-107831612D01*
X54950977Y-107624013D01*
X55040356Y-107493570D01*
X55129737Y-107363128D01*
X55562298Y-107078264D01*
X55766778Y-107018820D01*
X55971260Y-106959376D01*
X56459023Y-106489440D01*
X56632026Y-106388054D01*
X56805028Y-106286667D01*
X57039982Y-106205688D01*
X57274936Y-106124708D01*
X57513062Y-106124108D01*
X57751187Y-106123509D01*
X58251858Y-106201730D01*
G37*
G36*
X58453037Y-99421061D02*
G01*
X58584630Y-99421661D01*
X58628299Y-99450818D01*
X58671967Y-99479977D01*
X58717596Y-99566664D01*
X58763224Y-99653351D01*
X58763224Y-100009142D01*
X58713615Y-100028537D01*
X58664003Y-100047947D01*
X58505254Y-100027174D01*
X58346505Y-100006401D01*
X58257207Y-99950641D01*
X58167911Y-99894880D01*
X58167911Y-99502629D01*
X58244677Y-99461544D01*
X58321444Y-99420460D01*
X58453037Y-99421061D01*
G37*
G36*
X58626106Y-123266195D02*
G01*
X58723537Y-123310587D01*
X58723537Y-123629788D01*
X58644162Y-123709162D01*
X58564788Y-123788540D01*
X58313069Y-123788540D01*
X58240491Y-123722858D01*
X58167913Y-123657176D01*
X58167913Y-123488700D01*
X58283814Y-123323228D01*
X58406245Y-123272515D01*
X58528677Y-123221804D01*
X58626106Y-123266195D01*
G37*
G36*
X56514053Y-99580916D02*
G01*
X56617149Y-99662010D01*
X56671005Y-99949089D01*
X56598279Y-100002267D01*
X56525555Y-100055446D01*
X56354132Y-100055446D01*
X56234618Y-100013782D01*
X56115104Y-99972120D01*
X56071011Y-99875348D01*
X56026917Y-99778574D01*
X56051729Y-99708651D01*
X56076541Y-99638727D01*
X56136190Y-99569274D01*
X56195840Y-99499821D01*
X56410958Y-99499821D01*
X56514053Y-99580916D01*
G37*
G36*
X47336842Y-112482068D02*
G01*
X47371713Y-112537133D01*
X47372313Y-112703553D01*
X47372914Y-112869975D01*
X47284708Y-112931757D01*
X47196517Y-112993537D01*
X46901846Y-112993537D01*
X46795003Y-112952915D01*
X46688158Y-112912293D01*
X46711774Y-112766772D01*
X46735388Y-112621251D01*
X46812721Y-112543917D01*
X46890055Y-112466584D01*
X47096013Y-112446793D01*
X47301972Y-112427004D01*
X47336842Y-112482068D01*
G37*
G36*
X47381797Y-113421344D02*
G01*
X47464391Y-113503939D01*
X47468261Y-113681116D01*
X47472131Y-113858296D01*
X47396527Y-113941854D01*
X47320925Y-114025414D01*
X47033389Y-114025414D01*
X46856977Y-113901850D01*
X46856977Y-113674316D01*
X46955394Y-113557357D01*
X47053808Y-113440399D01*
X47176505Y-113389575D01*
X47299204Y-113338752D01*
X47381797Y-113421344D01*
G37*
G36*
X66587028Y-119017494D02*
G01*
X66708704Y-119020959D01*
X66784089Y-119089182D01*
X66859475Y-119157407D01*
X66859475Y-119416826D01*
X66756728Y-119538935D01*
X66653983Y-119661029D01*
X66498348Y-119661029D01*
X66386175Y-119603024D01*
X66274000Y-119545016D01*
X66255383Y-119447624D01*
X66236766Y-119350233D01*
X66284071Y-119237726D01*
X66331376Y-119125219D01*
X66398363Y-119069624D01*
X66465352Y-119014028D01*
X66587028Y-119017494D01*
G37*
G36*
X53640657Y-122305608D02*
G01*
X53722912Y-122410179D01*
X53722912Y-122603131D01*
X53677283Y-122689820D01*
X53631654Y-122776509D01*
X53587985Y-122805667D01*
X53544317Y-122834822D01*
X53266505Y-122834822D01*
X53219378Y-122804856D01*
X53172252Y-122774891D01*
X53128443Y-122659663D01*
X53084633Y-122544437D01*
X53109258Y-122432317D01*
X53133884Y-122320199D01*
X53218948Y-122260617D01*
X53304012Y-122201036D01*
X53558401Y-122201036D01*
X53640657Y-122305608D01*
G37*
G36*
X60613101Y-99684953D02*
G01*
X60713936Y-99751022D01*
X60807088Y-99888107D01*
X60900239Y-100025192D01*
X60877633Y-100089929D01*
X60855027Y-100154664D01*
X60754200Y-100263805D01*
X60653360Y-100372946D01*
X60462182Y-100372946D01*
X60336994Y-100285563D01*
X60211804Y-100198177D01*
X60182647Y-100156578D01*
X60153488Y-100114978D01*
X60152888Y-100015051D01*
X60152289Y-99915123D01*
X60252937Y-99767004D01*
X60353587Y-99618884D01*
X60512268Y-99618884D01*
X60613101Y-99684953D01*
G37*
G36*
X66970446Y-108316069D02*
G01*
X67606948Y-108330258D01*
X67638031Y-108361355D01*
X67669113Y-108392452D01*
X67601636Y-108645682D01*
X67534159Y-108898913D01*
X67534159Y-109958802D01*
X67574278Y-110593125D01*
X67614394Y-111227446D01*
X67675384Y-111783070D01*
X67736374Y-112338694D01*
X67778278Y-112497081D01*
X67820179Y-112655464D01*
X67901874Y-112770196D01*
X67983569Y-112884925D01*
X67943508Y-112949154D01*
X67903447Y-113013383D01*
X67750640Y-113064538D01*
X67597832Y-113115695D01*
X67119513Y-113150247D01*
X66641191Y-113184777D01*
X65946660Y-113172671D01*
X65252130Y-113160565D01*
X65083604Y-113111944D01*
X64915078Y-113063320D01*
X64742797Y-112911672D01*
X64570515Y-112760025D01*
X64463538Y-112521649D01*
X64356561Y-112283275D01*
X64332464Y-112025229D01*
X64308368Y-111767183D01*
X64357277Y-111518569D01*
X64377642Y-111415058D01*
X64665213Y-111415058D01*
X64688506Y-111826397D01*
X64711802Y-112237737D01*
X64778317Y-112377906D01*
X64844832Y-112518076D01*
X64993015Y-112635440D01*
X65141198Y-112752803D01*
X65351993Y-112858682D01*
X65562791Y-112964551D01*
X65903557Y-112976222D01*
X66244323Y-112987906D01*
X66559759Y-112952214D01*
X66875195Y-112916522D01*
X67084377Y-112873097D01*
X67293559Y-112829671D01*
X67374711Y-112762776D01*
X67455861Y-112695878D01*
X67415100Y-111961660D01*
X67374338Y-111227439D01*
X67295502Y-110131079D01*
X67216666Y-109034717D01*
X67192267Y-108912717D01*
X67167866Y-108790716D01*
X67092626Y-108722624D01*
X67017385Y-108654533D01*
X66611008Y-108636541D01*
X66204631Y-108618548D01*
X65913612Y-108663786D01*
X65622591Y-108709023D01*
X65466931Y-108788435D01*
X65311271Y-108867848D01*
X65166700Y-109085586D01*
X65022129Y-109303325D01*
X65003429Y-109497934D01*
X64984729Y-109692542D01*
X65183360Y-110108358D01*
X65381990Y-110524172D01*
X65107511Y-110796431D01*
X64833031Y-111068691D01*
X64749121Y-111241874D01*
X64665213Y-111415058D01*
X64377642Y-111415058D01*
X64406189Y-111269956D01*
X64586995Y-110900836D01*
X64767802Y-110531718D01*
X64786032Y-110341991D01*
X64804263Y-110152264D01*
X64607562Y-109917747D01*
X64579824Y-109790569D01*
X64552085Y-109663388D01*
X64615843Y-109414516D01*
X64679602Y-109165644D01*
X64779949Y-108994416D01*
X64880295Y-108823189D01*
X65133068Y-108535290D01*
X65292514Y-108464759D01*
X65451960Y-108394228D01*
X65892951Y-108348054D01*
X66333942Y-108301879D01*
X66970446Y-108316069D01*
G37*
G36*
X65912019Y-103027236D02*
G01*
X66016279Y-103109434D01*
X66037165Y-103189294D01*
X66058050Y-103269154D01*
X65975957Y-103373519D01*
X65893864Y-103477881D01*
X65771435Y-103533078D01*
X65649009Y-103588276D01*
X65510231Y-103569001D01*
X65371455Y-103549724D01*
X65321714Y-103481702D01*
X65271976Y-103413678D01*
X65271976Y-103231663D01*
X65381116Y-103109524D01*
X65490256Y-102987385D01*
X65649006Y-102966212D01*
X65807756Y-102945039D01*
X65912019Y-103027236D01*
G37*
G36*
X57571035Y-99419608D02*
G01*
X57643626Y-99458458D01*
X57685036Y-99577246D01*
X57726446Y-99696036D01*
X57689936Y-99823341D01*
X57653426Y-99950646D01*
X57603090Y-99982595D01*
X57552755Y-100014557D01*
X57403927Y-100015157D01*
X57255100Y-100015757D01*
X57175725Y-99936384D01*
X57096350Y-99857008D01*
X57096350Y-99575587D01*
X57193764Y-99478173D01*
X57291180Y-99380759D01*
X57498443Y-99380759D01*
X57571035Y-99419608D01*
G37*
G36*
X50555245Y-119912120D02*
G01*
X50531835Y-120034629D01*
X50508423Y-120157138D01*
X50388636Y-120266278D01*
X50268848Y-120375422D01*
X50069115Y-120375422D01*
X49932895Y-120318506D01*
X49796675Y-120261592D01*
X49769719Y-120154185D01*
X49742761Y-120046778D01*
X49778228Y-119947262D01*
X49813694Y-119847749D01*
X49915655Y-119771854D01*
X50017616Y-119695959D01*
X50191399Y-119693558D01*
X50365183Y-119691157D01*
X50555245Y-119912120D01*
G37*
G36*
X55576435Y-118882176D02*
G01*
X56044630Y-119055710D01*
X56263490Y-119118694D01*
X56482349Y-119181678D01*
X56608192Y-119312268D01*
X56734034Y-119442861D01*
X56875504Y-119678651D01*
X57016975Y-119914443D01*
X57016975Y-120097706D01*
X56944727Y-120097706D01*
X56752647Y-119943268D01*
X56560567Y-119788832D01*
X56302599Y-119566787D01*
X56044629Y-119344742D01*
X55995827Y-119344142D01*
X55947025Y-119343543D01*
X55871262Y-119492371D01*
X55795500Y-119641199D01*
X55634555Y-120202642D01*
X55473610Y-120764084D01*
X55392011Y-121186923D01*
X55310411Y-121609761D01*
X55310411Y-121930798D01*
X55310305Y-122251681D01*
X54893587Y-122206550D01*
X54513181Y-122082254D01*
X54132774Y-121957957D01*
X54007164Y-121881570D01*
X53881554Y-121805181D01*
X53881554Y-121735090D01*
X54041817Y-121713596D01*
X54202079Y-121692099D01*
X54299921Y-121627992D01*
X54397765Y-121563884D01*
X54504741Y-121396217D01*
X54611714Y-121228549D01*
X55349210Y-119402924D01*
X55349660Y-119311602D01*
X55350110Y-119220281D01*
X55212477Y-119162774D01*
X55074846Y-119105268D01*
X54655578Y-119104965D01*
X54504327Y-119062963D01*
X54353078Y-119020964D01*
X54365753Y-118955119D01*
X54378429Y-118889274D01*
X54536842Y-118799557D01*
X54695256Y-118709840D01*
X54901748Y-118709240D01*
X55108239Y-118708641D01*
X55576435Y-118882176D01*
G37*
G36*
X64335250Y-101499469D02*
G01*
X64436248Y-101524818D01*
X64480713Y-101607904D01*
X64525178Y-101690989D01*
X64500351Y-101823324D01*
X64475527Y-101955660D01*
X64354769Y-102057270D01*
X64234013Y-102158879D01*
X64041665Y-102158879D01*
X63962291Y-102079505D01*
X63882915Y-102000130D01*
X63883064Y-101910834D01*
X63883213Y-101821536D01*
X63962349Y-101691743D01*
X64041484Y-101561950D01*
X64137867Y-101518034D01*
X64234251Y-101474120D01*
X64335250Y-101499469D01*
G37*
G36*
X51166928Y-120512889D02*
G01*
X51222601Y-120589026D01*
X51222601Y-120847168D01*
X51134395Y-120908950D01*
X51046188Y-120970730D01*
X50822117Y-120970730D01*
X50627288Y-120775901D01*
X50627288Y-120622335D01*
X50702426Y-120529544D01*
X50777564Y-120436753D01*
X51111255Y-120436753D01*
X51166928Y-120512889D01*
G37*
G36*
X68082414Y-106345766D02*
G01*
X68200190Y-106444868D01*
X68226177Y-106548407D01*
X68252162Y-106651944D01*
X68188505Y-106749097D01*
X68124849Y-106846247D01*
X68037867Y-106881284D01*
X67950887Y-106916312D01*
X67879462Y-106918832D01*
X67808037Y-106921352D01*
X67691520Y-106861100D01*
X67575003Y-106800847D01*
X67550284Y-106702350D01*
X67525563Y-106603854D01*
X67550774Y-106503403D01*
X67575985Y-106402954D01*
X67703903Y-106324957D01*
X67831823Y-106246961D01*
X67898230Y-106246814D01*
X67964638Y-106246665D01*
X68082414Y-106345766D01*
G37*
G36*
X47602209Y-114484070D02*
G01*
X47690414Y-114545852D01*
X47690414Y-114854351D01*
X47602209Y-114916133D01*
X47514004Y-114977917D01*
X47290989Y-114977917D01*
X47153358Y-114920410D01*
X47015727Y-114862904D01*
X47015727Y-114654310D01*
X47131736Y-114538299D01*
X47247746Y-114422288D01*
X47514003Y-114422288D01*
X47602209Y-114484070D01*
G37*
G36*
X47592399Y-107523489D02*
G01*
X47702409Y-107536508D01*
X47780874Y-107642082D01*
X47859338Y-107747657D01*
X47832677Y-107889768D01*
X47806017Y-108031881D01*
X47698607Y-108090183D01*
X47591198Y-108148486D01*
X47430462Y-108150075D01*
X47269728Y-108151665D01*
X47174478Y-108056416D01*
X47174478Y-107831616D01*
X47231394Y-107695398D01*
X47288310Y-107559179D01*
X47385348Y-107534824D01*
X47482388Y-107510469D01*
X47592399Y-107523489D01*
G37*
G36*
X48699610Y-117342154D02*
G01*
X48761976Y-117404520D01*
X48761976Y-117504077D01*
X48583383Y-117671389D01*
X48464320Y-117733313D01*
X48345249Y-117795125D01*
X48258294Y-117795425D01*
X48171339Y-117795725D01*
X48146484Y-117755506D01*
X48121630Y-117715289D01*
X48114519Y-117464997D01*
X48222179Y-117372392D01*
X48329840Y-117279786D01*
X48637244Y-117279786D01*
X48699610Y-117342154D01*
G37*
G36*
X47931592Y-115530484D02*
G01*
X48047601Y-115646495D01*
X48047601Y-115795476D01*
X47999976Y-115843102D01*
X47952351Y-115890723D01*
X47567410Y-115890723D01*
X47455128Y-115832660D01*
X47342845Y-115774597D01*
X47318191Y-115710353D01*
X47293539Y-115646108D01*
X47293539Y-115573225D01*
X47372915Y-115493849D01*
X47452289Y-115414475D01*
X47815582Y-115414475D01*
X47931592Y-115530484D01*
G37*
G36*
X64597287Y-121407292D02*
G01*
X64597287Y-121691211D01*
X64481276Y-121807222D01*
X64365268Y-121923226D01*
X64297450Y-121923226D01*
X64209017Y-121861286D01*
X64120584Y-121799346D01*
X64058049Y-121678419D01*
X63995516Y-121557492D01*
X64041782Y-121373155D01*
X64166394Y-121248542D01*
X64438537Y-121248542D01*
X64597287Y-121407292D01*
G37*
D11*
X84520363Y-135269819D02*
X84615601Y-135222200D01*
X84615601Y-135222200D02*
X84663220Y-135126961D01*
X84663220Y-135126961D02*
X84663220Y-134269819D01*
X83710839Y-134603152D02*
X83710839Y-135269819D01*
X84139410Y-134603152D02*
X84139410Y-135126961D01*
X84139410Y-135126961D02*
X84091791Y-135222200D01*
X84091791Y-135222200D02*
X83996553Y-135269819D01*
X83996553Y-135269819D02*
X83853696Y-135269819D01*
X83853696Y-135269819D02*
X83758458Y-135222200D01*
X83758458Y-135222200D02*
X83710839Y-135174580D01*
X82806077Y-135222200D02*
X82901315Y-135269819D01*
X82901315Y-135269819D02*
X83091791Y-135269819D01*
X83091791Y-135269819D02*
X83187029Y-135222200D01*
X83187029Y-135222200D02*
X83234648Y-135174580D01*
X83234648Y-135174580D02*
X83282267Y-135079342D01*
X83282267Y-135079342D02*
X83282267Y-134793628D01*
X83282267Y-134793628D02*
X83234648Y-134698390D01*
X83234648Y-134698390D02*
X83187029Y-134650771D01*
X83187029Y-134650771D02*
X83091791Y-134603152D01*
X83091791Y-134603152D02*
X82901315Y-134603152D01*
X82901315Y-134603152D02*
X82806077Y-134650771D01*
X82472743Y-134603152D02*
X82234648Y-135269819D01*
X81996553Y-134603152D02*
X82234648Y-135269819D01*
X82234648Y-135269819D02*
X82329886Y-135507914D01*
X82329886Y-135507914D02*
X82377505Y-135555533D01*
X82377505Y-135555533D02*
X82472743Y-135603152D01*
X80853695Y-135269819D02*
X80853695Y-134603152D01*
X80853695Y-134698390D02*
X80806076Y-134650771D01*
X80806076Y-134650771D02*
X80710838Y-134603152D01*
X80710838Y-134603152D02*
X80567981Y-134603152D01*
X80567981Y-134603152D02*
X80472743Y-134650771D01*
X80472743Y-134650771D02*
X80425124Y-134746009D01*
X80425124Y-134746009D02*
X80425124Y-135269819D01*
X80425124Y-134746009D02*
X80377505Y-134650771D01*
X80377505Y-134650771D02*
X80282267Y-134603152D01*
X80282267Y-134603152D02*
X80139410Y-134603152D01*
X80139410Y-134603152D02*
X80044171Y-134650771D01*
X80044171Y-134650771D02*
X79996552Y-134746009D01*
X79996552Y-134746009D02*
X79996552Y-135269819D01*
X79377505Y-135269819D02*
X79472743Y-135222200D01*
X79472743Y-135222200D02*
X79520362Y-135174580D01*
X79520362Y-135174580D02*
X79567981Y-135079342D01*
X79567981Y-135079342D02*
X79567981Y-134793628D01*
X79567981Y-134793628D02*
X79520362Y-134698390D01*
X79520362Y-134698390D02*
X79472743Y-134650771D01*
X79472743Y-134650771D02*
X79377505Y-134603152D01*
X79377505Y-134603152D02*
X79234648Y-134603152D01*
X79234648Y-134603152D02*
X79139410Y-134650771D01*
X79139410Y-134650771D02*
X79091791Y-134698390D01*
X79091791Y-134698390D02*
X79044172Y-134793628D01*
X79044172Y-134793628D02*
X79044172Y-135079342D01*
X79044172Y-135079342D02*
X79091791Y-135174580D01*
X79091791Y-135174580D02*
X79139410Y-135222200D01*
X79139410Y-135222200D02*
X79234648Y-135269819D01*
X79234648Y-135269819D02*
X79377505Y-135269819D01*
X78187029Y-134603152D02*
X78187029Y-135412676D01*
X78187029Y-135412676D02*
X78234648Y-135507914D01*
X78234648Y-135507914D02*
X78282267Y-135555533D01*
X78282267Y-135555533D02*
X78377505Y-135603152D01*
X78377505Y-135603152D02*
X78520362Y-135603152D01*
X78520362Y-135603152D02*
X78615600Y-135555533D01*
X78187029Y-135222200D02*
X78282267Y-135269819D01*
X78282267Y-135269819D02*
X78472743Y-135269819D01*
X78472743Y-135269819D02*
X78567981Y-135222200D01*
X78567981Y-135222200D02*
X78615600Y-135174580D01*
X78615600Y-135174580D02*
X78663219Y-135079342D01*
X78663219Y-135079342D02*
X78663219Y-134793628D01*
X78663219Y-134793628D02*
X78615600Y-134698390D01*
X78615600Y-134698390D02*
X78567981Y-134650771D01*
X78567981Y-134650771D02*
X78472743Y-134603152D01*
X78472743Y-134603152D02*
X78282267Y-134603152D01*
X78282267Y-134603152D02*
X78187029Y-134650771D01*
X77567981Y-135269819D02*
X77663219Y-135222200D01*
X77663219Y-135222200D02*
X77710838Y-135126961D01*
X77710838Y-135126961D02*
X77710838Y-134269819D01*
X77187028Y-135269819D02*
X77187028Y-134603152D01*
X77187028Y-134269819D02*
X77234647Y-134317438D01*
X77234647Y-134317438D02*
X77187028Y-134365057D01*
X77187028Y-134365057D02*
X77139409Y-134317438D01*
X77139409Y-134317438D02*
X77187028Y-134269819D01*
X77187028Y-134269819D02*
X77187028Y-134365057D01*
X76282267Y-135269819D02*
X76282267Y-134746009D01*
X76282267Y-134746009D02*
X76329886Y-134650771D01*
X76329886Y-134650771D02*
X76425124Y-134603152D01*
X76425124Y-134603152D02*
X76615600Y-134603152D01*
X76615600Y-134603152D02*
X76710838Y-134650771D01*
X76282267Y-135222200D02*
X76377505Y-135269819D01*
X76377505Y-135269819D02*
X76615600Y-135269819D01*
X76615600Y-135269819D02*
X76710838Y-135222200D01*
X76710838Y-135222200D02*
X76758457Y-135126961D01*
X76758457Y-135126961D02*
X76758457Y-135031723D01*
X76758457Y-135031723D02*
X76710838Y-134936485D01*
X76710838Y-134936485D02*
X76615600Y-134888866D01*
X76615600Y-134888866D02*
X76377505Y-134888866D01*
X76377505Y-134888866D02*
X76282267Y-134841247D01*
X75758457Y-135222200D02*
X75758457Y-135269819D01*
X75758457Y-135269819D02*
X75806076Y-135365057D01*
X75806076Y-135365057D02*
X75853695Y-135412676D01*
X74044172Y-135269819D02*
X74615600Y-135269819D01*
X74329886Y-135269819D02*
X74329886Y-134269819D01*
X74329886Y-134269819D02*
X74425124Y-134412676D01*
X74425124Y-134412676D02*
X74520362Y-134507914D01*
X74520362Y-134507914D02*
X74615600Y-134555533D01*
X73091791Y-135269819D02*
X73663219Y-135269819D01*
X73377505Y-135269819D02*
X73377505Y-134269819D01*
X73377505Y-134269819D02*
X73472743Y-134412676D01*
X73472743Y-134412676D02*
X73567981Y-134507914D01*
X73567981Y-134507914D02*
X73663219Y-134555533D01*
X71948934Y-134222200D02*
X72806076Y-135507914D01*
X71472743Y-134698390D02*
X71567981Y-134650771D01*
X71567981Y-134650771D02*
X71615600Y-134603152D01*
X71615600Y-134603152D02*
X71663219Y-134507914D01*
X71663219Y-134507914D02*
X71663219Y-134460295D01*
X71663219Y-134460295D02*
X71615600Y-134365057D01*
X71615600Y-134365057D02*
X71567981Y-134317438D01*
X71567981Y-134317438D02*
X71472743Y-134269819D01*
X71472743Y-134269819D02*
X71282267Y-134269819D01*
X71282267Y-134269819D02*
X71187029Y-134317438D01*
X71187029Y-134317438D02*
X71139410Y-134365057D01*
X71139410Y-134365057D02*
X71091791Y-134460295D01*
X71091791Y-134460295D02*
X71091791Y-134507914D01*
X71091791Y-134507914D02*
X71139410Y-134603152D01*
X71139410Y-134603152D02*
X71187029Y-134650771D01*
X71187029Y-134650771D02*
X71282267Y-134698390D01*
X71282267Y-134698390D02*
X71472743Y-134698390D01*
X71472743Y-134698390D02*
X71567981Y-134746009D01*
X71567981Y-134746009D02*
X71615600Y-134793628D01*
X71615600Y-134793628D02*
X71663219Y-134888866D01*
X71663219Y-134888866D02*
X71663219Y-135079342D01*
X71663219Y-135079342D02*
X71615600Y-135174580D01*
X71615600Y-135174580D02*
X71567981Y-135222200D01*
X71567981Y-135222200D02*
X71472743Y-135269819D01*
X71472743Y-135269819D02*
X71282267Y-135269819D01*
X71282267Y-135269819D02*
X71187029Y-135222200D01*
X71187029Y-135222200D02*
X71139410Y-135174580D01*
X71139410Y-135174580D02*
X71091791Y-135079342D01*
X71091791Y-135079342D02*
X71091791Y-134888866D01*
X71091791Y-134888866D02*
X71139410Y-134793628D01*
X71139410Y-134793628D02*
X71187029Y-134746009D01*
X71187029Y-134746009D02*
X71282267Y-134698390D01*
X69948934Y-134222200D02*
X70806076Y-135507914D01*
X69663219Y-134365057D02*
X69615600Y-134317438D01*
X69615600Y-134317438D02*
X69520362Y-134269819D01*
X69520362Y-134269819D02*
X69282267Y-134269819D01*
X69282267Y-134269819D02*
X69187029Y-134317438D01*
X69187029Y-134317438D02*
X69139410Y-134365057D01*
X69139410Y-134365057D02*
X69091791Y-134460295D01*
X69091791Y-134460295D02*
X69091791Y-134555533D01*
X69091791Y-134555533D02*
X69139410Y-134698390D01*
X69139410Y-134698390D02*
X69710838Y-135269819D01*
X69710838Y-135269819D02*
X69091791Y-135269819D01*
X68234648Y-134603152D02*
X68234648Y-135269819D01*
X68472743Y-134222200D02*
X68710838Y-134936485D01*
X68710838Y-134936485D02*
X68091791Y-134936485D01*
X47629887Y-134746009D02*
X47487030Y-134793628D01*
X47487030Y-134793628D02*
X47439411Y-134841247D01*
X47439411Y-134841247D02*
X47391792Y-134936485D01*
X47391792Y-134936485D02*
X47391792Y-135079342D01*
X47391792Y-135079342D02*
X47439411Y-135174580D01*
X47439411Y-135174580D02*
X47487030Y-135222200D01*
X47487030Y-135222200D02*
X47582268Y-135269819D01*
X47582268Y-135269819D02*
X47963220Y-135269819D01*
X47963220Y-135269819D02*
X47963220Y-134269819D01*
X47963220Y-134269819D02*
X47629887Y-134269819D01*
X47629887Y-134269819D02*
X47534649Y-134317438D01*
X47534649Y-134317438D02*
X47487030Y-134365057D01*
X47487030Y-134365057D02*
X47439411Y-134460295D01*
X47439411Y-134460295D02*
X47439411Y-134555533D01*
X47439411Y-134555533D02*
X47487030Y-134650771D01*
X47487030Y-134650771D02*
X47534649Y-134698390D01*
X47534649Y-134698390D02*
X47629887Y-134746009D01*
X47629887Y-134746009D02*
X47963220Y-134746009D01*
X46296554Y-135365057D02*
X46391792Y-135317438D01*
X46391792Y-135317438D02*
X46487030Y-135222200D01*
X46487030Y-135222200D02*
X46629887Y-135079342D01*
X46629887Y-135079342D02*
X46725125Y-135031723D01*
X46725125Y-135031723D02*
X46820363Y-135031723D01*
X46772744Y-135269819D02*
X46867982Y-135222200D01*
X46867982Y-135222200D02*
X46963220Y-135126961D01*
X46963220Y-135126961D02*
X47010839Y-134936485D01*
X47010839Y-134936485D02*
X47010839Y-134603152D01*
X47010839Y-134603152D02*
X46963220Y-134412676D01*
X46963220Y-134412676D02*
X46867982Y-134317438D01*
X46867982Y-134317438D02*
X46772744Y-134269819D01*
X46772744Y-134269819D02*
X46582268Y-134269819D01*
X46582268Y-134269819D02*
X46487030Y-134317438D01*
X46487030Y-134317438D02*
X46391792Y-134412676D01*
X46391792Y-134412676D02*
X46344173Y-134603152D01*
X46344173Y-134603152D02*
X46344173Y-134936485D01*
X46344173Y-134936485D02*
X46391792Y-135126961D01*
X46391792Y-135126961D02*
X46487030Y-135222200D01*
X46487030Y-135222200D02*
X46582268Y-135269819D01*
X46582268Y-135269819D02*
X46772744Y-135269819D01*
X45963220Y-134365057D02*
X45915601Y-134317438D01*
X45915601Y-134317438D02*
X45820363Y-134269819D01*
X45820363Y-134269819D02*
X45582268Y-134269819D01*
X45582268Y-134269819D02*
X45487030Y-134317438D01*
X45487030Y-134317438D02*
X45439411Y-134365057D01*
X45439411Y-134365057D02*
X45391792Y-134460295D01*
X45391792Y-134460295D02*
X45391792Y-134555533D01*
X45391792Y-134555533D02*
X45439411Y-134698390D01*
X45439411Y-134698390D02*
X46010839Y-135269819D01*
X46010839Y-135269819D02*
X45391792Y-135269819D01*
X44534649Y-134603152D02*
X44534649Y-135269819D01*
X44772744Y-134222200D02*
X45010839Y-134936485D01*
X45010839Y-134936485D02*
X44391792Y-134936485D01*
X44058458Y-134365057D02*
X44010839Y-134317438D01*
X44010839Y-134317438D02*
X43915601Y-134269819D01*
X43915601Y-134269819D02*
X43677506Y-134269819D01*
X43677506Y-134269819D02*
X43582268Y-134317438D01*
X43582268Y-134317438D02*
X43534649Y-134365057D01*
X43534649Y-134365057D02*
X43487030Y-134460295D01*
X43487030Y-134460295D02*
X43487030Y-134555533D01*
X43487030Y-134555533D02*
X43534649Y-134698390D01*
X43534649Y-134698390D02*
X44106077Y-135269819D01*
X44106077Y-135269819D02*
X43487030Y-135269819D01*
X42582268Y-134269819D02*
X43058458Y-134269819D01*
X43058458Y-134269819D02*
X43106077Y-134746009D01*
X43106077Y-134746009D02*
X43058458Y-134698390D01*
X43058458Y-134698390D02*
X42963220Y-134650771D01*
X42963220Y-134650771D02*
X42725125Y-134650771D01*
X42725125Y-134650771D02*
X42629887Y-134698390D01*
X42629887Y-134698390D02*
X42582268Y-134746009D01*
X42582268Y-134746009D02*
X42534649Y-134841247D01*
X42534649Y-134841247D02*
X42534649Y-135079342D01*
X42534649Y-135079342D02*
X42582268Y-135174580D01*
X42582268Y-135174580D02*
X42629887Y-135222200D01*
X42629887Y-135222200D02*
X42725125Y-135269819D01*
X42725125Y-135269819D02*
X42963220Y-135269819D01*
X42963220Y-135269819D02*
X43058458Y-135222200D01*
X43058458Y-135222200D02*
X43106077Y-135174580D01*
X42201315Y-134269819D02*
X41534649Y-134269819D01*
X41534649Y-134269819D02*
X41963220Y-135269819D01*
X40391791Y-135269819D02*
X40391791Y-134269819D01*
X40391791Y-134269819D02*
X40058458Y-134984104D01*
X40058458Y-134984104D02*
X39725125Y-134269819D01*
X39725125Y-134269819D02*
X39725125Y-135269819D01*
X39248934Y-135269819D02*
X39248934Y-134269819D01*
X39248934Y-134269819D02*
X38867982Y-134269819D01*
X38867982Y-134269819D02*
X38772744Y-134317438D01*
X38772744Y-134317438D02*
X38725125Y-134365057D01*
X38725125Y-134365057D02*
X38677506Y-134460295D01*
X38677506Y-134460295D02*
X38677506Y-134603152D01*
X38677506Y-134603152D02*
X38725125Y-134698390D01*
X38725125Y-134698390D02*
X38772744Y-134746009D01*
X38772744Y-134746009D02*
X38867982Y-134793628D01*
X38867982Y-134793628D02*
X39248934Y-134793628D01*
X38248934Y-135269819D02*
X38248934Y-134269819D01*
X38248934Y-134269819D02*
X37867982Y-134269819D01*
X37867982Y-134269819D02*
X37772744Y-134317438D01*
X37772744Y-134317438D02*
X37725125Y-134365057D01*
X37725125Y-134365057D02*
X37677506Y-134460295D01*
X37677506Y-134460295D02*
X37677506Y-134603152D01*
X37677506Y-134603152D02*
X37725125Y-134698390D01*
X37725125Y-134698390D02*
X37772744Y-134746009D01*
X37772744Y-134746009D02*
X37867982Y-134793628D01*
X37867982Y-134793628D02*
X38248934Y-134793628D01*
X37391791Y-134269819D02*
X36820363Y-134269819D01*
X37106077Y-135269819D02*
X37106077Y-134269819D01*
X35867981Y-134269819D02*
X35296553Y-134269819D01*
X35582267Y-135269819D02*
X35582267Y-134269819D01*
X34963219Y-134746009D02*
X34629886Y-134746009D01*
X34487029Y-135269819D02*
X34963219Y-135269819D01*
X34963219Y-135269819D02*
X34963219Y-134269819D01*
X34963219Y-134269819D02*
X34487029Y-134269819D01*
X34106076Y-135222200D02*
X33963219Y-135269819D01*
X33963219Y-135269819D02*
X33725124Y-135269819D01*
X33725124Y-135269819D02*
X33629886Y-135222200D01*
X33629886Y-135222200D02*
X33582267Y-135174580D01*
X33582267Y-135174580D02*
X33534648Y-135079342D01*
X33534648Y-135079342D02*
X33534648Y-134984104D01*
X33534648Y-134984104D02*
X33582267Y-134888866D01*
X33582267Y-134888866D02*
X33629886Y-134841247D01*
X33629886Y-134841247D02*
X33725124Y-134793628D01*
X33725124Y-134793628D02*
X33915600Y-134746009D01*
X33915600Y-134746009D02*
X34010838Y-134698390D01*
X34010838Y-134698390D02*
X34058457Y-134650771D01*
X34058457Y-134650771D02*
X34106076Y-134555533D01*
X34106076Y-134555533D02*
X34106076Y-134460295D01*
X34106076Y-134460295D02*
X34058457Y-134365057D01*
X34058457Y-134365057D02*
X34010838Y-134317438D01*
X34010838Y-134317438D02*
X33915600Y-134269819D01*
X33915600Y-134269819D02*
X33677505Y-134269819D01*
X33677505Y-134269819D02*
X33534648Y-134317438D01*
X33248933Y-134269819D02*
X32677505Y-134269819D01*
X32963219Y-135269819D02*
X32963219Y-134269819D01*
X31582266Y-135269819D02*
X31582266Y-134269819D01*
X31010838Y-135269819D02*
X31439409Y-134698390D01*
X31010838Y-134269819D02*
X31582266Y-134841247D01*
X30582266Y-135269819D02*
X30582266Y-134269819D01*
X30248933Y-134269819D02*
X29677505Y-134269819D01*
X29963219Y-135269819D02*
X29963219Y-134269819D01*
M02*
