%TF.GenerationSoftware,KiCad,Pcbnew,8.0.6*%
%TF.CreationDate,2024-11-11T10:33:33-08:00*%
%TF.ProjectId,BQ24257,42513234-3235-4372-9e6b-696361645f70,rev?*%
%TF.SameCoordinates,Original*%
%TF.FileFunction,Legend,Top*%
%TF.FilePolarity,Positive*%
%FSLAX46Y46*%
G04 Gerber Fmt 4.6, Leading zero omitted, Abs format (unit mm)*
G04 Created by KiCad (PCBNEW 8.0.6) date 2024-11-11 10:33:33*
%MOMM*%
%LPD*%
G01*
G04 APERTURE LIST*
%ADD10C,0.150000*%
%ADD11C,0.101600*%
%ADD12C,0.162500*%
%ADD13C,0.254000*%
%ADD14C,0.100000*%
%ADD15C,0.120000*%
%ADD16C,0.152400*%
%ADD17C,0.000000*%
%ADD18C,0.200000*%
%ADD19C,0.250000*%
%ADD20C,0.127000*%
%ADD21C,0.300000*%
G04 APERTURE END LIST*
D10*
X57208999Y-116388164D02*
X56958999Y-116031021D01*
X56780428Y-116388164D02*
X56780428Y-115638164D01*
X56780428Y-115638164D02*
X57066142Y-115638164D01*
X57066142Y-115638164D02*
X57137571Y-115673878D01*
X57137571Y-115673878D02*
X57173285Y-115709592D01*
X57173285Y-115709592D02*
X57208999Y-115781021D01*
X57208999Y-115781021D02*
X57208999Y-115888164D01*
X57208999Y-115888164D02*
X57173285Y-115959592D01*
X57173285Y-115959592D02*
X57137571Y-115995307D01*
X57137571Y-115995307D02*
X57066142Y-116031021D01*
X57066142Y-116031021D02*
X56780428Y-116031021D01*
X57887571Y-115638164D02*
X57530428Y-115638164D01*
X57530428Y-115638164D02*
X57494714Y-115995307D01*
X57494714Y-115995307D02*
X57530428Y-115959592D01*
X57530428Y-115959592D02*
X57601857Y-115923878D01*
X57601857Y-115923878D02*
X57780428Y-115923878D01*
X57780428Y-115923878D02*
X57851857Y-115959592D01*
X57851857Y-115959592D02*
X57887571Y-115995307D01*
X57887571Y-115995307D02*
X57923285Y-116066735D01*
X57923285Y-116066735D02*
X57923285Y-116245307D01*
X57923285Y-116245307D02*
X57887571Y-116316735D01*
X57887571Y-116316735D02*
X57851857Y-116352450D01*
X57851857Y-116352450D02*
X57780428Y-116388164D01*
X57780428Y-116388164D02*
X57601857Y-116388164D01*
X57601857Y-116388164D02*
X57530428Y-116352450D01*
X57530428Y-116352450D02*
X57494714Y-116316735D01*
X63515476Y-123430997D02*
X63484524Y-123461950D01*
X63484524Y-123461950D02*
X63391666Y-123492902D01*
X63391666Y-123492902D02*
X63329762Y-123492902D01*
X63329762Y-123492902D02*
X63236905Y-123461950D01*
X63236905Y-123461950D02*
X63175000Y-123400045D01*
X63175000Y-123400045D02*
X63144047Y-123338140D01*
X63144047Y-123338140D02*
X63113095Y-123214330D01*
X63113095Y-123214330D02*
X63113095Y-123121473D01*
X63113095Y-123121473D02*
X63144047Y-122997664D01*
X63144047Y-122997664D02*
X63175000Y-122935759D01*
X63175000Y-122935759D02*
X63236905Y-122873854D01*
X63236905Y-122873854D02*
X63329762Y-122842902D01*
X63329762Y-122842902D02*
X63391666Y-122842902D01*
X63391666Y-122842902D02*
X63484524Y-122873854D01*
X63484524Y-122873854D02*
X63515476Y-122904807D01*
X63639286Y-123554807D02*
X64134524Y-123554807D01*
X64196428Y-122842902D02*
X64413095Y-123492902D01*
X64413095Y-123492902D02*
X64629762Y-122842902D01*
X64846428Y-123492902D02*
X64846428Y-122842902D01*
X64846428Y-123152426D02*
X65217857Y-123152426D01*
X65217857Y-123492902D02*
X65217857Y-122842902D01*
X65496428Y-123461950D02*
X65589285Y-123492902D01*
X65589285Y-123492902D02*
X65744047Y-123492902D01*
X65744047Y-123492902D02*
X65805952Y-123461950D01*
X65805952Y-123461950D02*
X65836904Y-123430997D01*
X65836904Y-123430997D02*
X65867857Y-123369092D01*
X65867857Y-123369092D02*
X65867857Y-123307188D01*
X65867857Y-123307188D02*
X65836904Y-123245283D01*
X65836904Y-123245283D02*
X65805952Y-123214330D01*
X65805952Y-123214330D02*
X65744047Y-123183378D01*
X65744047Y-123183378D02*
X65620238Y-123152426D01*
X65620238Y-123152426D02*
X65558333Y-123121473D01*
X65558333Y-123121473D02*
X65527380Y-123090521D01*
X65527380Y-123090521D02*
X65496428Y-123028616D01*
X65496428Y-123028616D02*
X65496428Y-122966711D01*
X65496428Y-122966711D02*
X65527380Y-122904807D01*
X65527380Y-122904807D02*
X65558333Y-122873854D01*
X65558333Y-122873854D02*
X65620238Y-122842902D01*
X65620238Y-122842902D02*
X65774999Y-122842902D01*
X65774999Y-122842902D02*
X65867857Y-122873854D01*
X66486905Y-123492902D02*
X66115476Y-123492902D01*
X66301190Y-123492902D02*
X66301190Y-122842902D01*
X66301190Y-122842902D02*
X66239286Y-122935759D01*
X66239286Y-122935759D02*
X66177381Y-122997664D01*
X66177381Y-122997664D02*
X66115476Y-123028616D01*
X71427856Y-121739164D02*
X71177856Y-121382021D01*
X70999285Y-121739164D02*
X70999285Y-120989164D01*
X70999285Y-120989164D02*
X71284999Y-120989164D01*
X71284999Y-120989164D02*
X71356428Y-121024878D01*
X71356428Y-121024878D02*
X71392142Y-121060592D01*
X71392142Y-121060592D02*
X71427856Y-121132021D01*
X71427856Y-121132021D02*
X71427856Y-121239164D01*
X71427856Y-121239164D02*
X71392142Y-121310592D01*
X71392142Y-121310592D02*
X71356428Y-121346307D01*
X71356428Y-121346307D02*
X71284999Y-121382021D01*
X71284999Y-121382021D02*
X70999285Y-121382021D01*
X72142142Y-121739164D02*
X71713571Y-121739164D01*
X71927856Y-121739164D02*
X71927856Y-120989164D01*
X71927856Y-120989164D02*
X71856428Y-121096307D01*
X71856428Y-121096307D02*
X71784999Y-121167735D01*
X71784999Y-121167735D02*
X71713571Y-121203450D01*
X72570714Y-121310592D02*
X72499285Y-121274878D01*
X72499285Y-121274878D02*
X72463571Y-121239164D01*
X72463571Y-121239164D02*
X72427857Y-121167735D01*
X72427857Y-121167735D02*
X72427857Y-121132021D01*
X72427857Y-121132021D02*
X72463571Y-121060592D01*
X72463571Y-121060592D02*
X72499285Y-121024878D01*
X72499285Y-121024878D02*
X72570714Y-120989164D01*
X72570714Y-120989164D02*
X72713571Y-120989164D01*
X72713571Y-120989164D02*
X72785000Y-121024878D01*
X72785000Y-121024878D02*
X72820714Y-121060592D01*
X72820714Y-121060592D02*
X72856428Y-121132021D01*
X72856428Y-121132021D02*
X72856428Y-121167735D01*
X72856428Y-121167735D02*
X72820714Y-121239164D01*
X72820714Y-121239164D02*
X72785000Y-121274878D01*
X72785000Y-121274878D02*
X72713571Y-121310592D01*
X72713571Y-121310592D02*
X72570714Y-121310592D01*
X72570714Y-121310592D02*
X72499285Y-121346307D01*
X72499285Y-121346307D02*
X72463571Y-121382021D01*
X72463571Y-121382021D02*
X72427857Y-121453450D01*
X72427857Y-121453450D02*
X72427857Y-121596307D01*
X72427857Y-121596307D02*
X72463571Y-121667735D01*
X72463571Y-121667735D02*
X72499285Y-121703450D01*
X72499285Y-121703450D02*
X72570714Y-121739164D01*
X72570714Y-121739164D02*
X72713571Y-121739164D01*
X72713571Y-121739164D02*
X72785000Y-121703450D01*
X72785000Y-121703450D02*
X72820714Y-121667735D01*
X72820714Y-121667735D02*
X72856428Y-121596307D01*
X72856428Y-121596307D02*
X72856428Y-121453450D01*
X72856428Y-121453450D02*
X72820714Y-121382021D01*
X72820714Y-121382021D02*
X72785000Y-121346307D01*
X72785000Y-121346307D02*
X72713571Y-121310592D01*
X56280476Y-97765997D02*
X56249524Y-97796950D01*
X56249524Y-97796950D02*
X56156666Y-97827902D01*
X56156666Y-97827902D02*
X56094762Y-97827902D01*
X56094762Y-97827902D02*
X56001905Y-97796950D01*
X56001905Y-97796950D02*
X55940000Y-97735045D01*
X55940000Y-97735045D02*
X55909047Y-97673140D01*
X55909047Y-97673140D02*
X55878095Y-97549330D01*
X55878095Y-97549330D02*
X55878095Y-97456473D01*
X55878095Y-97456473D02*
X55909047Y-97332664D01*
X55909047Y-97332664D02*
X55940000Y-97270759D01*
X55940000Y-97270759D02*
X56001905Y-97208854D01*
X56001905Y-97208854D02*
X56094762Y-97177902D01*
X56094762Y-97177902D02*
X56156666Y-97177902D01*
X56156666Y-97177902D02*
X56249524Y-97208854D01*
X56249524Y-97208854D02*
X56280476Y-97239807D01*
X56404286Y-97889807D02*
X56899524Y-97889807D01*
X56961428Y-97177902D02*
X57178095Y-97827902D01*
X57178095Y-97827902D02*
X57394762Y-97177902D01*
X57982857Y-97765997D02*
X57951905Y-97796950D01*
X57951905Y-97796950D02*
X57859047Y-97827902D01*
X57859047Y-97827902D02*
X57797143Y-97827902D01*
X57797143Y-97827902D02*
X57704286Y-97796950D01*
X57704286Y-97796950D02*
X57642381Y-97735045D01*
X57642381Y-97735045D02*
X57611428Y-97673140D01*
X57611428Y-97673140D02*
X57580476Y-97549330D01*
X57580476Y-97549330D02*
X57580476Y-97456473D01*
X57580476Y-97456473D02*
X57611428Y-97332664D01*
X57611428Y-97332664D02*
X57642381Y-97270759D01*
X57642381Y-97270759D02*
X57704286Y-97208854D01*
X57704286Y-97208854D02*
X57797143Y-97177902D01*
X57797143Y-97177902D02*
X57859047Y-97177902D01*
X57859047Y-97177902D02*
X57951905Y-97208854D01*
X57951905Y-97208854D02*
X57982857Y-97239807D01*
X58230476Y-97239807D02*
X58261428Y-97208854D01*
X58261428Y-97208854D02*
X58323333Y-97177902D01*
X58323333Y-97177902D02*
X58478095Y-97177902D01*
X58478095Y-97177902D02*
X58540000Y-97208854D01*
X58540000Y-97208854D02*
X58570952Y-97239807D01*
X58570952Y-97239807D02*
X58601905Y-97301711D01*
X58601905Y-97301711D02*
X58601905Y-97363616D01*
X58601905Y-97363616D02*
X58570952Y-97456473D01*
X58570952Y-97456473D02*
X58199524Y-97827902D01*
X58199524Y-97827902D02*
X58601905Y-97827902D01*
X29612857Y-121574819D02*
X29612857Y-122384342D01*
X29612857Y-122384342D02*
X29660476Y-122479580D01*
X29660476Y-122479580D02*
X29708095Y-122527200D01*
X29708095Y-122527200D02*
X29803333Y-122574819D01*
X29803333Y-122574819D02*
X29993809Y-122574819D01*
X29993809Y-122574819D02*
X30089047Y-122527200D01*
X30089047Y-122527200D02*
X30136666Y-122479580D01*
X30136666Y-122479580D02*
X30184285Y-122384342D01*
X30184285Y-122384342D02*
X30184285Y-121574819D01*
X30612857Y-122527200D02*
X30755714Y-122574819D01*
X30755714Y-122574819D02*
X30993809Y-122574819D01*
X30993809Y-122574819D02*
X31089047Y-122527200D01*
X31089047Y-122527200D02*
X31136666Y-122479580D01*
X31136666Y-122479580D02*
X31184285Y-122384342D01*
X31184285Y-122384342D02*
X31184285Y-122289104D01*
X31184285Y-122289104D02*
X31136666Y-122193866D01*
X31136666Y-122193866D02*
X31089047Y-122146247D01*
X31089047Y-122146247D02*
X30993809Y-122098628D01*
X30993809Y-122098628D02*
X30803333Y-122051009D01*
X30803333Y-122051009D02*
X30708095Y-122003390D01*
X30708095Y-122003390D02*
X30660476Y-121955771D01*
X30660476Y-121955771D02*
X30612857Y-121860533D01*
X30612857Y-121860533D02*
X30612857Y-121765295D01*
X30612857Y-121765295D02*
X30660476Y-121670057D01*
X30660476Y-121670057D02*
X30708095Y-121622438D01*
X30708095Y-121622438D02*
X30803333Y-121574819D01*
X30803333Y-121574819D02*
X31041428Y-121574819D01*
X31041428Y-121574819D02*
X31184285Y-121622438D01*
X31946190Y-122051009D02*
X32089047Y-122098628D01*
X32089047Y-122098628D02*
X32136666Y-122146247D01*
X32136666Y-122146247D02*
X32184285Y-122241485D01*
X32184285Y-122241485D02*
X32184285Y-122384342D01*
X32184285Y-122384342D02*
X32136666Y-122479580D01*
X32136666Y-122479580D02*
X32089047Y-122527200D01*
X32089047Y-122527200D02*
X31993809Y-122574819D01*
X31993809Y-122574819D02*
X31612857Y-122574819D01*
X31612857Y-122574819D02*
X31612857Y-121574819D01*
X31612857Y-121574819D02*
X31946190Y-121574819D01*
X31946190Y-121574819D02*
X32041428Y-121622438D01*
X32041428Y-121622438D02*
X32089047Y-121670057D01*
X32089047Y-121670057D02*
X32136666Y-121765295D01*
X32136666Y-121765295D02*
X32136666Y-121860533D01*
X32136666Y-121860533D02*
X32089047Y-121955771D01*
X32089047Y-121955771D02*
X32041428Y-122003390D01*
X32041428Y-122003390D02*
X31946190Y-122051009D01*
X31946190Y-122051009D02*
X31612857Y-122051009D01*
X32612857Y-122193866D02*
X33374762Y-122193866D01*
X34422380Y-122479580D02*
X34374761Y-122527200D01*
X34374761Y-122527200D02*
X34231904Y-122574819D01*
X34231904Y-122574819D02*
X34136666Y-122574819D01*
X34136666Y-122574819D02*
X33993809Y-122527200D01*
X33993809Y-122527200D02*
X33898571Y-122431961D01*
X33898571Y-122431961D02*
X33850952Y-122336723D01*
X33850952Y-122336723D02*
X33803333Y-122146247D01*
X33803333Y-122146247D02*
X33803333Y-122003390D01*
X33803333Y-122003390D02*
X33850952Y-121812914D01*
X33850952Y-121812914D02*
X33898571Y-121717676D01*
X33898571Y-121717676D02*
X33993809Y-121622438D01*
X33993809Y-121622438D02*
X34136666Y-121574819D01*
X34136666Y-121574819D02*
X34231904Y-121574819D01*
X34231904Y-121574819D02*
X34374761Y-121622438D01*
X34374761Y-121622438D02*
X34422380Y-121670057D01*
X35374761Y-122574819D02*
X34803333Y-122574819D01*
X35089047Y-122574819D02*
X35089047Y-121574819D01*
X35089047Y-121574819D02*
X34993809Y-121717676D01*
X34993809Y-121717676D02*
X34898571Y-121812914D01*
X34898571Y-121812914D02*
X34803333Y-121860533D01*
D11*
X35350729Y-101478668D02*
X35350729Y-100272168D01*
X35350729Y-100272168D02*
X36040158Y-101478668D01*
X36040158Y-101478668D02*
X36040158Y-100272168D01*
X36442324Y-100272168D02*
X37131753Y-100272168D01*
X36787039Y-101478668D02*
X36787039Y-100272168D01*
X38223348Y-101363763D02*
X38165896Y-101421216D01*
X38165896Y-101421216D02*
X37993538Y-101478668D01*
X37993538Y-101478668D02*
X37878634Y-101478668D01*
X37878634Y-101478668D02*
X37706277Y-101421216D01*
X37706277Y-101421216D02*
X37591372Y-101306311D01*
X37591372Y-101306311D02*
X37533919Y-101191406D01*
X37533919Y-101191406D02*
X37476467Y-100961596D01*
X37476467Y-100961596D02*
X37476467Y-100789239D01*
X37476467Y-100789239D02*
X37533919Y-100559430D01*
X37533919Y-100559430D02*
X37591372Y-100444525D01*
X37591372Y-100444525D02*
X37706277Y-100329620D01*
X37706277Y-100329620D02*
X37878634Y-100272168D01*
X37878634Y-100272168D02*
X37993538Y-100272168D01*
X37993538Y-100272168D02*
X38165896Y-100329620D01*
X38165896Y-100329620D02*
X38223348Y-100387073D01*
D10*
X29806191Y-104744819D02*
X29806191Y-105554342D01*
X29806191Y-105554342D02*
X29853810Y-105649580D01*
X29853810Y-105649580D02*
X29901429Y-105697200D01*
X29901429Y-105697200D02*
X29996667Y-105744819D01*
X29996667Y-105744819D02*
X30187143Y-105744819D01*
X30187143Y-105744819D02*
X30282381Y-105697200D01*
X30282381Y-105697200D02*
X30330000Y-105649580D01*
X30330000Y-105649580D02*
X30377619Y-105554342D01*
X30377619Y-105554342D02*
X30377619Y-104744819D01*
X30853810Y-105744819D02*
X30853810Y-104744819D01*
X30853810Y-104744819D02*
X31234762Y-104744819D01*
X31234762Y-104744819D02*
X31330000Y-104792438D01*
X31330000Y-104792438D02*
X31377619Y-104840057D01*
X31377619Y-104840057D02*
X31425238Y-104935295D01*
X31425238Y-104935295D02*
X31425238Y-105078152D01*
X31425238Y-105078152D02*
X31377619Y-105173390D01*
X31377619Y-105173390D02*
X31330000Y-105221009D01*
X31330000Y-105221009D02*
X31234762Y-105268628D01*
X31234762Y-105268628D02*
X30853810Y-105268628D01*
X31853810Y-105744819D02*
X31853810Y-104744819D01*
X31853810Y-104744819D02*
X32091905Y-104744819D01*
X32091905Y-104744819D02*
X32234762Y-104792438D01*
X32234762Y-104792438D02*
X32330000Y-104887676D01*
X32330000Y-104887676D02*
X32377619Y-104982914D01*
X32377619Y-104982914D02*
X32425238Y-105173390D01*
X32425238Y-105173390D02*
X32425238Y-105316247D01*
X32425238Y-105316247D02*
X32377619Y-105506723D01*
X32377619Y-105506723D02*
X32330000Y-105601961D01*
X32330000Y-105601961D02*
X32234762Y-105697200D01*
X32234762Y-105697200D02*
X32091905Y-105744819D01*
X32091905Y-105744819D02*
X31853810Y-105744819D01*
X32853810Y-105744819D02*
X32853810Y-104744819D01*
X51366666Y-103869997D02*
X51335714Y-103900950D01*
X51335714Y-103900950D02*
X51242856Y-103931902D01*
X51242856Y-103931902D02*
X51180952Y-103931902D01*
X51180952Y-103931902D02*
X51088095Y-103900950D01*
X51088095Y-103900950D02*
X51026190Y-103839045D01*
X51026190Y-103839045D02*
X50995237Y-103777140D01*
X50995237Y-103777140D02*
X50964285Y-103653330D01*
X50964285Y-103653330D02*
X50964285Y-103560473D01*
X50964285Y-103560473D02*
X50995237Y-103436664D01*
X50995237Y-103436664D02*
X51026190Y-103374759D01*
X51026190Y-103374759D02*
X51088095Y-103312854D01*
X51088095Y-103312854D02*
X51180952Y-103281902D01*
X51180952Y-103281902D02*
X51242856Y-103281902D01*
X51242856Y-103281902D02*
X51335714Y-103312854D01*
X51335714Y-103312854D02*
X51366666Y-103343807D01*
X51614285Y-103343807D02*
X51645237Y-103312854D01*
X51645237Y-103312854D02*
X51707142Y-103281902D01*
X51707142Y-103281902D02*
X51861904Y-103281902D01*
X51861904Y-103281902D02*
X51923809Y-103312854D01*
X51923809Y-103312854D02*
X51954761Y-103343807D01*
X51954761Y-103343807D02*
X51985714Y-103405711D01*
X51985714Y-103405711D02*
X51985714Y-103467616D01*
X51985714Y-103467616D02*
X51954761Y-103560473D01*
X51954761Y-103560473D02*
X51583333Y-103931902D01*
X51583333Y-103931902D02*
X51985714Y-103931902D01*
X41311905Y-103997319D02*
X41311905Y-102997319D01*
X41311905Y-102997319D02*
X41550000Y-102997319D01*
X41550000Y-102997319D02*
X41692857Y-103044938D01*
X41692857Y-103044938D02*
X41788095Y-103140176D01*
X41788095Y-103140176D02*
X41835714Y-103235414D01*
X41835714Y-103235414D02*
X41883333Y-103425890D01*
X41883333Y-103425890D02*
X41883333Y-103568747D01*
X41883333Y-103568747D02*
X41835714Y-103759223D01*
X41835714Y-103759223D02*
X41788095Y-103854461D01*
X41788095Y-103854461D02*
X41692857Y-103949700D01*
X41692857Y-103949700D02*
X41550000Y-103997319D01*
X41550000Y-103997319D02*
X41311905Y-103997319D01*
X42264286Y-103092557D02*
X42311905Y-103044938D01*
X42311905Y-103044938D02*
X42407143Y-102997319D01*
X42407143Y-102997319D02*
X42645238Y-102997319D01*
X42645238Y-102997319D02*
X42740476Y-103044938D01*
X42740476Y-103044938D02*
X42788095Y-103092557D01*
X42788095Y-103092557D02*
X42835714Y-103187795D01*
X42835714Y-103187795D02*
X42835714Y-103283033D01*
X42835714Y-103283033D02*
X42788095Y-103425890D01*
X42788095Y-103425890D02*
X42216667Y-103997319D01*
X42216667Y-103997319D02*
X42835714Y-103997319D01*
X71412856Y-119189164D02*
X71162856Y-118832021D01*
X70984285Y-119189164D02*
X70984285Y-118439164D01*
X70984285Y-118439164D02*
X71269999Y-118439164D01*
X71269999Y-118439164D02*
X71341428Y-118474878D01*
X71341428Y-118474878D02*
X71377142Y-118510592D01*
X71377142Y-118510592D02*
X71412856Y-118582021D01*
X71412856Y-118582021D02*
X71412856Y-118689164D01*
X71412856Y-118689164D02*
X71377142Y-118760592D01*
X71377142Y-118760592D02*
X71341428Y-118796307D01*
X71341428Y-118796307D02*
X71269999Y-118832021D01*
X71269999Y-118832021D02*
X70984285Y-118832021D01*
X72127142Y-119189164D02*
X71698571Y-119189164D01*
X71912856Y-119189164D02*
X71912856Y-118439164D01*
X71912856Y-118439164D02*
X71841428Y-118546307D01*
X71841428Y-118546307D02*
X71769999Y-118617735D01*
X71769999Y-118617735D02*
X71698571Y-118653450D01*
X72377142Y-118439164D02*
X72877142Y-118439164D01*
X72877142Y-118439164D02*
X72555714Y-119189164D01*
X33974999Y-104109164D02*
X33724999Y-103752021D01*
X33546428Y-104109164D02*
X33546428Y-103359164D01*
X33546428Y-103359164D02*
X33832142Y-103359164D01*
X33832142Y-103359164D02*
X33903571Y-103394878D01*
X33903571Y-103394878D02*
X33939285Y-103430592D01*
X33939285Y-103430592D02*
X33974999Y-103502021D01*
X33974999Y-103502021D02*
X33974999Y-103609164D01*
X33974999Y-103609164D02*
X33939285Y-103680592D01*
X33939285Y-103680592D02*
X33903571Y-103716307D01*
X33903571Y-103716307D02*
X33832142Y-103752021D01*
X33832142Y-103752021D02*
X33546428Y-103752021D01*
X34617857Y-103359164D02*
X34474999Y-103359164D01*
X34474999Y-103359164D02*
X34403571Y-103394878D01*
X34403571Y-103394878D02*
X34367857Y-103430592D01*
X34367857Y-103430592D02*
X34296428Y-103537735D01*
X34296428Y-103537735D02*
X34260714Y-103680592D01*
X34260714Y-103680592D02*
X34260714Y-103966307D01*
X34260714Y-103966307D02*
X34296428Y-104037735D01*
X34296428Y-104037735D02*
X34332142Y-104073450D01*
X34332142Y-104073450D02*
X34403571Y-104109164D01*
X34403571Y-104109164D02*
X34546428Y-104109164D01*
X34546428Y-104109164D02*
X34617857Y-104073450D01*
X34617857Y-104073450D02*
X34653571Y-104037735D01*
X34653571Y-104037735D02*
X34689285Y-103966307D01*
X34689285Y-103966307D02*
X34689285Y-103787735D01*
X34689285Y-103787735D02*
X34653571Y-103716307D01*
X34653571Y-103716307D02*
X34617857Y-103680592D01*
X34617857Y-103680592D02*
X34546428Y-103644878D01*
X34546428Y-103644878D02*
X34403571Y-103644878D01*
X34403571Y-103644878D02*
X34332142Y-103680592D01*
X34332142Y-103680592D02*
X34296428Y-103716307D01*
X34296428Y-103716307D02*
X34260714Y-103787735D01*
X57865904Y-112211580D02*
X57865904Y-111402057D01*
X57865904Y-111402057D02*
X57818285Y-111306819D01*
X57818285Y-111306819D02*
X57770666Y-111259200D01*
X57770666Y-111259200D02*
X57675428Y-111211580D01*
X57675428Y-111211580D02*
X57484952Y-111211580D01*
X57484952Y-111211580D02*
X57389714Y-111259200D01*
X57389714Y-111259200D02*
X57342095Y-111306819D01*
X57342095Y-111306819D02*
X57294476Y-111402057D01*
X57294476Y-111402057D02*
X57294476Y-112211580D01*
X56294476Y-111211580D02*
X56865904Y-111211580D01*
X56580190Y-111211580D02*
X56580190Y-112211580D01*
X56580190Y-112211580D02*
X56675428Y-112068723D01*
X56675428Y-112068723D02*
X56770666Y-111973485D01*
X56770666Y-111973485D02*
X56865904Y-111925866D01*
X60138999Y-114092580D02*
X60138999Y-113854485D01*
X60377094Y-113949723D02*
X60138999Y-113854485D01*
X60138999Y-113854485D02*
X59900904Y-113949723D01*
X60281856Y-113664009D02*
X60138999Y-113854485D01*
X60138999Y-113854485D02*
X59996142Y-113664009D01*
X60139000Y-113002219D02*
X60139000Y-113240314D01*
X59900905Y-113145076D02*
X60139000Y-113240314D01*
X60139000Y-113240314D02*
X60377095Y-113145076D01*
X59996143Y-113430790D02*
X60139000Y-113240314D01*
X60139000Y-113240314D02*
X60281857Y-113430790D01*
X56230476Y-92530997D02*
X56199524Y-92561950D01*
X56199524Y-92561950D02*
X56106666Y-92592902D01*
X56106666Y-92592902D02*
X56044762Y-92592902D01*
X56044762Y-92592902D02*
X55951905Y-92561950D01*
X55951905Y-92561950D02*
X55890000Y-92500045D01*
X55890000Y-92500045D02*
X55859047Y-92438140D01*
X55859047Y-92438140D02*
X55828095Y-92314330D01*
X55828095Y-92314330D02*
X55828095Y-92221473D01*
X55828095Y-92221473D02*
X55859047Y-92097664D01*
X55859047Y-92097664D02*
X55890000Y-92035759D01*
X55890000Y-92035759D02*
X55951905Y-91973854D01*
X55951905Y-91973854D02*
X56044762Y-91942902D01*
X56044762Y-91942902D02*
X56106666Y-91942902D01*
X56106666Y-91942902D02*
X56199524Y-91973854D01*
X56199524Y-91973854D02*
X56230476Y-92004807D01*
X56354286Y-92654807D02*
X56849524Y-92654807D01*
X56911428Y-91942902D02*
X57128095Y-92592902D01*
X57128095Y-92592902D02*
X57344762Y-91942902D01*
X57932857Y-92530997D02*
X57901905Y-92561950D01*
X57901905Y-92561950D02*
X57809047Y-92592902D01*
X57809047Y-92592902D02*
X57747143Y-92592902D01*
X57747143Y-92592902D02*
X57654286Y-92561950D01*
X57654286Y-92561950D02*
X57592381Y-92500045D01*
X57592381Y-92500045D02*
X57561428Y-92438140D01*
X57561428Y-92438140D02*
X57530476Y-92314330D01*
X57530476Y-92314330D02*
X57530476Y-92221473D01*
X57530476Y-92221473D02*
X57561428Y-92097664D01*
X57561428Y-92097664D02*
X57592381Y-92035759D01*
X57592381Y-92035759D02*
X57654286Y-91973854D01*
X57654286Y-91973854D02*
X57747143Y-91942902D01*
X57747143Y-91942902D02*
X57809047Y-91942902D01*
X57809047Y-91942902D02*
X57901905Y-91973854D01*
X57901905Y-91973854D02*
X57932857Y-92004807D01*
X58149524Y-91942902D02*
X58551905Y-91942902D01*
X58551905Y-91942902D02*
X58335238Y-92190521D01*
X58335238Y-92190521D02*
X58428095Y-92190521D01*
X58428095Y-92190521D02*
X58490000Y-92221473D01*
X58490000Y-92221473D02*
X58520952Y-92252426D01*
X58520952Y-92252426D02*
X58551905Y-92314330D01*
X58551905Y-92314330D02*
X58551905Y-92469092D01*
X58551905Y-92469092D02*
X58520952Y-92530997D01*
X58520952Y-92530997D02*
X58490000Y-92561950D01*
X58490000Y-92561950D02*
X58428095Y-92592902D01*
X58428095Y-92592902D02*
X58242381Y-92592902D01*
X58242381Y-92592902D02*
X58180476Y-92561950D01*
X58180476Y-92561950D02*
X58149524Y-92530997D01*
X85359999Y-115709164D02*
X85109999Y-115352021D01*
X84931428Y-115709164D02*
X84931428Y-114959164D01*
X84931428Y-114959164D02*
X85217142Y-114959164D01*
X85217142Y-114959164D02*
X85288571Y-114994878D01*
X85288571Y-114994878D02*
X85324285Y-115030592D01*
X85324285Y-115030592D02*
X85359999Y-115102021D01*
X85359999Y-115102021D02*
X85359999Y-115209164D01*
X85359999Y-115209164D02*
X85324285Y-115280592D01*
X85324285Y-115280592D02*
X85288571Y-115316307D01*
X85288571Y-115316307D02*
X85217142Y-115352021D01*
X85217142Y-115352021D02*
X84931428Y-115352021D01*
X85788571Y-115280592D02*
X85717142Y-115244878D01*
X85717142Y-115244878D02*
X85681428Y-115209164D01*
X85681428Y-115209164D02*
X85645714Y-115137735D01*
X85645714Y-115137735D02*
X85645714Y-115102021D01*
X85645714Y-115102021D02*
X85681428Y-115030592D01*
X85681428Y-115030592D02*
X85717142Y-114994878D01*
X85717142Y-114994878D02*
X85788571Y-114959164D01*
X85788571Y-114959164D02*
X85931428Y-114959164D01*
X85931428Y-114959164D02*
X86002857Y-114994878D01*
X86002857Y-114994878D02*
X86038571Y-115030592D01*
X86038571Y-115030592D02*
X86074285Y-115102021D01*
X86074285Y-115102021D02*
X86074285Y-115137735D01*
X86074285Y-115137735D02*
X86038571Y-115209164D01*
X86038571Y-115209164D02*
X86002857Y-115244878D01*
X86002857Y-115244878D02*
X85931428Y-115280592D01*
X85931428Y-115280592D02*
X85788571Y-115280592D01*
X85788571Y-115280592D02*
X85717142Y-115316307D01*
X85717142Y-115316307D02*
X85681428Y-115352021D01*
X85681428Y-115352021D02*
X85645714Y-115423450D01*
X85645714Y-115423450D02*
X85645714Y-115566307D01*
X85645714Y-115566307D02*
X85681428Y-115637735D01*
X85681428Y-115637735D02*
X85717142Y-115673450D01*
X85717142Y-115673450D02*
X85788571Y-115709164D01*
X85788571Y-115709164D02*
X85931428Y-115709164D01*
X85931428Y-115709164D02*
X86002857Y-115673450D01*
X86002857Y-115673450D02*
X86038571Y-115637735D01*
X86038571Y-115637735D02*
X86074285Y-115566307D01*
X86074285Y-115566307D02*
X86074285Y-115423450D01*
X86074285Y-115423450D02*
X86038571Y-115352021D01*
X86038571Y-115352021D02*
X86002857Y-115316307D01*
X86002857Y-115316307D02*
X85931428Y-115280592D01*
X56770476Y-99645997D02*
X56739524Y-99676950D01*
X56739524Y-99676950D02*
X56646666Y-99707902D01*
X56646666Y-99707902D02*
X56584762Y-99707902D01*
X56584762Y-99707902D02*
X56491905Y-99676950D01*
X56491905Y-99676950D02*
X56430000Y-99615045D01*
X56430000Y-99615045D02*
X56399047Y-99553140D01*
X56399047Y-99553140D02*
X56368095Y-99429330D01*
X56368095Y-99429330D02*
X56368095Y-99336473D01*
X56368095Y-99336473D02*
X56399047Y-99212664D01*
X56399047Y-99212664D02*
X56430000Y-99150759D01*
X56430000Y-99150759D02*
X56491905Y-99088854D01*
X56491905Y-99088854D02*
X56584762Y-99057902D01*
X56584762Y-99057902D02*
X56646666Y-99057902D01*
X56646666Y-99057902D02*
X56739524Y-99088854D01*
X56739524Y-99088854D02*
X56770476Y-99119807D01*
X56894286Y-99769807D02*
X57389524Y-99769807D01*
X57451428Y-99057902D02*
X57668095Y-99707902D01*
X57668095Y-99707902D02*
X57884762Y-99057902D01*
X58472857Y-99645997D02*
X58441905Y-99676950D01*
X58441905Y-99676950D02*
X58349047Y-99707902D01*
X58349047Y-99707902D02*
X58287143Y-99707902D01*
X58287143Y-99707902D02*
X58194286Y-99676950D01*
X58194286Y-99676950D02*
X58132381Y-99615045D01*
X58132381Y-99615045D02*
X58101428Y-99553140D01*
X58101428Y-99553140D02*
X58070476Y-99429330D01*
X58070476Y-99429330D02*
X58070476Y-99336473D01*
X58070476Y-99336473D02*
X58101428Y-99212664D01*
X58101428Y-99212664D02*
X58132381Y-99150759D01*
X58132381Y-99150759D02*
X58194286Y-99088854D01*
X58194286Y-99088854D02*
X58287143Y-99057902D01*
X58287143Y-99057902D02*
X58349047Y-99057902D01*
X58349047Y-99057902D02*
X58441905Y-99088854D01*
X58441905Y-99088854D02*
X58472857Y-99119807D01*
X59091905Y-99707902D02*
X58720476Y-99707902D01*
X58906190Y-99707902D02*
X58906190Y-99057902D01*
X58906190Y-99057902D02*
X58844286Y-99150759D01*
X58844286Y-99150759D02*
X58782381Y-99212664D01*
X58782381Y-99212664D02*
X58720476Y-99243616D01*
X39824999Y-117809164D02*
X39574999Y-117452021D01*
X39396428Y-117809164D02*
X39396428Y-117059164D01*
X39396428Y-117059164D02*
X39682142Y-117059164D01*
X39682142Y-117059164D02*
X39753571Y-117094878D01*
X39753571Y-117094878D02*
X39789285Y-117130592D01*
X39789285Y-117130592D02*
X39824999Y-117202021D01*
X39824999Y-117202021D02*
X39824999Y-117309164D01*
X39824999Y-117309164D02*
X39789285Y-117380592D01*
X39789285Y-117380592D02*
X39753571Y-117416307D01*
X39753571Y-117416307D02*
X39682142Y-117452021D01*
X39682142Y-117452021D02*
X39396428Y-117452021D01*
X40467857Y-117309164D02*
X40467857Y-117809164D01*
X40289285Y-117023450D02*
X40110714Y-117559164D01*
X40110714Y-117559164D02*
X40574999Y-117559164D01*
D12*
X48818619Y-112699852D02*
X48509095Y-112699852D01*
X48509095Y-112699852D02*
X48509095Y-112049852D01*
X49128143Y-112699852D02*
X49066238Y-112668900D01*
X49066238Y-112668900D02*
X49035285Y-112637947D01*
X49035285Y-112637947D02*
X49004333Y-112576042D01*
X49004333Y-112576042D02*
X49004333Y-112390328D01*
X49004333Y-112390328D02*
X49035285Y-112328423D01*
X49035285Y-112328423D02*
X49066238Y-112297471D01*
X49066238Y-112297471D02*
X49128143Y-112266519D01*
X49128143Y-112266519D02*
X49221000Y-112266519D01*
X49221000Y-112266519D02*
X49282904Y-112297471D01*
X49282904Y-112297471D02*
X49313857Y-112328423D01*
X49313857Y-112328423D02*
X49344809Y-112390328D01*
X49344809Y-112390328D02*
X49344809Y-112576042D01*
X49344809Y-112576042D02*
X49313857Y-112637947D01*
X49313857Y-112637947D02*
X49282904Y-112668900D01*
X49282904Y-112668900D02*
X49221000Y-112699852D01*
X49221000Y-112699852D02*
X49128143Y-112699852D01*
X49963857Y-112699852D02*
X49592428Y-112699852D01*
X49778142Y-112699852D02*
X49778142Y-112049852D01*
X49778142Y-112049852D02*
X49716238Y-112142709D01*
X49716238Y-112142709D02*
X49654333Y-112204614D01*
X49654333Y-112204614D02*
X49592428Y-112235566D01*
D10*
X58107856Y-96039164D02*
X57857856Y-95682021D01*
X57679285Y-96039164D02*
X57679285Y-95289164D01*
X57679285Y-95289164D02*
X57964999Y-95289164D01*
X57964999Y-95289164D02*
X58036428Y-95324878D01*
X58036428Y-95324878D02*
X58072142Y-95360592D01*
X58072142Y-95360592D02*
X58107856Y-95432021D01*
X58107856Y-95432021D02*
X58107856Y-95539164D01*
X58107856Y-95539164D02*
X58072142Y-95610592D01*
X58072142Y-95610592D02*
X58036428Y-95646307D01*
X58036428Y-95646307D02*
X57964999Y-95682021D01*
X57964999Y-95682021D02*
X57679285Y-95682021D01*
X58822142Y-96039164D02*
X58393571Y-96039164D01*
X58607856Y-96039164D02*
X58607856Y-95289164D01*
X58607856Y-95289164D02*
X58536428Y-95396307D01*
X58536428Y-95396307D02*
X58464999Y-95467735D01*
X58464999Y-95467735D02*
X58393571Y-95503450D01*
X59107857Y-95360592D02*
X59143571Y-95324878D01*
X59143571Y-95324878D02*
X59215000Y-95289164D01*
X59215000Y-95289164D02*
X59393571Y-95289164D01*
X59393571Y-95289164D02*
X59465000Y-95324878D01*
X59465000Y-95324878D02*
X59500714Y-95360592D01*
X59500714Y-95360592D02*
X59536428Y-95432021D01*
X59536428Y-95432021D02*
X59536428Y-95503450D01*
X59536428Y-95503450D02*
X59500714Y-95610592D01*
X59500714Y-95610592D02*
X59072142Y-96039164D01*
X59072142Y-96039164D02*
X59536428Y-96039164D01*
X57587856Y-98844164D02*
X57337856Y-98487021D01*
X57159285Y-98844164D02*
X57159285Y-98094164D01*
X57159285Y-98094164D02*
X57444999Y-98094164D01*
X57444999Y-98094164D02*
X57516428Y-98129878D01*
X57516428Y-98129878D02*
X57552142Y-98165592D01*
X57552142Y-98165592D02*
X57587856Y-98237021D01*
X57587856Y-98237021D02*
X57587856Y-98344164D01*
X57587856Y-98344164D02*
X57552142Y-98415592D01*
X57552142Y-98415592D02*
X57516428Y-98451307D01*
X57516428Y-98451307D02*
X57444999Y-98487021D01*
X57444999Y-98487021D02*
X57159285Y-98487021D01*
X58302142Y-98844164D02*
X57873571Y-98844164D01*
X58087856Y-98844164D02*
X58087856Y-98094164D01*
X58087856Y-98094164D02*
X58016428Y-98201307D01*
X58016428Y-98201307D02*
X57944999Y-98272735D01*
X57944999Y-98272735D02*
X57873571Y-98308450D01*
X58766428Y-98094164D02*
X58837857Y-98094164D01*
X58837857Y-98094164D02*
X58909285Y-98129878D01*
X58909285Y-98129878D02*
X58945000Y-98165592D01*
X58945000Y-98165592D02*
X58980714Y-98237021D01*
X58980714Y-98237021D02*
X59016428Y-98379878D01*
X59016428Y-98379878D02*
X59016428Y-98558450D01*
X59016428Y-98558450D02*
X58980714Y-98701307D01*
X58980714Y-98701307D02*
X58945000Y-98772735D01*
X58945000Y-98772735D02*
X58909285Y-98808450D01*
X58909285Y-98808450D02*
X58837857Y-98844164D01*
X58837857Y-98844164D02*
X58766428Y-98844164D01*
X58766428Y-98844164D02*
X58695000Y-98808450D01*
X58695000Y-98808450D02*
X58659285Y-98772735D01*
X58659285Y-98772735D02*
X58623571Y-98701307D01*
X58623571Y-98701307D02*
X58587857Y-98558450D01*
X58587857Y-98558450D02*
X58587857Y-98379878D01*
X58587857Y-98379878D02*
X58623571Y-98237021D01*
X58623571Y-98237021D02*
X58659285Y-98165592D01*
X58659285Y-98165592D02*
X58695000Y-98129878D01*
X58695000Y-98129878D02*
X58766428Y-98094164D01*
X43711666Y-105313497D02*
X43680714Y-105344450D01*
X43680714Y-105344450D02*
X43587856Y-105375402D01*
X43587856Y-105375402D02*
X43525952Y-105375402D01*
X43525952Y-105375402D02*
X43433095Y-105344450D01*
X43433095Y-105344450D02*
X43371190Y-105282545D01*
X43371190Y-105282545D02*
X43340237Y-105220640D01*
X43340237Y-105220640D02*
X43309285Y-105096830D01*
X43309285Y-105096830D02*
X43309285Y-105003973D01*
X43309285Y-105003973D02*
X43340237Y-104880164D01*
X43340237Y-104880164D02*
X43371190Y-104818259D01*
X43371190Y-104818259D02*
X43433095Y-104756354D01*
X43433095Y-104756354D02*
X43525952Y-104725402D01*
X43525952Y-104725402D02*
X43587856Y-104725402D01*
X43587856Y-104725402D02*
X43680714Y-104756354D01*
X43680714Y-104756354D02*
X43711666Y-104787307D01*
X44299761Y-104725402D02*
X43990237Y-104725402D01*
X43990237Y-104725402D02*
X43959285Y-105034926D01*
X43959285Y-105034926D02*
X43990237Y-105003973D01*
X43990237Y-105003973D02*
X44052142Y-104973021D01*
X44052142Y-104973021D02*
X44206904Y-104973021D01*
X44206904Y-104973021D02*
X44268809Y-105003973D01*
X44268809Y-105003973D02*
X44299761Y-105034926D01*
X44299761Y-105034926D02*
X44330714Y-105096830D01*
X44330714Y-105096830D02*
X44330714Y-105251592D01*
X44330714Y-105251592D02*
X44299761Y-105313497D01*
X44299761Y-105313497D02*
X44268809Y-105344450D01*
X44268809Y-105344450D02*
X44206904Y-105375402D01*
X44206904Y-105375402D02*
X44052142Y-105375402D01*
X44052142Y-105375402D02*
X43990237Y-105344450D01*
X43990237Y-105344450D02*
X43959285Y-105313497D01*
D13*
X64234318Y-95369762D02*
X62964318Y-95369762D01*
X64113365Y-94039285D02*
X64173842Y-94099761D01*
X64173842Y-94099761D02*
X64234318Y-94281190D01*
X64234318Y-94281190D02*
X64234318Y-94402142D01*
X64234318Y-94402142D02*
X64173842Y-94583571D01*
X64173842Y-94583571D02*
X64052889Y-94704523D01*
X64052889Y-94704523D02*
X63931937Y-94765000D01*
X63931937Y-94765000D02*
X63690032Y-94825476D01*
X63690032Y-94825476D02*
X63508603Y-94825476D01*
X63508603Y-94825476D02*
X63266699Y-94765000D01*
X63266699Y-94765000D02*
X63145746Y-94704523D01*
X63145746Y-94704523D02*
X63024794Y-94583571D01*
X63024794Y-94583571D02*
X62964318Y-94402142D01*
X62964318Y-94402142D02*
X62964318Y-94281190D01*
X62964318Y-94281190D02*
X63024794Y-94099761D01*
X63024794Y-94099761D02*
X63085270Y-94039285D01*
X63085270Y-93555476D02*
X63024794Y-93495000D01*
X63024794Y-93495000D02*
X62964318Y-93374047D01*
X62964318Y-93374047D02*
X62964318Y-93071666D01*
X62964318Y-93071666D02*
X63024794Y-92950714D01*
X63024794Y-92950714D02*
X63085270Y-92890238D01*
X63085270Y-92890238D02*
X63206222Y-92829761D01*
X63206222Y-92829761D02*
X63327175Y-92829761D01*
X63327175Y-92829761D02*
X63508603Y-92890238D01*
X63508603Y-92890238D02*
X64234318Y-93615952D01*
X64234318Y-93615952D02*
X64234318Y-92829761D01*
D10*
X60197856Y-90239164D02*
X59947856Y-89882021D01*
X59769285Y-90239164D02*
X59769285Y-89489164D01*
X59769285Y-89489164D02*
X60054999Y-89489164D01*
X60054999Y-89489164D02*
X60126428Y-89524878D01*
X60126428Y-89524878D02*
X60162142Y-89560592D01*
X60162142Y-89560592D02*
X60197856Y-89632021D01*
X60197856Y-89632021D02*
X60197856Y-89739164D01*
X60197856Y-89739164D02*
X60162142Y-89810592D01*
X60162142Y-89810592D02*
X60126428Y-89846307D01*
X60126428Y-89846307D02*
X60054999Y-89882021D01*
X60054999Y-89882021D02*
X59769285Y-89882021D01*
X60912142Y-90239164D02*
X60483571Y-90239164D01*
X60697856Y-90239164D02*
X60697856Y-89489164D01*
X60697856Y-89489164D02*
X60626428Y-89596307D01*
X60626428Y-89596307D02*
X60554999Y-89667735D01*
X60554999Y-89667735D02*
X60483571Y-89703450D01*
X61555000Y-89739164D02*
X61555000Y-90239164D01*
X61376428Y-89453450D02*
X61197857Y-89989164D01*
X61197857Y-89989164D02*
X61662142Y-89989164D01*
D13*
X35430238Y-92059080D02*
X35611666Y-92119556D01*
X35611666Y-92119556D02*
X35672143Y-92180032D01*
X35672143Y-92180032D02*
X35732619Y-92300984D01*
X35732619Y-92300984D02*
X35732619Y-92482413D01*
X35732619Y-92482413D02*
X35672143Y-92603365D01*
X35672143Y-92603365D02*
X35611666Y-92663842D01*
X35611666Y-92663842D02*
X35490714Y-92724318D01*
X35490714Y-92724318D02*
X35006904Y-92724318D01*
X35006904Y-92724318D02*
X35006904Y-91454318D01*
X35006904Y-91454318D02*
X35430238Y-91454318D01*
X35430238Y-91454318D02*
X35551190Y-91514794D01*
X35551190Y-91514794D02*
X35611666Y-91575270D01*
X35611666Y-91575270D02*
X35672143Y-91696222D01*
X35672143Y-91696222D02*
X35672143Y-91817175D01*
X35672143Y-91817175D02*
X35611666Y-91938127D01*
X35611666Y-91938127D02*
X35551190Y-91998603D01*
X35551190Y-91998603D02*
X35430238Y-92059080D01*
X35430238Y-92059080D02*
X35006904Y-92059080D01*
X36216428Y-92361461D02*
X36821190Y-92361461D01*
X36095476Y-92724318D02*
X36518809Y-91454318D01*
X36518809Y-91454318D02*
X36942143Y-92724318D01*
X37184047Y-91454318D02*
X37909761Y-91454318D01*
X37546904Y-92724318D02*
X37546904Y-91454318D01*
X38151666Y-91454318D02*
X38877380Y-91454318D01*
X38514523Y-92724318D02*
X38514523Y-91454318D01*
X39300713Y-92059080D02*
X39724047Y-92059080D01*
X39905475Y-92724318D02*
X39300713Y-92724318D01*
X39300713Y-92724318D02*
X39300713Y-91454318D01*
X39300713Y-91454318D02*
X39905475Y-91454318D01*
X41175476Y-92724318D02*
X40752142Y-92119556D01*
X40449761Y-92724318D02*
X40449761Y-91454318D01*
X40449761Y-91454318D02*
X40933571Y-91454318D01*
X40933571Y-91454318D02*
X41054523Y-91514794D01*
X41054523Y-91514794D02*
X41115000Y-91575270D01*
X41115000Y-91575270D02*
X41175476Y-91696222D01*
X41175476Y-91696222D02*
X41175476Y-91877651D01*
X41175476Y-91877651D02*
X41115000Y-91998603D01*
X41115000Y-91998603D02*
X41054523Y-92059080D01*
X41054523Y-92059080D02*
X40933571Y-92119556D01*
X40933571Y-92119556D02*
X40449761Y-92119556D01*
X41961666Y-92119556D02*
X41961666Y-92724318D01*
X41538333Y-91454318D02*
X41961666Y-92119556D01*
X41961666Y-92119556D02*
X42385000Y-91454318D01*
X43473571Y-92724318D02*
X42747856Y-92724318D01*
X43110713Y-92724318D02*
X43110713Y-91454318D01*
X43110713Y-91454318D02*
X42989761Y-91635746D01*
X42989761Y-91635746D02*
X42868809Y-91756699D01*
X42868809Y-91756699D02*
X42747856Y-91817175D01*
D10*
X85379999Y-116779164D02*
X85129999Y-116422021D01*
X84951428Y-116779164D02*
X84951428Y-116029164D01*
X84951428Y-116029164D02*
X85237142Y-116029164D01*
X85237142Y-116029164D02*
X85308571Y-116064878D01*
X85308571Y-116064878D02*
X85344285Y-116100592D01*
X85344285Y-116100592D02*
X85379999Y-116172021D01*
X85379999Y-116172021D02*
X85379999Y-116279164D01*
X85379999Y-116279164D02*
X85344285Y-116350592D01*
X85344285Y-116350592D02*
X85308571Y-116386307D01*
X85308571Y-116386307D02*
X85237142Y-116422021D01*
X85237142Y-116422021D02*
X84951428Y-116422021D01*
X85737142Y-116779164D02*
X85879999Y-116779164D01*
X85879999Y-116779164D02*
X85951428Y-116743450D01*
X85951428Y-116743450D02*
X85987142Y-116707735D01*
X85987142Y-116707735D02*
X86058571Y-116600592D01*
X86058571Y-116600592D02*
X86094285Y-116457735D01*
X86094285Y-116457735D02*
X86094285Y-116172021D01*
X86094285Y-116172021D02*
X86058571Y-116100592D01*
X86058571Y-116100592D02*
X86022857Y-116064878D01*
X86022857Y-116064878D02*
X85951428Y-116029164D01*
X85951428Y-116029164D02*
X85808571Y-116029164D01*
X85808571Y-116029164D02*
X85737142Y-116064878D01*
X85737142Y-116064878D02*
X85701428Y-116100592D01*
X85701428Y-116100592D02*
X85665714Y-116172021D01*
X85665714Y-116172021D02*
X85665714Y-116350592D01*
X85665714Y-116350592D02*
X85701428Y-116422021D01*
X85701428Y-116422021D02*
X85737142Y-116457735D01*
X85737142Y-116457735D02*
X85808571Y-116493450D01*
X85808571Y-116493450D02*
X85951428Y-116493450D01*
X85951428Y-116493450D02*
X86022857Y-116457735D01*
X86022857Y-116457735D02*
X86058571Y-116422021D01*
X86058571Y-116422021D02*
X86094285Y-116350592D01*
X39618571Y-115537319D02*
X39618571Y-116346842D01*
X39618571Y-116346842D02*
X39666190Y-116442080D01*
X39666190Y-116442080D02*
X39713809Y-116489700D01*
X39713809Y-116489700D02*
X39809047Y-116537319D01*
X39809047Y-116537319D02*
X39999523Y-116537319D01*
X39999523Y-116537319D02*
X40094761Y-116489700D01*
X40094761Y-116489700D02*
X40142380Y-116442080D01*
X40142380Y-116442080D02*
X40189999Y-116346842D01*
X40189999Y-116346842D02*
X40189999Y-115537319D01*
X40618571Y-116251604D02*
X41094761Y-116251604D01*
X40523333Y-116537319D02*
X40856666Y-115537319D01*
X40856666Y-115537319D02*
X41189999Y-116537319D01*
X42094761Y-116537319D02*
X41761428Y-116061128D01*
X41523333Y-116537319D02*
X41523333Y-115537319D01*
X41523333Y-115537319D02*
X41904285Y-115537319D01*
X41904285Y-115537319D02*
X41999523Y-115584938D01*
X41999523Y-115584938D02*
X42047142Y-115632557D01*
X42047142Y-115632557D02*
X42094761Y-115727795D01*
X42094761Y-115727795D02*
X42094761Y-115870652D01*
X42094761Y-115870652D02*
X42047142Y-115965890D01*
X42047142Y-115965890D02*
X41999523Y-116013509D01*
X41999523Y-116013509D02*
X41904285Y-116061128D01*
X41904285Y-116061128D02*
X41523333Y-116061128D01*
X42380476Y-115537319D02*
X42951904Y-115537319D01*
X42666190Y-116537319D02*
X42666190Y-115537319D01*
X43809047Y-116537319D02*
X43237619Y-116537319D01*
X43523333Y-116537319D02*
X43523333Y-115537319D01*
X43523333Y-115537319D02*
X43428095Y-115680176D01*
X43428095Y-115680176D02*
X43332857Y-115775414D01*
X43332857Y-115775414D02*
X43237619Y-115823033D01*
X38511666Y-105293497D02*
X38480714Y-105324450D01*
X38480714Y-105324450D02*
X38387856Y-105355402D01*
X38387856Y-105355402D02*
X38325952Y-105355402D01*
X38325952Y-105355402D02*
X38233095Y-105324450D01*
X38233095Y-105324450D02*
X38171190Y-105262545D01*
X38171190Y-105262545D02*
X38140237Y-105200640D01*
X38140237Y-105200640D02*
X38109285Y-105076830D01*
X38109285Y-105076830D02*
X38109285Y-104983973D01*
X38109285Y-104983973D02*
X38140237Y-104860164D01*
X38140237Y-104860164D02*
X38171190Y-104798259D01*
X38171190Y-104798259D02*
X38233095Y-104736354D01*
X38233095Y-104736354D02*
X38325952Y-104705402D01*
X38325952Y-104705402D02*
X38387856Y-104705402D01*
X38387856Y-104705402D02*
X38480714Y-104736354D01*
X38480714Y-104736354D02*
X38511666Y-104767307D01*
X39068809Y-104922069D02*
X39068809Y-105355402D01*
X38914047Y-104674450D02*
X38759285Y-105138735D01*
X38759285Y-105138735D02*
X39161666Y-105138735D01*
X65284761Y-124850057D02*
X65189523Y-124802438D01*
X65189523Y-124802438D02*
X65094285Y-124707200D01*
X65094285Y-124707200D02*
X64951428Y-124564342D01*
X64951428Y-124564342D02*
X64856190Y-124516723D01*
X64856190Y-124516723D02*
X64760952Y-124516723D01*
X64808571Y-124754819D02*
X64713333Y-124707200D01*
X64713333Y-124707200D02*
X64618095Y-124611961D01*
X64618095Y-124611961D02*
X64570476Y-124421485D01*
X64570476Y-124421485D02*
X64570476Y-124088152D01*
X64570476Y-124088152D02*
X64618095Y-123897676D01*
X64618095Y-123897676D02*
X64713333Y-123802438D01*
X64713333Y-123802438D02*
X64808571Y-123754819D01*
X64808571Y-123754819D02*
X64999047Y-123754819D01*
X64999047Y-123754819D02*
X65094285Y-123802438D01*
X65094285Y-123802438D02*
X65189523Y-123897676D01*
X65189523Y-123897676D02*
X65237142Y-124088152D01*
X65237142Y-124088152D02*
X65237142Y-124421485D01*
X65237142Y-124421485D02*
X65189523Y-124611961D01*
X65189523Y-124611961D02*
X65094285Y-124707200D01*
X65094285Y-124707200D02*
X64999047Y-124754819D01*
X64999047Y-124754819D02*
X64808571Y-124754819D01*
X66094285Y-124088152D02*
X66094285Y-124754819D01*
X65856190Y-123707200D02*
X65618095Y-124421485D01*
X65618095Y-124421485D02*
X66237142Y-124421485D01*
X57035428Y-119595564D02*
X56785428Y-119238421D01*
X56606857Y-119595564D02*
X56606857Y-118845564D01*
X56606857Y-118845564D02*
X56892571Y-118845564D01*
X56892571Y-118845564D02*
X56964000Y-118881278D01*
X56964000Y-118881278D02*
X56999714Y-118916992D01*
X56999714Y-118916992D02*
X57035428Y-118988421D01*
X57035428Y-118988421D02*
X57035428Y-119095564D01*
X57035428Y-119095564D02*
X56999714Y-119166992D01*
X56999714Y-119166992D02*
X56964000Y-119202707D01*
X56964000Y-119202707D02*
X56892571Y-119238421D01*
X56892571Y-119238421D02*
X56606857Y-119238421D01*
X57356857Y-119595564D02*
X57356857Y-118845564D01*
X57356857Y-118845564D02*
X57642571Y-118845564D01*
X57642571Y-118845564D02*
X57714000Y-118881278D01*
X57714000Y-118881278D02*
X57749714Y-118916992D01*
X57749714Y-118916992D02*
X57785428Y-118988421D01*
X57785428Y-118988421D02*
X57785428Y-119095564D01*
X57785428Y-119095564D02*
X57749714Y-119166992D01*
X57749714Y-119166992D02*
X57714000Y-119202707D01*
X57714000Y-119202707D02*
X57642571Y-119238421D01*
X57642571Y-119238421D02*
X57356857Y-119238421D01*
X58106857Y-119595564D02*
X58106857Y-119095564D01*
X58106857Y-118845564D02*
X58071143Y-118881278D01*
X58071143Y-118881278D02*
X58106857Y-118916992D01*
X58106857Y-118916992D02*
X58142571Y-118881278D01*
X58142571Y-118881278D02*
X58106857Y-118845564D01*
X58106857Y-118845564D02*
X58106857Y-118916992D01*
X58571143Y-119595564D02*
X58499714Y-119559850D01*
X58499714Y-119559850D02*
X58464000Y-119488421D01*
X58464000Y-119488421D02*
X58464000Y-118845564D01*
X58856857Y-119595564D02*
X58856857Y-119095564D01*
X58856857Y-118845564D02*
X58821143Y-118881278D01*
X58821143Y-118881278D02*
X58856857Y-118916992D01*
X58856857Y-118916992D02*
X58892571Y-118881278D01*
X58892571Y-118881278D02*
X58856857Y-118845564D01*
X58856857Y-118845564D02*
X58856857Y-118916992D01*
X59214000Y-119595564D02*
X59214000Y-119095564D01*
X59214000Y-119166992D02*
X59249714Y-119131278D01*
X59249714Y-119131278D02*
X59321143Y-119095564D01*
X59321143Y-119095564D02*
X59428286Y-119095564D01*
X59428286Y-119095564D02*
X59499714Y-119131278D01*
X59499714Y-119131278D02*
X59535429Y-119202707D01*
X59535429Y-119202707D02*
X59535429Y-119595564D01*
X59535429Y-119202707D02*
X59571143Y-119131278D01*
X59571143Y-119131278D02*
X59642571Y-119095564D01*
X59642571Y-119095564D02*
X59749714Y-119095564D01*
X59749714Y-119095564D02*
X59821143Y-119131278D01*
X59821143Y-119131278D02*
X59856857Y-119202707D01*
X59856857Y-119202707D02*
X59856857Y-119595564D01*
X60606857Y-119595564D02*
X60178286Y-119595564D01*
X60392571Y-119595564D02*
X60392571Y-118845564D01*
X60392571Y-118845564D02*
X60321143Y-118952707D01*
X60321143Y-118952707D02*
X60249714Y-119024135D01*
X60249714Y-119024135D02*
X60178286Y-119059850D01*
D13*
X52764318Y-91797619D02*
X53792413Y-91797619D01*
X53792413Y-91797619D02*
X53913365Y-91737142D01*
X53913365Y-91737142D02*
X53973842Y-91676666D01*
X53973842Y-91676666D02*
X54034318Y-91555714D01*
X54034318Y-91555714D02*
X54034318Y-91313809D01*
X54034318Y-91313809D02*
X53973842Y-91192857D01*
X53973842Y-91192857D02*
X53913365Y-91132380D01*
X53913365Y-91132380D02*
X53792413Y-91071904D01*
X53792413Y-91071904D02*
X52764318Y-91071904D01*
X53308603Y-90285714D02*
X53248127Y-90406666D01*
X53248127Y-90406666D02*
X53187651Y-90467143D01*
X53187651Y-90467143D02*
X53066699Y-90527619D01*
X53066699Y-90527619D02*
X53006222Y-90527619D01*
X53006222Y-90527619D02*
X52885270Y-90467143D01*
X52885270Y-90467143D02*
X52824794Y-90406666D01*
X52824794Y-90406666D02*
X52764318Y-90285714D01*
X52764318Y-90285714D02*
X52764318Y-90043809D01*
X52764318Y-90043809D02*
X52824794Y-89922857D01*
X52824794Y-89922857D02*
X52885270Y-89862381D01*
X52885270Y-89862381D02*
X53006222Y-89801904D01*
X53006222Y-89801904D02*
X53066699Y-89801904D01*
X53066699Y-89801904D02*
X53187651Y-89862381D01*
X53187651Y-89862381D02*
X53248127Y-89922857D01*
X53248127Y-89922857D02*
X53308603Y-90043809D01*
X53308603Y-90043809D02*
X53308603Y-90285714D01*
X53308603Y-90285714D02*
X53369080Y-90406666D01*
X53369080Y-90406666D02*
X53429556Y-90467143D01*
X53429556Y-90467143D02*
X53550508Y-90527619D01*
X53550508Y-90527619D02*
X53792413Y-90527619D01*
X53792413Y-90527619D02*
X53913365Y-90467143D01*
X53913365Y-90467143D02*
X53973842Y-90406666D01*
X53973842Y-90406666D02*
X54034318Y-90285714D01*
X54034318Y-90285714D02*
X54034318Y-90043809D01*
X54034318Y-90043809D02*
X53973842Y-89922857D01*
X53973842Y-89922857D02*
X53913365Y-89862381D01*
X53913365Y-89862381D02*
X53792413Y-89801904D01*
X53792413Y-89801904D02*
X53550508Y-89801904D01*
X53550508Y-89801904D02*
X53429556Y-89862381D01*
X53429556Y-89862381D02*
X53369080Y-89922857D01*
X53369080Y-89922857D02*
X53308603Y-90043809D01*
X51907380Y-122369318D02*
X51907380Y-123397413D01*
X51907380Y-123397413D02*
X51967857Y-123518365D01*
X51967857Y-123518365D02*
X52028333Y-123578842D01*
X52028333Y-123578842D02*
X52149285Y-123639318D01*
X52149285Y-123639318D02*
X52391190Y-123639318D01*
X52391190Y-123639318D02*
X52512142Y-123578842D01*
X52512142Y-123578842D02*
X52572619Y-123518365D01*
X52572619Y-123518365D02*
X52633095Y-123397413D01*
X52633095Y-123397413D02*
X52633095Y-122369318D01*
X53298333Y-123639318D02*
X53540237Y-123639318D01*
X53540237Y-123639318D02*
X53661190Y-123578842D01*
X53661190Y-123578842D02*
X53721666Y-123518365D01*
X53721666Y-123518365D02*
X53842618Y-123336937D01*
X53842618Y-123336937D02*
X53903095Y-123095032D01*
X53903095Y-123095032D02*
X53903095Y-122611222D01*
X53903095Y-122611222D02*
X53842618Y-122490270D01*
X53842618Y-122490270D02*
X53782142Y-122429794D01*
X53782142Y-122429794D02*
X53661190Y-122369318D01*
X53661190Y-122369318D02*
X53419285Y-122369318D01*
X53419285Y-122369318D02*
X53298333Y-122429794D01*
X53298333Y-122429794D02*
X53237856Y-122490270D01*
X53237856Y-122490270D02*
X53177380Y-122611222D01*
X53177380Y-122611222D02*
X53177380Y-122913603D01*
X53177380Y-122913603D02*
X53237856Y-123034556D01*
X53237856Y-123034556D02*
X53298333Y-123095032D01*
X53298333Y-123095032D02*
X53419285Y-123155508D01*
X53419285Y-123155508D02*
X53661190Y-123155508D01*
X53661190Y-123155508D02*
X53782142Y-123095032D01*
X53782142Y-123095032D02*
X53842618Y-123034556D01*
X53842618Y-123034556D02*
X53903095Y-122913603D01*
D10*
X57587856Y-91379164D02*
X57337856Y-91022021D01*
X57159285Y-91379164D02*
X57159285Y-90629164D01*
X57159285Y-90629164D02*
X57444999Y-90629164D01*
X57444999Y-90629164D02*
X57516428Y-90664878D01*
X57516428Y-90664878D02*
X57552142Y-90700592D01*
X57552142Y-90700592D02*
X57587856Y-90772021D01*
X57587856Y-90772021D02*
X57587856Y-90879164D01*
X57587856Y-90879164D02*
X57552142Y-90950592D01*
X57552142Y-90950592D02*
X57516428Y-90986307D01*
X57516428Y-90986307D02*
X57444999Y-91022021D01*
X57444999Y-91022021D02*
X57159285Y-91022021D01*
X58302142Y-91379164D02*
X57873571Y-91379164D01*
X58087856Y-91379164D02*
X58087856Y-90629164D01*
X58087856Y-90629164D02*
X58016428Y-90736307D01*
X58016428Y-90736307D02*
X57944999Y-90807735D01*
X57944999Y-90807735D02*
X57873571Y-90843450D01*
X58945000Y-90629164D02*
X58802142Y-90629164D01*
X58802142Y-90629164D02*
X58730714Y-90664878D01*
X58730714Y-90664878D02*
X58695000Y-90700592D01*
X58695000Y-90700592D02*
X58623571Y-90807735D01*
X58623571Y-90807735D02*
X58587857Y-90950592D01*
X58587857Y-90950592D02*
X58587857Y-91236307D01*
X58587857Y-91236307D02*
X58623571Y-91307735D01*
X58623571Y-91307735D02*
X58659285Y-91343450D01*
X58659285Y-91343450D02*
X58730714Y-91379164D01*
X58730714Y-91379164D02*
X58873571Y-91379164D01*
X58873571Y-91379164D02*
X58945000Y-91343450D01*
X58945000Y-91343450D02*
X58980714Y-91307735D01*
X58980714Y-91307735D02*
X59016428Y-91236307D01*
X59016428Y-91236307D02*
X59016428Y-91057735D01*
X59016428Y-91057735D02*
X58980714Y-90986307D01*
X58980714Y-90986307D02*
X58945000Y-90950592D01*
X58945000Y-90950592D02*
X58873571Y-90914878D01*
X58873571Y-90914878D02*
X58730714Y-90914878D01*
X58730714Y-90914878D02*
X58659285Y-90950592D01*
X58659285Y-90950592D02*
X58623571Y-90986307D01*
X58623571Y-90986307D02*
X58587857Y-91057735D01*
D13*
X72739762Y-129849080D02*
X72921190Y-129909556D01*
X72921190Y-129909556D02*
X72981667Y-129970032D01*
X72981667Y-129970032D02*
X73042143Y-130090984D01*
X73042143Y-130090984D02*
X73042143Y-130272413D01*
X73042143Y-130272413D02*
X72981667Y-130393365D01*
X72981667Y-130393365D02*
X72921190Y-130453842D01*
X72921190Y-130453842D02*
X72800238Y-130514318D01*
X72800238Y-130514318D02*
X72316428Y-130514318D01*
X72316428Y-130514318D02*
X72316428Y-129244318D01*
X72316428Y-129244318D02*
X72739762Y-129244318D01*
X72739762Y-129244318D02*
X72860714Y-129304794D01*
X72860714Y-129304794D02*
X72921190Y-129365270D01*
X72921190Y-129365270D02*
X72981667Y-129486222D01*
X72981667Y-129486222D02*
X72981667Y-129607175D01*
X72981667Y-129607175D02*
X72921190Y-129728127D01*
X72921190Y-129728127D02*
X72860714Y-129788603D01*
X72860714Y-129788603D02*
X72739762Y-129849080D01*
X72739762Y-129849080D02*
X72316428Y-129849080D01*
X73525952Y-130151461D02*
X74130714Y-130151461D01*
X73405000Y-130514318D02*
X73828333Y-129244318D01*
X73828333Y-129244318D02*
X74251667Y-130514318D01*
X74493571Y-129244318D02*
X75219285Y-129244318D01*
X74856428Y-130514318D02*
X74856428Y-129244318D01*
X75340238Y-130635270D02*
X76307857Y-130635270D01*
X76852142Y-129244318D02*
X77094047Y-129244318D01*
X77094047Y-129244318D02*
X77214999Y-129304794D01*
X77214999Y-129304794D02*
X77335952Y-129425746D01*
X77335952Y-129425746D02*
X77396428Y-129667651D01*
X77396428Y-129667651D02*
X77396428Y-130090984D01*
X77396428Y-130090984D02*
X77335952Y-130332889D01*
X77335952Y-130332889D02*
X77214999Y-130453842D01*
X77214999Y-130453842D02*
X77094047Y-130514318D01*
X77094047Y-130514318D02*
X76852142Y-130514318D01*
X76852142Y-130514318D02*
X76731190Y-130453842D01*
X76731190Y-130453842D02*
X76610237Y-130332889D01*
X76610237Y-130332889D02*
X76549761Y-130090984D01*
X76549761Y-130090984D02*
X76549761Y-129667651D01*
X76549761Y-129667651D02*
X76610237Y-129425746D01*
X76610237Y-129425746D02*
X76731190Y-129304794D01*
X76731190Y-129304794D02*
X76852142Y-129244318D01*
X77940713Y-129244318D02*
X77940713Y-130272413D01*
X77940713Y-130272413D02*
X78001190Y-130393365D01*
X78001190Y-130393365D02*
X78061666Y-130453842D01*
X78061666Y-130453842D02*
X78182618Y-130514318D01*
X78182618Y-130514318D02*
X78424523Y-130514318D01*
X78424523Y-130514318D02*
X78545475Y-130453842D01*
X78545475Y-130453842D02*
X78605952Y-130393365D01*
X78605952Y-130393365D02*
X78666428Y-130272413D01*
X78666428Y-130272413D02*
X78666428Y-129244318D01*
X79089761Y-129244318D02*
X79815475Y-129244318D01*
X79452618Y-130514318D02*
X79452618Y-129244318D01*
X80904047Y-130514318D02*
X80178332Y-130514318D01*
X80541189Y-130514318D02*
X80541189Y-129244318D01*
X80541189Y-129244318D02*
X80420237Y-129425746D01*
X80420237Y-129425746D02*
X80299285Y-129546699D01*
X80299285Y-129546699D02*
X80178332Y-129607175D01*
X63978333Y-99284318D02*
X63373571Y-99284318D01*
X63373571Y-99284318D02*
X63373571Y-98014318D01*
X65066905Y-99284318D02*
X64341190Y-99284318D01*
X64704047Y-99284318D02*
X64704047Y-98014318D01*
X64704047Y-98014318D02*
X64583095Y-98195746D01*
X64583095Y-98195746D02*
X64462143Y-98316699D01*
X64462143Y-98316699D02*
X64341190Y-98377175D01*
D10*
X57567856Y-100754164D02*
X57317856Y-100397021D01*
X57139285Y-100754164D02*
X57139285Y-100004164D01*
X57139285Y-100004164D02*
X57424999Y-100004164D01*
X57424999Y-100004164D02*
X57496428Y-100039878D01*
X57496428Y-100039878D02*
X57532142Y-100075592D01*
X57532142Y-100075592D02*
X57567856Y-100147021D01*
X57567856Y-100147021D02*
X57567856Y-100254164D01*
X57567856Y-100254164D02*
X57532142Y-100325592D01*
X57532142Y-100325592D02*
X57496428Y-100361307D01*
X57496428Y-100361307D02*
X57424999Y-100397021D01*
X57424999Y-100397021D02*
X57139285Y-100397021D01*
X58282142Y-100754164D02*
X57853571Y-100754164D01*
X58067856Y-100754164D02*
X58067856Y-100004164D01*
X58067856Y-100004164D02*
X57996428Y-100111307D01*
X57996428Y-100111307D02*
X57924999Y-100182735D01*
X57924999Y-100182735D02*
X57853571Y-100218450D01*
X58996428Y-100754164D02*
X58567857Y-100754164D01*
X58782142Y-100754164D02*
X58782142Y-100004164D01*
X58782142Y-100004164D02*
X58710714Y-100111307D01*
X58710714Y-100111307D02*
X58639285Y-100182735D01*
X58639285Y-100182735D02*
X58567857Y-100218450D01*
X56569761Y-130245057D02*
X56474523Y-130197438D01*
X56474523Y-130197438D02*
X56379285Y-130102200D01*
X56379285Y-130102200D02*
X56236428Y-129959342D01*
X56236428Y-129959342D02*
X56141190Y-129911723D01*
X56141190Y-129911723D02*
X56045952Y-129911723D01*
X56093571Y-130149819D02*
X55998333Y-130102200D01*
X55998333Y-130102200D02*
X55903095Y-130006961D01*
X55903095Y-130006961D02*
X55855476Y-129816485D01*
X55855476Y-129816485D02*
X55855476Y-129483152D01*
X55855476Y-129483152D02*
X55903095Y-129292676D01*
X55903095Y-129292676D02*
X55998333Y-129197438D01*
X55998333Y-129197438D02*
X56093571Y-129149819D01*
X56093571Y-129149819D02*
X56284047Y-129149819D01*
X56284047Y-129149819D02*
X56379285Y-129197438D01*
X56379285Y-129197438D02*
X56474523Y-129292676D01*
X56474523Y-129292676D02*
X56522142Y-129483152D01*
X56522142Y-129483152D02*
X56522142Y-129816485D01*
X56522142Y-129816485D02*
X56474523Y-130006961D01*
X56474523Y-130006961D02*
X56379285Y-130102200D01*
X56379285Y-130102200D02*
X56284047Y-130149819D01*
X56284047Y-130149819D02*
X56093571Y-130149819D01*
X56903095Y-129245057D02*
X56950714Y-129197438D01*
X56950714Y-129197438D02*
X57045952Y-129149819D01*
X57045952Y-129149819D02*
X57284047Y-129149819D01*
X57284047Y-129149819D02*
X57379285Y-129197438D01*
X57379285Y-129197438D02*
X57426904Y-129245057D01*
X57426904Y-129245057D02*
X57474523Y-129340295D01*
X57474523Y-129340295D02*
X57474523Y-129435533D01*
X57474523Y-129435533D02*
X57426904Y-129578390D01*
X57426904Y-129578390D02*
X56855476Y-130149819D01*
X56855476Y-130149819D02*
X57474523Y-130149819D01*
X58116143Y-118275564D02*
X57866143Y-117918421D01*
X57687572Y-118275564D02*
X57687572Y-117525564D01*
X57687572Y-117525564D02*
X57973286Y-117525564D01*
X57973286Y-117525564D02*
X58044715Y-117561278D01*
X58044715Y-117561278D02*
X58080429Y-117596992D01*
X58080429Y-117596992D02*
X58116143Y-117668421D01*
X58116143Y-117668421D02*
X58116143Y-117775564D01*
X58116143Y-117775564D02*
X58080429Y-117846992D01*
X58080429Y-117846992D02*
X58044715Y-117882707D01*
X58044715Y-117882707D02*
X57973286Y-117918421D01*
X57973286Y-117918421D02*
X57687572Y-117918421D01*
X58759001Y-118275564D02*
X58759001Y-117525564D01*
X58759001Y-118239850D02*
X58687572Y-118275564D01*
X58687572Y-118275564D02*
X58544715Y-118275564D01*
X58544715Y-118275564D02*
X58473286Y-118239850D01*
X58473286Y-118239850D02*
X58437572Y-118204135D01*
X58437572Y-118204135D02*
X58401858Y-118132707D01*
X58401858Y-118132707D02*
X58401858Y-117918421D01*
X58401858Y-117918421D02*
X58437572Y-117846992D01*
X58437572Y-117846992D02*
X58473286Y-117811278D01*
X58473286Y-117811278D02*
X58544715Y-117775564D01*
X58544715Y-117775564D02*
X58687572Y-117775564D01*
X58687572Y-117775564D02*
X58759001Y-117811278D01*
X59116143Y-117775564D02*
X59116143Y-118525564D01*
X59116143Y-117811278D02*
X59187572Y-117775564D01*
X59187572Y-117775564D02*
X59330429Y-117775564D01*
X59330429Y-117775564D02*
X59401857Y-117811278D01*
X59401857Y-117811278D02*
X59437572Y-117846992D01*
X59437572Y-117846992D02*
X59473286Y-117918421D01*
X59473286Y-117918421D02*
X59473286Y-118132707D01*
X59473286Y-118132707D02*
X59437572Y-118204135D01*
X59437572Y-118204135D02*
X59401857Y-118239850D01*
X59401857Y-118239850D02*
X59330429Y-118275564D01*
X59330429Y-118275564D02*
X59187572Y-118275564D01*
X59187572Y-118275564D02*
X59116143Y-118239850D01*
X59794714Y-118275564D02*
X59794714Y-117775564D01*
X59794714Y-117846992D02*
X59830428Y-117811278D01*
X59830428Y-117811278D02*
X59901857Y-117775564D01*
X59901857Y-117775564D02*
X60009000Y-117775564D01*
X60009000Y-117775564D02*
X60080428Y-117811278D01*
X60080428Y-117811278D02*
X60116143Y-117882707D01*
X60116143Y-117882707D02*
X60116143Y-118275564D01*
X60116143Y-117882707D02*
X60151857Y-117811278D01*
X60151857Y-117811278D02*
X60223285Y-117775564D01*
X60223285Y-117775564D02*
X60330428Y-117775564D01*
X60330428Y-117775564D02*
X60401857Y-117811278D01*
X60401857Y-117811278D02*
X60437571Y-117882707D01*
X60437571Y-117882707D02*
X60437571Y-118275564D01*
X60687571Y-117775564D02*
X60973285Y-117775564D01*
X60794714Y-117525564D02*
X60794714Y-118168421D01*
X60794714Y-118168421D02*
X60830428Y-118239850D01*
X60830428Y-118239850D02*
X60901857Y-118275564D01*
X60901857Y-118275564D02*
X60973285Y-118275564D01*
X61616142Y-118275564D02*
X61187571Y-118275564D01*
X61401856Y-118275564D02*
X61401856Y-117525564D01*
X61401856Y-117525564D02*
X61330428Y-117632707D01*
X61330428Y-117632707D02*
X61258999Y-117704135D01*
X61258999Y-117704135D02*
X61187571Y-117739850D01*
X57217856Y-90439164D02*
X56967856Y-90082021D01*
X56789285Y-90439164D02*
X56789285Y-89689164D01*
X56789285Y-89689164D02*
X57074999Y-89689164D01*
X57074999Y-89689164D02*
X57146428Y-89724878D01*
X57146428Y-89724878D02*
X57182142Y-89760592D01*
X57182142Y-89760592D02*
X57217856Y-89832021D01*
X57217856Y-89832021D02*
X57217856Y-89939164D01*
X57217856Y-89939164D02*
X57182142Y-90010592D01*
X57182142Y-90010592D02*
X57146428Y-90046307D01*
X57146428Y-90046307D02*
X57074999Y-90082021D01*
X57074999Y-90082021D02*
X56789285Y-90082021D01*
X57932142Y-90439164D02*
X57503571Y-90439164D01*
X57717856Y-90439164D02*
X57717856Y-89689164D01*
X57717856Y-89689164D02*
X57646428Y-89796307D01*
X57646428Y-89796307D02*
X57574999Y-89867735D01*
X57574999Y-89867735D02*
X57503571Y-89903450D01*
X58610714Y-89689164D02*
X58253571Y-89689164D01*
X58253571Y-89689164D02*
X58217857Y-90046307D01*
X58217857Y-90046307D02*
X58253571Y-90010592D01*
X58253571Y-90010592D02*
X58325000Y-89974878D01*
X58325000Y-89974878D02*
X58503571Y-89974878D01*
X58503571Y-89974878D02*
X58575000Y-90010592D01*
X58575000Y-90010592D02*
X58610714Y-90046307D01*
X58610714Y-90046307D02*
X58646428Y-90117735D01*
X58646428Y-90117735D02*
X58646428Y-90296307D01*
X58646428Y-90296307D02*
X58610714Y-90367735D01*
X58610714Y-90367735D02*
X58575000Y-90403450D01*
X58575000Y-90403450D02*
X58503571Y-90439164D01*
X58503571Y-90439164D02*
X58325000Y-90439164D01*
X58325000Y-90439164D02*
X58253571Y-90403450D01*
X58253571Y-90403450D02*
X58217857Y-90367735D01*
X50311666Y-117500997D02*
X50280714Y-117531950D01*
X50280714Y-117531950D02*
X50187856Y-117562902D01*
X50187856Y-117562902D02*
X50125952Y-117562902D01*
X50125952Y-117562902D02*
X50033095Y-117531950D01*
X50033095Y-117531950D02*
X49971190Y-117470045D01*
X49971190Y-117470045D02*
X49940237Y-117408140D01*
X49940237Y-117408140D02*
X49909285Y-117284330D01*
X49909285Y-117284330D02*
X49909285Y-117191473D01*
X49909285Y-117191473D02*
X49940237Y-117067664D01*
X49940237Y-117067664D02*
X49971190Y-117005759D01*
X49971190Y-117005759D02*
X50033095Y-116943854D01*
X50033095Y-116943854D02*
X50125952Y-116912902D01*
X50125952Y-116912902D02*
X50187856Y-116912902D01*
X50187856Y-116912902D02*
X50280714Y-116943854D01*
X50280714Y-116943854D02*
X50311666Y-116974807D01*
X50930714Y-117562902D02*
X50559285Y-117562902D01*
X50744999Y-117562902D02*
X50744999Y-116912902D01*
X50744999Y-116912902D02*
X50683095Y-117005759D01*
X50683095Y-117005759D02*
X50621190Y-117067664D01*
X50621190Y-117067664D02*
X50559285Y-117098616D01*
D13*
X67760237Y-119074318D02*
X67760237Y-117804318D01*
X69090714Y-118953365D02*
X69030238Y-119013842D01*
X69030238Y-119013842D02*
X68848809Y-119074318D01*
X68848809Y-119074318D02*
X68727857Y-119074318D01*
X68727857Y-119074318D02*
X68546428Y-119013842D01*
X68546428Y-119013842D02*
X68425476Y-118892889D01*
X68425476Y-118892889D02*
X68364999Y-118771937D01*
X68364999Y-118771937D02*
X68304523Y-118530032D01*
X68304523Y-118530032D02*
X68304523Y-118348603D01*
X68304523Y-118348603D02*
X68364999Y-118106699D01*
X68364999Y-118106699D02*
X68425476Y-117985746D01*
X68425476Y-117985746D02*
X68546428Y-117864794D01*
X68546428Y-117864794D02*
X68727857Y-117804318D01*
X68727857Y-117804318D02*
X68848809Y-117804318D01*
X68848809Y-117804318D02*
X69030238Y-117864794D01*
X69030238Y-117864794D02*
X69090714Y-117925270D01*
X70300238Y-119074318D02*
X69574523Y-119074318D01*
X69937380Y-119074318D02*
X69937380Y-117804318D01*
X69937380Y-117804318D02*
X69816428Y-117985746D01*
X69816428Y-117985746D02*
X69695476Y-118106699D01*
X69695476Y-118106699D02*
X69574523Y-118167175D01*
D10*
X51987009Y-116171197D02*
X51956057Y-116202150D01*
X51956057Y-116202150D02*
X51863199Y-116233102D01*
X51863199Y-116233102D02*
X51801295Y-116233102D01*
X51801295Y-116233102D02*
X51708438Y-116202150D01*
X51708438Y-116202150D02*
X51646533Y-116140245D01*
X51646533Y-116140245D02*
X51615580Y-116078340D01*
X51615580Y-116078340D02*
X51584628Y-115954530D01*
X51584628Y-115954530D02*
X51584628Y-115861673D01*
X51584628Y-115861673D02*
X51615580Y-115737864D01*
X51615580Y-115737864D02*
X51646533Y-115675959D01*
X51646533Y-115675959D02*
X51708438Y-115614054D01*
X51708438Y-115614054D02*
X51801295Y-115583102D01*
X51801295Y-115583102D02*
X51863199Y-115583102D01*
X51863199Y-115583102D02*
X51956057Y-115614054D01*
X51956057Y-115614054D02*
X51987009Y-115645007D01*
X52265580Y-116233102D02*
X52265580Y-115583102D01*
X52265580Y-115830721D02*
X52327485Y-115799769D01*
X52327485Y-115799769D02*
X52451295Y-115799769D01*
X52451295Y-115799769D02*
X52513199Y-115830721D01*
X52513199Y-115830721D02*
X52544152Y-115861673D01*
X52544152Y-115861673D02*
X52575104Y-115923578D01*
X52575104Y-115923578D02*
X52575104Y-116109292D01*
X52575104Y-116109292D02*
X52544152Y-116171197D01*
X52544152Y-116171197D02*
X52513199Y-116202150D01*
X52513199Y-116202150D02*
X52451295Y-116233102D01*
X52451295Y-116233102D02*
X52327485Y-116233102D01*
X52327485Y-116233102D02*
X52265580Y-116202150D01*
X52946533Y-116233102D02*
X52884628Y-116202150D01*
X52884628Y-116202150D02*
X52853675Y-116171197D01*
X52853675Y-116171197D02*
X52822723Y-116109292D01*
X52822723Y-116109292D02*
X52822723Y-115923578D01*
X52822723Y-115923578D02*
X52853675Y-115861673D01*
X52853675Y-115861673D02*
X52884628Y-115830721D01*
X52884628Y-115830721D02*
X52946533Y-115799769D01*
X52946533Y-115799769D02*
X53039390Y-115799769D01*
X53039390Y-115799769D02*
X53101294Y-115830721D01*
X53101294Y-115830721D02*
X53132247Y-115861673D01*
X53132247Y-115861673D02*
X53163199Y-115923578D01*
X53163199Y-115923578D02*
X53163199Y-116109292D01*
X53163199Y-116109292D02*
X53132247Y-116171197D01*
X53132247Y-116171197D02*
X53101294Y-116202150D01*
X53101294Y-116202150D02*
X53039390Y-116233102D01*
X53039390Y-116233102D02*
X52946533Y-116233102D01*
X53534628Y-116233102D02*
X53472723Y-116202150D01*
X53472723Y-116202150D02*
X53441770Y-116171197D01*
X53441770Y-116171197D02*
X53410818Y-116109292D01*
X53410818Y-116109292D02*
X53410818Y-115923578D01*
X53410818Y-115923578D02*
X53441770Y-115861673D01*
X53441770Y-115861673D02*
X53472723Y-115830721D01*
X53472723Y-115830721D02*
X53534628Y-115799769D01*
X53534628Y-115799769D02*
X53627485Y-115799769D01*
X53627485Y-115799769D02*
X53689389Y-115830721D01*
X53689389Y-115830721D02*
X53720342Y-115861673D01*
X53720342Y-115861673D02*
X53751294Y-115923578D01*
X53751294Y-115923578D02*
X53751294Y-116109292D01*
X53751294Y-116109292D02*
X53720342Y-116171197D01*
X53720342Y-116171197D02*
X53689389Y-116202150D01*
X53689389Y-116202150D02*
X53627485Y-116233102D01*
X53627485Y-116233102D02*
X53534628Y-116233102D01*
X53937008Y-115799769D02*
X54184627Y-115799769D01*
X54029865Y-115583102D02*
X54029865Y-116140245D01*
X54029865Y-116140245D02*
X54060818Y-116202150D01*
X54060818Y-116202150D02*
X54122723Y-116233102D01*
X54122723Y-116233102D02*
X54184627Y-116233102D01*
X54741771Y-116233102D02*
X54370342Y-116233102D01*
X54556056Y-116233102D02*
X54556056Y-115583102D01*
X54556056Y-115583102D02*
X54494152Y-115675959D01*
X54494152Y-115675959D02*
X54432247Y-115737864D01*
X54432247Y-115737864D02*
X54370342Y-115768816D01*
X36964286Y-122390997D02*
X36933334Y-122421950D01*
X36933334Y-122421950D02*
X36840476Y-122452902D01*
X36840476Y-122452902D02*
X36778572Y-122452902D01*
X36778572Y-122452902D02*
X36685715Y-122421950D01*
X36685715Y-122421950D02*
X36623810Y-122360045D01*
X36623810Y-122360045D02*
X36592857Y-122298140D01*
X36592857Y-122298140D02*
X36561905Y-122174330D01*
X36561905Y-122174330D02*
X36561905Y-122081473D01*
X36561905Y-122081473D02*
X36592857Y-121957664D01*
X36592857Y-121957664D02*
X36623810Y-121895759D01*
X36623810Y-121895759D02*
X36685715Y-121833854D01*
X36685715Y-121833854D02*
X36778572Y-121802902D01*
X36778572Y-121802902D02*
X36840476Y-121802902D01*
X36840476Y-121802902D02*
X36933334Y-121833854D01*
X36933334Y-121833854D02*
X36964286Y-121864807D01*
X37088096Y-122514807D02*
X37583334Y-122514807D01*
X37645238Y-121802902D02*
X37861905Y-122452902D01*
X37861905Y-122452902D02*
X38078572Y-121802902D01*
X38573810Y-122019569D02*
X38573810Y-122452902D01*
X38295238Y-122019569D02*
X38295238Y-122360045D01*
X38295238Y-122360045D02*
X38326191Y-122421950D01*
X38326191Y-122421950D02*
X38388096Y-122452902D01*
X38388096Y-122452902D02*
X38480953Y-122452902D01*
X38480953Y-122452902D02*
X38542857Y-122421950D01*
X38542857Y-122421950D02*
X38573810Y-122390997D01*
X38852381Y-122421950D02*
X38914286Y-122452902D01*
X38914286Y-122452902D02*
X39038095Y-122452902D01*
X39038095Y-122452902D02*
X39100000Y-122421950D01*
X39100000Y-122421950D02*
X39130952Y-122360045D01*
X39130952Y-122360045D02*
X39130952Y-122329092D01*
X39130952Y-122329092D02*
X39100000Y-122267188D01*
X39100000Y-122267188D02*
X39038095Y-122236235D01*
X39038095Y-122236235D02*
X38945238Y-122236235D01*
X38945238Y-122236235D02*
X38883333Y-122205283D01*
X38883333Y-122205283D02*
X38852381Y-122143378D01*
X38852381Y-122143378D02*
X38852381Y-122112426D01*
X38852381Y-122112426D02*
X38883333Y-122050521D01*
X38883333Y-122050521D02*
X38945238Y-122019569D01*
X38945238Y-122019569D02*
X39038095Y-122019569D01*
X39038095Y-122019569D02*
X39100000Y-122050521D01*
X39409523Y-122452902D02*
X39409523Y-121802902D01*
X39409523Y-122050521D02*
X39471428Y-122019569D01*
X39471428Y-122019569D02*
X39595238Y-122019569D01*
X39595238Y-122019569D02*
X39657142Y-122050521D01*
X39657142Y-122050521D02*
X39688095Y-122081473D01*
X39688095Y-122081473D02*
X39719047Y-122143378D01*
X39719047Y-122143378D02*
X39719047Y-122329092D01*
X39719047Y-122329092D02*
X39688095Y-122390997D01*
X39688095Y-122390997D02*
X39657142Y-122421950D01*
X39657142Y-122421950D02*
X39595238Y-122452902D01*
X39595238Y-122452902D02*
X39471428Y-122452902D01*
X39471428Y-122452902D02*
X39409523Y-122421950D01*
X40338095Y-122452902D02*
X39966666Y-122452902D01*
X40152380Y-122452902D02*
X40152380Y-121802902D01*
X40152380Y-121802902D02*
X40090476Y-121895759D01*
X40090476Y-121895759D02*
X40028571Y-121957664D01*
X40028571Y-121957664D02*
X39966666Y-121988616D01*
X52147095Y-119981219D02*
X52147095Y-120790742D01*
X52147095Y-120790742D02*
X52194714Y-120885980D01*
X52194714Y-120885980D02*
X52242333Y-120933600D01*
X52242333Y-120933600D02*
X52337571Y-120981219D01*
X52337571Y-120981219D02*
X52528047Y-120981219D01*
X52528047Y-120981219D02*
X52623285Y-120933600D01*
X52623285Y-120933600D02*
X52670904Y-120885980D01*
X52670904Y-120885980D02*
X52718523Y-120790742D01*
X52718523Y-120790742D02*
X52718523Y-119981219D01*
X53623285Y-120314552D02*
X53623285Y-120981219D01*
X53385190Y-119933600D02*
X53147095Y-120647885D01*
X53147095Y-120647885D02*
X53766142Y-120647885D01*
X37594999Y-113029164D02*
X37344999Y-112672021D01*
X37166428Y-113029164D02*
X37166428Y-112279164D01*
X37166428Y-112279164D02*
X37452142Y-112279164D01*
X37452142Y-112279164D02*
X37523571Y-112314878D01*
X37523571Y-112314878D02*
X37559285Y-112350592D01*
X37559285Y-112350592D02*
X37594999Y-112422021D01*
X37594999Y-112422021D02*
X37594999Y-112529164D01*
X37594999Y-112529164D02*
X37559285Y-112600592D01*
X37559285Y-112600592D02*
X37523571Y-112636307D01*
X37523571Y-112636307D02*
X37452142Y-112672021D01*
X37452142Y-112672021D02*
X37166428Y-112672021D01*
X37844999Y-112279164D02*
X38309285Y-112279164D01*
X38309285Y-112279164D02*
X38059285Y-112564878D01*
X38059285Y-112564878D02*
X38166428Y-112564878D01*
X38166428Y-112564878D02*
X38237857Y-112600592D01*
X38237857Y-112600592D02*
X38273571Y-112636307D01*
X38273571Y-112636307D02*
X38309285Y-112707735D01*
X38309285Y-112707735D02*
X38309285Y-112886307D01*
X38309285Y-112886307D02*
X38273571Y-112957735D01*
X38273571Y-112957735D02*
X38237857Y-112993450D01*
X38237857Y-112993450D02*
X38166428Y-113029164D01*
X38166428Y-113029164D02*
X37952142Y-113029164D01*
X37952142Y-113029164D02*
X37880714Y-112993450D01*
X37880714Y-112993450D02*
X37844999Y-112957735D01*
X73519999Y-115369164D02*
X73269999Y-115012021D01*
X73091428Y-115369164D02*
X73091428Y-114619164D01*
X73091428Y-114619164D02*
X73377142Y-114619164D01*
X73377142Y-114619164D02*
X73448571Y-114654878D01*
X73448571Y-114654878D02*
X73484285Y-114690592D01*
X73484285Y-114690592D02*
X73519999Y-114762021D01*
X73519999Y-114762021D02*
X73519999Y-114869164D01*
X73519999Y-114869164D02*
X73484285Y-114940592D01*
X73484285Y-114940592D02*
X73448571Y-114976307D01*
X73448571Y-114976307D02*
X73377142Y-115012021D01*
X73377142Y-115012021D02*
X73091428Y-115012021D01*
X74234285Y-115369164D02*
X73805714Y-115369164D01*
X74019999Y-115369164D02*
X74019999Y-114619164D01*
X74019999Y-114619164D02*
X73948571Y-114726307D01*
X73948571Y-114726307D02*
X73877142Y-114797735D01*
X73877142Y-114797735D02*
X73805714Y-114833450D01*
X74337499Y-119669164D02*
X74087499Y-119312021D01*
X73908928Y-119669164D02*
X73908928Y-118919164D01*
X73908928Y-118919164D02*
X74194642Y-118919164D01*
X74194642Y-118919164D02*
X74266071Y-118954878D01*
X74266071Y-118954878D02*
X74301785Y-118990592D01*
X74301785Y-118990592D02*
X74337499Y-119062021D01*
X74337499Y-119062021D02*
X74337499Y-119169164D01*
X74337499Y-119169164D02*
X74301785Y-119240592D01*
X74301785Y-119240592D02*
X74266071Y-119276307D01*
X74266071Y-119276307D02*
X74194642Y-119312021D01*
X74194642Y-119312021D02*
X73908928Y-119312021D01*
X74623214Y-118990592D02*
X74658928Y-118954878D01*
X74658928Y-118954878D02*
X74730357Y-118919164D01*
X74730357Y-118919164D02*
X74908928Y-118919164D01*
X74908928Y-118919164D02*
X74980357Y-118954878D01*
X74980357Y-118954878D02*
X75016071Y-118990592D01*
X75016071Y-118990592D02*
X75051785Y-119062021D01*
X75051785Y-119062021D02*
X75051785Y-119133450D01*
X75051785Y-119133450D02*
X75016071Y-119240592D01*
X75016071Y-119240592D02*
X74587499Y-119669164D01*
X74587499Y-119669164D02*
X75051785Y-119669164D01*
X50817857Y-108430997D02*
X50786905Y-108461950D01*
X50786905Y-108461950D02*
X50694047Y-108492902D01*
X50694047Y-108492902D02*
X50632143Y-108492902D01*
X50632143Y-108492902D02*
X50539286Y-108461950D01*
X50539286Y-108461950D02*
X50477381Y-108400045D01*
X50477381Y-108400045D02*
X50446428Y-108338140D01*
X50446428Y-108338140D02*
X50415476Y-108214330D01*
X50415476Y-108214330D02*
X50415476Y-108121473D01*
X50415476Y-108121473D02*
X50446428Y-107997664D01*
X50446428Y-107997664D02*
X50477381Y-107935759D01*
X50477381Y-107935759D02*
X50539286Y-107873854D01*
X50539286Y-107873854D02*
X50632143Y-107842902D01*
X50632143Y-107842902D02*
X50694047Y-107842902D01*
X50694047Y-107842902D02*
X50786905Y-107873854D01*
X50786905Y-107873854D02*
X50817857Y-107904807D01*
X51096428Y-108492902D02*
X51096428Y-107842902D01*
X51096428Y-108090521D02*
X51158333Y-108059569D01*
X51158333Y-108059569D02*
X51282143Y-108059569D01*
X51282143Y-108059569D02*
X51344047Y-108090521D01*
X51344047Y-108090521D02*
X51375000Y-108121473D01*
X51375000Y-108121473D02*
X51405952Y-108183378D01*
X51405952Y-108183378D02*
X51405952Y-108369092D01*
X51405952Y-108369092D02*
X51375000Y-108430997D01*
X51375000Y-108430997D02*
X51344047Y-108461950D01*
X51344047Y-108461950D02*
X51282143Y-108492902D01*
X51282143Y-108492902D02*
X51158333Y-108492902D01*
X51158333Y-108492902D02*
X51096428Y-108461950D01*
X51963095Y-108492902D02*
X51963095Y-108152426D01*
X51963095Y-108152426D02*
X51932142Y-108090521D01*
X51932142Y-108090521D02*
X51870238Y-108059569D01*
X51870238Y-108059569D02*
X51746428Y-108059569D01*
X51746428Y-108059569D02*
X51684523Y-108090521D01*
X51963095Y-108461950D02*
X51901190Y-108492902D01*
X51901190Y-108492902D02*
X51746428Y-108492902D01*
X51746428Y-108492902D02*
X51684523Y-108461950D01*
X51684523Y-108461950D02*
X51653571Y-108400045D01*
X51653571Y-108400045D02*
X51653571Y-108338140D01*
X51653571Y-108338140D02*
X51684523Y-108276235D01*
X51684523Y-108276235D02*
X51746428Y-108245283D01*
X51746428Y-108245283D02*
X51901190Y-108245283D01*
X51901190Y-108245283D02*
X51963095Y-108214330D01*
X52179761Y-108059569D02*
X52427380Y-108059569D01*
X52272618Y-107842902D02*
X52272618Y-108400045D01*
X52272618Y-108400045D02*
X52303571Y-108461950D01*
X52303571Y-108461950D02*
X52365476Y-108492902D01*
X52365476Y-108492902D02*
X52427380Y-108492902D01*
X52984524Y-108492902D02*
X52613095Y-108492902D01*
X52798809Y-108492902D02*
X52798809Y-107842902D01*
X52798809Y-107842902D02*
X52736905Y-107935759D01*
X52736905Y-107935759D02*
X52675000Y-107997664D01*
X52675000Y-107997664D02*
X52613095Y-108028616D01*
D13*
X73687619Y-91394318D02*
X74110952Y-92664318D01*
X74110952Y-92664318D02*
X74534286Y-91394318D01*
X75199523Y-91394318D02*
X75441428Y-91394318D01*
X75441428Y-91394318D02*
X75562380Y-91454794D01*
X75562380Y-91454794D02*
X75683333Y-91575746D01*
X75683333Y-91575746D02*
X75743809Y-91817651D01*
X75743809Y-91817651D02*
X75743809Y-92240984D01*
X75743809Y-92240984D02*
X75683333Y-92482889D01*
X75683333Y-92482889D02*
X75562380Y-92603842D01*
X75562380Y-92603842D02*
X75441428Y-92664318D01*
X75441428Y-92664318D02*
X75199523Y-92664318D01*
X75199523Y-92664318D02*
X75078571Y-92603842D01*
X75078571Y-92603842D02*
X74957618Y-92482889D01*
X74957618Y-92482889D02*
X74897142Y-92240984D01*
X74897142Y-92240984D02*
X74897142Y-91817651D01*
X74897142Y-91817651D02*
X74957618Y-91575746D01*
X74957618Y-91575746D02*
X75078571Y-91454794D01*
X75078571Y-91454794D02*
X75199523Y-91394318D01*
X76288094Y-91394318D02*
X76288094Y-92422413D01*
X76288094Y-92422413D02*
X76348571Y-92543365D01*
X76348571Y-92543365D02*
X76409047Y-92603842D01*
X76409047Y-92603842D02*
X76529999Y-92664318D01*
X76529999Y-92664318D02*
X76771904Y-92664318D01*
X76771904Y-92664318D02*
X76892856Y-92603842D01*
X76892856Y-92603842D02*
X76953333Y-92543365D01*
X76953333Y-92543365D02*
X77013809Y-92422413D01*
X77013809Y-92422413D02*
X77013809Y-91394318D01*
X77437142Y-91394318D02*
X78162856Y-91394318D01*
X77799999Y-92664318D02*
X77799999Y-91394318D01*
X79251428Y-92664318D02*
X78525713Y-92664318D01*
X78888570Y-92664318D02*
X78888570Y-91394318D01*
X78888570Y-91394318D02*
X78767618Y-91575746D01*
X78767618Y-91575746D02*
X78646666Y-91696699D01*
X78646666Y-91696699D02*
X78525713Y-91757175D01*
D10*
X75707499Y-120349164D02*
X75457499Y-119992021D01*
X75278928Y-120349164D02*
X75278928Y-119599164D01*
X75278928Y-119599164D02*
X75564642Y-119599164D01*
X75564642Y-119599164D02*
X75636071Y-119634878D01*
X75636071Y-119634878D02*
X75671785Y-119670592D01*
X75671785Y-119670592D02*
X75707499Y-119742021D01*
X75707499Y-119742021D02*
X75707499Y-119849164D01*
X75707499Y-119849164D02*
X75671785Y-119920592D01*
X75671785Y-119920592D02*
X75636071Y-119956307D01*
X75636071Y-119956307D02*
X75564642Y-119992021D01*
X75564642Y-119992021D02*
X75278928Y-119992021D01*
X75957499Y-119599164D02*
X76457499Y-119599164D01*
X76457499Y-119599164D02*
X76136071Y-120349164D01*
X83939411Y-101939819D02*
X83939411Y-102749342D01*
X83939411Y-102749342D02*
X83987030Y-102844580D01*
X83987030Y-102844580D02*
X84034649Y-102892200D01*
X84034649Y-102892200D02*
X84129887Y-102939819D01*
X84129887Y-102939819D02*
X84320363Y-102939819D01*
X84320363Y-102939819D02*
X84415601Y-102892200D01*
X84415601Y-102892200D02*
X84463220Y-102844580D01*
X84463220Y-102844580D02*
X84510839Y-102749342D01*
X84510839Y-102749342D02*
X84510839Y-101939819D01*
X84891792Y-101939819D02*
X85510839Y-101939819D01*
X85510839Y-101939819D02*
X85177506Y-102320771D01*
X85177506Y-102320771D02*
X85320363Y-102320771D01*
X85320363Y-102320771D02*
X85415601Y-102368390D01*
X85415601Y-102368390D02*
X85463220Y-102416009D01*
X85463220Y-102416009D02*
X85510839Y-102511247D01*
X85510839Y-102511247D02*
X85510839Y-102749342D01*
X85510839Y-102749342D02*
X85463220Y-102844580D01*
X85463220Y-102844580D02*
X85415601Y-102892200D01*
X85415601Y-102892200D02*
X85320363Y-102939819D01*
X85320363Y-102939819D02*
X85034649Y-102939819D01*
X85034649Y-102939819D02*
X84939411Y-102892200D01*
X84939411Y-102892200D02*
X84891792Y-102844580D01*
X57042856Y-133864164D02*
X56792856Y-133507021D01*
X56614285Y-133864164D02*
X56614285Y-133114164D01*
X56614285Y-133114164D02*
X56899999Y-133114164D01*
X56899999Y-133114164D02*
X56971428Y-133149878D01*
X56971428Y-133149878D02*
X57007142Y-133185592D01*
X57007142Y-133185592D02*
X57042856Y-133257021D01*
X57042856Y-133257021D02*
X57042856Y-133364164D01*
X57042856Y-133364164D02*
X57007142Y-133435592D01*
X57007142Y-133435592D02*
X56971428Y-133471307D01*
X56971428Y-133471307D02*
X56899999Y-133507021D01*
X56899999Y-133507021D02*
X56614285Y-133507021D01*
X57757142Y-133864164D02*
X57328571Y-133864164D01*
X57542856Y-133864164D02*
X57542856Y-133114164D01*
X57542856Y-133114164D02*
X57471428Y-133221307D01*
X57471428Y-133221307D02*
X57399999Y-133292735D01*
X57399999Y-133292735D02*
X57328571Y-133328450D01*
X58114285Y-133864164D02*
X58257142Y-133864164D01*
X58257142Y-133864164D02*
X58328571Y-133828450D01*
X58328571Y-133828450D02*
X58364285Y-133792735D01*
X58364285Y-133792735D02*
X58435714Y-133685592D01*
X58435714Y-133685592D02*
X58471428Y-133542735D01*
X58471428Y-133542735D02*
X58471428Y-133257021D01*
X58471428Y-133257021D02*
X58435714Y-133185592D01*
X58435714Y-133185592D02*
X58400000Y-133149878D01*
X58400000Y-133149878D02*
X58328571Y-133114164D01*
X58328571Y-133114164D02*
X58185714Y-133114164D01*
X58185714Y-133114164D02*
X58114285Y-133149878D01*
X58114285Y-133149878D02*
X58078571Y-133185592D01*
X58078571Y-133185592D02*
X58042857Y-133257021D01*
X58042857Y-133257021D02*
X58042857Y-133435592D01*
X58042857Y-133435592D02*
X58078571Y-133507021D01*
X58078571Y-133507021D02*
X58114285Y-133542735D01*
X58114285Y-133542735D02*
X58185714Y-133578450D01*
X58185714Y-133578450D02*
X58328571Y-133578450D01*
X58328571Y-133578450D02*
X58400000Y-133542735D01*
X58400000Y-133542735D02*
X58435714Y-133507021D01*
X58435714Y-133507021D02*
X58471428Y-133435592D01*
D13*
X33132381Y-130383842D02*
X33313810Y-130444318D01*
X33313810Y-130444318D02*
X33616191Y-130444318D01*
X33616191Y-130444318D02*
X33737143Y-130383842D01*
X33737143Y-130383842D02*
X33797619Y-130323365D01*
X33797619Y-130323365D02*
X33858096Y-130202413D01*
X33858096Y-130202413D02*
X33858096Y-130081461D01*
X33858096Y-130081461D02*
X33797619Y-129960508D01*
X33797619Y-129960508D02*
X33737143Y-129900032D01*
X33737143Y-129900032D02*
X33616191Y-129839556D01*
X33616191Y-129839556D02*
X33374286Y-129779080D01*
X33374286Y-129779080D02*
X33253334Y-129718603D01*
X33253334Y-129718603D02*
X33192857Y-129658127D01*
X33192857Y-129658127D02*
X33132381Y-129537175D01*
X33132381Y-129537175D02*
X33132381Y-129416222D01*
X33132381Y-129416222D02*
X33192857Y-129295270D01*
X33192857Y-129295270D02*
X33253334Y-129234794D01*
X33253334Y-129234794D02*
X33374286Y-129174318D01*
X33374286Y-129174318D02*
X33676667Y-129174318D01*
X33676667Y-129174318D02*
X33858096Y-129234794D01*
X34644286Y-129174318D02*
X34886191Y-129174318D01*
X34886191Y-129174318D02*
X35007143Y-129234794D01*
X35007143Y-129234794D02*
X35128096Y-129355746D01*
X35128096Y-129355746D02*
X35188572Y-129597651D01*
X35188572Y-129597651D02*
X35188572Y-130020984D01*
X35188572Y-130020984D02*
X35128096Y-130262889D01*
X35128096Y-130262889D02*
X35007143Y-130383842D01*
X35007143Y-130383842D02*
X34886191Y-130444318D01*
X34886191Y-130444318D02*
X34644286Y-130444318D01*
X34644286Y-130444318D02*
X34523334Y-130383842D01*
X34523334Y-130383842D02*
X34402381Y-130262889D01*
X34402381Y-130262889D02*
X34341905Y-130020984D01*
X34341905Y-130020984D02*
X34341905Y-129597651D01*
X34341905Y-129597651D02*
X34402381Y-129355746D01*
X34402381Y-129355746D02*
X34523334Y-129234794D01*
X34523334Y-129234794D02*
X34644286Y-129174318D01*
X36337619Y-130444318D02*
X35732857Y-130444318D01*
X35732857Y-130444318D02*
X35732857Y-129174318D01*
X36700476Y-130081461D02*
X37305238Y-130081461D01*
X36579524Y-130444318D02*
X37002857Y-129174318D01*
X37002857Y-129174318D02*
X37426191Y-130444318D01*
X38575238Y-130444318D02*
X38151904Y-129839556D01*
X37849523Y-130444318D02*
X37849523Y-129174318D01*
X37849523Y-129174318D02*
X38333333Y-129174318D01*
X38333333Y-129174318D02*
X38454285Y-129234794D01*
X38454285Y-129234794D02*
X38514762Y-129295270D01*
X38514762Y-129295270D02*
X38575238Y-129416222D01*
X38575238Y-129416222D02*
X38575238Y-129597651D01*
X38575238Y-129597651D02*
X38514762Y-129718603D01*
X38514762Y-129718603D02*
X38454285Y-129779080D01*
X38454285Y-129779080D02*
X38333333Y-129839556D01*
X38333333Y-129839556D02*
X37849523Y-129839556D01*
X38817143Y-130565270D02*
X39784762Y-130565270D01*
X40812857Y-130323365D02*
X40752381Y-130383842D01*
X40752381Y-130383842D02*
X40570952Y-130444318D01*
X40570952Y-130444318D02*
X40450000Y-130444318D01*
X40450000Y-130444318D02*
X40268571Y-130383842D01*
X40268571Y-130383842D02*
X40147619Y-130262889D01*
X40147619Y-130262889D02*
X40087142Y-130141937D01*
X40087142Y-130141937D02*
X40026666Y-129900032D01*
X40026666Y-129900032D02*
X40026666Y-129718603D01*
X40026666Y-129718603D02*
X40087142Y-129476699D01*
X40087142Y-129476699D02*
X40147619Y-129355746D01*
X40147619Y-129355746D02*
X40268571Y-129234794D01*
X40268571Y-129234794D02*
X40450000Y-129174318D01*
X40450000Y-129174318D02*
X40570952Y-129174318D01*
X40570952Y-129174318D02*
X40752381Y-129234794D01*
X40752381Y-129234794D02*
X40812857Y-129295270D01*
X41357142Y-129779080D02*
X41780476Y-129779080D01*
X41961904Y-130444318D02*
X41357142Y-130444318D01*
X41357142Y-130444318D02*
X41357142Y-129174318D01*
X41357142Y-129174318D02*
X41961904Y-129174318D01*
X43110952Y-130444318D02*
X42506190Y-130444318D01*
X42506190Y-130444318D02*
X42506190Y-129174318D01*
X44139047Y-130444318D02*
X43534285Y-130444318D01*
X43534285Y-130444318D02*
X43534285Y-129174318D01*
X45227619Y-130444318D02*
X44501904Y-130444318D01*
X44864761Y-130444318D02*
X44864761Y-129174318D01*
X44864761Y-129174318D02*
X44743809Y-129355746D01*
X44743809Y-129355746D02*
X44622857Y-129476699D01*
X44622857Y-129476699D02*
X44501904Y-129537175D01*
D10*
X73051904Y-100384580D02*
X73004285Y-100432200D01*
X73004285Y-100432200D02*
X72861428Y-100479819D01*
X72861428Y-100479819D02*
X72766190Y-100479819D01*
X72766190Y-100479819D02*
X72623333Y-100432200D01*
X72623333Y-100432200D02*
X72528095Y-100336961D01*
X72528095Y-100336961D02*
X72480476Y-100241723D01*
X72480476Y-100241723D02*
X72432857Y-100051247D01*
X72432857Y-100051247D02*
X72432857Y-99908390D01*
X72432857Y-99908390D02*
X72480476Y-99717914D01*
X72480476Y-99717914D02*
X72528095Y-99622676D01*
X72528095Y-99622676D02*
X72623333Y-99527438D01*
X72623333Y-99527438D02*
X72766190Y-99479819D01*
X72766190Y-99479819D02*
X72861428Y-99479819D01*
X72861428Y-99479819D02*
X73004285Y-99527438D01*
X73004285Y-99527438D02*
X73051904Y-99575057D01*
X73385238Y-99813152D02*
X73623333Y-100479819D01*
X73623333Y-100479819D02*
X73861428Y-99813152D01*
X74194762Y-100432200D02*
X74290000Y-100479819D01*
X74290000Y-100479819D02*
X74480476Y-100479819D01*
X74480476Y-100479819D02*
X74575714Y-100432200D01*
X74575714Y-100432200D02*
X74623333Y-100336961D01*
X74623333Y-100336961D02*
X74623333Y-100289342D01*
X74623333Y-100289342D02*
X74575714Y-100194104D01*
X74575714Y-100194104D02*
X74480476Y-100146485D01*
X74480476Y-100146485D02*
X74337619Y-100146485D01*
X74337619Y-100146485D02*
X74242381Y-100098866D01*
X74242381Y-100098866D02*
X74194762Y-100003628D01*
X74194762Y-100003628D02*
X74194762Y-99956009D01*
X74194762Y-99956009D02*
X74242381Y-99860771D01*
X74242381Y-99860771D02*
X74337619Y-99813152D01*
X74337619Y-99813152D02*
X74480476Y-99813152D01*
X74480476Y-99813152D02*
X74575714Y-99860771D01*
X74956667Y-99813152D02*
X75194762Y-100479819D01*
X75432857Y-99813152D02*
X75194762Y-100479819D01*
X75194762Y-100479819D02*
X75099524Y-100717914D01*
X75099524Y-100717914D02*
X75051905Y-100765533D01*
X75051905Y-100765533D02*
X74956667Y-100813152D01*
X75766191Y-100432200D02*
X75861429Y-100479819D01*
X75861429Y-100479819D02*
X76051905Y-100479819D01*
X76051905Y-100479819D02*
X76147143Y-100432200D01*
X76147143Y-100432200D02*
X76194762Y-100336961D01*
X76194762Y-100336961D02*
X76194762Y-100289342D01*
X76194762Y-100289342D02*
X76147143Y-100194104D01*
X76147143Y-100194104D02*
X76051905Y-100146485D01*
X76051905Y-100146485D02*
X75909048Y-100146485D01*
X75909048Y-100146485D02*
X75813810Y-100098866D01*
X75813810Y-100098866D02*
X75766191Y-100003628D01*
X75766191Y-100003628D02*
X75766191Y-99956009D01*
X75766191Y-99956009D02*
X75813810Y-99860771D01*
X75813810Y-99860771D02*
X75909048Y-99813152D01*
X75909048Y-99813152D02*
X76051905Y-99813152D01*
X76051905Y-99813152D02*
X76147143Y-99860771D01*
X77147143Y-100479819D02*
X76575715Y-100479819D01*
X76861429Y-100479819D02*
X76861429Y-99479819D01*
X76861429Y-99479819D02*
X76766191Y-99622676D01*
X76766191Y-99622676D02*
X76670953Y-99717914D01*
X76670953Y-99717914D02*
X76575715Y-99765533D01*
X41364761Y-122800057D02*
X41269523Y-122752438D01*
X41269523Y-122752438D02*
X41174285Y-122657200D01*
X41174285Y-122657200D02*
X41031428Y-122514342D01*
X41031428Y-122514342D02*
X40936190Y-122466723D01*
X40936190Y-122466723D02*
X40840952Y-122466723D01*
X40888571Y-122704819D02*
X40793333Y-122657200D01*
X40793333Y-122657200D02*
X40698095Y-122561961D01*
X40698095Y-122561961D02*
X40650476Y-122371485D01*
X40650476Y-122371485D02*
X40650476Y-122038152D01*
X40650476Y-122038152D02*
X40698095Y-121847676D01*
X40698095Y-121847676D02*
X40793333Y-121752438D01*
X40793333Y-121752438D02*
X40888571Y-121704819D01*
X40888571Y-121704819D02*
X41079047Y-121704819D01*
X41079047Y-121704819D02*
X41174285Y-121752438D01*
X41174285Y-121752438D02*
X41269523Y-121847676D01*
X41269523Y-121847676D02*
X41317142Y-122038152D01*
X41317142Y-122038152D02*
X41317142Y-122371485D01*
X41317142Y-122371485D02*
X41269523Y-122561961D01*
X41269523Y-122561961D02*
X41174285Y-122657200D01*
X41174285Y-122657200D02*
X41079047Y-122704819D01*
X41079047Y-122704819D02*
X40888571Y-122704819D01*
X41650476Y-121704819D02*
X42269523Y-121704819D01*
X42269523Y-121704819D02*
X41936190Y-122085771D01*
X41936190Y-122085771D02*
X42079047Y-122085771D01*
X42079047Y-122085771D02*
X42174285Y-122133390D01*
X42174285Y-122133390D02*
X42221904Y-122181009D01*
X42221904Y-122181009D02*
X42269523Y-122276247D01*
X42269523Y-122276247D02*
X42269523Y-122514342D01*
X42269523Y-122514342D02*
X42221904Y-122609580D01*
X42221904Y-122609580D02*
X42174285Y-122657200D01*
X42174285Y-122657200D02*
X42079047Y-122704819D01*
X42079047Y-122704819D02*
X41793333Y-122704819D01*
X41793333Y-122704819D02*
X41698095Y-122657200D01*
X41698095Y-122657200D02*
X41650476Y-122609580D01*
X77634524Y-109965997D02*
X77603572Y-109996950D01*
X77603572Y-109996950D02*
X77510714Y-110027902D01*
X77510714Y-110027902D02*
X77448810Y-110027902D01*
X77448810Y-110027902D02*
X77355953Y-109996950D01*
X77355953Y-109996950D02*
X77294048Y-109935045D01*
X77294048Y-109935045D02*
X77263095Y-109873140D01*
X77263095Y-109873140D02*
X77232143Y-109749330D01*
X77232143Y-109749330D02*
X77232143Y-109656473D01*
X77232143Y-109656473D02*
X77263095Y-109532664D01*
X77263095Y-109532664D02*
X77294048Y-109470759D01*
X77294048Y-109470759D02*
X77355953Y-109408854D01*
X77355953Y-109408854D02*
X77448810Y-109377902D01*
X77448810Y-109377902D02*
X77510714Y-109377902D01*
X77510714Y-109377902D02*
X77603572Y-109408854D01*
X77603572Y-109408854D02*
X77634524Y-109439807D01*
X78005953Y-110027902D02*
X77944048Y-109996950D01*
X77944048Y-109996950D02*
X77913095Y-109935045D01*
X77913095Y-109935045D02*
X77913095Y-109377902D01*
X78532143Y-110027902D02*
X78532143Y-109377902D01*
X78532143Y-109996950D02*
X78470238Y-110027902D01*
X78470238Y-110027902D02*
X78346429Y-110027902D01*
X78346429Y-110027902D02*
X78284524Y-109996950D01*
X78284524Y-109996950D02*
X78253571Y-109965997D01*
X78253571Y-109965997D02*
X78222619Y-109904092D01*
X78222619Y-109904092D02*
X78222619Y-109718378D01*
X78222619Y-109718378D02*
X78253571Y-109656473D01*
X78253571Y-109656473D02*
X78284524Y-109625521D01*
X78284524Y-109625521D02*
X78346429Y-109594569D01*
X78346429Y-109594569D02*
X78470238Y-109594569D01*
X78470238Y-109594569D02*
X78532143Y-109625521D01*
X78934524Y-110027902D02*
X78872619Y-109996950D01*
X78872619Y-109996950D02*
X78841666Y-109965997D01*
X78841666Y-109965997D02*
X78810714Y-109904092D01*
X78810714Y-109904092D02*
X78810714Y-109718378D01*
X78810714Y-109718378D02*
X78841666Y-109656473D01*
X78841666Y-109656473D02*
X78872619Y-109625521D01*
X78872619Y-109625521D02*
X78934524Y-109594569D01*
X78934524Y-109594569D02*
X79027381Y-109594569D01*
X79027381Y-109594569D02*
X79089285Y-109625521D01*
X79089285Y-109625521D02*
X79120238Y-109656473D01*
X79120238Y-109656473D02*
X79151190Y-109718378D01*
X79151190Y-109718378D02*
X79151190Y-109904092D01*
X79151190Y-109904092D02*
X79120238Y-109965997D01*
X79120238Y-109965997D02*
X79089285Y-109996950D01*
X79089285Y-109996950D02*
X79027381Y-110027902D01*
X79027381Y-110027902D02*
X78934524Y-110027902D01*
X79429761Y-110027902D02*
X79429761Y-109594569D01*
X79429761Y-109377902D02*
X79398809Y-109408854D01*
X79398809Y-109408854D02*
X79429761Y-109439807D01*
X79429761Y-109439807D02*
X79460714Y-109408854D01*
X79460714Y-109408854D02*
X79429761Y-109377902D01*
X79429761Y-109377902D02*
X79429761Y-109439807D01*
X79739285Y-109594569D02*
X79739285Y-110027902D01*
X79739285Y-109656473D02*
X79770238Y-109625521D01*
X79770238Y-109625521D02*
X79832143Y-109594569D01*
X79832143Y-109594569D02*
X79925000Y-109594569D01*
X79925000Y-109594569D02*
X79986904Y-109625521D01*
X79986904Y-109625521D02*
X80017857Y-109687426D01*
X80017857Y-109687426D02*
X80017857Y-110027902D01*
X80667857Y-110027902D02*
X80296428Y-110027902D01*
X80482142Y-110027902D02*
X80482142Y-109377902D01*
X80482142Y-109377902D02*
X80420238Y-109470759D01*
X80420238Y-109470759D02*
X80358333Y-109532664D01*
X80358333Y-109532664D02*
X80296428Y-109563616D01*
X53548095Y-102654819D02*
X53548095Y-103464342D01*
X53548095Y-103464342D02*
X53595714Y-103559580D01*
X53595714Y-103559580D02*
X53643333Y-103607200D01*
X53643333Y-103607200D02*
X53738571Y-103654819D01*
X53738571Y-103654819D02*
X53929047Y-103654819D01*
X53929047Y-103654819D02*
X54024285Y-103607200D01*
X54024285Y-103607200D02*
X54071904Y-103559580D01*
X54071904Y-103559580D02*
X54119523Y-103464342D01*
X54119523Y-103464342D02*
X54119523Y-102654819D01*
X55071904Y-102654819D02*
X54595714Y-102654819D01*
X54595714Y-102654819D02*
X54548095Y-103131009D01*
X54548095Y-103131009D02*
X54595714Y-103083390D01*
X54595714Y-103083390D02*
X54690952Y-103035771D01*
X54690952Y-103035771D02*
X54929047Y-103035771D01*
X54929047Y-103035771D02*
X55024285Y-103083390D01*
X55024285Y-103083390D02*
X55071904Y-103131009D01*
X55071904Y-103131009D02*
X55119523Y-103226247D01*
X55119523Y-103226247D02*
X55119523Y-103464342D01*
X55119523Y-103464342D02*
X55071904Y-103559580D01*
X55071904Y-103559580D02*
X55024285Y-103607200D01*
X55024285Y-103607200D02*
X54929047Y-103654819D01*
X54929047Y-103654819D02*
X54690952Y-103654819D01*
X54690952Y-103654819D02*
X54595714Y-103607200D01*
X54595714Y-103607200D02*
X54548095Y-103559580D01*
X54015476Y-87110997D02*
X53984524Y-87141950D01*
X53984524Y-87141950D02*
X53891666Y-87172902D01*
X53891666Y-87172902D02*
X53829762Y-87172902D01*
X53829762Y-87172902D02*
X53736905Y-87141950D01*
X53736905Y-87141950D02*
X53675000Y-87080045D01*
X53675000Y-87080045D02*
X53644047Y-87018140D01*
X53644047Y-87018140D02*
X53613095Y-86894330D01*
X53613095Y-86894330D02*
X53613095Y-86801473D01*
X53613095Y-86801473D02*
X53644047Y-86677664D01*
X53644047Y-86677664D02*
X53675000Y-86615759D01*
X53675000Y-86615759D02*
X53736905Y-86553854D01*
X53736905Y-86553854D02*
X53829762Y-86522902D01*
X53829762Y-86522902D02*
X53891666Y-86522902D01*
X53891666Y-86522902D02*
X53984524Y-86553854D01*
X53984524Y-86553854D02*
X54015476Y-86584807D01*
X54201190Y-86522902D02*
X54417857Y-87172902D01*
X54417857Y-87172902D02*
X54634524Y-86522902D01*
X55222619Y-87172902D02*
X55005952Y-86863378D01*
X54851190Y-87172902D02*
X54851190Y-86522902D01*
X54851190Y-86522902D02*
X55098809Y-86522902D01*
X55098809Y-86522902D02*
X55160714Y-86553854D01*
X55160714Y-86553854D02*
X55191667Y-86584807D01*
X55191667Y-86584807D02*
X55222619Y-86646711D01*
X55222619Y-86646711D02*
X55222619Y-86739569D01*
X55222619Y-86739569D02*
X55191667Y-86801473D01*
X55191667Y-86801473D02*
X55160714Y-86832426D01*
X55160714Y-86832426D02*
X55098809Y-86863378D01*
X55098809Y-86863378D02*
X54851190Y-86863378D01*
X55501190Y-86832426D02*
X55717857Y-86832426D01*
X55810714Y-87172902D02*
X55501190Y-87172902D01*
X55501190Y-87172902D02*
X55501190Y-86522902D01*
X55501190Y-86522902D02*
X55810714Y-86522902D01*
X56305952Y-86832426D02*
X56089285Y-86832426D01*
X56089285Y-87172902D02*
X56089285Y-86522902D01*
X56089285Y-86522902D02*
X56398809Y-86522902D01*
X56986905Y-87172902D02*
X56615476Y-87172902D01*
X56801190Y-87172902D02*
X56801190Y-86522902D01*
X56801190Y-86522902D02*
X56739286Y-86615759D01*
X56739286Y-86615759D02*
X56677381Y-86677664D01*
X56677381Y-86677664D02*
X56615476Y-86708616D01*
X62928095Y-108214819D02*
X62928095Y-109024342D01*
X62928095Y-109024342D02*
X62975714Y-109119580D01*
X62975714Y-109119580D02*
X63023333Y-109167200D01*
X63023333Y-109167200D02*
X63118571Y-109214819D01*
X63118571Y-109214819D02*
X63309047Y-109214819D01*
X63309047Y-109214819D02*
X63404285Y-109167200D01*
X63404285Y-109167200D02*
X63451904Y-109119580D01*
X63451904Y-109119580D02*
X63499523Y-109024342D01*
X63499523Y-109024342D02*
X63499523Y-108214819D01*
X63928095Y-108310057D02*
X63975714Y-108262438D01*
X63975714Y-108262438D02*
X64070952Y-108214819D01*
X64070952Y-108214819D02*
X64309047Y-108214819D01*
X64309047Y-108214819D02*
X64404285Y-108262438D01*
X64404285Y-108262438D02*
X64451904Y-108310057D01*
X64451904Y-108310057D02*
X64499523Y-108405295D01*
X64499523Y-108405295D02*
X64499523Y-108500533D01*
X64499523Y-108500533D02*
X64451904Y-108643390D01*
X64451904Y-108643390D02*
X63880476Y-109214819D01*
X63880476Y-109214819D02*
X64499523Y-109214819D01*
X72801666Y-116570997D02*
X72770714Y-116601950D01*
X72770714Y-116601950D02*
X72677856Y-116632902D01*
X72677856Y-116632902D02*
X72615952Y-116632902D01*
X72615952Y-116632902D02*
X72523095Y-116601950D01*
X72523095Y-116601950D02*
X72461190Y-116540045D01*
X72461190Y-116540045D02*
X72430237Y-116478140D01*
X72430237Y-116478140D02*
X72399285Y-116354330D01*
X72399285Y-116354330D02*
X72399285Y-116261473D01*
X72399285Y-116261473D02*
X72430237Y-116137664D01*
X72430237Y-116137664D02*
X72461190Y-116075759D01*
X72461190Y-116075759D02*
X72523095Y-116013854D01*
X72523095Y-116013854D02*
X72615952Y-115982902D01*
X72615952Y-115982902D02*
X72677856Y-115982902D01*
X72677856Y-115982902D02*
X72770714Y-116013854D01*
X72770714Y-116013854D02*
X72801666Y-116044807D01*
X73018333Y-115982902D02*
X73420714Y-115982902D01*
X73420714Y-115982902D02*
X73204047Y-116230521D01*
X73204047Y-116230521D02*
X73296904Y-116230521D01*
X73296904Y-116230521D02*
X73358809Y-116261473D01*
X73358809Y-116261473D02*
X73389761Y-116292426D01*
X73389761Y-116292426D02*
X73420714Y-116354330D01*
X73420714Y-116354330D02*
X73420714Y-116509092D01*
X73420714Y-116509092D02*
X73389761Y-116570997D01*
X73389761Y-116570997D02*
X73358809Y-116601950D01*
X73358809Y-116601950D02*
X73296904Y-116632902D01*
X73296904Y-116632902D02*
X73111190Y-116632902D01*
X73111190Y-116632902D02*
X73049285Y-116601950D01*
X73049285Y-116601950D02*
X73018333Y-116570997D01*
X39481905Y-104017319D02*
X39481905Y-103017319D01*
X39481905Y-103017319D02*
X39720000Y-103017319D01*
X39720000Y-103017319D02*
X39862857Y-103064938D01*
X39862857Y-103064938D02*
X39958095Y-103160176D01*
X39958095Y-103160176D02*
X40005714Y-103255414D01*
X40005714Y-103255414D02*
X40053333Y-103445890D01*
X40053333Y-103445890D02*
X40053333Y-103588747D01*
X40053333Y-103588747D02*
X40005714Y-103779223D01*
X40005714Y-103779223D02*
X39958095Y-103874461D01*
X39958095Y-103874461D02*
X39862857Y-103969700D01*
X39862857Y-103969700D02*
X39720000Y-104017319D01*
X39720000Y-104017319D02*
X39481905Y-104017319D01*
X41005714Y-104017319D02*
X40434286Y-104017319D01*
X40720000Y-104017319D02*
X40720000Y-103017319D01*
X40720000Y-103017319D02*
X40624762Y-103160176D01*
X40624762Y-103160176D02*
X40529524Y-103255414D01*
X40529524Y-103255414D02*
X40434286Y-103303033D01*
X63621666Y-119084197D02*
X63590714Y-119115150D01*
X63590714Y-119115150D02*
X63497856Y-119146102D01*
X63497856Y-119146102D02*
X63435952Y-119146102D01*
X63435952Y-119146102D02*
X63343095Y-119115150D01*
X63343095Y-119115150D02*
X63281190Y-119053245D01*
X63281190Y-119053245D02*
X63250237Y-118991340D01*
X63250237Y-118991340D02*
X63219285Y-118867530D01*
X63219285Y-118867530D02*
X63219285Y-118774673D01*
X63219285Y-118774673D02*
X63250237Y-118650864D01*
X63250237Y-118650864D02*
X63281190Y-118588959D01*
X63281190Y-118588959D02*
X63343095Y-118527054D01*
X63343095Y-118527054D02*
X63435952Y-118496102D01*
X63435952Y-118496102D02*
X63497856Y-118496102D01*
X63497856Y-118496102D02*
X63590714Y-118527054D01*
X63590714Y-118527054D02*
X63621666Y-118558007D01*
X64178809Y-118496102D02*
X64054999Y-118496102D01*
X64054999Y-118496102D02*
X63993095Y-118527054D01*
X63993095Y-118527054D02*
X63962142Y-118558007D01*
X63962142Y-118558007D02*
X63900237Y-118650864D01*
X63900237Y-118650864D02*
X63869285Y-118774673D01*
X63869285Y-118774673D02*
X63869285Y-119022292D01*
X63869285Y-119022292D02*
X63900237Y-119084197D01*
X63900237Y-119084197D02*
X63931190Y-119115150D01*
X63931190Y-119115150D02*
X63993095Y-119146102D01*
X63993095Y-119146102D02*
X64116904Y-119146102D01*
X64116904Y-119146102D02*
X64178809Y-119115150D01*
X64178809Y-119115150D02*
X64209761Y-119084197D01*
X64209761Y-119084197D02*
X64240714Y-119022292D01*
X64240714Y-119022292D02*
X64240714Y-118867530D01*
X64240714Y-118867530D02*
X64209761Y-118805626D01*
X64209761Y-118805626D02*
X64178809Y-118774673D01*
X64178809Y-118774673D02*
X64116904Y-118743721D01*
X64116904Y-118743721D02*
X63993095Y-118743721D01*
X63993095Y-118743721D02*
X63931190Y-118774673D01*
X63931190Y-118774673D02*
X63900237Y-118805626D01*
X63900237Y-118805626D02*
X63869285Y-118867530D01*
X58037856Y-88499164D02*
X57787856Y-88142021D01*
X57609285Y-88499164D02*
X57609285Y-87749164D01*
X57609285Y-87749164D02*
X57894999Y-87749164D01*
X57894999Y-87749164D02*
X57966428Y-87784878D01*
X57966428Y-87784878D02*
X58002142Y-87820592D01*
X58002142Y-87820592D02*
X58037856Y-87892021D01*
X58037856Y-87892021D02*
X58037856Y-87999164D01*
X58037856Y-87999164D02*
X58002142Y-88070592D01*
X58002142Y-88070592D02*
X57966428Y-88106307D01*
X57966428Y-88106307D02*
X57894999Y-88142021D01*
X57894999Y-88142021D02*
X57609285Y-88142021D01*
X58752142Y-88499164D02*
X58323571Y-88499164D01*
X58537856Y-88499164D02*
X58537856Y-87749164D01*
X58537856Y-87749164D02*
X58466428Y-87856307D01*
X58466428Y-87856307D02*
X58394999Y-87927735D01*
X58394999Y-87927735D02*
X58323571Y-87963450D01*
X59002142Y-87749164D02*
X59466428Y-87749164D01*
X59466428Y-87749164D02*
X59216428Y-88034878D01*
X59216428Y-88034878D02*
X59323571Y-88034878D01*
X59323571Y-88034878D02*
X59395000Y-88070592D01*
X59395000Y-88070592D02*
X59430714Y-88106307D01*
X59430714Y-88106307D02*
X59466428Y-88177735D01*
X59466428Y-88177735D02*
X59466428Y-88356307D01*
X59466428Y-88356307D02*
X59430714Y-88427735D01*
X59430714Y-88427735D02*
X59395000Y-88463450D01*
X59395000Y-88463450D02*
X59323571Y-88499164D01*
X59323571Y-88499164D02*
X59109285Y-88499164D01*
X59109285Y-88499164D02*
X59037857Y-88463450D01*
X59037857Y-88463450D02*
X59002142Y-88427735D01*
X50353762Y-109647397D02*
X50322810Y-109678350D01*
X50322810Y-109678350D02*
X50229952Y-109709302D01*
X50229952Y-109709302D02*
X50168048Y-109709302D01*
X50168048Y-109709302D02*
X50075191Y-109678350D01*
X50075191Y-109678350D02*
X50013286Y-109616445D01*
X50013286Y-109616445D02*
X49982333Y-109554540D01*
X49982333Y-109554540D02*
X49951381Y-109430730D01*
X49951381Y-109430730D02*
X49951381Y-109337873D01*
X49951381Y-109337873D02*
X49982333Y-109214064D01*
X49982333Y-109214064D02*
X50013286Y-109152159D01*
X50013286Y-109152159D02*
X50075191Y-109090254D01*
X50075191Y-109090254D02*
X50168048Y-109059302D01*
X50168048Y-109059302D02*
X50229952Y-109059302D01*
X50229952Y-109059302D02*
X50322810Y-109090254D01*
X50322810Y-109090254D02*
X50353762Y-109121207D01*
X50601381Y-109678350D02*
X50663286Y-109709302D01*
X50663286Y-109709302D02*
X50787095Y-109709302D01*
X50787095Y-109709302D02*
X50849000Y-109678350D01*
X50849000Y-109678350D02*
X50879952Y-109616445D01*
X50879952Y-109616445D02*
X50879952Y-109585492D01*
X50879952Y-109585492D02*
X50849000Y-109523588D01*
X50849000Y-109523588D02*
X50787095Y-109492635D01*
X50787095Y-109492635D02*
X50694238Y-109492635D01*
X50694238Y-109492635D02*
X50632333Y-109461683D01*
X50632333Y-109461683D02*
X50601381Y-109399778D01*
X50601381Y-109399778D02*
X50601381Y-109368826D01*
X50601381Y-109368826D02*
X50632333Y-109306921D01*
X50632333Y-109306921D02*
X50694238Y-109275969D01*
X50694238Y-109275969D02*
X50787095Y-109275969D01*
X50787095Y-109275969D02*
X50849000Y-109306921D01*
X51158523Y-109709302D02*
X51158523Y-109275969D01*
X51158523Y-109059302D02*
X51127571Y-109090254D01*
X51127571Y-109090254D02*
X51158523Y-109121207D01*
X51158523Y-109121207D02*
X51189476Y-109090254D01*
X51189476Y-109090254D02*
X51158523Y-109059302D01*
X51158523Y-109059302D02*
X51158523Y-109121207D01*
X51468047Y-109275969D02*
X51468047Y-109709302D01*
X51468047Y-109337873D02*
X51499000Y-109306921D01*
X51499000Y-109306921D02*
X51560905Y-109275969D01*
X51560905Y-109275969D02*
X51653762Y-109275969D01*
X51653762Y-109275969D02*
X51715666Y-109306921D01*
X51715666Y-109306921D02*
X51746619Y-109368826D01*
X51746619Y-109368826D02*
X51746619Y-109709302D01*
X52396619Y-109709302D02*
X52025190Y-109709302D01*
X52210904Y-109709302D02*
X52210904Y-109059302D01*
X52210904Y-109059302D02*
X52149000Y-109152159D01*
X52149000Y-109152159D02*
X52087095Y-109214064D01*
X52087095Y-109214064D02*
X52025190Y-109245016D01*
X51221476Y-115314597D02*
X51190524Y-115345550D01*
X51190524Y-115345550D02*
X51097666Y-115376502D01*
X51097666Y-115376502D02*
X51035762Y-115376502D01*
X51035762Y-115376502D02*
X50942905Y-115345550D01*
X50942905Y-115345550D02*
X50881000Y-115283645D01*
X50881000Y-115283645D02*
X50850047Y-115221740D01*
X50850047Y-115221740D02*
X50819095Y-115097930D01*
X50819095Y-115097930D02*
X50819095Y-115005073D01*
X50819095Y-115005073D02*
X50850047Y-114881264D01*
X50850047Y-114881264D02*
X50881000Y-114819359D01*
X50881000Y-114819359D02*
X50942905Y-114757454D01*
X50942905Y-114757454D02*
X51035762Y-114726502D01*
X51035762Y-114726502D02*
X51097666Y-114726502D01*
X51097666Y-114726502D02*
X51190524Y-114757454D01*
X51190524Y-114757454D02*
X51221476Y-114788407D01*
X51500047Y-114943169D02*
X51500047Y-115593169D01*
X51500047Y-114974121D02*
X51561952Y-114943169D01*
X51561952Y-114943169D02*
X51685762Y-114943169D01*
X51685762Y-114943169D02*
X51747666Y-114974121D01*
X51747666Y-114974121D02*
X51778619Y-115005073D01*
X51778619Y-115005073D02*
X51809571Y-115066978D01*
X51809571Y-115066978D02*
X51809571Y-115252692D01*
X51809571Y-115252692D02*
X51778619Y-115314597D01*
X51778619Y-115314597D02*
X51747666Y-115345550D01*
X51747666Y-115345550D02*
X51685762Y-115376502D01*
X51685762Y-115376502D02*
X51561952Y-115376502D01*
X51561952Y-115376502D02*
X51500047Y-115345550D01*
X52088142Y-115376502D02*
X52088142Y-114943169D01*
X52088142Y-115005073D02*
X52119095Y-114974121D01*
X52119095Y-114974121D02*
X52181000Y-114943169D01*
X52181000Y-114943169D02*
X52273857Y-114943169D01*
X52273857Y-114943169D02*
X52335761Y-114974121D01*
X52335761Y-114974121D02*
X52366714Y-115036026D01*
X52366714Y-115036026D02*
X52366714Y-115376502D01*
X52366714Y-115036026D02*
X52397666Y-114974121D01*
X52397666Y-114974121D02*
X52459571Y-114943169D01*
X52459571Y-114943169D02*
X52552428Y-114943169D01*
X52552428Y-114943169D02*
X52614333Y-114974121D01*
X52614333Y-114974121D02*
X52645285Y-115036026D01*
X52645285Y-115036026D02*
X52645285Y-115376502D01*
X52954809Y-115376502D02*
X52954809Y-114943169D01*
X52954809Y-114726502D02*
X52923857Y-114757454D01*
X52923857Y-114757454D02*
X52954809Y-114788407D01*
X52954809Y-114788407D02*
X52985762Y-114757454D01*
X52985762Y-114757454D02*
X52954809Y-114726502D01*
X52954809Y-114726502D02*
X52954809Y-114788407D01*
X53542905Y-115376502D02*
X53542905Y-114726502D01*
X53542905Y-115345550D02*
X53481000Y-115376502D01*
X53481000Y-115376502D02*
X53357191Y-115376502D01*
X53357191Y-115376502D02*
X53295286Y-115345550D01*
X53295286Y-115345550D02*
X53264333Y-115314597D01*
X53264333Y-115314597D02*
X53233381Y-115252692D01*
X53233381Y-115252692D02*
X53233381Y-115066978D01*
X53233381Y-115066978D02*
X53264333Y-115005073D01*
X53264333Y-115005073D02*
X53295286Y-114974121D01*
X53295286Y-114974121D02*
X53357191Y-114943169D01*
X53357191Y-114943169D02*
X53481000Y-114943169D01*
X53481000Y-114943169D02*
X53542905Y-114974121D01*
X54192905Y-115376502D02*
X53821476Y-115376502D01*
X54007190Y-115376502D02*
X54007190Y-114726502D01*
X54007190Y-114726502D02*
X53945286Y-114819359D01*
X53945286Y-114819359D02*
X53883381Y-114881264D01*
X53883381Y-114881264D02*
X53821476Y-114912216D01*
D14*
%TO.C,R5*%
X58089600Y-115464500D02*
X59918400Y-115464500D01*
X58089600Y-116353500D02*
X58089600Y-115464500D01*
X59918400Y-116353500D02*
X58089600Y-116353500D01*
X59918400Y-116353500D02*
X59918400Y-115464500D01*
D10*
%TO.C,C_VHS1*%
X64850000Y-121250000D02*
X64850000Y-122750000D01*
X65150000Y-122750000D02*
X65150000Y-121250000D01*
D14*
%TO.C,R18*%
X70965600Y-121875500D02*
X70965600Y-122764500D01*
X70965600Y-121875500D02*
X72794400Y-121875500D01*
X72794400Y-121875500D02*
X72794400Y-122764500D01*
X72794400Y-122764500D02*
X70965600Y-122764500D01*
%TO.C,C_VC2*%
X59269000Y-98290000D02*
X59269000Y-97290000D01*
X60031000Y-98290000D02*
X60031000Y-97290000D01*
X60031000Y-98290000D02*
X60031000Y-97290000D01*
D15*
%TO.C,SOLAR_SENSE1*%
X49475000Y-127827064D02*
X49475000Y-126622936D01*
X51295000Y-127827064D02*
X51295000Y-126622936D01*
%TO.C,USB-C1*%
X28750000Y-111740000D02*
X30210000Y-111740000D01*
X28750000Y-120680000D02*
X28750000Y-111740000D01*
X28750000Y-120680000D02*
X30210000Y-120680000D01*
X34260000Y-111740000D02*
X32460000Y-111740000D01*
X34260000Y-120680000D02*
X32460000Y-120680000D01*
D14*
%TO.C,J4*%
X30010000Y-100390000D02*
X34810000Y-100390000D01*
X30010000Y-102890000D02*
X30010000Y-100390000D01*
X34810000Y-100390000D02*
X34810000Y-102890000D01*
X34810000Y-102890000D02*
X30010000Y-102890000D01*
D10*
%TO.C,J3*%
X29670000Y-106170000D02*
X29670000Y-108710000D01*
X29670000Y-108710000D02*
X37290000Y-108710000D01*
X37290000Y-106170000D02*
X29670000Y-106170000D01*
X37290000Y-108710000D02*
X37290000Y-106170000D01*
D14*
%TO.C,C2*%
X51189000Y-104521400D02*
X51189000Y-105521400D01*
X51189000Y-104521400D02*
X51189000Y-105521400D01*
X51951000Y-104521400D02*
X51951000Y-105521400D01*
D15*
%TO.C,D2*%
X39390600Y-104311900D02*
X39390600Y-106861900D01*
X41090600Y-104311900D02*
X39390600Y-104311900D01*
X41090600Y-104311900D02*
X41090600Y-106861900D01*
D14*
%TO.C,R17*%
X70960600Y-119325500D02*
X70960600Y-120214500D01*
X70960600Y-119325500D02*
X72789400Y-119325500D01*
X72789400Y-119325500D02*
X72789400Y-120214500D01*
X72789400Y-120214500D02*
X70960600Y-120214500D01*
%TO.C,Rpiset1*%
X56574500Y-105960800D02*
X56574500Y-104132000D01*
X57463500Y-104132000D02*
X56574500Y-104132000D01*
X57463500Y-104132000D02*
X57463500Y-105960800D01*
X57463500Y-105960800D02*
X56574500Y-105960800D01*
%TO.C,R6*%
X31415600Y-103275500D02*
X31415600Y-104164500D01*
X31415600Y-103275500D02*
X33244400Y-103275500D01*
X33244400Y-103275500D02*
X33244400Y-104164500D01*
X33244400Y-104164500D02*
X31415600Y-104164500D01*
D16*
%TO.C,U1*%
X54648000Y-109210400D02*
X54648000Y-109948406D01*
X54648000Y-113384394D02*
X54648000Y-114122400D01*
X54648000Y-114122400D02*
X55385691Y-114122400D01*
X55385691Y-109210400D02*
X54648000Y-109210400D01*
X58822309Y-114122400D02*
X59560000Y-114122400D01*
X59560000Y-109210400D02*
X58822309Y-109210400D01*
X59560000Y-109948406D02*
X59560000Y-109210400D01*
X59560000Y-114122400D02*
X59560000Y-113384394D01*
D17*
G36*
X56544311Y-114574400D02*
G01*
X56163311Y-114574400D01*
X56163311Y-114320400D01*
X56544311Y-114320400D01*
X56544311Y-114574400D01*
G37*
G36*
X57044437Y-109012400D02*
G01*
X56663437Y-109012400D01*
X56663437Y-108758400D01*
X57044437Y-108758400D01*
X57044437Y-109012400D01*
G37*
D14*
%TO.C,C_VC3*%
X59265000Y-91929000D02*
X60265000Y-91929000D01*
X59265000Y-92691000D02*
X60265000Y-92691000D01*
X59265000Y-92691000D02*
X60265000Y-92691000D01*
%TO.C,R8*%
X82895600Y-114945500D02*
X82895600Y-115834500D01*
X82895600Y-114945500D02*
X84724400Y-114945500D01*
X84724400Y-114945500D02*
X84724400Y-115834500D01*
X84724400Y-115834500D02*
X82895600Y-115834500D01*
%TO.C,C_VC1*%
X59695000Y-98974000D02*
X60695000Y-98974000D01*
X59695000Y-99736000D02*
X60695000Y-99736000D01*
X59695000Y-99736000D02*
X60695000Y-99736000D01*
%TO.C,R4*%
X37350600Y-117035500D02*
X37350600Y-117924500D01*
X37350600Y-117035500D02*
X39179400Y-117035500D01*
X39179400Y-117035500D02*
X39179400Y-117924500D01*
X39179400Y-117924500D02*
X37350600Y-117924500D01*
D18*
%TO.C,Lo1*%
X51800000Y-114330000D02*
X51800000Y-114330000D01*
X51800000Y-114430000D02*
X51800000Y-114430000D01*
X51800000Y-114430000D02*
X51800000Y-114430000D01*
X51800000Y-114330000D02*
G75*
G02*
X51800000Y-114430000I0J-50000D01*
G01*
X51800000Y-114330000D02*
G75*
G02*
X51800000Y-114430000I0J-50000D01*
G01*
X51800000Y-114430000D02*
G75*
G02*
X51800000Y-114330000I0J50000D01*
G01*
D14*
%TO.C,R12*%
X59795500Y-96709400D02*
X59795500Y-94880600D01*
X60684500Y-94880600D02*
X59795500Y-94880600D01*
X60684500Y-94880600D02*
X60684500Y-96709400D01*
X60684500Y-96709400D02*
X59795500Y-96709400D01*
%TO.C,R10*%
X60245500Y-98734400D02*
X60245500Y-96905600D01*
X61134500Y-96905600D02*
X60245500Y-96905600D01*
X61134500Y-96905600D02*
X61134500Y-98734400D01*
X61134500Y-98734400D02*
X60245500Y-98734400D01*
%TO.C,C5*%
X43263200Y-106966100D02*
X43263200Y-105966100D01*
X44025200Y-106966100D02*
X44025200Y-105966100D01*
X44025200Y-106966100D02*
X44025200Y-105966100D01*
D19*
%TO.C,IC2*%
X66185000Y-91755000D02*
G75*
G02*
X65935000Y-91755000I-125000J0D01*
G01*
X65935000Y-91755000D02*
G75*
G02*
X66185000Y-91755000I125000J0D01*
G01*
D14*
%TO.C,R14*%
X60245600Y-90525500D02*
X60245600Y-91414500D01*
X60245600Y-90525500D02*
X62074400Y-90525500D01*
X62074400Y-90525500D02*
X62074400Y-91414500D01*
X62074400Y-91414500D02*
X60245600Y-91414500D01*
%TO.C,Cldo1*%
X58489000Y-114495400D02*
X59489000Y-114495400D01*
X58489000Y-115257400D02*
X59489000Y-115257400D01*
X58489000Y-115257400D02*
X59489000Y-115257400D01*
D18*
%TO.C,BATTERY1*%
X30310000Y-86400000D02*
X48110000Y-86400000D01*
X30310000Y-97900000D02*
X30310000Y-86400000D01*
X45210000Y-85830000D02*
X45210000Y-85830000D01*
X45210000Y-85830000D02*
X45210000Y-85830000D01*
X45210000Y-85930000D02*
X45210000Y-85930000D01*
X48110000Y-86400000D02*
X48110000Y-97900000D01*
X48110000Y-97900000D02*
X30310000Y-97900000D01*
X45210000Y-85830000D02*
G75*
G02*
X45210000Y-85930000I0J-50000D01*
G01*
X45210000Y-85930000D02*
G75*
G02*
X45210000Y-85830000I0J50000D01*
G01*
X45210000Y-85930000D02*
G75*
G02*
X45210000Y-85830000I0J50000D01*
G01*
D14*
%TO.C,R9*%
X82885600Y-115955500D02*
X82885600Y-116844500D01*
X82885600Y-115955500D02*
X84714400Y-115955500D01*
X84714400Y-115955500D02*
X84714400Y-116844500D01*
X84714400Y-116844500D02*
X82885600Y-116844500D01*
D10*
%TO.C,UART1*%
X38580000Y-109345000D02*
X38705000Y-109345000D01*
X38580000Y-113495000D02*
X38580000Y-109345000D01*
X38580000Y-113495000D02*
X38705000Y-113495000D01*
X38705000Y-113495000D02*
X38705000Y-114895000D01*
D14*
X38915000Y-115930000D02*
X39415000Y-115930000D01*
X39165000Y-115630000D02*
X38915000Y-115930000D01*
X39415000Y-115930000D02*
X39165000Y-115630000D01*
D10*
X43730000Y-109345000D02*
X43605000Y-109345000D01*
X43730000Y-113495000D02*
X43605000Y-113495000D01*
X43730000Y-113495000D02*
X43730000Y-109345000D01*
D14*
X39306108Y-112750000D02*
G75*
G02*
X38943892Y-112750000I-181108J0D01*
G01*
X38943892Y-112750000D02*
G75*
G02*
X39306108Y-112750000I181108J0D01*
G01*
%TO.C,C4*%
X38386400Y-106986700D02*
X38386400Y-105986700D01*
X39148400Y-106986700D02*
X39148400Y-105986700D01*
X39148400Y-106986700D02*
X39148400Y-105986700D01*
D15*
%TO.C,Q4*%
X59350000Y-131420000D02*
X59350000Y-132920000D01*
X59350000Y-132920000D02*
X59620000Y-132920000D01*
X59620000Y-132920000D02*
X59620000Y-135750000D01*
X65980000Y-132920000D02*
X65980000Y-134020000D01*
X66250000Y-131420000D02*
X66250000Y-132920000D01*
X66250000Y-132920000D02*
X65980000Y-132920000D01*
D14*
%TO.C,RPilim1*%
X56604500Y-118650800D02*
X56604500Y-116822000D01*
X57493500Y-116822000D02*
X56604500Y-116822000D01*
X57493500Y-116822000D02*
X57493500Y-118650800D01*
X57493500Y-118650800D02*
X56604500Y-118650800D01*
D18*
%TO.C,U8*%
X51910000Y-93780000D02*
X51910000Y-92330000D01*
X51960000Y-89680000D02*
X54960000Y-89680000D01*
X51960000Y-91980000D02*
X51960000Y-89680000D01*
X54960000Y-89680000D02*
X54960000Y-91980000D01*
X54960000Y-91980000D02*
X51960000Y-91980000D01*
%TO.C,U9*%
X51955000Y-130065000D02*
X51955000Y-128615000D01*
X52005000Y-125965000D02*
X55005000Y-125965000D01*
X52005000Y-128265000D02*
X52005000Y-125965000D01*
X55005000Y-125965000D02*
X55005000Y-128265000D01*
X55005000Y-128265000D02*
X52005000Y-128265000D01*
D14*
%TO.C,R16*%
X56535500Y-89494400D02*
X56535500Y-87665600D01*
X57424500Y-87665600D02*
X56535500Y-87665600D01*
X57424500Y-87665600D02*
X57424500Y-89494400D01*
X57424500Y-89494400D02*
X56535500Y-89494400D01*
D18*
%TO.C,BAT_OUT1*%
X67680000Y-124190000D02*
X85480000Y-124190000D01*
X67680000Y-135690000D02*
X67680000Y-124190000D01*
X70580000Y-136160000D02*
X70580000Y-136160000D01*
X70580000Y-136260000D02*
X70580000Y-136260000D01*
X70580000Y-136260000D02*
X70580000Y-136260000D01*
X85480000Y-124190000D02*
X85480000Y-135690000D01*
X85480000Y-135690000D02*
X67680000Y-135690000D01*
X70580000Y-136160000D02*
G75*
G02*
X70580000Y-136260000I0J-50000D01*
G01*
X70580000Y-136160000D02*
G75*
G02*
X70580000Y-136260000I0J-50000D01*
G01*
X70580000Y-136260000D02*
G75*
G02*
X70580000Y-136160000I0J50000D01*
G01*
%TO.C,L1*%
X64190000Y-99860000D02*
X64190000Y-97560000D01*
D14*
%TO.C,R11*%
X59265600Y-99980500D02*
X59265600Y-100869500D01*
X59265600Y-99980500D02*
X61094400Y-99980500D01*
X61094400Y-99980500D02*
X61094400Y-100869500D01*
X61094400Y-100869500D02*
X59265600Y-100869500D01*
D15*
%TO.C,Q2*%
X55775000Y-130610000D02*
X49885000Y-130610000D01*
X56230000Y-135750000D02*
X49885000Y-135750000D01*
D14*
%TO.C,Rdpmt1*%
X58119600Y-116531900D02*
X58119600Y-117420900D01*
X58119600Y-116531900D02*
X59948400Y-116531900D01*
X59948400Y-116531900D02*
X59948400Y-117420900D01*
X59948400Y-117420900D02*
X58119600Y-117420900D01*
%TO.C,R15*%
X55475500Y-87660600D02*
X56364500Y-87660600D01*
X55475500Y-89489400D02*
X55475500Y-87660600D01*
X55475500Y-89489400D02*
X56364500Y-89489400D01*
X56364500Y-87660600D02*
X56364500Y-89489400D01*
%TO.C,C1*%
X51228000Y-117141400D02*
X51228000Y-118141400D01*
X51228000Y-117141400D02*
X51228000Y-118141400D01*
X51990000Y-117141400D02*
X51990000Y-118141400D01*
D18*
%TO.C,IC1*%
X68450000Y-119590000D02*
X69050000Y-119590000D01*
X68450000Y-122490000D02*
X68450000Y-119590000D01*
X69050000Y-119590000D02*
X69050000Y-122490000D01*
X69050000Y-122490000D02*
X68450000Y-122490000D01*
X70600000Y-122640000D02*
X69400000Y-122640000D01*
D14*
%TO.C,Cboot1*%
X56300000Y-115519000D02*
X55300000Y-115519000D01*
X56300000Y-115519000D02*
X55300000Y-115519000D01*
X56300000Y-116281000D02*
X55300000Y-116281000D01*
D10*
%TO.C,C_Vusb1*%
X38140000Y-119830000D02*
X39640000Y-119830000D01*
X39640000Y-119530000D02*
X38140000Y-119530000D01*
D16*
%TO.C,U4*%
X51347100Y-117166400D02*
X52172600Y-117166400D01*
X52172600Y-117166400D02*
X51855100Y-116848900D01*
X52172600Y-117166400D02*
X51855100Y-117483900D01*
D15*
X53451600Y-119742400D02*
X55211600Y-119742400D01*
X55211600Y-116672400D02*
X52781600Y-116672400D01*
D16*
X54150600Y-117229900D02*
G75*
G02*
X53750600Y-117229900I-200000J0D01*
G01*
X53750600Y-117229900D02*
G75*
G02*
X54150600Y-117229900I200000J0D01*
G01*
D14*
%TO.C,R3*%
X37255500Y-113220600D02*
X38144500Y-113220600D01*
X37255500Y-115049400D02*
X37255500Y-113220600D01*
X37255500Y-115049400D02*
X38144500Y-115049400D01*
X38144500Y-113220600D02*
X38144500Y-115049400D01*
%TO.C,R1*%
X74375600Y-114555500D02*
X76204400Y-114555500D01*
X74375600Y-115444500D02*
X74375600Y-114555500D01*
X76204400Y-115444500D02*
X74375600Y-115444500D01*
X76204400Y-115444500D02*
X76204400Y-114555500D01*
%TO.C,R2*%
X74468000Y-118779400D02*
X74468000Y-116950600D01*
X75357000Y-116950600D02*
X74468000Y-116950600D01*
X75357000Y-116950600D02*
X75357000Y-118779400D01*
X75357000Y-118779400D02*
X74468000Y-118779400D01*
D10*
%TO.C,Cbat1*%
X54743200Y-107399400D02*
X54743200Y-108899400D01*
X55043200Y-108899400D02*
X55043200Y-107399400D01*
D18*
%TO.C,VOUT1*%
X67630000Y-86340000D02*
X85430000Y-86340000D01*
X67630000Y-97840000D02*
X67630000Y-86340000D01*
X70530000Y-98310000D02*
X70530000Y-98310000D01*
X70530000Y-98410000D02*
X70530000Y-98410000D01*
X70530000Y-98410000D02*
X70530000Y-98410000D01*
X85430000Y-86340000D02*
X85430000Y-97840000D01*
X85430000Y-97840000D02*
X67630000Y-97840000D01*
X70530000Y-98310000D02*
G75*
G02*
X70530000Y-98410000I0J-50000D01*
G01*
X70530000Y-98310000D02*
G75*
G02*
X70530000Y-98410000I0J-50000D01*
G01*
X70530000Y-98410000D02*
G75*
G02*
X70530000Y-98310000I0J50000D01*
G01*
D14*
%TO.C,R7*%
X75538000Y-119414400D02*
X75538000Y-117585600D01*
X76427000Y-117585600D02*
X75538000Y-117585600D01*
X76427000Y-117585600D02*
X76427000Y-119414400D01*
X76427000Y-119414400D02*
X75538000Y-119414400D01*
D20*
%TO.C,U3*%
X79880000Y-101750000D02*
X79880000Y-108350000D01*
X79880000Y-108350000D02*
X83480000Y-108350000D01*
X83480000Y-101750000D02*
X79880000Y-101750000D01*
X83480000Y-108350000D02*
X83480000Y-101750000D01*
D14*
%TO.C,R19*%
X57005500Y-132924400D02*
X57005500Y-131095600D01*
X57894500Y-131095600D02*
X57005500Y-131095600D01*
X57894500Y-131095600D02*
X57894500Y-132924400D01*
X57894500Y-132924400D02*
X57005500Y-132924400D01*
D18*
%TO.C,SOLAR_CELL1*%
X30280000Y-124120000D02*
X48080000Y-124120000D01*
X30280000Y-135620000D02*
X30280000Y-124120000D01*
X45180000Y-123550000D02*
X45180000Y-123550000D01*
X45180000Y-123550000D02*
X45180000Y-123550000D01*
X45180000Y-123650000D02*
X45180000Y-123650000D01*
X48080000Y-124120000D02*
X48080000Y-135620000D01*
X48080000Y-135620000D02*
X30280000Y-135620000D01*
X45180000Y-123550000D02*
G75*
G02*
X45180000Y-123650000I0J-50000D01*
G01*
X45180000Y-123650000D02*
G75*
G02*
X45180000Y-123550000I0J50000D01*
G01*
X45180000Y-123650000D02*
G75*
G02*
X45180000Y-123550000I0J50000D01*
G01*
D15*
%TO.C,Cvsys1*%
X73380000Y-109010000D02*
X73380000Y-101910000D01*
D21*
X73470000Y-108980000D02*
X76990000Y-108980000D01*
D15*
X77080000Y-109010000D02*
X77080000Y-101910000D01*
%TO.C,Q3*%
X40690000Y-118250000D02*
X40690000Y-119180000D01*
X40690000Y-118250000D02*
X42150000Y-118250000D01*
X40690000Y-121410000D02*
X40690000Y-120480000D01*
X40690000Y-121410000D02*
X42850000Y-121410000D01*
D14*
%TO.C,Cldoin1*%
X79130000Y-108369000D02*
X78130000Y-108369000D01*
X79130000Y-108369000D02*
X78130000Y-108369000D01*
X79130000Y-109131000D02*
X78130000Y-109131000D01*
D16*
%TO.C,U5*%
X51325500Y-104634000D02*
X52151000Y-104634000D01*
X52151000Y-104634000D02*
X51833500Y-104316500D01*
X52151000Y-104634000D02*
X51833500Y-104951500D01*
D15*
X53430000Y-107210000D02*
X55190000Y-107210000D01*
X55190000Y-104140000D02*
X52760000Y-104140000D01*
D16*
X54129000Y-104697500D02*
G75*
G02*
X53729000Y-104697500I-200000J0D01*
G01*
X53729000Y-104697500D02*
G75*
G02*
X54129000Y-104697500I200000J0D01*
G01*
D14*
%TO.C,CVREF1*%
X52080000Y-86449000D02*
X53080000Y-86449000D01*
X52080000Y-87211000D02*
X53080000Y-87211000D01*
X52080000Y-87211000D02*
X53080000Y-87211000D01*
D10*
%TO.C,U2*%
X61105000Y-111025000D02*
X61330000Y-111025000D01*
X61105000Y-115675000D02*
X61105000Y-111025000D01*
X61105000Y-115675000D02*
X61230000Y-115675000D01*
X61230000Y-115675000D02*
X61230000Y-117025000D01*
X66355000Y-111025000D02*
X66130000Y-111025000D01*
X66355000Y-115675000D02*
X66130000Y-115675000D01*
X66355000Y-115675000D02*
X66355000Y-111025000D01*
D15*
%TO.C,BAT_SENSE1*%
X49485000Y-90087064D02*
X49485000Y-88882936D01*
X51305000Y-90087064D02*
X51305000Y-88882936D01*
D14*
%TO.C,C3*%
X75100000Y-115919000D02*
X74100000Y-115919000D01*
X75100000Y-115919000D02*
X74100000Y-115919000D01*
X75100000Y-116681000D02*
X74100000Y-116681000D01*
D15*
%TO.C,D1*%
X41321000Y-107303300D02*
X41321000Y-104753300D01*
X41321000Y-107303300D02*
X43021000Y-107303300D01*
X43021000Y-107303300D02*
X43021000Y-104753300D01*
D14*
%TO.C,C6*%
X64202200Y-117498000D02*
X63202200Y-117498000D01*
X64202200Y-117498000D02*
X63202200Y-117498000D01*
X64202200Y-118260000D02*
X63202200Y-118260000D01*
%TO.C,R13*%
X59785500Y-92910600D02*
X60674500Y-92910600D01*
X59785500Y-94739400D02*
X59785500Y-92910600D01*
X59785500Y-94739400D02*
X60674500Y-94739400D01*
X60674500Y-92910600D02*
X60674500Y-94739400D01*
%TO.C,Csin1*%
X54094000Y-109035400D02*
X53094000Y-109035400D01*
X54094000Y-109035400D02*
X53094000Y-109035400D01*
X54094000Y-109797400D02*
X53094000Y-109797400D01*
D15*
%TO.C,ATTINY1627*%
X77050000Y-118430000D02*
X77050000Y-117955000D01*
X77525000Y-114210000D02*
X77050000Y-114210000D01*
X77525000Y-118430000D02*
X77050000Y-118430000D01*
X80795000Y-114210000D02*
X81270000Y-114210000D01*
X80795000Y-118430000D02*
X81270000Y-118430000D01*
X81270000Y-114210000D02*
X81270000Y-114685000D01*
X81270000Y-118430000D02*
X81270000Y-117955000D01*
D14*
%TO.C,Cpmid1*%
X55700000Y-114419000D02*
X54700000Y-114419000D01*
X55700000Y-114419000D02*
X54700000Y-114419000D01*
X55700000Y-115181000D02*
X54700000Y-115181000D01*
%TD*%
M02*
