%TF.GenerationSoftware,KiCad,Pcbnew,8.0.6*%
%TF.CreationDate,2024-11-11T10:33:33-08:00*%
%TF.ProjectId,BQ24257,42513234-3235-4372-9e6b-696361645f70,rev?*%
%TF.SameCoordinates,Original*%
%TF.FileFunction,Paste,Top*%
%TF.FilePolarity,Positive*%
%FSLAX46Y46*%
G04 Gerber Fmt 4.6, Leading zero omitted, Abs format (unit mm)*
G04 Created by KiCad (PCBNEW 8.0.6) date 2024-11-11 10:33:33*
%MOMM*%
%LPD*%
G01*
G04 APERTURE LIST*
G04 Aperture macros list*
%AMRoundRect*
0 Rectangle with rounded corners*
0 $1 Rounding radius*
0 $2 $3 $4 $5 $6 $7 $8 $9 X,Y pos of 4 corners*
0 Add a 4 corners polygon primitive as box body*
4,1,4,$2,$3,$4,$5,$6,$7,$8,$9,$2,$3,0*
0 Add four circle primitives for the rounded corners*
1,1,$1+$1,$2,$3*
1,1,$1+$1,$4,$5*
1,1,$1+$1,$6,$7*
1,1,$1+$1,$8,$9*
0 Add four rect primitives between the rounded corners*
20,1,$1+$1,$2,$3,$4,$5,0*
20,1,$1+$1,$4,$5,$6,$7,0*
20,1,$1+$1,$6,$7,$8,$9,0*
20,1,$1+$1,$8,$9,$2,$3,0*%
G04 Aperture macros list end*
%ADD10C,0.000000*%
%ADD11RoundRect,0.147500X0.147500X0.172500X-0.147500X0.172500X-0.147500X-0.172500X0.147500X-0.172500X0*%
%ADD12R,1.000000X1.000000*%
%ADD13RoundRect,0.147500X-0.147500X-0.172500X0.147500X-0.172500X0.147500X0.172500X-0.147500X0.172500X0*%
%ADD14RoundRect,0.147500X0.172500X-0.147500X0.172500X0.147500X-0.172500X0.147500X-0.172500X-0.147500X0*%
%ADD15RoundRect,0.250000X0.625000X-0.375000X0.625000X0.375000X-0.625000X0.375000X-0.625000X-0.375000X0*%
%ADD16R,1.160000X0.600000*%
%ADD17R,1.160000X0.300000*%
%ADD18RoundRect,0.147500X-0.172500X0.147500X-0.172500X-0.147500X0.172500X-0.147500X0.172500X0.147500X0*%
%ADD19R,0.450000X0.600000*%
%ADD20R,2.300000X0.850000*%
%ADD21R,0.300000X0.850000*%
%ADD22R,4.440000X2.540000*%
%ADD23R,0.600000X1.550000*%
%ADD24R,1.020000X0.705000*%
%ADD25R,2.750000X3.050000*%
%ADD26R,1.200000X2.200000*%
%ADD27R,0.450000X1.450000*%
%ADD28R,1.850000X2.800000*%
%ADD29R,1.270000X0.610000*%
%ADD30R,3.810000X3.910000*%
%ADD31R,1.020000X0.610000*%
%ADD32R,1.200000X0.600000*%
%ADD33R,1.220000X0.650000*%
%ADD34R,1.500000X1.200000*%
%ADD35R,1.500000X3.300000*%
%ADD36R,2.500000X2.550000*%
%ADD37R,0.900000X0.800000*%
%ADD38RoundRect,0.250000X-0.275000X-0.275000X0.275000X-0.275000X0.275000X0.275000X-0.275000X0.275000X0*%
%ADD39RoundRect,0.062500X-0.350000X-0.062500X0.350000X-0.062500X0.350000X0.062500X-0.350000X0.062500X0*%
%ADD40RoundRect,0.062500X-0.062500X-0.350000X0.062500X-0.350000X0.062500X0.350000X-0.062500X0.350000X0*%
G04 APERTURE END LIST*
D10*
%TO.C,U1*%
G36*
X56216600Y-110637579D02*
G01*
X56075179Y-110779000D01*
X55828930Y-110779000D01*
X55828930Y-110391330D01*
X56216600Y-110391330D01*
X56216600Y-110637579D01*
G37*
G36*
X56216600Y-112695221D02*
G01*
X56216600Y-112941470D01*
X55828930Y-112941470D01*
X55828930Y-112553800D01*
X56075179Y-112553800D01*
X56216600Y-112695221D01*
G37*
G36*
X58379070Y-110779000D02*
G01*
X58132821Y-110779000D01*
X57991400Y-110637579D01*
X57991400Y-110391330D01*
X58379070Y-110391330D01*
X58379070Y-110779000D01*
G37*
G36*
X58379070Y-112941470D02*
G01*
X57991400Y-112941470D01*
X57991400Y-112695221D01*
X58132821Y-112553800D01*
X58379070Y-112553800D01*
X58379070Y-112941470D01*
G37*
G36*
X56216600Y-111120421D02*
G01*
X56216600Y-111424979D01*
X56075179Y-111566400D01*
X55828930Y-111566400D01*
X55828930Y-110979000D01*
X56075179Y-110979000D01*
X56216600Y-111120421D01*
G37*
G36*
X56216600Y-111907821D02*
G01*
X56216600Y-112212379D01*
X56075179Y-112353800D01*
X55828930Y-112353800D01*
X55828930Y-111766400D01*
X56075179Y-111766400D01*
X56216600Y-111907821D01*
G37*
G36*
X57004000Y-110637579D02*
G01*
X56862579Y-110779000D01*
X56558021Y-110779000D01*
X56416600Y-110637579D01*
X56416600Y-110391330D01*
X57004000Y-110391330D01*
X57004000Y-110637579D01*
G37*
G36*
X57004000Y-112695221D02*
G01*
X57004000Y-112941470D01*
X56416600Y-112941470D01*
X56416600Y-112695221D01*
X56558021Y-112553800D01*
X56862579Y-112553800D01*
X57004000Y-112695221D01*
G37*
G36*
X57791400Y-110637579D02*
G01*
X57649979Y-110779000D01*
X57345421Y-110779000D01*
X57204000Y-110637579D01*
X57204000Y-110391330D01*
X57791400Y-110391330D01*
X57791400Y-110637579D01*
G37*
G36*
X57791400Y-112695221D02*
G01*
X57791400Y-112941470D01*
X57204000Y-112941470D01*
X57204000Y-112695221D01*
X57345421Y-112553800D01*
X57649979Y-112553800D01*
X57791400Y-112695221D01*
G37*
G36*
X58379070Y-111566400D02*
G01*
X58132821Y-111566400D01*
X57991400Y-111424979D01*
X57991400Y-111120421D01*
X58132821Y-110979000D01*
X58379070Y-110979000D01*
X58379070Y-111566400D01*
G37*
G36*
X58379070Y-112353800D02*
G01*
X58132821Y-112353800D01*
X57991400Y-112212379D01*
X57991400Y-111907821D01*
X58132821Y-111766400D01*
X58379070Y-111766400D01*
X58379070Y-112353800D01*
G37*
G36*
X57004000Y-111120421D02*
G01*
X57004000Y-111424979D01*
X56862579Y-111566400D01*
X56558021Y-111566400D01*
X56416600Y-111424979D01*
X56416600Y-111120421D01*
X56558021Y-110979000D01*
X56862579Y-110979000D01*
X57004000Y-111120421D01*
G37*
G36*
X57004000Y-111907821D02*
G01*
X57004000Y-112212379D01*
X56862579Y-112353800D01*
X56558021Y-112353800D01*
X56416600Y-112212379D01*
X56416600Y-111907821D01*
X56558021Y-111766400D01*
X56862579Y-111766400D01*
X57004000Y-111907821D01*
G37*
G36*
X57791400Y-111120421D02*
G01*
X57791400Y-111424979D01*
X57649979Y-111566400D01*
X57345421Y-111566400D01*
X57204000Y-111424979D01*
X57204000Y-111120421D01*
X57345421Y-110979000D01*
X57649979Y-110979000D01*
X57791400Y-111120421D01*
G37*
G36*
X57791400Y-111907821D02*
G01*
X57791400Y-112212379D01*
X57649979Y-112353800D01*
X57345421Y-112353800D01*
X57204000Y-112212379D01*
X57204000Y-111907821D01*
X57345421Y-111766400D01*
X57649979Y-111766400D01*
X57791400Y-111907821D01*
G37*
%TD*%
D11*
%TO.C,R5*%
X59489000Y-115909000D03*
X58519000Y-115909000D03*
%TD*%
D12*
%TO.C,C_VHS1*%
X64150000Y-122000000D03*
X65850000Y-122000000D03*
%TD*%
D13*
%TO.C,R18*%
X71395000Y-122320000D03*
X72365000Y-122320000D03*
%TD*%
D14*
%TO.C,C_VC2*%
X59650000Y-98275000D03*
X59650000Y-97305000D03*
%TD*%
D15*
%TO.C,SOLAR_SENSE1*%
X50385000Y-128625000D03*
X50385000Y-125825000D03*
%TD*%
D16*
%TO.C,USB-C1*%
X36100000Y-113010000D03*
X36100000Y-113810000D03*
D17*
X36100000Y-114960000D03*
X36100000Y-115960000D03*
X36100000Y-116460000D03*
X36100000Y-117460000D03*
D16*
X36100000Y-118610000D03*
X36100000Y-119410000D03*
X36100000Y-119410000D03*
X36100000Y-118610000D03*
D17*
X36100000Y-117960000D03*
X36100000Y-116960000D03*
X36100000Y-115460000D03*
X36100000Y-114460000D03*
D16*
X36100000Y-113810000D03*
X36100000Y-113010000D03*
%TD*%
D18*
%TO.C,C2*%
X51570000Y-104536400D03*
X51570000Y-105506400D03*
%TD*%
D19*
%TO.C,D2*%
X40240600Y-104761900D03*
X40240600Y-106861900D03*
%TD*%
D13*
%TO.C,R17*%
X71390000Y-119770000D03*
X72360000Y-119770000D03*
%TD*%
D18*
%TO.C,Rpiset1*%
X57019000Y-104561400D03*
X57019000Y-105531400D03*
%TD*%
D13*
%TO.C,R6*%
X31845000Y-103720000D03*
X32815000Y-103720000D03*
%TD*%
%TO.C,C_VC3*%
X59280000Y-92310000D03*
X60250000Y-92310000D03*
%TD*%
%TO.C,R8*%
X83325000Y-115390000D03*
X84295000Y-115390000D03*
%TD*%
%TO.C,C_VC1*%
X59710000Y-99355000D03*
X60680000Y-99355000D03*
%TD*%
%TO.C,R4*%
X37780000Y-117480000D03*
X38750000Y-117480000D03*
%TD*%
D20*
%TO.C,Lo1*%
X51800000Y-113405000D03*
X51800000Y-111455000D03*
%TD*%
D18*
%TO.C,R12*%
X60240000Y-95310000D03*
X60240000Y-96280000D03*
%TD*%
%TO.C,R10*%
X60690000Y-97335000D03*
X60690000Y-98305000D03*
%TD*%
D14*
%TO.C,C5*%
X43644200Y-106951100D03*
X43644200Y-105981100D03*
%TD*%
D21*
%TO.C,IC2*%
X65410000Y-92180000D03*
X64910000Y-92180000D03*
X64410000Y-92180000D03*
X63910000Y-92180000D03*
X63410000Y-92180000D03*
X62910000Y-92180000D03*
X62410000Y-92180000D03*
X61910000Y-92180000D03*
X61910000Y-96080000D03*
X62410000Y-96080000D03*
X62910000Y-96080000D03*
X63410000Y-96080000D03*
X63910000Y-96080000D03*
X64410000Y-96080000D03*
X64910000Y-96080000D03*
X65410000Y-96080000D03*
D22*
X63660000Y-94130000D03*
%TD*%
D13*
%TO.C,R14*%
X60675000Y-90970000D03*
X61645000Y-90970000D03*
%TD*%
%TO.C,Cldo1*%
X58504000Y-114876400D03*
X59474000Y-114876400D03*
%TD*%
%TO.C,R9*%
X83315000Y-116400000D03*
X84285000Y-116400000D03*
%TD*%
D23*
%TO.C,UART1*%
X39250000Y-114120000D03*
X40520000Y-114120000D03*
X41790000Y-114120000D03*
X43060000Y-114120000D03*
X43060000Y-108720000D03*
X41790000Y-108720000D03*
X40520000Y-108720000D03*
X39250000Y-108720000D03*
D24*
X40520000Y-112007500D03*
X41790000Y-112007500D03*
X40520000Y-110832500D03*
X41790000Y-110832500D03*
%TD*%
D14*
%TO.C,C4*%
X38767400Y-106971700D03*
X38767400Y-106001700D03*
%TD*%
D25*
%TO.C,Q4*%
X61275000Y-130025000D03*
X64325000Y-130025000D03*
X61275000Y-126675000D03*
X64325000Y-126675000D03*
D26*
X60520000Y-134650000D03*
X65080000Y-134650000D03*
%TD*%
D18*
%TO.C,RPilim1*%
X57049000Y-117251400D03*
X57049000Y-118221400D03*
%TD*%
D27*
%TO.C,U8*%
X52485000Y-93055000D03*
X53135000Y-93055000D03*
X53785000Y-93055000D03*
X54435000Y-93055000D03*
X54435000Y-88605000D03*
X53785000Y-88605000D03*
X53135000Y-88605000D03*
X52485000Y-88605000D03*
%TD*%
%TO.C,U9*%
X52530000Y-129340000D03*
X53180000Y-129340000D03*
X53830000Y-129340000D03*
X54480000Y-129340000D03*
X54480000Y-124890000D03*
X53830000Y-124890000D03*
X53180000Y-124890000D03*
X52530000Y-124890000D03*
%TD*%
D18*
%TO.C,R16*%
X56980000Y-88095000D03*
X56980000Y-89065000D03*
%TD*%
D28*
%TO.C,L1*%
X65340000Y-98710000D03*
X63040000Y-98710000D03*
%TD*%
D13*
%TO.C,R11*%
X59695000Y-100425000D03*
X60665000Y-100425000D03*
%TD*%
D29*
%TO.C,Q2*%
X55500000Y-135085000D03*
X55500000Y-133815000D03*
X55500000Y-132545000D03*
X55500000Y-131275000D03*
D30*
X52140000Y-133180000D03*
D31*
X50035000Y-135085000D03*
X50035000Y-133815000D03*
X50035000Y-132545000D03*
X50035000Y-131275000D03*
%TD*%
D13*
%TO.C,Rdpmt1*%
X58549000Y-116976400D03*
X59519000Y-116976400D03*
%TD*%
D14*
%TO.C,R15*%
X55920000Y-89060000D03*
X55920000Y-88090000D03*
%TD*%
D18*
%TO.C,C1*%
X51609000Y-117156400D03*
X51609000Y-118126400D03*
%TD*%
D32*
%TO.C,IC1*%
X70000000Y-121990000D03*
X70000000Y-121040000D03*
X70000000Y-120090000D03*
X67500000Y-120090000D03*
X67500000Y-121040000D03*
X67500000Y-121990000D03*
%TD*%
D11*
%TO.C,Cboot1*%
X56285000Y-115900000D03*
X55315000Y-115900000D03*
%TD*%
D12*
%TO.C,C_Vusb1*%
X38890000Y-118830000D03*
X38890000Y-120530000D03*
%TD*%
D33*
%TO.C,U4*%
X53021600Y-117232400D03*
X53021600Y-118182400D03*
X53021600Y-119132400D03*
X55641600Y-119132400D03*
X55641600Y-118182400D03*
X55641600Y-117232400D03*
%TD*%
D14*
%TO.C,R3*%
X37700000Y-114620000D03*
X37700000Y-113650000D03*
%TD*%
D11*
%TO.C,R1*%
X75775000Y-115000000D03*
X74805000Y-115000000D03*
%TD*%
D18*
%TO.C,R2*%
X74912500Y-117380000D03*
X74912500Y-118350000D03*
%TD*%
D12*
%TO.C,Cbat1*%
X55743200Y-108149400D03*
X54043200Y-108149400D03*
%TD*%
D18*
%TO.C,R7*%
X75982500Y-118015000D03*
X75982500Y-118985000D03*
%TD*%
D34*
%TO.C,U3*%
X78480000Y-102750000D03*
X78480000Y-105050000D03*
D35*
X84880000Y-105050000D03*
D34*
X78480000Y-107250000D03*
%TD*%
D18*
%TO.C,R19*%
X57450000Y-131525000D03*
X57450000Y-132495000D03*
%TD*%
D36*
%TO.C,Cvsys1*%
X75230000Y-107435000D03*
X75230000Y-102385000D03*
%TD*%
D37*
%TO.C,Q3*%
X42450000Y-120780000D03*
X42450000Y-118880000D03*
X40450000Y-119830000D03*
%TD*%
D11*
%TO.C,Cldoin1*%
X79115000Y-108750000D03*
X78145000Y-108750000D03*
%TD*%
D33*
%TO.C,U5*%
X53000000Y-104700000D03*
X53000000Y-105650000D03*
X53000000Y-106600000D03*
X55620000Y-106600000D03*
X55620000Y-105650000D03*
X55620000Y-104700000D03*
%TD*%
D13*
%TO.C,CVREF1*%
X52095000Y-86830000D03*
X53065000Y-86830000D03*
%TD*%
D27*
%TO.C,U2*%
X61780000Y-116300000D03*
X62430000Y-116300000D03*
X63080000Y-116300000D03*
X63730000Y-116300000D03*
X64380000Y-116300000D03*
X65030000Y-116300000D03*
X65680000Y-116300000D03*
X65680000Y-110400000D03*
X65030000Y-110400000D03*
X64380000Y-110400000D03*
X63730000Y-110400000D03*
X63080000Y-110400000D03*
X62430000Y-110400000D03*
X61780000Y-110400000D03*
%TD*%
D15*
%TO.C,BAT_SENSE1*%
X50395000Y-90885000D03*
X50395000Y-88085000D03*
%TD*%
D11*
%TO.C,C3*%
X75085000Y-116300000D03*
X74115000Y-116300000D03*
%TD*%
D19*
%TO.C,D1*%
X42171000Y-106853300D03*
X42171000Y-104753300D03*
%TD*%
D11*
%TO.C,C6*%
X64187200Y-117879000D03*
X63217200Y-117879000D03*
%TD*%
D14*
%TO.C,R13*%
X60230000Y-94310000D03*
X60230000Y-93340000D03*
%TD*%
D11*
%TO.C,Csin1*%
X54079000Y-109416400D03*
X53109000Y-109416400D03*
%TD*%
D38*
%TO.C,ATTINY1627*%
X78510000Y-115670000D03*
X78510000Y-116970000D03*
X79810000Y-115670000D03*
X79810000Y-116970000D03*
D39*
X77222500Y-115070000D03*
X77222500Y-115570000D03*
X77222500Y-116070000D03*
X77222500Y-116570000D03*
X77222500Y-117070000D03*
X77222500Y-117570000D03*
D40*
X77910000Y-118257500D03*
X78410000Y-118257500D03*
X78910000Y-118257500D03*
X79410000Y-118257500D03*
X79910000Y-118257500D03*
X80410000Y-118257500D03*
D39*
X81097500Y-117570000D03*
X81097500Y-117070000D03*
X81097500Y-116570000D03*
X81097500Y-116070000D03*
X81097500Y-115570000D03*
X81097500Y-115070000D03*
D40*
X80410000Y-114382500D03*
X79910000Y-114382500D03*
X79410000Y-114382500D03*
X78910000Y-114382500D03*
X78410000Y-114382500D03*
X77910000Y-114382500D03*
%TD*%
D11*
%TO.C,Cpmid1*%
X55685000Y-114800000D03*
X54715000Y-114800000D03*
%TD*%
M02*
